%TF.GenerationSoftware,KiCad,Pcbnew,9.0.7*%
%TF.CreationDate,2026-02-19T00:07:55-06:00*%
%TF.ProjectId,low volt board - NL  S-3C-v2,6c6f7720-766f-46c7-9420-626f61726420,rev?*%
%TF.SameCoordinates,Original*%
%TF.FileFunction,Copper,L2,Bot*%
%TF.FilePolarity,Positive*%
%FSLAX46Y46*%
G04 Gerber Fmt 4.6, Leading zero omitted, Abs format (unit mm)*
G04 Created by KiCad (PCBNEW 9.0.7) date 2026-02-19 00:07:55*
%MOMM*%
%LPD*%
G01*
G04 APERTURE LIST*
G04 Aperture macros list*
%AMRoundRect*
0 Rectangle with rounded corners*
0 $1 Rounding radius*
0 $2 $3 $4 $5 $6 $7 $8 $9 X,Y pos of 4 corners*
0 Add a 4 corners polygon primitive as box body*
4,1,4,$2,$3,$4,$5,$6,$7,$8,$9,$2,$3,0*
0 Add four circle primitives for the rounded corners*
1,1,$1+$1,$2,$3*
1,1,$1+$1,$4,$5*
1,1,$1+$1,$6,$7*
1,1,$1+$1,$8,$9*
0 Add four rect primitives between the rounded corners*
20,1,$1+$1,$2,$3,$4,$5,0*
20,1,$1+$1,$4,$5,$6,$7,0*
20,1,$1+$1,$6,$7,$8,$9,0*
20,1,$1+$1,$8,$9,$2,$3,0*%
G04 Aperture macros list end*
%TA.AperFunction,ComponentPad*%
%ADD10RoundRect,0.250000X1.050000X-1.050000X1.050000X1.050000X-1.050000X1.050000X-1.050000X-1.050000X0*%
%TD*%
%TA.AperFunction,ComponentPad*%
%ADD11C,2.600000*%
%TD*%
%TA.AperFunction,ComponentPad*%
%ADD12C,7.500000*%
%TD*%
%TA.AperFunction,ComponentPad*%
%ADD13R,1.700000X1.700000*%
%TD*%
%TA.AperFunction,ComponentPad*%
%ADD14C,1.700000*%
%TD*%
%TA.AperFunction,ComponentPad*%
%ADD15R,0.850000X0.850000*%
%TD*%
%TA.AperFunction,ComponentPad*%
%ADD16C,0.850000*%
%TD*%
%TA.AperFunction,ViaPad*%
%ADD17C,0.800000*%
%TD*%
%TA.AperFunction,ViaPad*%
%ADD18C,0.600000*%
%TD*%
%TA.AperFunction,Conductor*%
%ADD19C,0.400000*%
%TD*%
%TA.AperFunction,Conductor*%
%ADD20C,0.250000*%
%TD*%
%TA.AperFunction,Conductor*%
%ADD21C,0.500000*%
%TD*%
%TA.AperFunction,Conductor*%
%ADD22C,0.750000*%
%TD*%
G04 APERTURE END LIST*
D10*
%TO.P,J6,1,GND*%
%TO.N,GND*%
X60960000Y-58420000D03*
D11*
%TO.P,J6,2,IO1*%
%TO.N,/Opto In*%
X60960000Y-53340000D03*
%TD*%
D12*
%TO.P,H1,1*%
%TO.N,N/C*%
X64770000Y-72390000D03*
%TD*%
D10*
%TO.P,J4,1,Throw_A*%
%TO.N,/Rnet1*%
X76750000Y-78830000D03*
D11*
%TO.P,J4,2,Common*%
%TO.N,/IO17*%
X76750000Y-73750000D03*
%TO.P,J4,3,Throw_B*%
%TO.N,/Rnet2*%
X76750000Y-68670000D03*
%TD*%
D10*
%TO.P,J8,1,Pin_1*%
%TO.N,GND*%
X132672500Y-53295000D03*
D11*
%TO.P,J8,2,Pin_2*%
%TO.N,+5V*%
X132672500Y-48215000D03*
%TD*%
D10*
%TO.P,J5,1,A2-0*%
%TO.N,/A2-0-E*%
X155000000Y-103995000D03*
D11*
%TO.P,J5,2,A2-1*%
%TO.N,/A2-1-E*%
X155000000Y-98915000D03*
%TO.P,J5,3,A2-2*%
%TO.N,/A2-2-E*%
X155000000Y-93835000D03*
%TO.P,J5,4,A2-3*%
%TO.N,/A2-3-E*%
X155000000Y-88755000D03*
%TO.P,J5,5,A1-2*%
%TO.N,/A1-2-E*%
X155000000Y-83675000D03*
%TO.P,J5,6,A1-3*%
%TO.N,/A1-3-E*%
X155000000Y-78595000D03*
%TO.P,J5,7,GND*%
%TO.N,GND*%
X155000000Y-73515000D03*
%TD*%
D13*
%TO.P,J1,1,GPIO20_(D_P)*%
%TO.N,unconnected-(J1-GPIO20_(D_P)-Pad1)*%
X96760000Y-50800000D03*
D14*
%TO.P,J1,2,GPIO19_(D_N)*%
%TO.N,unconnected-(J1-GPIO19_(D_N)-Pad2)*%
X96760000Y-53340000D03*
%TO.P,J1,3,GND*%
%TO.N,GND*%
X96760000Y-55880000D03*
%TO.P,J1,4,GPIO48*%
%TO.N,/IO48*%
X96760000Y-58420000D03*
%TO.P,J1,5,GPIO47*%
%TO.N,unconnected-(J1-GPIO47-Pad5)*%
X96760000Y-60960000D03*
%TO.P,J1,6,GPIO46*%
%TO.N,unconnected-(J1-GPIO46-Pad6)*%
X96760000Y-63500000D03*
%TO.P,J1,7,GPIO45*%
%TO.N,unconnected-(J1-GPIO45-Pad7)*%
X96760000Y-66040000D03*
%TO.P,J1,8,GND*%
%TO.N,unconnected-(J1-GND-Pad8)*%
X96760000Y-68580000D03*
%TO.P,J1,9,GPIO42*%
%TO.N,unconnected-(J1-GPIO42-Pad9)*%
X96760000Y-71120000D03*
%TO.P,J1,10,GPIO41*%
%TO.N,unconnected-(J1-GPIO41-Pad10)*%
X96760000Y-73660000D03*
%TO.P,J1,11,GPIO40*%
%TO.N,unconnected-(J1-GPIO40-Pad11)*%
X96760000Y-76200000D03*
%TO.P,J1,12,GPIO39*%
%TO.N,/IO39*%
X96760000Y-78740000D03*
%TO.P,J1,13,GND*%
%TO.N,unconnected-(J1-GND-Pad13)*%
X96760000Y-81280000D03*
%TO.P,J1,14,GPIO38*%
%TO.N,/IO38 (SDO)*%
X96760000Y-83820000D03*
%TO.P,J1,15,GPIO37*%
%TO.N,/IO37*%
X96760000Y-86360000D03*
%TO.P,J1,16,GPIO36*%
%TO.N,/IO36*%
X96760000Y-88900000D03*
%TO.P,J1,17,GPIO35*%
%TO.N,/IO35*%
X96760000Y-91440000D03*
%TO.P,J1,18,GND*%
%TO.N,GND*%
X96760000Y-93980000D03*
%TO.P,J1,19,GPIO34*%
%TO.N,unconnected-(J1-GPIO34-Pad19)*%
X96760000Y-96520000D03*
%TO.P,J1,20,GPIO33*%
%TO.N,unconnected-(J1-GPIO33-Pad20)*%
X96760000Y-99060000D03*
%TO.P,J1,21,GPIO43_(UART0_TX)*%
%TO.N,/SCD*%
X114300000Y-99060000D03*
%TO.P,J1,22,GPIO44_(UART0_RX)*%
%TO.N,/SCL*%
X114300000Y-96520000D03*
%TO.P,J1,23,GND*%
%TO.N,GND*%
X114300000Y-93980000D03*
%TO.P,J1,24,GPIO0*%
%TO.N,unconnected-(J1-GPIO0-Pad24)*%
X114300000Y-91440000D03*
%TO.P,J1,25,GPIO1*%
%TO.N,/IO1*%
X114300000Y-88900000D03*
%TO.P,J1,26,GPIO2*%
%TO.N,/IO2*%
X114300000Y-86360000D03*
%TO.P,J1,27,GPIO3*%
%TO.N,/IO3*%
X114300000Y-83820000D03*
%TO.P,J1,28,GND*%
%TO.N,unconnected-(J1-GND-Pad28)*%
X114300000Y-81280000D03*
%TO.P,J1,29,GPIO15*%
%TO.N,/IO15*%
X114300000Y-78740000D03*
%TO.P,J1,30,CHIP_UP*%
%TO.N,unconnected-(J1-CHIP_UP-Pad30)*%
X114300000Y-76200000D03*
%TO.P,J1,31,GPIO18*%
%TO.N,/IO18*%
X114300000Y-73660000D03*
%TO.P,J1,32,GPIO16*%
%TO.N,/IO16*%
X114300000Y-71120000D03*
%TO.P,J1,33,GND*%
%TO.N,unconnected-(J1-GND-Pad33)*%
X114300000Y-68580000D03*
%TO.P,J1,34,GPIO17*%
%TO.N,unconnected-(J1-GPIO17-Pad34)*%
X114300000Y-66040000D03*
%TO.P,J1,35,GPIO21*%
%TO.N,/Buzer-IO21*%
X114300000Y-63500000D03*
%TO.P,J1,36,3V3*%
%TO.N,+3.3V*%
X114300000Y-60960000D03*
%TO.P,J1,37,3V3_EN*%
%TO.N,unconnected-(J1-3V3_EN-Pad37)*%
X114300000Y-58420000D03*
%TO.P,J1,38,GND*%
%TO.N,GND*%
X114300000Y-55880000D03*
%TO.P,J1,39,VSYS*%
%TO.N,unconnected-(J1-VSYS-Pad39)*%
X114300000Y-53340000D03*
%TO.P,J1,40,VBUS*%
%TO.N,+5V*%
X114300000Y-50800000D03*
%TD*%
D10*
%TO.P,J3,1,IN4*%
%TO.N,/IO3*%
X155000000Y-67000000D03*
D11*
%TO.P,J3,2,IN3*%
%TO.N,/IO15*%
X155000000Y-61920000D03*
%TO.P,J3,3,IN2*%
%TO.N,/IO18*%
X155000000Y-56840000D03*
%TO.P,J3,4,IN1*%
%TO.N,/IO16*%
X155000000Y-51760000D03*
%TO.P,J3,5,GND*%
%TO.N,GND*%
X155000000Y-46680000D03*
%TO.P,J3,6,5v*%
%TO.N,+5V*%
X155000000Y-41600000D03*
%TD*%
D15*
%TO.P,J2,1,VCC*%
%TO.N,+3.3V*%
X81280000Y-98440000D03*
D16*
%TO.P,J2,2,GND*%
%TO.N,GND*%
X81280000Y-97440000D03*
%TO.P,J2,3,CS*%
%TO.N,/IO2*%
X81280000Y-96440000D03*
%TO.P,J2,4,RESET*%
%TO.N,/IO1*%
X81280000Y-95440000D03*
%TO.P,J2,5,DC*%
%TO.N,/IO48*%
X81280000Y-94440000D03*
%TO.P,J2,6,SDI(MOSI)*%
%TO.N,/IO35*%
X81280000Y-93440000D03*
%TO.P,J2,7,SCK*%
%TO.N,/IO36*%
X81280000Y-92440000D03*
%TO.P,J2,8,LED*%
%TO.N,/IO37*%
X81280000Y-91440000D03*
%TO.P,J2,9,SDO(MISO)*%
%TO.N,/IO38 (SDO)*%
X81280000Y-90440000D03*
%TO.P,J2,10,T_CLK*%
%TO.N,/IO36*%
X81280000Y-89440000D03*
%TO.P,J2,11,T_CS*%
%TO.N,/IO39*%
X81280000Y-88440000D03*
%TO.P,J2,12,T_DIN*%
%TO.N,/IO35*%
X81280000Y-87440000D03*
%TO.P,J2,13,T_DO*%
%TO.N,/IO38 (SDO)*%
X81280000Y-86440000D03*
%TD*%
D12*
%TO.P,H2,1*%
%TO.N,N/C*%
X166370000Y-72390000D03*
%TD*%
D17*
%TO.N,/Buzzer-2*%
X126813000Y-64466100D03*
X129244600Y-63528300D03*
D18*
%TO.N,/SDA*%
X129339000Y-78335600D03*
X125992000Y-95971900D03*
X126147000Y-99932400D03*
%TO.N,/SCL*%
X126145000Y-90612100D03*
X126700000Y-77458600D03*
%TO.N,/A2-0*%
X126683000Y-98643100D03*
X126179000Y-102082000D03*
%TO.N,/IO16*%
X152129000Y-68983200D03*
%TO.N,/IO3*%
X117054000Y-69709000D03*
%TO.N,/IO18*%
X115173000Y-59876700D03*
%TO.N,/IO15*%
X116986000Y-66549700D03*
D17*
%TO.N,+3.3V*%
X88383100Y-75636300D03*
X125862000Y-78298800D03*
X94236100Y-61492300D03*
X124781000Y-94241600D03*
X117054000Y-45800400D03*
%TO.N,GND*%
X142944000Y-43684700D03*
D18*
X121920000Y-78740000D03*
D17*
X131102000Y-96986300D03*
X131895000Y-42846000D03*
X134863000Y-93367500D03*
X78740000Y-53540100D03*
X131102000Y-102676000D03*
X121950000Y-77636300D03*
D18*
X121920000Y-97790000D03*
D17*
X131070000Y-79563500D03*
X126089000Y-43036600D03*
X78468900Y-58038800D03*
X135621000Y-43684700D03*
X84180500Y-57956200D03*
X131102000Y-84361900D03*
X131102000Y-89096500D03*
X141130000Y-42974100D03*
X139991000Y-102735000D03*
X125409000Y-60572400D03*
%TD*%
D19*
%TO.N,/Buzzer-2*%
X126830000Y-64450000D02*
X126813000Y-64466100D01*
X128322900Y-64450000D02*
X126830000Y-64450000D01*
X128322900Y-64450000D02*
X129244600Y-63528300D01*
X129000000Y-64450000D02*
X128322900Y-64450000D01*
X129350000Y-64100000D02*
X129000000Y-64450000D01*
X129290000Y-64040000D02*
X129350000Y-64100000D01*
D20*
%TO.N,/SDA*%
X125992000Y-99776900D02*
X125992000Y-95971900D01*
X126147000Y-99932400D02*
X125992000Y-99776900D01*
X129339000Y-92624500D02*
X125992000Y-95971900D01*
X129339000Y-78335600D02*
X129339000Y-92624500D01*
%TO.N,/SCL*%
X126700000Y-90057100D02*
X126700000Y-77458600D01*
X126145000Y-90612100D02*
X126700000Y-90057100D01*
%TO.N,/A2-0*%
X126724000Y-98683700D02*
X126683000Y-98643100D01*
X126724000Y-101537000D02*
X126724000Y-98683700D01*
X126179000Y-102082000D02*
X126724000Y-101537000D01*
%TO.N,/IO16*%
X152129000Y-54630800D02*
X152129000Y-68983200D01*
X155000000Y-51760000D02*
X152129000Y-54630800D01*
%TO.N,/IO3*%
X117054000Y-81065800D02*
X114300000Y-83820000D01*
X117054000Y-69709000D02*
X117054000Y-81065800D01*
%TO.N,/IO18*%
X115080000Y-59783300D02*
X115173000Y-59876700D01*
X113796000Y-59783300D02*
X115080000Y-59783300D01*
X113123000Y-60456100D02*
X113796000Y-59783300D01*
X113123000Y-72483300D02*
X113123000Y-60456100D01*
X114300000Y-73660000D02*
X113123000Y-72483300D01*
%TO.N,/IO15*%
X115715000Y-77325200D02*
X114300000Y-78740000D01*
X115715000Y-67820600D02*
X115715000Y-77325200D01*
X116986000Y-66549700D02*
X115715000Y-67820600D01*
%TO.N,/IO48*%
X83424600Y-92295400D02*
X81280000Y-94440000D01*
X83424600Y-71276200D02*
X83424600Y-92295400D01*
X96280800Y-58420000D02*
X83424600Y-71276200D01*
X96760000Y-58420000D02*
X96280800Y-58420000D01*
%TO.N,/IO35*%
X81992200Y-92727800D02*
X81280000Y-93440000D01*
X81992200Y-88152200D02*
X81992200Y-92727800D01*
X81280000Y-87440000D02*
X81992200Y-88152200D01*
%TO.N,/IO38 (SDO)*%
X80574000Y-87146000D02*
X81280000Y-86440000D01*
X80574000Y-89734000D02*
X80574000Y-87146000D01*
X81280000Y-90440000D02*
X80574000Y-89734000D01*
D21*
%TO.N,+3.3V*%
X124781000Y-79380200D02*
X124781000Y-94241600D01*
X125862000Y-78298800D02*
X124781000Y-79380200D01*
X117054000Y-59137900D02*
X114766000Y-61426000D01*
X117054000Y-45800400D02*
X117054000Y-59137900D01*
X88383100Y-92213600D02*
X88383100Y-75636300D01*
X82156700Y-98440000D02*
X88383100Y-92213600D01*
X81280000Y-98440000D02*
X82156700Y-98440000D01*
X125862000Y-72522200D02*
X125862000Y-78298800D01*
X114766000Y-61426000D02*
X125862000Y-72522200D01*
X94236100Y-69783300D02*
X88383100Y-75636300D01*
X94236100Y-61492300D02*
X94236100Y-69783300D01*
X114300000Y-60960000D02*
X114766000Y-61426000D01*
D22*
%TO.N,GND*%
X122131000Y-93905700D02*
X122069000Y-93905700D01*
%TD*%
%TA.AperFunction,Conductor*%
%TO.N,GND*%
G36*
X162406288Y-36079454D02*
G01*
X162487070Y-36133430D01*
X162541046Y-36214212D01*
X162560000Y-36309500D01*
X162560000Y-71131650D01*
X162549278Y-71203931D01*
X162484711Y-71416777D01*
X162408026Y-71802302D01*
X162369500Y-72193467D01*
X162369500Y-72586532D01*
X162408026Y-72977697D01*
X162484711Y-73363222D01*
X162511333Y-73450981D01*
X162548465Y-73573389D01*
X162549278Y-73576067D01*
X162560000Y-73648348D01*
X162560000Y-108470500D01*
X162541046Y-108565788D01*
X162487070Y-108646570D01*
X162406288Y-108700546D01*
X162311000Y-108719500D01*
X54089500Y-108719500D01*
X53994212Y-108700546D01*
X53913430Y-108646570D01*
X53859454Y-108565788D01*
X53840500Y-108470500D01*
X53840500Y-102894988D01*
X153199500Y-102894988D01*
X153199500Y-105095006D01*
X153210001Y-105197800D01*
X153265185Y-105364331D01*
X153265186Y-105364334D01*
X153357288Y-105513656D01*
X153481344Y-105637712D01*
X153630666Y-105729814D01*
X153630669Y-105729815D01*
X153630667Y-105729815D01*
X153794310Y-105784040D01*
X153797203Y-105784999D01*
X153899991Y-105795500D01*
X156100008Y-105795499D01*
X156202797Y-105784999D01*
X156369334Y-105729814D01*
X156518656Y-105637712D01*
X156642712Y-105513656D01*
X156734814Y-105364334D01*
X156789999Y-105197797D01*
X156800500Y-105095009D01*
X156800499Y-102894992D01*
X156789999Y-102792203D01*
X156734814Y-102625666D01*
X156642712Y-102476344D01*
X156518656Y-102352288D01*
X156369334Y-102260186D01*
X156369332Y-102260185D01*
X156369330Y-102260184D01*
X156369332Y-102260184D01*
X156202802Y-102205002D01*
X156202798Y-102205001D01*
X156202797Y-102205001D01*
X156100009Y-102194500D01*
X156100005Y-102194500D01*
X153899993Y-102194500D01*
X153797199Y-102205001D01*
X153630667Y-102260185D01*
X153481346Y-102352286D01*
X153357286Y-102476346D01*
X153265184Y-102625668D01*
X153210002Y-102792197D01*
X153210001Y-102792204D01*
X153199500Y-102894988D01*
X53840500Y-102894988D01*
X53840500Y-87096563D01*
X80198500Y-87096563D01*
X80198500Y-87096565D01*
X80198500Y-89783435D01*
X80224090Y-89878938D01*
X80237153Y-89901563D01*
X80273524Y-89964561D01*
X80631570Y-90322607D01*
X80685546Y-90403389D01*
X80689139Y-90412572D01*
X80704500Y-90454252D01*
X80704500Y-90515766D01*
X80743719Y-90662135D01*
X80819485Y-90793365D01*
X80835306Y-90809186D01*
X80851783Y-90853895D01*
X80853577Y-90865252D01*
X80858661Y-90875561D01*
X80861107Y-90912893D01*
X80866949Y-90949859D01*
X80864261Y-90961037D01*
X80865013Y-90972508D01*
X80852984Y-91007940D01*
X80844237Y-91044322D01*
X80837477Y-91053619D01*
X80833781Y-91064507D01*
X80822594Y-91081248D01*
X80743718Y-91217866D01*
X80704500Y-91364233D01*
X80704500Y-91515766D01*
X80743718Y-91662133D01*
X80827645Y-91807499D01*
X80825663Y-91808642D01*
X80858661Y-91875561D01*
X80865013Y-91972508D01*
X80833781Y-92064507D01*
X80822594Y-92081248D01*
X80743718Y-92217866D01*
X80704500Y-92364233D01*
X80704500Y-92515766D01*
X80733628Y-92624477D01*
X80743719Y-92662135D01*
X80750527Y-92673926D01*
X80827645Y-92807499D01*
X80825663Y-92808642D01*
X80858661Y-92875561D01*
X80865013Y-92972508D01*
X80833781Y-93064507D01*
X80822594Y-93081248D01*
X80743718Y-93217866D01*
X80729092Y-93272454D01*
X80704500Y-93364234D01*
X80704500Y-93515766D01*
X80743719Y-93662135D01*
X80772047Y-93711200D01*
X80827645Y-93807499D01*
X80825663Y-93808642D01*
X80858661Y-93875561D01*
X80865013Y-93972508D01*
X80833781Y-94064507D01*
X80822594Y-94081248D01*
X80743718Y-94217866D01*
X80704500Y-94364233D01*
X80704500Y-94515766D01*
X80743718Y-94662133D01*
X80827645Y-94807499D01*
X80825663Y-94808642D01*
X80858661Y-94875561D01*
X80865013Y-94972508D01*
X80833781Y-95064507D01*
X80822594Y-95081248D01*
X80743718Y-95217866D01*
X80704500Y-95364233D01*
X80704500Y-95515766D01*
X80743718Y-95662133D01*
X80827645Y-95807499D01*
X80825663Y-95808642D01*
X80858661Y-95875561D01*
X80865013Y-95972508D01*
X80833781Y-96064507D01*
X80822594Y-96081248D01*
X80743718Y-96217866D01*
X80704500Y-96364233D01*
X80704500Y-96515766D01*
X80743718Y-96662133D01*
X80819482Y-96793361D01*
X80819483Y-96793362D01*
X80819485Y-96793365D01*
X80926635Y-96900515D01*
X81057865Y-96976281D01*
X81204234Y-97015500D01*
X81355766Y-97015500D01*
X81502135Y-96976281D01*
X81633365Y-96900515D01*
X81740515Y-96793365D01*
X81816281Y-96662135D01*
X81855500Y-96515766D01*
X81855500Y-96364234D01*
X81840945Y-96309915D01*
X81816281Y-96217866D01*
X81816281Y-96217865D01*
X81740515Y-96086635D01*
X81732355Y-96072501D01*
X81734337Y-96071356D01*
X81701343Y-96004458D01*
X81694984Y-95907511D01*
X81726209Y-95815510D01*
X81737398Y-95798763D01*
X81740515Y-95793365D01*
X81816281Y-95662135D01*
X81855500Y-95515766D01*
X81855500Y-95364234D01*
X81847741Y-95335278D01*
X81816281Y-95217866D01*
X81816281Y-95217865D01*
X81761279Y-95122599D01*
X81732355Y-95072501D01*
X81734337Y-95071356D01*
X81701343Y-95004458D01*
X81694984Y-94907511D01*
X81708216Y-94853895D01*
X81724692Y-94809187D01*
X81740515Y-94793365D01*
X81816281Y-94662135D01*
X81855500Y-94515766D01*
X81855500Y-94454251D01*
X81870861Y-94412571D01*
X81873477Y-94408298D01*
X81874454Y-94403388D01*
X81898754Y-94367019D01*
X81921597Y-94329716D01*
X81925646Y-94326771D01*
X81928427Y-94322609D01*
X83725074Y-92525963D01*
X83727988Y-92520916D01*
X83727989Y-92520915D01*
X83752530Y-92478408D01*
X83774510Y-92440338D01*
X83800100Y-92344835D01*
X83800100Y-71534876D01*
X83819054Y-71439588D01*
X83873028Y-71358808D01*
X93310530Y-61921305D01*
X93391312Y-61867330D01*
X93486600Y-61848376D01*
X93581888Y-61867330D01*
X93662670Y-61921306D01*
X93716646Y-62002088D01*
X93735600Y-62097376D01*
X93735600Y-69472846D01*
X93716646Y-69568134D01*
X93662670Y-69648916D01*
X88380872Y-74930713D01*
X88300090Y-74984689D01*
X88253383Y-74998858D01*
X88193356Y-75010798D01*
X88074977Y-75059832D01*
X88074972Y-75059835D01*
X87968434Y-75131021D01*
X87877821Y-75221634D01*
X87806635Y-75328172D01*
X87806632Y-75328177D01*
X87757598Y-75446557D01*
X87732600Y-75572228D01*
X87732600Y-75700371D01*
X87757598Y-75826042D01*
X87806632Y-75944422D01*
X87806635Y-75944427D01*
X87840636Y-75995313D01*
X87877816Y-76085072D01*
X87882600Y-76133650D01*
X87882600Y-91903146D01*
X87863646Y-91998434D01*
X87809670Y-92079216D01*
X82059239Y-97829646D01*
X81978457Y-97883622D01*
X81883169Y-97902576D01*
X81787881Y-97883622D01*
X81784711Y-97881927D01*
X81763719Y-97873231D01*
X81719822Y-97864500D01*
X81719820Y-97864500D01*
X80840180Y-97864500D01*
X80840177Y-97864500D01*
X80796280Y-97873231D01*
X80746497Y-97906495D01*
X80746495Y-97906497D01*
X80713231Y-97956280D01*
X80704500Y-98000177D01*
X80704500Y-98879822D01*
X80713231Y-98923719D01*
X80713232Y-98923721D01*
X80713233Y-98923722D01*
X80746496Y-98973504D01*
X80796278Y-99006767D01*
X80796280Y-99006768D01*
X80822571Y-99011997D01*
X80840178Y-99015499D01*
X80840179Y-99015500D01*
X80840180Y-99015500D01*
X81719821Y-99015500D01*
X81719821Y-99015499D01*
X81746113Y-99010269D01*
X81763719Y-99006768D01*
X81763719Y-99006767D01*
X81763722Y-99006767D01*
X81800097Y-98982462D01*
X81889855Y-98945284D01*
X81938431Y-98940500D01*
X82222592Y-98940500D01*
X82349886Y-98906392D01*
X82464014Y-98840500D01*
X88690411Y-92614101D01*
X88690414Y-92614100D01*
X88783600Y-92520914D01*
X88849492Y-92406786D01*
X88883600Y-92279492D01*
X88883600Y-76133650D01*
X88902554Y-76038362D01*
X88911939Y-76015704D01*
X88959565Y-75944427D01*
X89008601Y-75826044D01*
X89025326Y-75741963D01*
X89034710Y-75719309D01*
X89048335Y-75698916D01*
X89057720Y-75676261D01*
X89088681Y-75638532D01*
X94636600Y-70090614D01*
X94702492Y-69976486D01*
X94736600Y-69849192D01*
X94736600Y-69717408D01*
X94736600Y-61989650D01*
X94755554Y-61894362D01*
X94778564Y-61851313D01*
X94812565Y-61800427D01*
X94861601Y-61682044D01*
X94886600Y-61556369D01*
X94886600Y-61428231D01*
X94861601Y-61302556D01*
X94812565Y-61184173D01*
X94741376Y-61077631D01*
X94650769Y-60987024D01*
X94650765Y-60987021D01*
X94650764Y-60987020D01*
X94641311Y-60979262D01*
X94643403Y-60976712D01*
X94590932Y-60924196D01*
X94553791Y-60834421D01*
X94553832Y-60737266D01*
X94591050Y-60647522D01*
X94621952Y-60609883D01*
X95851777Y-59380058D01*
X95932556Y-59326085D01*
X96027844Y-59307131D01*
X96123132Y-59326085D01*
X96137234Y-59332446D01*
X96156681Y-59341956D01*
X96183212Y-59361232D01*
X96337555Y-59439873D01*
X96395216Y-59458608D01*
X96410975Y-59466315D01*
X96435926Y-59485330D01*
X96463298Y-59500659D01*
X96474219Y-59514513D01*
X96488248Y-59525204D01*
X96504022Y-59552318D01*
X96523446Y-59576957D01*
X96528234Y-59593934D01*
X96537104Y-59609181D01*
X96541301Y-59640270D01*
X96549817Y-59670464D01*
X96547743Y-59687981D01*
X96550104Y-59705462D01*
X96542085Y-59735790D01*
X96538398Y-59766945D01*
X96529779Y-59782335D01*
X96525270Y-59799390D01*
X96506254Y-59824341D01*
X96490926Y-59851713D01*
X96477071Y-59862634D01*
X96466381Y-59876663D01*
X96439266Y-59892437D01*
X96414628Y-59911861D01*
X96384257Y-59924440D01*
X96382404Y-59925519D01*
X96381291Y-59925669D01*
X96378530Y-59926813D01*
X96337562Y-59940124D01*
X96337556Y-59940126D01*
X96183207Y-60018770D01*
X96043077Y-60120581D01*
X95920581Y-60243077D01*
X95818770Y-60383207D01*
X95740126Y-60537556D01*
X95740124Y-60537562D01*
X95686597Y-60702302D01*
X95659501Y-60873378D01*
X95659500Y-60873393D01*
X95659500Y-61046606D01*
X95659501Y-61046621D01*
X95686597Y-61217697D01*
X95740124Y-61382437D01*
X95740126Y-61382443D01*
X95818770Y-61536792D01*
X95920581Y-61676922D01*
X95920583Y-61676924D01*
X95920586Y-61676928D01*
X96043072Y-61799414D01*
X96043075Y-61799416D01*
X96043077Y-61799418D01*
X96183207Y-61901229D01*
X96183209Y-61901230D01*
X96183212Y-61901232D01*
X96337555Y-61979873D01*
X96356846Y-61986141D01*
X96378530Y-61993187D01*
X96463298Y-62040659D01*
X96523446Y-62116957D01*
X96549817Y-62210464D01*
X96538398Y-62306945D01*
X96490926Y-62391713D01*
X96414628Y-62451861D01*
X96378530Y-62466813D01*
X96337562Y-62480124D01*
X96337556Y-62480126D01*
X96183207Y-62558770D01*
X96043077Y-62660581D01*
X95920581Y-62783077D01*
X95818770Y-62923207D01*
X95740126Y-63077556D01*
X95740124Y-63077562D01*
X95686597Y-63242302D01*
X95659501Y-63413378D01*
X95659500Y-63413393D01*
X95659500Y-63586606D01*
X95659501Y-63586621D01*
X95686597Y-63757697D01*
X95740124Y-63922437D01*
X95740126Y-63922443D01*
X95818770Y-64076792D01*
X95920581Y-64216922D01*
X95920583Y-64216924D01*
X95920586Y-64216928D01*
X96043072Y-64339414D01*
X96043075Y-64339416D01*
X96043077Y-64339418D01*
X96183207Y-64441229D01*
X96183209Y-64441230D01*
X96183212Y-64441232D01*
X96337555Y-64519873D01*
X96356846Y-64526141D01*
X96378530Y-64533187D01*
X96463298Y-64580659D01*
X96523446Y-64656957D01*
X96549817Y-64750464D01*
X96538398Y-64846945D01*
X96490926Y-64931713D01*
X96414628Y-64991861D01*
X96378530Y-65006813D01*
X96337562Y-65020124D01*
X96337556Y-65020126D01*
X96183207Y-65098770D01*
X96043077Y-65200581D01*
X95920581Y-65323077D01*
X95818770Y-65463207D01*
X95740126Y-65617556D01*
X95740124Y-65617562D01*
X95686597Y-65782302D01*
X95659501Y-65953378D01*
X95659500Y-65953393D01*
X95659500Y-66126606D01*
X95659501Y-66126621D01*
X95686597Y-66297697D01*
X95740124Y-66462437D01*
X95740126Y-66462443D01*
X95818770Y-66616792D01*
X95920581Y-66756922D01*
X95920583Y-66756924D01*
X95920586Y-66756928D01*
X96043072Y-66879414D01*
X96043075Y-66879416D01*
X96043077Y-66879418D01*
X96183207Y-66981229D01*
X96183209Y-66981230D01*
X96183212Y-66981232D01*
X96337555Y-67059873D01*
X96356846Y-67066141D01*
X96378530Y-67073187D01*
X96463298Y-67120659D01*
X96523446Y-67196957D01*
X96549817Y-67290464D01*
X96538398Y-67386945D01*
X96490926Y-67471713D01*
X96414628Y-67531861D01*
X96378530Y-67546813D01*
X96337562Y-67560124D01*
X96337556Y-67560126D01*
X96183207Y-67638770D01*
X96043077Y-67740581D01*
X95920581Y-67863077D01*
X95818770Y-68003207D01*
X95740126Y-68157556D01*
X95740124Y-68157562D01*
X95686597Y-68322302D01*
X95659501Y-68493378D01*
X95659500Y-68493393D01*
X95659500Y-68666606D01*
X95659501Y-68666621D01*
X95686597Y-68837697D01*
X95740124Y-69002437D01*
X95740126Y-69002443D01*
X95818770Y-69156792D01*
X95920581Y-69296922D01*
X95920583Y-69296924D01*
X95920586Y-69296928D01*
X96043072Y-69419414D01*
X96043075Y-69419416D01*
X96043077Y-69419418D01*
X96183207Y-69521229D01*
X96183209Y-69521230D01*
X96183212Y-69521232D01*
X96337555Y-69599873D01*
X96356846Y-69606141D01*
X96378530Y-69613187D01*
X96463298Y-69660659D01*
X96523446Y-69736957D01*
X96549817Y-69830464D01*
X96538398Y-69926945D01*
X96490926Y-70011713D01*
X96414628Y-70071861D01*
X96378530Y-70086813D01*
X96337562Y-70100124D01*
X96337556Y-70100126D01*
X96183207Y-70178770D01*
X96043077Y-70280581D01*
X95920581Y-70403077D01*
X95818770Y-70543207D01*
X95740126Y-70697556D01*
X95740124Y-70697562D01*
X95686597Y-70862302D01*
X95659501Y-71033378D01*
X95659500Y-71033393D01*
X95659500Y-71206606D01*
X95659501Y-71206621D01*
X95662692Y-71226765D01*
X95686598Y-71377701D01*
X95709503Y-71448195D01*
X95740124Y-71542437D01*
X95740126Y-71542443D01*
X95818770Y-71696792D01*
X95920581Y-71836922D01*
X95920583Y-71836924D01*
X95920586Y-71836928D01*
X96043072Y-71959414D01*
X96043075Y-71959416D01*
X96043077Y-71959418D01*
X96183207Y-72061229D01*
X96183209Y-72061230D01*
X96183212Y-72061232D01*
X96337555Y-72139873D01*
X96356846Y-72146141D01*
X96378530Y-72153187D01*
X96463298Y-72200659D01*
X96523446Y-72276957D01*
X96549817Y-72370464D01*
X96538398Y-72466945D01*
X96490926Y-72551713D01*
X96414628Y-72611861D01*
X96378530Y-72626813D01*
X96337562Y-72640124D01*
X96337556Y-72640126D01*
X96183207Y-72718770D01*
X96043077Y-72820581D01*
X95920581Y-72943077D01*
X95818770Y-73083207D01*
X95740126Y-73237556D01*
X95740124Y-73237562D01*
X95686597Y-73402302D01*
X95659501Y-73573378D01*
X95659500Y-73573393D01*
X95659500Y-73746606D01*
X95659501Y-73746621D01*
X95679363Y-73872024D01*
X95686598Y-73917701D01*
X95740127Y-74082445D01*
X95746442Y-74094839D01*
X95818770Y-74236792D01*
X95920581Y-74376922D01*
X95920583Y-74376924D01*
X95920586Y-74376928D01*
X96043072Y-74499414D01*
X96043075Y-74499416D01*
X96043077Y-74499418D01*
X96183207Y-74601229D01*
X96183209Y-74601230D01*
X96183212Y-74601232D01*
X96337555Y-74679873D01*
X96356846Y-74686141D01*
X96378530Y-74693187D01*
X96463298Y-74740659D01*
X96523446Y-74816957D01*
X96549817Y-74910464D01*
X96538398Y-75006945D01*
X96490926Y-75091713D01*
X96414628Y-75151861D01*
X96378530Y-75166813D01*
X96337562Y-75180124D01*
X96337556Y-75180126D01*
X96183207Y-75258770D01*
X96043077Y-75360581D01*
X95920581Y-75483077D01*
X95818770Y-75623207D01*
X95740126Y-75777556D01*
X95740124Y-75777562D01*
X95686597Y-75942302D01*
X95659501Y-76113378D01*
X95659500Y-76113393D01*
X95659500Y-76286606D01*
X95659501Y-76286621D01*
X95686597Y-76457697D01*
X95740124Y-76622437D01*
X95740126Y-76622443D01*
X95818770Y-76776792D01*
X95920581Y-76916922D01*
X95920583Y-76916924D01*
X95920586Y-76916928D01*
X96043072Y-77039414D01*
X96043075Y-77039416D01*
X96043077Y-77039418D01*
X96183207Y-77141229D01*
X96183209Y-77141230D01*
X96183212Y-77141232D01*
X96337555Y-77219873D01*
X96356846Y-77226141D01*
X96378530Y-77233187D01*
X96463298Y-77280659D01*
X96523446Y-77356957D01*
X96549817Y-77450464D01*
X96538398Y-77546945D01*
X96490926Y-77631713D01*
X96414628Y-77691861D01*
X96378530Y-77706813D01*
X96337562Y-77720124D01*
X96337556Y-77720126D01*
X96183207Y-77798770D01*
X96043077Y-77900581D01*
X95920581Y-78023077D01*
X95818770Y-78163207D01*
X95740126Y-78317556D01*
X95740124Y-78317562D01*
X95686597Y-78482302D01*
X95659501Y-78653378D01*
X95659500Y-78653393D01*
X95659500Y-78826606D01*
X95659501Y-78826621D01*
X95681262Y-78964011D01*
X95686598Y-78997701D01*
X95698756Y-79035119D01*
X95740124Y-79162437D01*
X95740126Y-79162443D01*
X95818770Y-79316792D01*
X95920581Y-79456922D01*
X95920583Y-79456924D01*
X95920586Y-79456928D01*
X96043072Y-79579414D01*
X96043075Y-79579416D01*
X96043077Y-79579418D01*
X96183207Y-79681229D01*
X96183209Y-79681230D01*
X96183212Y-79681232D01*
X96337555Y-79759873D01*
X96356846Y-79766141D01*
X96378530Y-79773187D01*
X96463298Y-79820659D01*
X96523446Y-79896957D01*
X96549817Y-79990464D01*
X96538398Y-80086945D01*
X96490926Y-80171713D01*
X96414628Y-80231861D01*
X96378530Y-80246813D01*
X96337562Y-80260124D01*
X96337556Y-80260126D01*
X96183207Y-80338770D01*
X96043077Y-80440581D01*
X95920581Y-80563077D01*
X95818770Y-80703207D01*
X95740126Y-80857556D01*
X95740124Y-80857562D01*
X95686597Y-81022302D01*
X95659501Y-81193378D01*
X95659500Y-81193393D01*
X95659500Y-81366606D01*
X95659501Y-81366621D01*
X95686597Y-81537697D01*
X95740124Y-81702437D01*
X95740126Y-81702443D01*
X95818770Y-81856792D01*
X95920581Y-81996922D01*
X95920583Y-81996924D01*
X95920586Y-81996928D01*
X96043072Y-82119414D01*
X96043075Y-82119416D01*
X96043077Y-82119418D01*
X96183207Y-82221229D01*
X96183209Y-82221230D01*
X96183212Y-82221232D01*
X96337555Y-82299873D01*
X96356846Y-82306141D01*
X96378530Y-82313187D01*
X96463298Y-82360659D01*
X96523446Y-82436957D01*
X96549817Y-82530464D01*
X96538398Y-82626945D01*
X96490926Y-82711713D01*
X96414628Y-82771861D01*
X96378530Y-82786813D01*
X96337562Y-82800124D01*
X96337556Y-82800126D01*
X96183207Y-82878770D01*
X96043077Y-82980581D01*
X95920581Y-83103077D01*
X95818770Y-83243207D01*
X95740126Y-83397556D01*
X95740124Y-83397562D01*
X95686597Y-83562302D01*
X95659501Y-83733378D01*
X95659500Y-83733393D01*
X95659500Y-83906606D01*
X95659501Y-83906621D01*
X95686597Y-84077697D01*
X95740124Y-84242437D01*
X95740126Y-84242443D01*
X95818770Y-84396792D01*
X95920581Y-84536922D01*
X95920583Y-84536924D01*
X95920586Y-84536928D01*
X96043072Y-84659414D01*
X96043075Y-84659416D01*
X96043077Y-84659418D01*
X96183207Y-84761229D01*
X96183209Y-84761230D01*
X96183212Y-84761232D01*
X96337555Y-84839873D01*
X96356846Y-84846141D01*
X96378530Y-84853187D01*
X96463298Y-84900659D01*
X96523446Y-84976957D01*
X96549817Y-85070464D01*
X96538398Y-85166945D01*
X96490926Y-85251713D01*
X96414628Y-85311861D01*
X96378530Y-85326813D01*
X96337562Y-85340124D01*
X96337556Y-85340126D01*
X96183207Y-85418770D01*
X96043077Y-85520581D01*
X95920581Y-85643077D01*
X95818770Y-85783207D01*
X95740126Y-85937556D01*
X95740124Y-85937562D01*
X95686597Y-86102302D01*
X95659501Y-86273378D01*
X95659500Y-86273393D01*
X95659500Y-86446606D01*
X95659501Y-86446621D01*
X95686597Y-86617697D01*
X95740124Y-86782437D01*
X95740126Y-86782443D01*
X95818770Y-86936792D01*
X95920581Y-87076922D01*
X95920583Y-87076924D01*
X95920586Y-87076928D01*
X96043072Y-87199414D01*
X96043075Y-87199416D01*
X96043077Y-87199418D01*
X96183207Y-87301229D01*
X96183209Y-87301230D01*
X96183212Y-87301232D01*
X96337555Y-87379873D01*
X96356846Y-87386141D01*
X96378530Y-87393187D01*
X96463298Y-87440659D01*
X96523446Y-87516957D01*
X96549817Y-87610464D01*
X96538398Y-87706945D01*
X96490926Y-87791713D01*
X96414628Y-87851861D01*
X96378530Y-87866813D01*
X96337562Y-87880124D01*
X96337556Y-87880126D01*
X96183207Y-87958770D01*
X96043077Y-88060581D01*
X95920581Y-88183077D01*
X95818770Y-88323207D01*
X95740126Y-88477556D01*
X95740124Y-88477562D01*
X95686597Y-88642302D01*
X95659501Y-88813378D01*
X95659500Y-88813393D01*
X95659500Y-88986606D01*
X95659501Y-88986621D01*
X95686597Y-89157697D01*
X95740124Y-89322437D01*
X95740126Y-89322443D01*
X95818770Y-89476792D01*
X95920581Y-89616922D01*
X95920583Y-89616924D01*
X95920586Y-89616928D01*
X96043072Y-89739414D01*
X96043075Y-89739416D01*
X96043077Y-89739418D01*
X96183207Y-89841229D01*
X96183209Y-89841230D01*
X96183212Y-89841232D01*
X96337555Y-89919873D01*
X96356846Y-89926141D01*
X96378530Y-89933187D01*
X96463298Y-89980659D01*
X96523446Y-90056957D01*
X96549817Y-90150464D01*
X96538398Y-90246945D01*
X96490926Y-90331713D01*
X96414628Y-90391861D01*
X96378530Y-90406813D01*
X96337562Y-90420124D01*
X96337556Y-90420126D01*
X96183207Y-90498770D01*
X96043077Y-90600581D01*
X95920581Y-90723077D01*
X95818770Y-90863207D01*
X95740126Y-91017556D01*
X95740124Y-91017562D01*
X95686597Y-91182302D01*
X95659501Y-91353378D01*
X95659500Y-91353393D01*
X95659500Y-91526606D01*
X95659501Y-91526621D01*
X95686597Y-91697697D01*
X95740124Y-91862437D01*
X95740126Y-91862443D01*
X95818770Y-92016792D01*
X95920581Y-92156922D01*
X95920583Y-92156924D01*
X95920586Y-92156928D01*
X96043072Y-92279414D01*
X96043075Y-92279416D01*
X96043079Y-92279420D01*
X96043082Y-92279422D01*
X96159899Y-92364295D01*
X96225848Y-92435638D01*
X96259475Y-92526788D01*
X96255661Y-92623868D01*
X96214986Y-92712098D01*
X96143643Y-92778047D01*
X96126586Y-92787600D01*
X96052450Y-92825374D01*
X96052441Y-92825380D01*
X95998281Y-92864728D01*
X96630591Y-93497037D01*
X96567007Y-93514075D01*
X96452993Y-93579901D01*
X96359901Y-93672993D01*
X96294075Y-93787007D01*
X96277037Y-93850590D01*
X95644728Y-93218281D01*
X95605380Y-93272441D01*
X95605372Y-93272454D01*
X95508908Y-93461774D01*
X95508904Y-93461784D01*
X95443241Y-93663876D01*
X95410000Y-93873743D01*
X95410000Y-94086256D01*
X95443241Y-94296123D01*
X95508904Y-94498215D01*
X95508908Y-94498225D01*
X95605371Y-94687545D01*
X95605375Y-94687551D01*
X95644729Y-94741717D01*
X96277037Y-94109408D01*
X96294075Y-94172993D01*
X96359901Y-94287007D01*
X96452993Y-94380099D01*
X96567007Y-94445925D01*
X96630589Y-94462962D01*
X95998282Y-95095269D01*
X95998282Y-95095270D01*
X96052445Y-95134622D01*
X96126584Y-95172398D01*
X96202882Y-95232546D01*
X96250354Y-95317313D01*
X96261773Y-95413795D01*
X96235402Y-95507302D01*
X96175254Y-95583600D01*
X96159900Y-95595704D01*
X96043078Y-95680580D01*
X95920581Y-95803077D01*
X95818770Y-95943207D01*
X95740126Y-96097556D01*
X95740124Y-96097562D01*
X95686597Y-96262302D01*
X95659501Y-96433378D01*
X95659500Y-96433393D01*
X95659500Y-96606606D01*
X95659501Y-96606621D01*
X95668294Y-96662135D01*
X95686598Y-96777701D01*
X95691688Y-96793365D01*
X95740124Y-96942437D01*
X95740126Y-96942443D01*
X95818770Y-97096792D01*
X95920581Y-97236922D01*
X95920583Y-97236924D01*
X95920586Y-97236928D01*
X96043072Y-97359414D01*
X96043075Y-97359416D01*
X96043077Y-97359418D01*
X96183207Y-97461229D01*
X96183209Y-97461230D01*
X96183212Y-97461232D01*
X96337555Y-97539873D01*
X96356846Y-97546141D01*
X96378530Y-97553187D01*
X96463298Y-97600659D01*
X96523446Y-97676957D01*
X96549817Y-97770464D01*
X96538398Y-97866945D01*
X96490926Y-97951713D01*
X96414628Y-98011861D01*
X96378530Y-98026813D01*
X96337562Y-98040124D01*
X96337556Y-98040126D01*
X96183207Y-98118770D01*
X96043077Y-98220581D01*
X95920581Y-98343077D01*
X95818770Y-98483207D01*
X95740126Y-98637556D01*
X95740124Y-98637562D01*
X95686597Y-98802302D01*
X95659501Y-98973378D01*
X95659500Y-98973393D01*
X95659500Y-99146606D01*
X95659501Y-99146621D01*
X95686597Y-99317697D01*
X95740124Y-99482437D01*
X95740126Y-99482443D01*
X95818770Y-99636792D01*
X95920581Y-99776922D01*
X95920583Y-99776924D01*
X95920586Y-99776928D01*
X96043072Y-99899414D01*
X96043075Y-99899416D01*
X96043077Y-99899418D01*
X96183207Y-100001229D01*
X96183209Y-100001230D01*
X96183212Y-100001232D01*
X96337555Y-100079873D01*
X96502299Y-100133402D01*
X96673389Y-100160500D01*
X96673393Y-100160500D01*
X96846607Y-100160500D01*
X96846611Y-100160500D01*
X97017701Y-100133402D01*
X97182445Y-100079873D01*
X97336788Y-100001232D01*
X97476928Y-99899414D01*
X97599414Y-99776928D01*
X97701232Y-99636788D01*
X97779873Y-99482445D01*
X97833402Y-99317701D01*
X97860500Y-99146611D01*
X97860500Y-98973389D01*
X97833402Y-98802299D01*
X97779873Y-98637555D01*
X97701232Y-98483212D01*
X97701230Y-98483209D01*
X97701229Y-98483207D01*
X97599418Y-98343077D01*
X97599416Y-98343075D01*
X97599414Y-98343072D01*
X97476928Y-98220586D01*
X97476924Y-98220583D01*
X97476922Y-98220581D01*
X97336792Y-98118770D01*
X97182443Y-98040126D01*
X97182434Y-98040122D01*
X97141470Y-98026813D01*
X97056702Y-97979342D01*
X96996554Y-97903045D01*
X96970182Y-97809538D01*
X96981601Y-97713056D01*
X97029072Y-97628288D01*
X97105369Y-97568140D01*
X97141470Y-97553187D01*
X97182434Y-97539877D01*
X97182437Y-97539875D01*
X97182445Y-97539873D01*
X97336788Y-97461232D01*
X97476928Y-97359414D01*
X97599414Y-97236928D01*
X97701232Y-97096788D01*
X97779873Y-96942445D01*
X97833402Y-96777701D01*
X97860500Y-96606611D01*
X97860500Y-96433389D01*
X97833402Y-96262299D01*
X97779873Y-96097555D01*
X97701232Y-95943212D01*
X97701230Y-95943209D01*
X97701229Y-95943207D01*
X97599418Y-95803077D01*
X97599416Y-95803075D01*
X97599414Y-95803072D01*
X97476928Y-95680586D01*
X97476924Y-95680583D01*
X97476922Y-95680581D01*
X97360099Y-95595704D01*
X97294150Y-95524361D01*
X97260524Y-95433211D01*
X97264338Y-95336131D01*
X97305013Y-95247900D01*
X97376356Y-95181951D01*
X97393415Y-95172398D01*
X97467553Y-95134622D01*
X97521716Y-95095270D01*
X96889408Y-94462962D01*
X96952993Y-94445925D01*
X97067007Y-94380099D01*
X97160099Y-94287007D01*
X97225925Y-94172993D01*
X97242962Y-94109408D01*
X97875270Y-94741716D01*
X97914624Y-94687551D01*
X98011091Y-94498224D01*
X98011095Y-94498215D01*
X98076758Y-94296123D01*
X98109999Y-94086256D01*
X98110000Y-94086244D01*
X98110000Y-93873755D01*
X98109999Y-93873743D01*
X98076758Y-93663876D01*
X98011095Y-93461784D01*
X98011091Y-93461774D01*
X97914624Y-93272448D01*
X97875270Y-93218282D01*
X97875269Y-93218282D01*
X97242962Y-93850589D01*
X97225925Y-93787007D01*
X97160099Y-93672993D01*
X97067007Y-93579901D01*
X96952993Y-93514075D01*
X96889408Y-93497037D01*
X97521717Y-92864729D01*
X97467551Y-92825375D01*
X97467544Y-92825371D01*
X97393414Y-92787600D01*
X97317117Y-92727452D01*
X97269645Y-92642685D01*
X97258226Y-92546203D01*
X97284598Y-92452696D01*
X97344746Y-92376399D01*
X97360087Y-92364304D01*
X97476928Y-92279414D01*
X97599414Y-92156928D01*
X97701232Y-92016788D01*
X97779873Y-91862445D01*
X97833402Y-91697701D01*
X97860500Y-91526611D01*
X97860500Y-91353389D01*
X97833402Y-91182299D01*
X97779873Y-91017555D01*
X97701232Y-90863212D01*
X97701230Y-90863209D01*
X97701229Y-90863207D01*
X97599418Y-90723077D01*
X97599416Y-90723075D01*
X97599414Y-90723072D01*
X97476928Y-90600586D01*
X97476924Y-90600583D01*
X97476922Y-90600581D01*
X97336792Y-90498770D01*
X97182443Y-90420126D01*
X97182434Y-90420122D01*
X97141470Y-90406813D01*
X97056702Y-90359342D01*
X96996554Y-90283045D01*
X96970182Y-90189538D01*
X96981601Y-90093056D01*
X97029072Y-90008288D01*
X97105369Y-89948140D01*
X97141470Y-89933187D01*
X97182434Y-89919877D01*
X97182437Y-89919875D01*
X97182445Y-89919873D01*
X97336788Y-89841232D01*
X97476928Y-89739414D01*
X97599414Y-89616928D01*
X97701232Y-89476788D01*
X97779873Y-89322445D01*
X97833402Y-89157701D01*
X97860500Y-88986611D01*
X97860500Y-88813389D01*
X97833402Y-88642299D01*
X97779873Y-88477555D01*
X97701232Y-88323212D01*
X97701230Y-88323209D01*
X97701229Y-88323207D01*
X97599418Y-88183077D01*
X97599416Y-88183075D01*
X97599414Y-88183072D01*
X97476928Y-88060586D01*
X97476924Y-88060583D01*
X97476922Y-88060581D01*
X97336792Y-87958770D01*
X97182443Y-87880126D01*
X97182434Y-87880122D01*
X97141470Y-87866813D01*
X97056702Y-87819342D01*
X96996554Y-87743045D01*
X96970182Y-87649538D01*
X96981601Y-87553056D01*
X97029072Y-87468288D01*
X97105369Y-87408140D01*
X97141470Y-87393187D01*
X97182434Y-87379877D01*
X97182437Y-87379875D01*
X97182445Y-87379873D01*
X97336788Y-87301232D01*
X97476928Y-87199414D01*
X97599414Y-87076928D01*
X97701232Y-86936788D01*
X97779873Y-86782445D01*
X97833402Y-86617701D01*
X97860500Y-86446611D01*
X97860500Y-86273389D01*
X97833402Y-86102299D01*
X97779873Y-85937555D01*
X97701232Y-85783212D01*
X97701230Y-85783209D01*
X97701229Y-85783207D01*
X97599418Y-85643077D01*
X97599416Y-85643075D01*
X97599414Y-85643072D01*
X97476928Y-85520586D01*
X97476924Y-85520583D01*
X97476922Y-85520581D01*
X97336792Y-85418770D01*
X97182443Y-85340126D01*
X97182434Y-85340122D01*
X97141470Y-85326813D01*
X97056702Y-85279342D01*
X96996554Y-85203045D01*
X96970182Y-85109538D01*
X96981601Y-85013056D01*
X97029072Y-84928288D01*
X97105369Y-84868140D01*
X97141470Y-84853187D01*
X97182434Y-84839877D01*
X97182437Y-84839875D01*
X97182445Y-84839873D01*
X97336788Y-84761232D01*
X97476928Y-84659414D01*
X97599414Y-84536928D01*
X97701232Y-84396788D01*
X97779873Y-84242445D01*
X97833402Y-84077701D01*
X97860500Y-83906611D01*
X97860500Y-83733389D01*
X97833402Y-83562299D01*
X97779873Y-83397555D01*
X97701232Y-83243212D01*
X97701230Y-83243209D01*
X97701229Y-83243207D01*
X97599418Y-83103077D01*
X97599416Y-83103075D01*
X97599414Y-83103072D01*
X97476928Y-82980586D01*
X97476924Y-82980583D01*
X97476922Y-82980581D01*
X97336792Y-82878770D01*
X97182443Y-82800126D01*
X97182434Y-82800122D01*
X97141470Y-82786813D01*
X97056702Y-82739342D01*
X96996554Y-82663045D01*
X96970182Y-82569538D01*
X96981601Y-82473056D01*
X97029072Y-82388288D01*
X97105369Y-82328140D01*
X97141470Y-82313187D01*
X97182434Y-82299877D01*
X97182437Y-82299875D01*
X97182445Y-82299873D01*
X97336788Y-82221232D01*
X97476928Y-82119414D01*
X97599414Y-81996928D01*
X97701232Y-81856788D01*
X97779873Y-81702445D01*
X97833402Y-81537701D01*
X97860500Y-81366611D01*
X97860500Y-81193389D01*
X97833402Y-81022299D01*
X97779873Y-80857555D01*
X97701232Y-80703212D01*
X97701230Y-80703209D01*
X97701229Y-80703207D01*
X97599418Y-80563077D01*
X97599416Y-80563075D01*
X97599414Y-80563072D01*
X97476928Y-80440586D01*
X97476924Y-80440583D01*
X97476922Y-80440581D01*
X97336792Y-80338770D01*
X97182443Y-80260126D01*
X97182434Y-80260122D01*
X97141470Y-80246813D01*
X97056702Y-80199342D01*
X96996554Y-80123045D01*
X96970182Y-80029538D01*
X96981601Y-79933056D01*
X97029072Y-79848288D01*
X97105369Y-79788140D01*
X97141470Y-79773187D01*
X97182434Y-79759877D01*
X97182437Y-79759875D01*
X97182445Y-79759873D01*
X97336788Y-79681232D01*
X97476928Y-79579414D01*
X97599414Y-79456928D01*
X97701232Y-79316788D01*
X97779873Y-79162445D01*
X97833402Y-78997701D01*
X97860500Y-78826611D01*
X97860500Y-78653389D01*
X97833402Y-78482299D01*
X97779873Y-78317555D01*
X97701232Y-78163212D01*
X97701230Y-78163209D01*
X97701229Y-78163207D01*
X97599418Y-78023077D01*
X97599416Y-78023075D01*
X97599414Y-78023072D01*
X97476928Y-77900586D01*
X97476924Y-77900583D01*
X97476922Y-77900581D01*
X97336792Y-77798770D01*
X97182443Y-77720126D01*
X97182434Y-77720122D01*
X97141470Y-77706813D01*
X97056702Y-77659342D01*
X96996554Y-77583045D01*
X96970182Y-77489538D01*
X96981601Y-77393056D01*
X97029072Y-77308288D01*
X97105369Y-77248140D01*
X97141470Y-77233187D01*
X97182434Y-77219877D01*
X97182437Y-77219875D01*
X97182445Y-77219873D01*
X97336788Y-77141232D01*
X97476928Y-77039414D01*
X97599414Y-76916928D01*
X97701232Y-76776788D01*
X97779873Y-76622445D01*
X97833402Y-76457701D01*
X97860500Y-76286611D01*
X97860500Y-76113389D01*
X97833402Y-75942299D01*
X97779873Y-75777555D01*
X97701232Y-75623212D01*
X97701230Y-75623209D01*
X97701229Y-75623207D01*
X97599418Y-75483077D01*
X97599416Y-75483075D01*
X97599414Y-75483072D01*
X97476928Y-75360586D01*
X97476924Y-75360583D01*
X97476922Y-75360581D01*
X97336792Y-75258770D01*
X97182443Y-75180126D01*
X97182434Y-75180122D01*
X97141470Y-75166813D01*
X97056702Y-75119342D01*
X96996554Y-75043045D01*
X96970182Y-74949538D01*
X96981601Y-74853056D01*
X97029072Y-74768288D01*
X97105369Y-74708140D01*
X97141470Y-74693187D01*
X97182434Y-74679877D01*
X97182437Y-74679875D01*
X97182445Y-74679873D01*
X97336788Y-74601232D01*
X97476928Y-74499414D01*
X97599414Y-74376928D01*
X97701232Y-74236788D01*
X97779873Y-74082445D01*
X97833402Y-73917701D01*
X97860500Y-73746611D01*
X97860500Y-73573389D01*
X97833402Y-73402299D01*
X97779873Y-73237555D01*
X97701232Y-73083212D01*
X97701230Y-73083209D01*
X97701229Y-73083207D01*
X97599418Y-72943077D01*
X97599416Y-72943075D01*
X97599414Y-72943072D01*
X97476928Y-72820586D01*
X97476924Y-72820583D01*
X97476922Y-72820581D01*
X97336792Y-72718770D01*
X97182443Y-72640126D01*
X97182434Y-72640122D01*
X97141470Y-72626813D01*
X97056702Y-72579342D01*
X96996554Y-72503045D01*
X96970182Y-72409538D01*
X96981601Y-72313056D01*
X97029072Y-72228288D01*
X97105369Y-72168140D01*
X97141470Y-72153187D01*
X97182434Y-72139877D01*
X97182437Y-72139875D01*
X97182445Y-72139873D01*
X97336788Y-72061232D01*
X97476928Y-71959414D01*
X97599414Y-71836928D01*
X97701232Y-71696788D01*
X97779873Y-71542445D01*
X97833402Y-71377701D01*
X97860500Y-71206611D01*
X97860500Y-71033389D01*
X97833402Y-70862299D01*
X97779873Y-70697555D01*
X97701232Y-70543212D01*
X97701230Y-70543209D01*
X97701229Y-70543207D01*
X97599418Y-70403077D01*
X97599416Y-70403075D01*
X97599414Y-70403072D01*
X97476928Y-70280586D01*
X97476924Y-70280583D01*
X97476922Y-70280581D01*
X97336792Y-70178770D01*
X97182443Y-70100126D01*
X97182434Y-70100122D01*
X97141470Y-70086813D01*
X97056702Y-70039342D01*
X96996554Y-69963045D01*
X96970182Y-69869538D01*
X96981601Y-69773056D01*
X97029072Y-69688288D01*
X97105369Y-69628140D01*
X97141470Y-69613187D01*
X97182434Y-69599877D01*
X97182437Y-69599875D01*
X97182445Y-69599873D01*
X97336788Y-69521232D01*
X97476928Y-69419414D01*
X97599414Y-69296928D01*
X97701232Y-69156788D01*
X97779873Y-69002445D01*
X97833402Y-68837701D01*
X97860500Y-68666611D01*
X97860500Y-68493389D01*
X97833402Y-68322299D01*
X97779873Y-68157555D01*
X97701232Y-68003212D01*
X97701230Y-68003209D01*
X97701229Y-68003207D01*
X97599418Y-67863077D01*
X97599416Y-67863075D01*
X97599414Y-67863072D01*
X97476928Y-67740586D01*
X97476924Y-67740583D01*
X97476922Y-67740581D01*
X97336792Y-67638770D01*
X97182443Y-67560126D01*
X97182434Y-67560122D01*
X97141470Y-67546813D01*
X97056702Y-67499342D01*
X96996554Y-67423045D01*
X96970182Y-67329538D01*
X96981601Y-67233056D01*
X97029072Y-67148288D01*
X97105369Y-67088140D01*
X97141470Y-67073187D01*
X97182434Y-67059877D01*
X97182437Y-67059875D01*
X97182445Y-67059873D01*
X97336788Y-66981232D01*
X97476928Y-66879414D01*
X97599414Y-66756928D01*
X97701232Y-66616788D01*
X97779873Y-66462445D01*
X97833402Y-66297701D01*
X97860500Y-66126611D01*
X97860500Y-65953389D01*
X97833402Y-65782299D01*
X97779873Y-65617555D01*
X97701232Y-65463212D01*
X97701230Y-65463209D01*
X97701229Y-65463207D01*
X97599418Y-65323077D01*
X97599416Y-65323075D01*
X97599414Y-65323072D01*
X97476928Y-65200586D01*
X97476924Y-65200583D01*
X97476922Y-65200581D01*
X97336792Y-65098770D01*
X97182443Y-65020126D01*
X97182434Y-65020122D01*
X97141470Y-65006813D01*
X97056702Y-64959342D01*
X96996554Y-64883045D01*
X96970182Y-64789538D01*
X96981601Y-64693056D01*
X97029072Y-64608288D01*
X97105369Y-64548140D01*
X97141470Y-64533187D01*
X97182434Y-64519877D01*
X97182437Y-64519875D01*
X97182445Y-64519873D01*
X97336788Y-64441232D01*
X97476928Y-64339414D01*
X97599414Y-64216928D01*
X97701232Y-64076788D01*
X97779873Y-63922445D01*
X97833402Y-63757701D01*
X97860500Y-63586611D01*
X97860500Y-63413389D01*
X97833402Y-63242299D01*
X97779873Y-63077555D01*
X97701232Y-62923212D01*
X97701230Y-62923209D01*
X97701229Y-62923207D01*
X97599418Y-62783077D01*
X97599416Y-62783075D01*
X97599414Y-62783072D01*
X97476928Y-62660586D01*
X97476924Y-62660583D01*
X97476922Y-62660581D01*
X97336792Y-62558770D01*
X97182443Y-62480126D01*
X97182434Y-62480122D01*
X97141470Y-62466813D01*
X97056702Y-62419342D01*
X96996554Y-62343045D01*
X96970182Y-62249538D01*
X96981601Y-62153056D01*
X97029072Y-62068288D01*
X97105369Y-62008140D01*
X97141470Y-61993187D01*
X97182434Y-61979877D01*
X97182437Y-61979875D01*
X97182445Y-61979873D01*
X97336788Y-61901232D01*
X97476928Y-61799414D01*
X97599414Y-61676928D01*
X97701232Y-61536788D01*
X97779873Y-61382445D01*
X97833402Y-61217701D01*
X97860500Y-61046611D01*
X97860500Y-60873389D01*
X97833402Y-60702299D01*
X97779873Y-60537555D01*
X97771835Y-60521780D01*
X112747491Y-60521780D01*
X112747500Y-60521917D01*
X112747500Y-72417965D01*
X112747492Y-72418091D01*
X112747500Y-72483348D01*
X112747500Y-72532733D01*
X112747505Y-72532781D01*
X112761012Y-72583166D01*
X112761054Y-72583322D01*
X112761189Y-72583823D01*
X112773090Y-72628238D01*
X112773101Y-72628258D01*
X112773108Y-72628282D01*
X112773579Y-72629098D01*
X112773580Y-72629100D01*
X112797699Y-72670864D01*
X112797712Y-72670885D01*
X112822528Y-72713867D01*
X112822553Y-72713899D01*
X112857933Y-72749270D01*
X112857951Y-72749297D01*
X112857956Y-72749293D01*
X112904834Y-72796171D01*
X112904925Y-72796250D01*
X113188437Y-73079690D01*
X113242424Y-73160465D01*
X113261390Y-73255750D01*
X113249203Y-73332726D01*
X113226597Y-73402298D01*
X113226597Y-73402301D01*
X113199501Y-73573378D01*
X113199500Y-73573393D01*
X113199500Y-73746606D01*
X113199501Y-73746621D01*
X113219363Y-73872024D01*
X113226598Y-73917701D01*
X113280127Y-74082445D01*
X113286442Y-74094839D01*
X113358770Y-74236792D01*
X113460581Y-74376922D01*
X113460583Y-74376924D01*
X113460586Y-74376928D01*
X113583072Y-74499414D01*
X113583075Y-74499416D01*
X113583077Y-74499418D01*
X113723207Y-74601229D01*
X113723209Y-74601230D01*
X113723212Y-74601232D01*
X113877555Y-74679873D01*
X113896846Y-74686141D01*
X113918530Y-74693187D01*
X114003298Y-74740659D01*
X114063446Y-74816957D01*
X114089817Y-74910464D01*
X114078398Y-75006945D01*
X114030926Y-75091713D01*
X113954628Y-75151861D01*
X113918530Y-75166813D01*
X113877562Y-75180124D01*
X113877556Y-75180126D01*
X113723207Y-75258770D01*
X113583077Y-75360581D01*
X113460581Y-75483077D01*
X113358770Y-75623207D01*
X113280126Y-75777556D01*
X113280124Y-75777562D01*
X113226597Y-75942302D01*
X113199501Y-76113378D01*
X113199500Y-76113393D01*
X113199500Y-76286606D01*
X113199501Y-76286621D01*
X113226597Y-76457697D01*
X113280124Y-76622437D01*
X113280126Y-76622443D01*
X113358770Y-76776792D01*
X113460581Y-76916922D01*
X113460583Y-76916924D01*
X113460586Y-76916928D01*
X113583072Y-77039414D01*
X113583075Y-77039416D01*
X113583077Y-77039418D01*
X113723207Y-77141229D01*
X113723209Y-77141230D01*
X113723212Y-77141232D01*
X113877555Y-77219873D01*
X113896846Y-77226141D01*
X113918530Y-77233187D01*
X114003298Y-77280659D01*
X114063446Y-77356957D01*
X114089817Y-77450464D01*
X114078398Y-77546945D01*
X114030926Y-77631713D01*
X113954628Y-77691861D01*
X113918530Y-77706813D01*
X113877562Y-77720124D01*
X113877556Y-77720126D01*
X113723207Y-77798770D01*
X113583077Y-77900581D01*
X113460581Y-78023077D01*
X113358770Y-78163207D01*
X113280126Y-78317556D01*
X113280124Y-78317562D01*
X113226597Y-78482302D01*
X113199501Y-78653378D01*
X113199500Y-78653393D01*
X113199500Y-78826606D01*
X113199501Y-78826621D01*
X113221262Y-78964011D01*
X113226598Y-78997701D01*
X113238756Y-79035119D01*
X113280124Y-79162437D01*
X113280126Y-79162443D01*
X113358770Y-79316792D01*
X113460581Y-79456922D01*
X113460583Y-79456924D01*
X113460586Y-79456928D01*
X113583072Y-79579414D01*
X113583075Y-79579416D01*
X113583077Y-79579418D01*
X113723207Y-79681229D01*
X113723209Y-79681230D01*
X113723212Y-79681232D01*
X113877555Y-79759873D01*
X113896846Y-79766141D01*
X113918530Y-79773187D01*
X114003298Y-79820659D01*
X114063446Y-79896957D01*
X114089817Y-79990464D01*
X114078398Y-80086945D01*
X114030926Y-80171713D01*
X113954628Y-80231861D01*
X113918530Y-80246813D01*
X113877562Y-80260124D01*
X113877556Y-80260126D01*
X113723207Y-80338770D01*
X113583077Y-80440581D01*
X113460581Y-80563077D01*
X113358770Y-80703207D01*
X113280126Y-80857556D01*
X113280124Y-80857562D01*
X113226597Y-81022302D01*
X113199501Y-81193378D01*
X113199500Y-81193393D01*
X113199500Y-81366606D01*
X113199501Y-81366621D01*
X113226597Y-81537697D01*
X113280124Y-81702437D01*
X113280126Y-81702443D01*
X113358770Y-81856792D01*
X113460581Y-81996922D01*
X113460583Y-81996924D01*
X113460586Y-81996928D01*
X113583072Y-82119414D01*
X113583075Y-82119416D01*
X113583077Y-82119418D01*
X113723207Y-82221229D01*
X113723209Y-82221230D01*
X113723212Y-82221232D01*
X113877555Y-82299873D01*
X113896846Y-82306141D01*
X113918530Y-82313187D01*
X114003298Y-82360659D01*
X114063446Y-82436957D01*
X114089817Y-82530464D01*
X114078398Y-82626945D01*
X114030926Y-82711713D01*
X113954628Y-82771861D01*
X113918530Y-82786813D01*
X113877562Y-82800124D01*
X113877556Y-82800126D01*
X113723207Y-82878770D01*
X113583077Y-82980581D01*
X113460581Y-83103077D01*
X113358770Y-83243207D01*
X113280126Y-83397556D01*
X113280124Y-83397562D01*
X113226597Y-83562302D01*
X113199501Y-83733378D01*
X113199500Y-83733393D01*
X113199500Y-83906606D01*
X113199501Y-83906621D01*
X113226597Y-84077697D01*
X113280124Y-84242437D01*
X113280126Y-84242443D01*
X113358770Y-84396792D01*
X113460581Y-84536922D01*
X113460583Y-84536924D01*
X113460586Y-84536928D01*
X113583072Y-84659414D01*
X113583075Y-84659416D01*
X113583077Y-84659418D01*
X113723207Y-84761229D01*
X113723209Y-84761230D01*
X113723212Y-84761232D01*
X113877555Y-84839873D01*
X113896846Y-84846141D01*
X113918530Y-84853187D01*
X114003298Y-84900659D01*
X114063446Y-84976957D01*
X114089817Y-85070464D01*
X114078398Y-85166945D01*
X114030926Y-85251713D01*
X113954628Y-85311861D01*
X113918530Y-85326813D01*
X113877562Y-85340124D01*
X113877556Y-85340126D01*
X113723207Y-85418770D01*
X113583077Y-85520581D01*
X113460581Y-85643077D01*
X113358770Y-85783207D01*
X113280126Y-85937556D01*
X113280124Y-85937562D01*
X113226597Y-86102302D01*
X113199501Y-86273378D01*
X113199500Y-86273393D01*
X113199500Y-86446606D01*
X113199501Y-86446621D01*
X113226597Y-86617697D01*
X113280124Y-86782437D01*
X113280126Y-86782443D01*
X113358770Y-86936792D01*
X113460581Y-87076922D01*
X113460583Y-87076924D01*
X113460586Y-87076928D01*
X113583072Y-87199414D01*
X113583075Y-87199416D01*
X113583077Y-87199418D01*
X113723207Y-87301229D01*
X113723209Y-87301230D01*
X113723212Y-87301232D01*
X113877555Y-87379873D01*
X113896846Y-87386141D01*
X113918530Y-87393187D01*
X114003298Y-87440659D01*
X114063446Y-87516957D01*
X114089817Y-87610464D01*
X114078398Y-87706945D01*
X114030926Y-87791713D01*
X113954628Y-87851861D01*
X113918530Y-87866813D01*
X113877562Y-87880124D01*
X113877556Y-87880126D01*
X113723207Y-87958770D01*
X113583077Y-88060581D01*
X113460581Y-88183077D01*
X113358770Y-88323207D01*
X113280126Y-88477556D01*
X113280124Y-88477562D01*
X113226597Y-88642302D01*
X113199501Y-88813378D01*
X113199500Y-88813393D01*
X113199500Y-88986606D01*
X113199501Y-88986621D01*
X113226597Y-89157697D01*
X113280124Y-89322437D01*
X113280126Y-89322443D01*
X113358770Y-89476792D01*
X113460581Y-89616922D01*
X113460583Y-89616924D01*
X113460586Y-89616928D01*
X113583072Y-89739414D01*
X113583075Y-89739416D01*
X113583077Y-89739418D01*
X113723207Y-89841229D01*
X113723209Y-89841230D01*
X113723212Y-89841232D01*
X113877555Y-89919873D01*
X113896846Y-89926141D01*
X113918530Y-89933187D01*
X114003298Y-89980659D01*
X114063446Y-90056957D01*
X114089817Y-90150464D01*
X114078398Y-90246945D01*
X114030926Y-90331713D01*
X113954628Y-90391861D01*
X113918530Y-90406813D01*
X113877562Y-90420124D01*
X113877556Y-90420126D01*
X113723207Y-90498770D01*
X113583077Y-90600581D01*
X113460581Y-90723077D01*
X113358770Y-90863207D01*
X113280126Y-91017556D01*
X113280124Y-91017562D01*
X113226597Y-91182302D01*
X113199501Y-91353378D01*
X113199500Y-91353393D01*
X113199500Y-91526606D01*
X113199501Y-91526621D01*
X113226597Y-91697697D01*
X113280124Y-91862437D01*
X113280126Y-91862443D01*
X113358770Y-92016792D01*
X113460581Y-92156922D01*
X113460583Y-92156924D01*
X113460586Y-92156928D01*
X113583072Y-92279414D01*
X113583075Y-92279416D01*
X113583079Y-92279420D01*
X113583082Y-92279422D01*
X113699899Y-92364295D01*
X113765848Y-92435638D01*
X113799475Y-92526788D01*
X113795661Y-92623868D01*
X113754986Y-92712098D01*
X113683643Y-92778047D01*
X113666586Y-92787600D01*
X113592450Y-92825374D01*
X113592441Y-92825380D01*
X113538281Y-92864728D01*
X114170591Y-93497037D01*
X114107007Y-93514075D01*
X113992993Y-93579901D01*
X113899901Y-93672993D01*
X113834075Y-93787007D01*
X113817037Y-93850590D01*
X113184728Y-93218281D01*
X113145380Y-93272441D01*
X113145372Y-93272454D01*
X113048908Y-93461774D01*
X113048904Y-93461784D01*
X112983241Y-93663876D01*
X112950000Y-93873743D01*
X112950000Y-94086256D01*
X112983241Y-94296123D01*
X113048904Y-94498215D01*
X113048908Y-94498225D01*
X113145371Y-94687545D01*
X113145375Y-94687551D01*
X113184729Y-94741717D01*
X113817037Y-94109408D01*
X113834075Y-94172993D01*
X113899901Y-94287007D01*
X113992993Y-94380099D01*
X114107007Y-94445925D01*
X114170589Y-94462962D01*
X113538282Y-95095269D01*
X113538282Y-95095270D01*
X113592445Y-95134622D01*
X113666584Y-95172398D01*
X113742882Y-95232546D01*
X113790354Y-95317313D01*
X113801773Y-95413795D01*
X113775402Y-95507302D01*
X113715254Y-95583600D01*
X113699900Y-95595704D01*
X113583078Y-95680580D01*
X113460581Y-95803077D01*
X113358770Y-95943207D01*
X113280126Y-96097556D01*
X113280124Y-96097562D01*
X113226597Y-96262302D01*
X113199501Y-96433378D01*
X113199500Y-96433393D01*
X113199500Y-96606606D01*
X113199501Y-96606621D01*
X113208294Y-96662135D01*
X113226598Y-96777701D01*
X113231688Y-96793365D01*
X113280124Y-96942437D01*
X113280126Y-96942443D01*
X113358770Y-97096792D01*
X113460581Y-97236922D01*
X113460583Y-97236924D01*
X113460586Y-97236928D01*
X113583072Y-97359414D01*
X113583075Y-97359416D01*
X113583077Y-97359418D01*
X113723207Y-97461229D01*
X113723209Y-97461230D01*
X113723212Y-97461232D01*
X113877555Y-97539873D01*
X113896846Y-97546141D01*
X113918530Y-97553187D01*
X114003298Y-97600659D01*
X114063446Y-97676957D01*
X114089817Y-97770464D01*
X114078398Y-97866945D01*
X114030926Y-97951713D01*
X113954628Y-98011861D01*
X113918530Y-98026813D01*
X113877562Y-98040124D01*
X113877556Y-98040126D01*
X113723207Y-98118770D01*
X113583077Y-98220581D01*
X113460581Y-98343077D01*
X113358770Y-98483207D01*
X113280126Y-98637556D01*
X113280124Y-98637562D01*
X113226597Y-98802302D01*
X113199501Y-98973378D01*
X113199500Y-98973393D01*
X113199500Y-99146606D01*
X113199501Y-99146621D01*
X113226597Y-99317697D01*
X113280124Y-99482437D01*
X113280126Y-99482443D01*
X113358770Y-99636792D01*
X113460581Y-99776922D01*
X113460583Y-99776924D01*
X113460586Y-99776928D01*
X113583072Y-99899414D01*
X113583075Y-99899416D01*
X113583077Y-99899418D01*
X113723207Y-100001229D01*
X113723209Y-100001230D01*
X113723212Y-100001232D01*
X113877555Y-100079873D01*
X114042299Y-100133402D01*
X114213389Y-100160500D01*
X114213393Y-100160500D01*
X114386607Y-100160500D01*
X114386611Y-100160500D01*
X114557701Y-100133402D01*
X114722445Y-100079873D01*
X114876788Y-100001232D01*
X115016928Y-99899414D01*
X115139414Y-99776928D01*
X115241232Y-99636788D01*
X115319873Y-99482445D01*
X115373402Y-99317701D01*
X115400500Y-99146611D01*
X115400500Y-98973389D01*
X115373402Y-98802299D01*
X115319873Y-98637555D01*
X115241232Y-98483212D01*
X115241230Y-98483209D01*
X115241229Y-98483207D01*
X115139418Y-98343077D01*
X115139416Y-98343075D01*
X115139414Y-98343072D01*
X115016928Y-98220586D01*
X115016924Y-98220583D01*
X115016922Y-98220581D01*
X114876792Y-98118770D01*
X114722443Y-98040126D01*
X114722434Y-98040122D01*
X114681470Y-98026813D01*
X114596702Y-97979342D01*
X114536554Y-97903045D01*
X114510182Y-97809538D01*
X114521601Y-97713056D01*
X114569072Y-97628288D01*
X114645369Y-97568140D01*
X114681470Y-97553187D01*
X114722434Y-97539877D01*
X114722437Y-97539875D01*
X114722445Y-97539873D01*
X114876788Y-97461232D01*
X115016928Y-97359414D01*
X115139414Y-97236928D01*
X115241232Y-97096788D01*
X115319873Y-96942445D01*
X115373402Y-96777701D01*
X115400500Y-96606611D01*
X115400500Y-96433389D01*
X115373402Y-96262299D01*
X115319873Y-96097555D01*
X115241232Y-95943212D01*
X115241230Y-95943209D01*
X115241229Y-95943207D01*
X115209419Y-95899424D01*
X125441500Y-95899424D01*
X125441500Y-96044375D01*
X125479015Y-96184382D01*
X125479017Y-96184387D01*
X125551488Y-96309911D01*
X125561426Y-96322862D01*
X125558839Y-96324846D01*
X125597546Y-96382775D01*
X125616500Y-96478063D01*
X125616500Y-99752500D01*
X125608016Y-99816943D01*
X125596500Y-99859922D01*
X125596500Y-100004875D01*
X125634015Y-100144882D01*
X125634017Y-100144887D01*
X125706488Y-100270411D01*
X125706489Y-100270412D01*
X125706491Y-100270415D01*
X125808985Y-100372909D01*
X125934515Y-100445384D01*
X126074525Y-100482900D01*
X126099500Y-100482900D01*
X126194788Y-100501854D01*
X126275570Y-100555830D01*
X126329546Y-100636612D01*
X126348500Y-100731900D01*
X126348500Y-101278323D01*
X126329546Y-101373611D01*
X126275570Y-101454393D01*
X126271393Y-101458570D01*
X126190611Y-101512546D01*
X126122283Y-101526137D01*
X126122709Y-101529369D01*
X126106525Y-101531499D01*
X125966517Y-101569015D01*
X125966512Y-101569017D01*
X125840988Y-101641488D01*
X125738488Y-101743988D01*
X125666017Y-101869512D01*
X125666015Y-101869517D01*
X125628500Y-102009524D01*
X125628500Y-102154475D01*
X125666015Y-102294482D01*
X125666017Y-102294487D01*
X125738488Y-102420011D01*
X125738489Y-102420012D01*
X125738491Y-102420015D01*
X125840985Y-102522509D01*
X125966515Y-102594984D01*
X126106525Y-102632500D01*
X126251474Y-102632500D01*
X126251475Y-102632500D01*
X126391485Y-102594984D01*
X126517015Y-102522509D01*
X126619509Y-102420015D01*
X126691984Y-102294485D01*
X126729500Y-102154475D01*
X126729500Y-102154474D01*
X126731631Y-102138291D01*
X126734862Y-102138716D01*
X126737579Y-102125058D01*
X126743268Y-102084024D01*
X126746892Y-102078240D01*
X126748454Y-102070388D01*
X126792421Y-102000220D01*
X126797266Y-101994770D01*
X127024474Y-101767563D01*
X127058405Y-101708793D01*
X127073910Y-101681938D01*
X127084749Y-101641488D01*
X127099500Y-101586437D01*
X127099500Y-99089419D01*
X127118089Y-98995016D01*
X127124457Y-98979471D01*
X127195984Y-98855585D01*
X127211685Y-98796989D01*
X153199500Y-98796989D01*
X153199500Y-99033011D01*
X153230307Y-99267014D01*
X153243888Y-99317697D01*
X153291393Y-99494989D01*
X153291394Y-99494992D01*
X153381713Y-99713043D01*
X153381718Y-99713054D01*
X153441699Y-99816943D01*
X153499727Y-99917450D01*
X153643408Y-100104699D01*
X153810301Y-100271592D01*
X153997550Y-100415273D01*
X153997559Y-100415278D01*
X154201945Y-100533281D01*
X154201948Y-100533282D01*
X154201951Y-100533284D01*
X154420007Y-100623606D01*
X154647986Y-100684693D01*
X154881989Y-100715500D01*
X155118011Y-100715500D01*
X155352014Y-100684693D01*
X155579993Y-100623606D01*
X155798049Y-100533284D01*
X156002450Y-100415273D01*
X156189699Y-100271592D01*
X156356592Y-100104699D01*
X156500273Y-99917450D01*
X156618284Y-99713049D01*
X156708606Y-99494993D01*
X156769693Y-99267014D01*
X156800500Y-99033011D01*
X156800500Y-98796989D01*
X156769693Y-98562986D01*
X156708606Y-98335007D01*
X156618284Y-98116951D01*
X156550864Y-98000177D01*
X156527380Y-97959500D01*
X156500273Y-97912550D01*
X156356592Y-97725301D01*
X156189699Y-97558408D01*
X156002450Y-97414727D01*
X156002440Y-97414721D01*
X155798054Y-97296718D01*
X155798043Y-97296713D01*
X155653694Y-97236922D01*
X155579993Y-97206394D01*
X155352014Y-97145307D01*
X155352007Y-97145306D01*
X155118011Y-97114500D01*
X154881989Y-97114500D01*
X154647992Y-97145306D01*
X154647990Y-97145306D01*
X154647986Y-97145307D01*
X154475640Y-97191487D01*
X154420010Y-97206393D01*
X154420007Y-97206394D01*
X154201956Y-97296713D01*
X154201945Y-97296718D01*
X153997559Y-97414721D01*
X153997549Y-97414727D01*
X153810301Y-97558408D01*
X153810297Y-97558411D01*
X153643411Y-97725297D01*
X153643408Y-97725301D01*
X153499727Y-97912549D01*
X153499721Y-97912559D01*
X153381718Y-98116945D01*
X153381713Y-98116956D01*
X153291394Y-98335007D01*
X153291393Y-98335010D01*
X153276487Y-98390640D01*
X153230307Y-98562986D01*
X153199500Y-98796989D01*
X127211685Y-98796989D01*
X127233500Y-98715575D01*
X127233500Y-98570625D01*
X127195984Y-98430615D01*
X127123509Y-98305085D01*
X127021015Y-98202591D01*
X127021012Y-98202589D01*
X127021011Y-98202588D01*
X126895487Y-98130117D01*
X126895482Y-98130115D01*
X126755475Y-98092600D01*
X126616500Y-98092600D01*
X126521212Y-98073646D01*
X126440430Y-98019670D01*
X126386454Y-97938888D01*
X126367500Y-97843600D01*
X126367500Y-96478063D01*
X126386451Y-96382783D01*
X126405405Y-96337018D01*
X126432509Y-96309915D01*
X126504984Y-96184385D01*
X126542500Y-96044375D01*
X126542500Y-96006009D01*
X126561451Y-95960253D01*
X126561453Y-95960249D01*
X126561454Y-95960245D01*
X126615420Y-95879474D01*
X126679377Y-95815510D01*
X128777646Y-93716989D01*
X153199500Y-93716989D01*
X153199500Y-93953010D01*
X153229058Y-94177531D01*
X153230307Y-94187014D01*
X153291394Y-94414993D01*
X153318321Y-94480000D01*
X153381713Y-94633043D01*
X153381718Y-94633054D01*
X153488534Y-94818064D01*
X153499727Y-94837450D01*
X153643408Y-95024699D01*
X153810301Y-95191592D01*
X153997550Y-95335273D01*
X153997559Y-95335278D01*
X154201945Y-95453281D01*
X154201948Y-95453282D01*
X154201951Y-95453284D01*
X154420007Y-95543606D01*
X154647986Y-95604693D01*
X154881989Y-95635500D01*
X155118011Y-95635500D01*
X155352014Y-95604693D01*
X155579993Y-95543606D01*
X155798049Y-95453284D01*
X156002450Y-95335273D01*
X156189699Y-95191592D01*
X156356592Y-95024699D01*
X156500273Y-94837450D01*
X156618284Y-94633049D01*
X156708606Y-94414993D01*
X156769693Y-94187014D01*
X156800500Y-93953011D01*
X156800500Y-93716989D01*
X156769693Y-93482986D01*
X156708606Y-93255007D01*
X156638864Y-93086635D01*
X156618285Y-93036952D01*
X156618281Y-93036945D01*
X156525105Y-92875561D01*
X156500273Y-92832550D01*
X156356592Y-92645301D01*
X156189699Y-92478408D01*
X156002450Y-92334727D01*
X155968994Y-92315411D01*
X155798054Y-92216718D01*
X155798043Y-92216713D01*
X155653694Y-92156922D01*
X155579993Y-92126394D01*
X155352014Y-92065307D01*
X155352007Y-92065306D01*
X155118011Y-92034500D01*
X154881989Y-92034500D01*
X154647992Y-92065306D01*
X154647990Y-92065306D01*
X154647986Y-92065307D01*
X154475640Y-92111487D01*
X154420010Y-92126393D01*
X154420007Y-92126394D01*
X154201956Y-92216713D01*
X154201945Y-92216718D01*
X153997559Y-92334721D01*
X153997549Y-92334727D01*
X153810301Y-92478408D01*
X153810297Y-92478411D01*
X153643411Y-92645297D01*
X153643408Y-92645301D01*
X153499727Y-92832549D01*
X153499721Y-92832559D01*
X153381718Y-93036945D01*
X153381715Y-93036952D01*
X153291394Y-93255007D01*
X153291393Y-93255010D01*
X153286721Y-93272448D01*
X153230307Y-93482986D01*
X153230306Y-93482990D01*
X153230306Y-93482992D01*
X153199500Y-93716989D01*
X128777646Y-93716989D01*
X129606070Y-92888466D01*
X129633681Y-92860855D01*
X129639010Y-92855870D01*
X129639484Y-92855048D01*
X129639488Y-92855045D01*
X129662349Y-92815442D01*
X129687998Y-92771017D01*
X129688867Y-92769540D01*
X129688903Y-92769448D01*
X129688910Y-92769438D01*
X129688913Y-92769426D01*
X129688919Y-92769416D01*
X129688922Y-92769401D01*
X129688963Y-92769302D01*
X129689376Y-92767708D01*
X129695808Y-92743697D01*
X129702162Y-92719983D01*
X129702163Y-92719975D01*
X129704274Y-92712098D01*
X129714500Y-92673935D01*
X129714500Y-92673929D01*
X129714501Y-92673926D01*
X129714502Y-92673916D01*
X129714503Y-92673913D01*
X129714500Y-92624477D01*
X129714500Y-88636989D01*
X153199500Y-88636989D01*
X153199500Y-88873011D01*
X153230307Y-89107014D01*
X153243888Y-89157697D01*
X153291393Y-89334989D01*
X153291394Y-89334992D01*
X153381713Y-89553043D01*
X153381718Y-89553054D01*
X153489314Y-89739414D01*
X153499727Y-89757450D01*
X153643408Y-89944699D01*
X153810301Y-90111592D01*
X153997550Y-90255273D01*
X153997559Y-90255278D01*
X154201945Y-90373281D01*
X154201948Y-90373282D01*
X154201951Y-90373284D01*
X154420007Y-90463606D01*
X154647986Y-90524693D01*
X154881989Y-90555500D01*
X155118011Y-90555500D01*
X155352014Y-90524693D01*
X155579993Y-90463606D01*
X155798049Y-90373284D01*
X156002450Y-90255273D01*
X156189699Y-90111592D01*
X156356592Y-89944699D01*
X156500273Y-89757450D01*
X156618284Y-89553049D01*
X156708606Y-89334993D01*
X156769693Y-89107014D01*
X156800500Y-88873011D01*
X156800500Y-88636989D01*
X156769693Y-88402986D01*
X156708606Y-88175007D01*
X156618284Y-87956951D01*
X156608497Y-87940000D01*
X156500278Y-87752559D01*
X156500272Y-87752549D01*
X156356592Y-87565301D01*
X156189699Y-87398408D01*
X156002450Y-87254727D01*
X156002440Y-87254721D01*
X155798054Y-87136718D01*
X155798043Y-87136713D01*
X155653694Y-87076922D01*
X155579993Y-87046394D01*
X155352014Y-86985307D01*
X155352007Y-86985306D01*
X155118011Y-86954500D01*
X154881989Y-86954500D01*
X154647992Y-86985306D01*
X154647990Y-86985306D01*
X154647986Y-86985307D01*
X154475640Y-87031487D01*
X154420010Y-87046393D01*
X154420007Y-87046394D01*
X154201956Y-87136713D01*
X154201945Y-87136718D01*
X153997559Y-87254721D01*
X153997549Y-87254727D01*
X153810301Y-87398408D01*
X153810297Y-87398411D01*
X153643411Y-87565297D01*
X153643408Y-87565301D01*
X153499727Y-87752549D01*
X153499721Y-87752559D01*
X153381718Y-87956945D01*
X153381713Y-87956956D01*
X153291394Y-88175007D01*
X153291393Y-88175010D01*
X153276487Y-88230640D01*
X153230307Y-88402986D01*
X153199500Y-88636989D01*
X129714500Y-88636989D01*
X129714500Y-83556989D01*
X153199500Y-83556989D01*
X153199500Y-83793011D01*
X153230307Y-84027014D01*
X153243888Y-84077697D01*
X153291393Y-84254989D01*
X153291394Y-84254992D01*
X153381713Y-84473043D01*
X153381718Y-84473054D01*
X153489314Y-84659414D01*
X153499727Y-84677450D01*
X153643408Y-84864699D01*
X153810301Y-85031592D01*
X153997550Y-85175273D01*
X153997559Y-85175278D01*
X154201945Y-85293281D01*
X154201948Y-85293282D01*
X154201951Y-85293284D01*
X154420007Y-85383606D01*
X154647986Y-85444693D01*
X154881989Y-85475500D01*
X155118011Y-85475500D01*
X155352014Y-85444693D01*
X155579993Y-85383606D01*
X155798049Y-85293284D01*
X156002450Y-85175273D01*
X156189699Y-85031592D01*
X156356592Y-84864699D01*
X156500273Y-84677450D01*
X156618284Y-84473049D01*
X156708606Y-84254993D01*
X156769693Y-84027014D01*
X156800500Y-83793011D01*
X156800500Y-83556989D01*
X156769693Y-83322986D01*
X156708606Y-83095007D01*
X156618284Y-82876951D01*
X156500273Y-82672550D01*
X156356592Y-82485301D01*
X156189699Y-82318408D01*
X156002450Y-82174727D01*
X156002440Y-82174721D01*
X155798054Y-82056718D01*
X155798043Y-82056713D01*
X155653694Y-81996922D01*
X155579993Y-81966394D01*
X155352014Y-81905307D01*
X155352007Y-81905306D01*
X155118011Y-81874500D01*
X154881989Y-81874500D01*
X154647992Y-81905306D01*
X154647990Y-81905306D01*
X154647986Y-81905307D01*
X154475640Y-81951487D01*
X154420010Y-81966393D01*
X154420007Y-81966394D01*
X154201956Y-82056713D01*
X154201945Y-82056718D01*
X153997559Y-82174721D01*
X153997549Y-82174727D01*
X153810301Y-82318408D01*
X153810297Y-82318411D01*
X153643411Y-82485297D01*
X153643408Y-82485301D01*
X153499727Y-82672549D01*
X153499721Y-82672559D01*
X153381718Y-82876945D01*
X153381713Y-82876956D01*
X153291394Y-83095007D01*
X153291393Y-83095010D01*
X153276487Y-83150640D01*
X153230307Y-83322986D01*
X153199500Y-83556989D01*
X129714500Y-83556989D01*
X129714500Y-78841763D01*
X129733454Y-78746475D01*
X129736360Y-78739741D01*
X129755095Y-78698028D01*
X129779509Y-78673615D01*
X129851984Y-78548085D01*
X129871034Y-78476989D01*
X153199500Y-78476989D01*
X153199500Y-78713011D01*
X153230307Y-78947014D01*
X153291394Y-79174993D01*
X153296376Y-79187020D01*
X153381713Y-79393043D01*
X153381718Y-79393054D01*
X153498476Y-79595283D01*
X153499727Y-79597450D01*
X153643408Y-79784699D01*
X153810301Y-79951592D01*
X153997550Y-80095273D01*
X153997559Y-80095278D01*
X154201945Y-80213281D01*
X154201948Y-80213282D01*
X154201951Y-80213284D01*
X154420007Y-80303606D01*
X154647986Y-80364693D01*
X154881989Y-80395500D01*
X155118011Y-80395500D01*
X155352014Y-80364693D01*
X155579993Y-80303606D01*
X155798049Y-80213284D01*
X156002450Y-80095273D01*
X156189699Y-79951592D01*
X156356592Y-79784699D01*
X156500273Y-79597450D01*
X156618284Y-79393049D01*
X156708606Y-79174993D01*
X156769693Y-78947014D01*
X156800500Y-78713011D01*
X156800500Y-78476989D01*
X156769693Y-78242986D01*
X156708606Y-78015007D01*
X156618284Y-77796951D01*
X156580858Y-77732128D01*
X156535335Y-77653279D01*
X156500273Y-77592550D01*
X156356592Y-77405301D01*
X156189699Y-77238408D01*
X156002450Y-77094727D01*
X156002440Y-77094721D01*
X155798054Y-76976718D01*
X155798043Y-76976713D01*
X155653694Y-76916922D01*
X155579993Y-76886394D01*
X155352014Y-76825307D01*
X155352007Y-76825306D01*
X155118011Y-76794500D01*
X154881989Y-76794500D01*
X154647992Y-76825306D01*
X154647990Y-76825306D01*
X154647986Y-76825307D01*
X154475640Y-76871487D01*
X154420010Y-76886393D01*
X154420007Y-76886394D01*
X154201956Y-76976713D01*
X154201945Y-76976718D01*
X153997559Y-77094721D01*
X153997549Y-77094727D01*
X153810301Y-77238408D01*
X153810297Y-77238411D01*
X153643411Y-77405297D01*
X153643408Y-77405301D01*
X153499727Y-77592549D01*
X153499721Y-77592559D01*
X153381718Y-77796945D01*
X153381713Y-77796956D01*
X153291394Y-78015007D01*
X153291393Y-78015010D01*
X153276487Y-78070640D01*
X153230307Y-78242986D01*
X153230306Y-78242990D01*
X153230306Y-78242992D01*
X153220490Y-78317555D01*
X153199500Y-78476989D01*
X129871034Y-78476989D01*
X129889500Y-78408075D01*
X129889500Y-78263125D01*
X129851984Y-78123115D01*
X129794224Y-78023072D01*
X129779511Y-77997588D01*
X129779510Y-77997587D01*
X129779509Y-77997585D01*
X129677015Y-77895091D01*
X129677012Y-77895089D01*
X129677011Y-77895088D01*
X129551487Y-77822617D01*
X129551482Y-77822615D01*
X129411475Y-77785100D01*
X129266525Y-77785100D01*
X129126517Y-77822615D01*
X129126512Y-77822617D01*
X129000988Y-77895088D01*
X128898488Y-77997588D01*
X128826017Y-78123112D01*
X128826015Y-78123117D01*
X128788500Y-78263124D01*
X128788500Y-78408075D01*
X128826015Y-78548082D01*
X128826017Y-78548087D01*
X128898488Y-78673611D01*
X128908426Y-78686562D01*
X128905839Y-78688546D01*
X128944546Y-78746475D01*
X128963500Y-78841763D01*
X128963500Y-92365845D01*
X128944546Y-92461133D01*
X128890580Y-92541904D01*
X126084361Y-95348459D01*
X126003583Y-95402440D01*
X125935282Y-95416030D01*
X125935709Y-95419269D01*
X125919525Y-95421399D01*
X125779517Y-95458915D01*
X125779512Y-95458917D01*
X125653988Y-95531388D01*
X125551488Y-95633888D01*
X125479017Y-95759412D01*
X125479015Y-95759417D01*
X125441500Y-95899424D01*
X115209419Y-95899424D01*
X115139418Y-95803077D01*
X115139416Y-95803075D01*
X115139414Y-95803072D01*
X115016928Y-95680586D01*
X115016924Y-95680583D01*
X115016922Y-95680581D01*
X114900099Y-95595704D01*
X114834150Y-95524361D01*
X114800524Y-95433211D01*
X114804338Y-95336131D01*
X114845013Y-95247900D01*
X114916356Y-95181951D01*
X114933415Y-95172398D01*
X115007553Y-95134622D01*
X115061716Y-95095270D01*
X114429408Y-94462962D01*
X114492993Y-94445925D01*
X114607007Y-94380099D01*
X114700099Y-94287007D01*
X114765925Y-94172993D01*
X114782962Y-94109408D01*
X115415270Y-94741716D01*
X115454624Y-94687551D01*
X115551091Y-94498224D01*
X115551095Y-94498215D01*
X115616758Y-94296123D01*
X115649999Y-94086256D01*
X115650000Y-94086244D01*
X115650000Y-93873755D01*
X115649999Y-93873743D01*
X115616758Y-93663876D01*
X115551095Y-93461784D01*
X115551091Y-93461774D01*
X115454624Y-93272448D01*
X115415270Y-93218282D01*
X115415269Y-93218282D01*
X114782962Y-93850589D01*
X114765925Y-93787007D01*
X114700099Y-93672993D01*
X114607007Y-93579901D01*
X114492993Y-93514075D01*
X114429408Y-93497037D01*
X115061717Y-92864729D01*
X115007551Y-92825375D01*
X115007544Y-92825371D01*
X114933414Y-92787600D01*
X114857117Y-92727452D01*
X114809645Y-92642685D01*
X114798226Y-92546203D01*
X114824598Y-92452696D01*
X114884746Y-92376399D01*
X114900087Y-92364304D01*
X115016928Y-92279414D01*
X115139414Y-92156928D01*
X115241232Y-92016788D01*
X115319873Y-91862445D01*
X115373402Y-91697701D01*
X115400500Y-91526611D01*
X115400500Y-91353389D01*
X115373402Y-91182299D01*
X115319873Y-91017555D01*
X115241232Y-90863212D01*
X115241230Y-90863209D01*
X115241229Y-90863207D01*
X115139418Y-90723077D01*
X115139416Y-90723075D01*
X115139414Y-90723072D01*
X115016928Y-90600586D01*
X115016924Y-90600583D01*
X115016922Y-90600581D01*
X114876792Y-90498770D01*
X114722443Y-90420126D01*
X114722434Y-90420122D01*
X114681470Y-90406813D01*
X114596702Y-90359342D01*
X114536554Y-90283045D01*
X114510182Y-90189538D01*
X114521601Y-90093056D01*
X114569072Y-90008288D01*
X114645369Y-89948140D01*
X114681470Y-89933187D01*
X114722434Y-89919877D01*
X114722437Y-89919875D01*
X114722445Y-89919873D01*
X114876788Y-89841232D01*
X115016928Y-89739414D01*
X115139414Y-89616928D01*
X115241232Y-89476788D01*
X115319873Y-89322445D01*
X115373402Y-89157701D01*
X115400500Y-88986611D01*
X115400500Y-88813389D01*
X115373402Y-88642299D01*
X115319873Y-88477555D01*
X115241232Y-88323212D01*
X115241230Y-88323209D01*
X115241229Y-88323207D01*
X115139418Y-88183077D01*
X115139416Y-88183075D01*
X115139414Y-88183072D01*
X115016928Y-88060586D01*
X115016924Y-88060583D01*
X115016922Y-88060581D01*
X114876792Y-87958770D01*
X114722443Y-87880126D01*
X114722434Y-87880122D01*
X114681470Y-87866813D01*
X114596702Y-87819342D01*
X114536554Y-87743045D01*
X114510182Y-87649538D01*
X114521601Y-87553056D01*
X114569072Y-87468288D01*
X114645369Y-87408140D01*
X114681470Y-87393187D01*
X114722434Y-87379877D01*
X114722437Y-87379875D01*
X114722445Y-87379873D01*
X114876788Y-87301232D01*
X115016928Y-87199414D01*
X115139414Y-87076928D01*
X115241232Y-86936788D01*
X115319873Y-86782445D01*
X115373402Y-86617701D01*
X115400500Y-86446611D01*
X115400500Y-86273389D01*
X115373402Y-86102299D01*
X115319873Y-85937555D01*
X115241232Y-85783212D01*
X115241230Y-85783209D01*
X115241229Y-85783207D01*
X115139418Y-85643077D01*
X115139416Y-85643075D01*
X115139414Y-85643072D01*
X115016928Y-85520586D01*
X115016924Y-85520583D01*
X115016922Y-85520581D01*
X114876792Y-85418770D01*
X114722443Y-85340126D01*
X114722434Y-85340122D01*
X114681470Y-85326813D01*
X114596702Y-85279342D01*
X114536554Y-85203045D01*
X114510182Y-85109538D01*
X114521601Y-85013056D01*
X114569072Y-84928288D01*
X114645369Y-84868140D01*
X114681470Y-84853187D01*
X114722434Y-84839877D01*
X114722437Y-84839875D01*
X114722445Y-84839873D01*
X114876788Y-84761232D01*
X115016928Y-84659414D01*
X115139414Y-84536928D01*
X115241232Y-84396788D01*
X115319873Y-84242445D01*
X115373402Y-84077701D01*
X115400500Y-83906611D01*
X115400500Y-83733389D01*
X115373402Y-83562299D01*
X115350727Y-83492515D01*
X115339308Y-83396037D01*
X115365680Y-83302529D01*
X115411463Y-83239511D01*
X117326932Y-81323904D01*
X117346524Y-81304311D01*
X117353330Y-81298097D01*
X117354472Y-81296364D01*
X117354475Y-81296362D01*
X117354476Y-81296358D01*
X117354478Y-81296356D01*
X117354483Y-81296352D01*
X117354498Y-81296325D01*
X117358565Y-81290159D01*
X117358566Y-81290157D01*
X117359857Y-81288199D01*
X117363392Y-81280919D01*
X117380014Y-81252127D01*
X117380015Y-81252123D01*
X117380023Y-81252111D01*
X117403910Y-81210738D01*
X117403910Y-81210734D01*
X117404611Y-81209521D01*
X117406001Y-81204984D01*
X117407771Y-81196332D01*
X117419332Y-81153180D01*
X117429018Y-81117030D01*
X117429491Y-81115322D01*
X117429502Y-81115244D01*
X117429500Y-81061088D01*
X117429500Y-70215163D01*
X117448454Y-70119875D01*
X117487160Y-70061946D01*
X117484574Y-70059962D01*
X117494504Y-70047019D01*
X117494509Y-70047015D01*
X117566984Y-69921485D01*
X117604500Y-69781475D01*
X117604500Y-69636525D01*
X117566984Y-69496515D01*
X117530746Y-69433750D01*
X117494511Y-69370988D01*
X117494510Y-69370987D01*
X117494509Y-69370985D01*
X117392015Y-69268491D01*
X117392012Y-69268489D01*
X117392011Y-69268488D01*
X117266487Y-69196017D01*
X117266482Y-69196015D01*
X117126475Y-69158500D01*
X116981525Y-69158500D01*
X116841517Y-69196015D01*
X116841512Y-69196017D01*
X116715988Y-69268488D01*
X116613488Y-69370988D01*
X116555140Y-69472051D01*
X116491081Y-69545096D01*
X116403946Y-69588067D01*
X116306999Y-69594421D01*
X116215000Y-69563191D01*
X116141955Y-69499132D01*
X116098984Y-69411997D01*
X116090500Y-69347551D01*
X116090500Y-68079290D01*
X116109454Y-67984002D01*
X116163428Y-67903222D01*
X116163438Y-67903213D01*
X116893587Y-67173123D01*
X116974370Y-67119150D01*
X117042715Y-67105556D01*
X117042291Y-67102331D01*
X117058474Y-67100200D01*
X117058475Y-67100200D01*
X117198485Y-67062684D01*
X117324015Y-66990209D01*
X117426509Y-66887715D01*
X117498984Y-66762185D01*
X117536500Y-66622175D01*
X117536500Y-66477225D01*
X117498984Y-66337215D01*
X117426509Y-66211685D01*
X117324015Y-66109191D01*
X117324012Y-66109189D01*
X117324011Y-66109188D01*
X117198487Y-66036717D01*
X117198482Y-66036715D01*
X117058475Y-65999200D01*
X116913525Y-65999200D01*
X116773517Y-66036715D01*
X116773512Y-66036717D01*
X116647988Y-66109188D01*
X116545488Y-66211688D01*
X116473017Y-66337212D01*
X116473015Y-66337217D01*
X116435499Y-66477225D01*
X116433369Y-66493409D01*
X116430131Y-66492982D01*
X116416546Y-66561281D01*
X116362570Y-66642063D01*
X116362563Y-66642070D01*
X115489309Y-67515254D01*
X115452848Y-67551714D01*
X115452845Y-67551717D01*
X115418463Y-67586096D01*
X115418461Y-67586099D01*
X115414535Y-67590025D01*
X115414530Y-67590032D01*
X115414525Y-67590038D01*
X115389869Y-67632742D01*
X115388332Y-67635402D01*
X115388324Y-67635417D01*
X115374059Y-67660122D01*
X115309996Y-67733163D01*
X115222858Y-67776128D01*
X115125910Y-67782477D01*
X115033913Y-67751242D01*
X115012067Y-67737054D01*
X114876792Y-67638770D01*
X114722443Y-67560126D01*
X114722434Y-67560122D01*
X114681470Y-67546813D01*
X114596702Y-67499342D01*
X114536554Y-67423045D01*
X114510182Y-67329538D01*
X114521601Y-67233056D01*
X114569072Y-67148288D01*
X114645369Y-67088140D01*
X114681470Y-67073187D01*
X114722434Y-67059877D01*
X114722437Y-67059875D01*
X114722445Y-67059873D01*
X114876788Y-66981232D01*
X115016928Y-66879414D01*
X115139414Y-66756928D01*
X115241232Y-66616788D01*
X115319873Y-66462445D01*
X115373402Y-66297701D01*
X115400500Y-66126611D01*
X115400500Y-65953389D01*
X115373402Y-65782299D01*
X115319873Y-65617555D01*
X115241232Y-65463212D01*
X115241230Y-65463209D01*
X115241229Y-65463207D01*
X115139418Y-65323077D01*
X115139416Y-65323075D01*
X115139414Y-65323072D01*
X115016928Y-65200586D01*
X115016924Y-65200583D01*
X115016922Y-65200581D01*
X114876792Y-65098770D01*
X114722443Y-65020126D01*
X114722434Y-65020122D01*
X114681470Y-65006813D01*
X114596702Y-64959342D01*
X114536554Y-64883045D01*
X114510182Y-64789538D01*
X114521601Y-64693056D01*
X114569072Y-64608288D01*
X114645369Y-64548140D01*
X114681470Y-64533187D01*
X114722434Y-64519877D01*
X114722437Y-64519875D01*
X114722445Y-64519873D01*
X114876788Y-64441232D01*
X115016928Y-64339414D01*
X115139414Y-64216928D01*
X115241232Y-64076788D01*
X115319873Y-63922445D01*
X115373402Y-63757701D01*
X115400500Y-63586611D01*
X115400500Y-63413389D01*
X115398990Y-63403855D01*
X115402803Y-63306778D01*
X115443476Y-63218547D01*
X115514818Y-63152597D01*
X115605968Y-63118968D01*
X115703048Y-63122781D01*
X115791279Y-63163454D01*
X115820993Y-63188832D01*
X125288572Y-72656582D01*
X125342547Y-72737362D01*
X125361500Y-72832648D01*
X125361500Y-77801449D01*
X125342555Y-77896716D01*
X125333166Y-77919386D01*
X125285535Y-77990673D01*
X125236499Y-78109056D01*
X125219744Y-78193281D01*
X125210365Y-78215933D01*
X125196735Y-78236335D01*
X125187344Y-78259007D01*
X125156412Y-78296703D01*
X125156398Y-78296717D01*
X125156396Y-78296720D01*
X125156393Y-78296722D01*
X124429061Y-79024324D01*
X124380497Y-79072888D01*
X124380449Y-79072949D01*
X124347988Y-79129197D01*
X124347968Y-79129232D01*
X124314604Y-79187020D01*
X124314572Y-79187095D01*
X124297350Y-79251416D01*
X124297326Y-79251509D01*
X124280500Y-79314308D01*
X124280500Y-79314355D01*
X124280488Y-79314400D01*
X124280488Y-79314446D01*
X124280487Y-79314450D01*
X124280500Y-79380292D01*
X124280500Y-93744249D01*
X124261546Y-93839537D01*
X124238537Y-93882584D01*
X124204537Y-93933469D01*
X124204532Y-93933477D01*
X124155498Y-94051857D01*
X124130500Y-94177528D01*
X124130500Y-94305671D01*
X124155498Y-94431342D01*
X124204532Y-94549722D01*
X124204535Y-94549727D01*
X124275724Y-94656269D01*
X124366331Y-94746876D01*
X124472873Y-94818065D01*
X124472875Y-94818065D01*
X124472877Y-94818067D01*
X124507549Y-94832428D01*
X124591256Y-94867101D01*
X124716929Y-94892099D01*
X124716930Y-94892100D01*
X124716931Y-94892100D01*
X124845070Y-94892100D01*
X124845070Y-94892099D01*
X124970744Y-94867101D01*
X125089127Y-94818065D01*
X125195669Y-94746876D01*
X125286276Y-94656269D01*
X125357465Y-94549727D01*
X125406501Y-94431344D01*
X125431500Y-94305669D01*
X125431500Y-94177531D01*
X125406501Y-94051856D01*
X125357465Y-93933473D01*
X125344570Y-93914174D01*
X125323463Y-93882584D01*
X125286284Y-93792825D01*
X125281500Y-93744249D01*
X125281500Y-91128263D01*
X125300454Y-91032975D01*
X125354430Y-90952193D01*
X125435212Y-90898217D01*
X125530500Y-90879263D01*
X125625788Y-90898217D01*
X125706566Y-90952190D01*
X125806985Y-91052609D01*
X125932515Y-91125084D01*
X126072525Y-91162600D01*
X126217474Y-91162600D01*
X126217475Y-91162600D01*
X126357485Y-91125084D01*
X126483015Y-91052609D01*
X126585509Y-90950115D01*
X126657984Y-90824585D01*
X126695500Y-90684575D01*
X126695500Y-90684574D01*
X126697631Y-90668391D01*
X126700862Y-90668816D01*
X126714454Y-90600489D01*
X126768430Y-90519707D01*
X126881324Y-90406813D01*
X127000475Y-90287662D01*
X127049911Y-90202037D01*
X127075500Y-90106536D01*
X127075500Y-90007664D01*
X127075500Y-77964763D01*
X127094454Y-77869475D01*
X127133160Y-77811546D01*
X127130574Y-77809562D01*
X127140504Y-77796619D01*
X127140509Y-77796615D01*
X127212984Y-77671085D01*
X127250500Y-77531075D01*
X127250500Y-77386125D01*
X127247428Y-77374662D01*
X127237123Y-77336203D01*
X127212984Y-77246115D01*
X127140509Y-77120585D01*
X127038015Y-77018091D01*
X127038012Y-77018089D01*
X127038011Y-77018088D01*
X126912487Y-76945617D01*
X126912482Y-76945615D01*
X126772475Y-76908100D01*
X126627525Y-76908100D01*
X126611500Y-76908100D01*
X126516212Y-76889146D01*
X126435430Y-76835170D01*
X126381454Y-76754388D01*
X126362500Y-76659100D01*
X126362500Y-73397022D01*
X153200000Y-73397022D01*
X153200000Y-73632977D01*
X153230798Y-73866910D01*
X153291871Y-74094838D01*
X153291871Y-74094839D01*
X153382162Y-74312822D01*
X153382164Y-74312826D01*
X153500144Y-74517172D01*
X153562720Y-74598724D01*
X154398957Y-73762486D01*
X154423978Y-73822890D01*
X154495112Y-73929351D01*
X154585649Y-74019888D01*
X154692110Y-74091022D01*
X154752511Y-74116041D01*
X153916274Y-74952278D01*
X153997827Y-75014855D01*
X154202173Y-75132835D01*
X154202177Y-75132837D01*
X154420160Y-75223128D01*
X154648089Y-75284201D01*
X154882022Y-75315000D01*
X155117978Y-75315000D01*
X155351910Y-75284201D01*
X155579838Y-75223128D01*
X155579839Y-75223128D01*
X155797822Y-75132837D01*
X155797826Y-75132835D01*
X156002172Y-75014855D01*
X156083724Y-74952277D01*
X155247488Y-74116041D01*
X155307890Y-74091022D01*
X155414351Y-74019888D01*
X155504888Y-73929351D01*
X155576022Y-73822890D01*
X155601041Y-73762488D01*
X156437277Y-74598724D01*
X156499855Y-74517172D01*
X156617835Y-74312826D01*
X156617837Y-74312822D01*
X156708128Y-74094839D01*
X156708128Y-74094838D01*
X156769201Y-73866910D01*
X156800000Y-73632977D01*
X156800000Y-73397022D01*
X156769201Y-73163089D01*
X156708128Y-72935161D01*
X156708127Y-72935157D01*
X156617837Y-72717177D01*
X156617835Y-72717173D01*
X156499855Y-72512827D01*
X156437278Y-72431274D01*
X155601041Y-73267511D01*
X155576022Y-73207110D01*
X155504888Y-73100649D01*
X155414351Y-73010112D01*
X155307890Y-72938978D01*
X155247486Y-72913957D01*
X156083724Y-72077720D01*
X156002172Y-72015144D01*
X155797826Y-71897164D01*
X155797822Y-71897162D01*
X155579839Y-71806871D01*
X155351910Y-71745798D01*
X155117978Y-71715000D01*
X154882022Y-71715000D01*
X154648089Y-71745798D01*
X154420161Y-71806871D01*
X154420160Y-71806871D01*
X154202177Y-71897162D01*
X154202173Y-71897164D01*
X153997829Y-72015142D01*
X153916274Y-72077720D01*
X154752512Y-72913958D01*
X154692110Y-72938978D01*
X154585649Y-73010112D01*
X154495112Y-73100649D01*
X154423978Y-73207110D01*
X154398958Y-73267512D01*
X153562720Y-72431274D01*
X153500142Y-72512829D01*
X153382164Y-72717173D01*
X153382162Y-72717177D01*
X153291873Y-72935157D01*
X153291871Y-72935161D01*
X153230798Y-73163089D01*
X153200000Y-73397022D01*
X126362500Y-73397022D01*
X126362500Y-72550446D01*
X126362500Y-72522204D01*
X126362501Y-72456312D01*
X126328394Y-72329018D01*
X126319201Y-72313096D01*
X126300527Y-72280752D01*
X126300527Y-72280750D01*
X126262501Y-72214888D01*
X126262500Y-72214886D01*
X126180985Y-72133371D01*
X122958397Y-68910725D01*
X151578500Y-68910725D01*
X151578500Y-68944492D01*
X151578500Y-69055675D01*
X151616015Y-69195682D01*
X151616017Y-69195687D01*
X151688488Y-69321211D01*
X151688489Y-69321212D01*
X151688491Y-69321215D01*
X151790985Y-69423709D01*
X151916515Y-69496184D01*
X152056525Y-69533700D01*
X152201474Y-69533700D01*
X152201475Y-69533700D01*
X152341485Y-69496184D01*
X152467015Y-69423709D01*
X152569509Y-69321215D01*
X152641984Y-69195685D01*
X152679500Y-69055675D01*
X152679500Y-68910725D01*
X152641984Y-68770715D01*
X152581885Y-68666621D01*
X152569511Y-68645188D01*
X152559574Y-68632238D01*
X152562158Y-68630254D01*
X152523441Y-68572292D01*
X152504500Y-68477036D01*
X152504500Y-65902123D01*
X153449500Y-65902123D01*
X153449500Y-68097865D01*
X153449500Y-68097868D01*
X153449501Y-68097872D01*
X153451567Y-68117093D01*
X153455908Y-68157480D01*
X153455909Y-68157484D01*
X153455936Y-68157556D01*
X153506204Y-68292331D01*
X153592454Y-68407546D01*
X153707669Y-68493796D01*
X153842517Y-68544091D01*
X153902127Y-68550500D01*
X156097872Y-68550499D01*
X156157483Y-68544091D01*
X156292331Y-68493796D01*
X156407546Y-68407546D01*
X156493796Y-68292331D01*
X156544091Y-68157483D01*
X156550500Y-68097873D01*
X156550499Y-65902128D01*
X156544091Y-65842517D01*
X156493796Y-65707669D01*
X156407546Y-65592454D01*
X156292331Y-65506204D01*
X156212117Y-65476286D01*
X156157481Y-65455908D01*
X156097873Y-65449500D01*
X153902134Y-65449500D01*
X153902130Y-65449500D01*
X153902128Y-65449501D01*
X153889314Y-65450878D01*
X153842519Y-65455908D01*
X153842515Y-65455909D01*
X153707670Y-65506203D01*
X153592455Y-65592453D01*
X153592453Y-65592455D01*
X153506204Y-65707669D01*
X153455908Y-65842518D01*
X153449500Y-65902123D01*
X152504500Y-65902123D01*
X152504500Y-61797963D01*
X153449500Y-61797963D01*
X153449500Y-62042036D01*
X153487678Y-62283073D01*
X153551704Y-62480126D01*
X153563096Y-62515185D01*
X153673894Y-62732639D01*
X153817345Y-62930083D01*
X153989917Y-63102655D01*
X154187361Y-63246106D01*
X154404815Y-63356904D01*
X154636924Y-63432321D01*
X154721703Y-63445748D01*
X154877963Y-63470499D01*
X154877970Y-63470499D01*
X154877973Y-63470500D01*
X154877976Y-63470500D01*
X155122024Y-63470500D01*
X155122027Y-63470500D01*
X155122030Y-63470499D01*
X155122036Y-63470499D01*
X155235906Y-63452462D01*
X155363076Y-63432321D01*
X155595185Y-63356904D01*
X155812639Y-63246106D01*
X156010083Y-63102655D01*
X156182655Y-62930083D01*
X156326106Y-62732639D01*
X156436904Y-62515185D01*
X156512321Y-62283076D01*
X156538632Y-62116957D01*
X156550499Y-62042036D01*
X156550500Y-62042024D01*
X156550500Y-61797975D01*
X156550499Y-61797963D01*
X156512321Y-61556926D01*
X156512321Y-61556924D01*
X156436904Y-61324815D01*
X156326106Y-61107361D01*
X156182655Y-60909917D01*
X156010083Y-60737345D01*
X155812639Y-60593894D01*
X155595185Y-60483096D01*
X155595182Y-60483095D01*
X155595180Y-60483094D01*
X155363073Y-60407678D01*
X155122036Y-60369500D01*
X155122027Y-60369500D01*
X154877973Y-60369500D01*
X154877963Y-60369500D01*
X154636926Y-60407678D01*
X154404819Y-60483094D01*
X154187359Y-60593895D01*
X153989919Y-60737343D01*
X153817343Y-60909919D01*
X153673895Y-61107359D01*
X153673894Y-61107361D01*
X153574438Y-61302556D01*
X153563094Y-61324819D01*
X153487678Y-61556926D01*
X153449500Y-61797963D01*
X152504500Y-61797963D01*
X152504500Y-56717963D01*
X153449500Y-56717963D01*
X153449500Y-56962036D01*
X153487678Y-57203073D01*
X153535614Y-57350606D01*
X153563096Y-57435185D01*
X153673894Y-57652639D01*
X153817345Y-57850083D01*
X153989917Y-58022655D01*
X154187361Y-58166106D01*
X154404815Y-58276904D01*
X154636924Y-58352321D01*
X154721703Y-58365748D01*
X154877963Y-58390499D01*
X154877970Y-58390499D01*
X154877973Y-58390500D01*
X154877976Y-58390500D01*
X155122024Y-58390500D01*
X155122027Y-58390500D01*
X155122030Y-58390499D01*
X155122036Y-58390499D01*
X155235906Y-58372462D01*
X155363076Y-58352321D01*
X155595185Y-58276904D01*
X155812639Y-58166106D01*
X156010083Y-58022655D01*
X156182655Y-57850083D01*
X156326106Y-57652639D01*
X156436904Y-57435185D01*
X156512321Y-57203076D01*
X156550500Y-56962027D01*
X156550500Y-56717973D01*
X156550499Y-56717970D01*
X156550499Y-56717963D01*
X156512321Y-56476926D01*
X156512321Y-56476924D01*
X156436904Y-56244815D01*
X156326106Y-56027361D01*
X156182655Y-55829917D01*
X156010083Y-55657345D01*
X155812639Y-55513894D01*
X155595185Y-55403096D01*
X155595182Y-55403095D01*
X155595180Y-55403094D01*
X155363073Y-55327678D01*
X155122036Y-55289500D01*
X155122027Y-55289500D01*
X154877973Y-55289500D01*
X154877963Y-55289500D01*
X154636926Y-55327678D01*
X154404819Y-55403094D01*
X154187359Y-55513895D01*
X153989919Y-55657343D01*
X153817343Y-55829919D01*
X153673895Y-56027359D01*
X153563094Y-56244819D01*
X153487678Y-56476926D01*
X153449500Y-56717963D01*
X152504500Y-56717963D01*
X152504500Y-54889488D01*
X152523454Y-54794200D01*
X152577427Y-54713421D01*
X154071034Y-53219918D01*
X154151812Y-53165950D01*
X154247101Y-53146999D01*
X154342388Y-53165956D01*
X154360128Y-53174135D01*
X154404815Y-53196904D01*
X154636924Y-53272321D01*
X154721703Y-53285748D01*
X154877963Y-53310499D01*
X154877970Y-53310499D01*
X154877973Y-53310500D01*
X154877976Y-53310500D01*
X155122024Y-53310500D01*
X155122027Y-53310500D01*
X155122030Y-53310499D01*
X155122036Y-53310499D01*
X155235906Y-53292462D01*
X155363076Y-53272321D01*
X155595185Y-53196904D01*
X155812639Y-53086106D01*
X156010083Y-52942655D01*
X156182655Y-52770083D01*
X156326106Y-52572639D01*
X156436904Y-52355185D01*
X156512321Y-52123076D01*
X156538632Y-51956957D01*
X156550499Y-51882036D01*
X156550500Y-51882024D01*
X156550500Y-51637975D01*
X156550499Y-51637963D01*
X156512321Y-51396926D01*
X156512321Y-51396924D01*
X156436904Y-51164815D01*
X156326106Y-50947361D01*
X156182655Y-50749917D01*
X156010083Y-50577345D01*
X155812639Y-50433894D01*
X155595185Y-50323096D01*
X155595182Y-50323095D01*
X155595180Y-50323094D01*
X155363073Y-50247678D01*
X155122036Y-50209500D01*
X155122027Y-50209500D01*
X154877973Y-50209500D01*
X154877963Y-50209500D01*
X154636926Y-50247678D01*
X154404819Y-50323094D01*
X154187359Y-50433895D01*
X153989919Y-50577343D01*
X153817343Y-50749919D01*
X153673895Y-50947359D01*
X153563094Y-51164819D01*
X153487678Y-51396926D01*
X153449500Y-51637963D01*
X153449500Y-51882036D01*
X153487678Y-52123073D01*
X153563093Y-52355177D01*
X153563098Y-52355190D01*
X153585805Y-52399756D01*
X153612176Y-52493264D01*
X153600755Y-52589745D01*
X153553282Y-52674512D01*
X153540006Y-52688872D01*
X151908048Y-54320716D01*
X151907963Y-54320801D01*
X151898444Y-54330321D01*
X151898438Y-54330325D01*
X151857366Y-54371396D01*
X151828534Y-54400227D01*
X151828531Y-54400231D01*
X151828525Y-54400238D01*
X151805280Y-54440500D01*
X151795792Y-54456933D01*
X151795790Y-54456936D01*
X151779094Y-54485851D01*
X151779094Y-54485852D01*
X151779093Y-54485855D01*
X151779090Y-54485862D01*
X151765285Y-54537382D01*
X151763864Y-54542685D01*
X151753502Y-54581348D01*
X151753500Y-54581365D01*
X151753500Y-54630798D01*
X151753497Y-54697546D01*
X151753500Y-54697589D01*
X151753500Y-68477036D01*
X151753392Y-68477573D01*
X151753498Y-68478114D01*
X151743919Y-68525200D01*
X151734546Y-68572324D01*
X151734240Y-68572781D01*
X151734131Y-68573319D01*
X151715194Y-68618481D01*
X151688491Y-68645185D01*
X151616016Y-68770715D01*
X151578500Y-68910725D01*
X122958397Y-68910725D01*
X118449782Y-64402028D01*
X126162500Y-64402028D01*
X126162500Y-64530171D01*
X126187498Y-64655842D01*
X126236532Y-64774222D01*
X126236535Y-64774227D01*
X126304728Y-64876286D01*
X126307724Y-64880769D01*
X126398331Y-64971376D01*
X126504873Y-65042565D01*
X126504875Y-65042565D01*
X126504877Y-65042567D01*
X126539549Y-65056928D01*
X126623256Y-65091601D01*
X126748929Y-65116599D01*
X126748930Y-65116600D01*
X126748931Y-65116600D01*
X126877070Y-65116600D01*
X126877070Y-65116599D01*
X127002744Y-65091601D01*
X127121127Y-65042565D01*
X127227669Y-64971376D01*
X127227678Y-64971366D01*
X127237123Y-64963617D01*
X127238248Y-64964988D01*
X127306396Y-64919454D01*
X127401684Y-64900500D01*
X129059309Y-64900500D01*
X129149666Y-64876288D01*
X129149667Y-64876287D01*
X129149673Y-64876286D01*
X129173887Y-64869799D01*
X129276614Y-64810489D01*
X129710490Y-64376614D01*
X129769799Y-64273887D01*
X129800499Y-64159309D01*
X129800499Y-64040691D01*
X129796375Y-64025302D01*
X129790022Y-63928357D01*
X129817295Y-63843479D01*
X129821058Y-63836437D01*
X129821065Y-63836427D01*
X129870101Y-63718044D01*
X129895100Y-63592369D01*
X129895100Y-63464231D01*
X129870101Y-63338556D01*
X129821065Y-63220173D01*
X129749876Y-63113631D01*
X129659269Y-63023024D01*
X129552727Y-62951835D01*
X129552722Y-62951832D01*
X129458858Y-62912953D01*
X129434344Y-62902799D01*
X129434342Y-62902798D01*
X129308671Y-62877800D01*
X129308669Y-62877800D01*
X129180531Y-62877800D01*
X129180528Y-62877800D01*
X129054857Y-62902798D01*
X128936477Y-62951832D01*
X128936472Y-62951835D01*
X128829934Y-63023021D01*
X128739321Y-63113634D01*
X128668135Y-63220172D01*
X128668132Y-63220177D01*
X128619098Y-63338557D01*
X128591713Y-63476229D01*
X128590004Y-63475889D01*
X128583748Y-63496508D01*
X128576614Y-63532375D01*
X128569749Y-63542648D01*
X128566161Y-63554476D01*
X128522638Y-63613157D01*
X128209228Y-63926569D01*
X128128447Y-63980546D01*
X128033159Y-63999500D01*
X127361085Y-63999500D01*
X127265797Y-63980546D01*
X127222748Y-63957536D01*
X127121127Y-63889635D01*
X127121122Y-63889632D01*
X127027258Y-63850753D01*
X127002744Y-63840599D01*
X127002742Y-63840598D01*
X126877071Y-63815600D01*
X126877069Y-63815600D01*
X126748931Y-63815600D01*
X126748928Y-63815600D01*
X126623257Y-63840598D01*
X126504877Y-63889632D01*
X126504872Y-63889635D01*
X126398334Y-63960821D01*
X126307721Y-64051434D01*
X126236535Y-64157972D01*
X126236532Y-64157977D01*
X126187498Y-64276357D01*
X126162500Y-64402028D01*
X118449782Y-64402028D01*
X117290074Y-63242299D01*
X115649865Y-61602060D01*
X115595889Y-61521278D01*
X115576936Y-61425990D01*
X115595891Y-61330702D01*
X115649860Y-61249930D01*
X117417382Y-59482332D01*
X117442009Y-59457705D01*
X117448122Y-59452404D01*
X117449529Y-59450818D01*
X117453781Y-59446301D01*
X117454493Y-59445220D01*
X117454500Y-59445214D01*
X117454502Y-59445209D01*
X117454506Y-59445206D01*
X117454525Y-59445172D01*
X117458584Y-59439019D01*
X117458585Y-59439017D01*
X117458592Y-59439007D01*
X117459879Y-59437054D01*
X117463413Y-59429777D01*
X117483353Y-59395237D01*
X117520392Y-59331086D01*
X117520393Y-59331080D01*
X117520396Y-59331076D01*
X117535408Y-59275044D01*
X117554500Y-59203792D01*
X117554500Y-59203785D01*
X117554501Y-59203782D01*
X117554500Y-59141658D01*
X117554500Y-52195018D01*
X130872500Y-52195018D01*
X130872500Y-53044999D01*
X130872501Y-53045000D01*
X132072499Y-53045000D01*
X132047479Y-53105402D01*
X132022500Y-53230981D01*
X132022500Y-53359019D01*
X132047479Y-53484598D01*
X132072499Y-53545000D01*
X130872502Y-53545000D01*
X130872501Y-53545001D01*
X130872501Y-54394984D01*
X130882994Y-54497699D01*
X130882995Y-54497702D01*
X130938140Y-54664119D01*
X130938141Y-54664121D01*
X131030181Y-54813341D01*
X131030184Y-54813345D01*
X131154154Y-54937315D01*
X131154158Y-54937318D01*
X131303378Y-55029358D01*
X131303379Y-55029359D01*
X131469798Y-55084504D01*
X131469805Y-55084505D01*
X131572523Y-55094999D01*
X132422498Y-55094999D01*
X132422500Y-55094998D01*
X132422500Y-53895001D01*
X132482902Y-53920021D01*
X132608481Y-53945000D01*
X132736519Y-53945000D01*
X132862098Y-53920021D01*
X132922500Y-53895001D01*
X132922500Y-55094998D01*
X132922501Y-55094999D01*
X133772468Y-55094999D01*
X133772484Y-55094998D01*
X133875199Y-55084505D01*
X133875202Y-55084504D01*
X134041619Y-55029359D01*
X134041621Y-55029358D01*
X134190841Y-54937318D01*
X134190845Y-54937315D01*
X134314815Y-54813345D01*
X134314818Y-54813341D01*
X134406858Y-54664121D01*
X134406859Y-54664120D01*
X134462004Y-54497701D01*
X134462005Y-54497694D01*
X134472499Y-54394981D01*
X134472500Y-54394971D01*
X134472500Y-53545001D01*
X134472499Y-53545000D01*
X133272501Y-53545000D01*
X133297521Y-53484598D01*
X133322500Y-53359019D01*
X133322500Y-53230981D01*
X133297521Y-53105402D01*
X133272501Y-53045000D01*
X134472498Y-53045000D01*
X134472499Y-53044999D01*
X134472499Y-52195032D01*
X134472498Y-52195015D01*
X134462005Y-52092300D01*
X134462004Y-52092297D01*
X134406859Y-51925880D01*
X134406858Y-51925878D01*
X134314818Y-51776658D01*
X134314815Y-51776654D01*
X134190845Y-51652684D01*
X134190841Y-51652681D01*
X134041621Y-51560641D01*
X134041620Y-51560640D01*
X133875201Y-51505495D01*
X133875194Y-51505494D01*
X133772481Y-51495000D01*
X132922501Y-51495000D01*
X132922500Y-51495001D01*
X132922500Y-52694998D01*
X132862098Y-52669979D01*
X132736519Y-52645000D01*
X132608481Y-52645000D01*
X132482902Y-52669979D01*
X132422500Y-52694998D01*
X132422500Y-51495001D01*
X132422499Y-51495000D01*
X131572523Y-51495000D01*
X131469800Y-51505494D01*
X131469797Y-51505495D01*
X131303380Y-51560640D01*
X131303378Y-51560641D01*
X131154158Y-51652681D01*
X131154154Y-51652684D01*
X131030184Y-51776654D01*
X131030181Y-51776658D01*
X130938141Y-51925878D01*
X130938140Y-51925879D01*
X130882995Y-52092298D01*
X130882994Y-52092305D01*
X130872500Y-52195018D01*
X117554500Y-52195018D01*
X117554500Y-48092963D01*
X131122000Y-48092963D01*
X131122000Y-48337036D01*
X131160178Y-48578073D01*
X131160179Y-48578076D01*
X131235596Y-48810185D01*
X131346394Y-49027639D01*
X131489845Y-49225083D01*
X131662417Y-49397655D01*
X131859861Y-49541106D01*
X132077315Y-49651904D01*
X132309424Y-49727321D01*
X132394203Y-49740748D01*
X132550463Y-49765499D01*
X132550470Y-49765499D01*
X132550473Y-49765500D01*
X132550476Y-49765500D01*
X132794524Y-49765500D01*
X132794527Y-49765500D01*
X132794530Y-49765499D01*
X132794536Y-49765499D01*
X132908406Y-49747462D01*
X133035576Y-49727321D01*
X133267685Y-49651904D01*
X133485139Y-49541106D01*
X133682583Y-49397655D01*
X133855155Y-49225083D01*
X133998606Y-49027639D01*
X134109404Y-48810185D01*
X134184821Y-48578076D01*
X134205233Y-48449201D01*
X134222999Y-48337036D01*
X134223000Y-48337024D01*
X134223000Y-48092975D01*
X134222999Y-48092966D01*
X134217768Y-48059939D01*
X134217768Y-48059938D01*
X134184821Y-47851926D01*
X134184821Y-47851924D01*
X134109404Y-47619815D01*
X133998606Y-47402361D01*
X133855155Y-47204917D01*
X133682583Y-47032345D01*
X133485139Y-46888894D01*
X133267685Y-46778096D01*
X133267684Y-46778095D01*
X133267679Y-46778093D01*
X133035573Y-46702678D01*
X132794536Y-46664500D01*
X132794527Y-46664500D01*
X132550473Y-46664500D01*
X132550463Y-46664500D01*
X132309426Y-46702678D01*
X132077319Y-46778094D01*
X131859859Y-46888895D01*
X131662419Y-47032343D01*
X131489843Y-47204919D01*
X131346395Y-47402359D01*
X131235594Y-47619819D01*
X131160178Y-47851926D01*
X131122000Y-48092963D01*
X117554500Y-48092963D01*
X117554500Y-46562022D01*
X153200000Y-46562022D01*
X153200000Y-46797977D01*
X153230798Y-47031910D01*
X153291871Y-47259838D01*
X153291871Y-47259839D01*
X153382162Y-47477822D01*
X153382164Y-47477826D01*
X153500144Y-47682172D01*
X153562720Y-47763724D01*
X154398957Y-46927486D01*
X154423978Y-46987890D01*
X154495112Y-47094351D01*
X154585649Y-47184888D01*
X154692110Y-47256022D01*
X154752511Y-47281041D01*
X153916274Y-48117278D01*
X153997827Y-48179855D01*
X154202173Y-48297835D01*
X154202177Y-48297837D01*
X154420160Y-48388128D01*
X154648089Y-48449201D01*
X154882022Y-48480000D01*
X155117978Y-48480000D01*
X155351910Y-48449201D01*
X155579838Y-48388128D01*
X155579839Y-48388128D01*
X155797822Y-48297837D01*
X155797826Y-48297835D01*
X156002172Y-48179855D01*
X156083724Y-48117277D01*
X155247488Y-47281041D01*
X155307890Y-47256022D01*
X155414351Y-47184888D01*
X155504888Y-47094351D01*
X155576022Y-46987890D01*
X155601041Y-46927488D01*
X156437277Y-47763724D01*
X156499855Y-47682172D01*
X156617835Y-47477826D01*
X156617837Y-47477822D01*
X156708128Y-47259839D01*
X156708128Y-47259838D01*
X156769201Y-47031910D01*
X156800000Y-46797977D01*
X156800000Y-46562022D01*
X156769201Y-46328089D01*
X156708128Y-46100161D01*
X156708128Y-46100160D01*
X156617837Y-45882177D01*
X156617835Y-45882173D01*
X156499855Y-45677827D01*
X156437278Y-45596274D01*
X155601041Y-46432511D01*
X155576022Y-46372110D01*
X155504888Y-46265649D01*
X155414351Y-46175112D01*
X155307890Y-46103978D01*
X155247486Y-46078957D01*
X156083724Y-45242720D01*
X156002172Y-45180144D01*
X155797826Y-45062164D01*
X155797822Y-45062162D01*
X155579839Y-44971871D01*
X155351910Y-44910798D01*
X155117978Y-44880000D01*
X154882022Y-44880000D01*
X154648089Y-44910798D01*
X154420161Y-44971871D01*
X154420160Y-44971871D01*
X154202177Y-45062162D01*
X154202173Y-45062164D01*
X153997829Y-45180142D01*
X153916274Y-45242720D01*
X154752512Y-46078958D01*
X154692110Y-46103978D01*
X154585649Y-46175112D01*
X154495112Y-46265649D01*
X154423978Y-46372110D01*
X154398958Y-46432512D01*
X153562720Y-45596274D01*
X153500142Y-45677829D01*
X153382164Y-45882173D01*
X153382162Y-45882177D01*
X153291871Y-46100160D01*
X153291871Y-46100161D01*
X153230798Y-46328089D01*
X153200000Y-46562022D01*
X117554500Y-46562022D01*
X117554500Y-46297750D01*
X117573454Y-46202462D01*
X117596464Y-46159413D01*
X117630465Y-46108527D01*
X117679501Y-45990144D01*
X117704500Y-45864469D01*
X117704500Y-45736331D01*
X117679501Y-45610656D01*
X117630465Y-45492273D01*
X117620496Y-45477353D01*
X117620495Y-45477351D01*
X117620494Y-45477350D01*
X117559280Y-45385736D01*
X117559278Y-45385734D01*
X117559276Y-45385731D01*
X117468669Y-45295124D01*
X117362127Y-45223935D01*
X117362122Y-45223932D01*
X117268258Y-45185053D01*
X117243744Y-45174899D01*
X117243742Y-45174898D01*
X117118071Y-45149900D01*
X117118069Y-45149900D01*
X116989931Y-45149900D01*
X116989928Y-45149900D01*
X116864257Y-45174898D01*
X116745877Y-45223932D01*
X116745872Y-45223935D01*
X116639334Y-45295121D01*
X116548721Y-45385734D01*
X116477535Y-45492272D01*
X116477532Y-45492277D01*
X116428498Y-45610657D01*
X116403500Y-45736328D01*
X116403500Y-45864471D01*
X116428498Y-45990142D01*
X116477532Y-46108522D01*
X116477535Y-46108527D01*
X116511536Y-46159413D01*
X116548716Y-46249172D01*
X116553500Y-46297750D01*
X116553500Y-58827456D01*
X116534546Y-58922744D01*
X116480573Y-59003522D01*
X115955544Y-59528574D01*
X115874764Y-59582552D01*
X115779476Y-59601508D01*
X115684188Y-59582556D01*
X115636339Y-59556258D01*
X115615000Y-59541267D01*
X115613509Y-59538685D01*
X115511015Y-59436191D01*
X115385485Y-59363716D01*
X115347928Y-59353652D01*
X115311840Y-59328301D01*
X115308160Y-59324446D01*
X115303382Y-59322089D01*
X115274749Y-59289437D01*
X115244763Y-59258017D01*
X115242839Y-59253047D01*
X115239326Y-59249041D01*
X115225368Y-59207917D01*
X115209689Y-59167414D01*
X115209813Y-59162086D01*
X115208101Y-59157041D01*
X115210943Y-59113703D01*
X115211957Y-59070286D01*
X115214110Y-59065412D01*
X115214459Y-59060094D01*
X115237713Y-59005975D01*
X115236790Y-59005505D01*
X115241230Y-58996790D01*
X115241232Y-58996788D01*
X115319873Y-58842445D01*
X115373402Y-58677701D01*
X115400500Y-58506611D01*
X115400500Y-58333389D01*
X115373402Y-58162299D01*
X115319873Y-57997555D01*
X115241232Y-57843212D01*
X115241230Y-57843209D01*
X115241229Y-57843207D01*
X115139418Y-57703077D01*
X115139416Y-57703075D01*
X115139414Y-57703072D01*
X115016928Y-57580586D01*
X115016924Y-57580583D01*
X115016922Y-57580581D01*
X114900099Y-57495704D01*
X114834150Y-57424361D01*
X114800524Y-57333211D01*
X114804338Y-57236131D01*
X114845013Y-57147900D01*
X114916356Y-57081951D01*
X114933415Y-57072398D01*
X115007553Y-57034622D01*
X115061716Y-56995270D01*
X114429408Y-56362962D01*
X114492993Y-56345925D01*
X114607007Y-56280099D01*
X114700099Y-56187007D01*
X114765925Y-56072993D01*
X114782962Y-56009408D01*
X115415270Y-56641716D01*
X115454624Y-56587551D01*
X115551091Y-56398224D01*
X115551095Y-56398215D01*
X115616758Y-56196123D01*
X115649999Y-55986256D01*
X115650000Y-55986244D01*
X115650000Y-55773755D01*
X115649999Y-55773743D01*
X115616758Y-55563876D01*
X115551095Y-55361784D01*
X115551091Y-55361774D01*
X115454624Y-55172448D01*
X115415270Y-55118282D01*
X115415269Y-55118282D01*
X114782962Y-55750589D01*
X114765925Y-55687007D01*
X114700099Y-55572993D01*
X114607007Y-55479901D01*
X114492993Y-55414075D01*
X114429408Y-55397037D01*
X115061717Y-54764729D01*
X115007551Y-54725375D01*
X115007544Y-54725371D01*
X114933414Y-54687600D01*
X114857117Y-54627452D01*
X114809645Y-54542685D01*
X114798226Y-54446203D01*
X114824598Y-54352696D01*
X114884746Y-54276399D01*
X114900087Y-54264304D01*
X115016928Y-54179414D01*
X115139414Y-54056928D01*
X115241232Y-53916788D01*
X115319873Y-53762445D01*
X115373402Y-53597701D01*
X115400500Y-53426611D01*
X115400500Y-53253389D01*
X115373402Y-53082299D01*
X115319873Y-52917555D01*
X115241232Y-52763212D01*
X115241230Y-52763209D01*
X115241229Y-52763207D01*
X115139418Y-52623077D01*
X115139416Y-52623075D01*
X115139414Y-52623072D01*
X115016928Y-52500586D01*
X115016924Y-52500583D01*
X115016922Y-52500581D01*
X114876792Y-52398770D01*
X114722443Y-52320126D01*
X114722434Y-52320122D01*
X114681470Y-52306813D01*
X114596702Y-52259342D01*
X114536554Y-52183045D01*
X114510182Y-52089538D01*
X114521601Y-51993056D01*
X114569072Y-51908288D01*
X114645369Y-51848140D01*
X114681470Y-51833187D01*
X114722434Y-51819877D01*
X114722437Y-51819875D01*
X114722445Y-51819873D01*
X114876788Y-51741232D01*
X115016928Y-51639414D01*
X115139414Y-51516928D01*
X115241232Y-51376788D01*
X115319873Y-51222445D01*
X115373402Y-51057701D01*
X115400500Y-50886611D01*
X115400500Y-50713389D01*
X115373402Y-50542299D01*
X115319873Y-50377555D01*
X115241232Y-50223212D01*
X115241230Y-50223209D01*
X115241229Y-50223207D01*
X115139418Y-50083077D01*
X115139416Y-50083075D01*
X115139414Y-50083072D01*
X115016928Y-49960586D01*
X115016924Y-49960583D01*
X115016922Y-49960581D01*
X114876792Y-49858770D01*
X114722443Y-49780126D01*
X114722437Y-49780124D01*
X114628195Y-49749503D01*
X114557701Y-49726598D01*
X114557699Y-49726597D01*
X114557697Y-49726597D01*
X114386621Y-49699501D01*
X114386614Y-49699500D01*
X114386611Y-49699500D01*
X114213389Y-49699500D01*
X114213386Y-49699500D01*
X114213378Y-49699501D01*
X114042302Y-49726597D01*
X113877562Y-49780124D01*
X113877556Y-49780126D01*
X113723207Y-49858770D01*
X113583077Y-49960581D01*
X113460581Y-50083077D01*
X113358770Y-50223207D01*
X113280126Y-50377556D01*
X113280124Y-50377562D01*
X113226597Y-50542302D01*
X113199501Y-50713378D01*
X113199500Y-50713393D01*
X113199500Y-50886606D01*
X113199501Y-50886621D01*
X113226597Y-51057697D01*
X113280124Y-51222437D01*
X113280126Y-51222443D01*
X113358770Y-51376792D01*
X113460581Y-51516922D01*
X113460583Y-51516924D01*
X113460586Y-51516928D01*
X113583072Y-51639414D01*
X113583075Y-51639416D01*
X113583077Y-51639418D01*
X113723207Y-51741229D01*
X113723209Y-51741230D01*
X113723212Y-51741232D01*
X113877555Y-51819873D01*
X113896846Y-51826141D01*
X113918530Y-51833187D01*
X114003298Y-51880659D01*
X114063446Y-51956957D01*
X114089817Y-52050464D01*
X114078398Y-52146945D01*
X114030926Y-52231713D01*
X113954628Y-52291861D01*
X113918530Y-52306813D01*
X113877562Y-52320124D01*
X113877556Y-52320126D01*
X113723207Y-52398770D01*
X113583077Y-52500581D01*
X113460581Y-52623077D01*
X113358770Y-52763207D01*
X113280126Y-52917556D01*
X113280124Y-52917562D01*
X113226597Y-53082302D01*
X113199501Y-53253378D01*
X113199500Y-53253393D01*
X113199500Y-53426606D01*
X113199501Y-53426621D01*
X113226597Y-53597697D01*
X113280124Y-53762437D01*
X113280126Y-53762443D01*
X113358770Y-53916792D01*
X113460581Y-54056922D01*
X113460583Y-54056924D01*
X113460586Y-54056928D01*
X113583072Y-54179414D01*
X113583075Y-54179416D01*
X113583079Y-54179420D01*
X113583082Y-54179422D01*
X113699899Y-54264295D01*
X113765848Y-54335638D01*
X113799475Y-54426788D01*
X113795661Y-54523868D01*
X113754986Y-54612098D01*
X113683643Y-54678047D01*
X113666586Y-54687600D01*
X113592450Y-54725374D01*
X113592441Y-54725380D01*
X113538281Y-54764728D01*
X114170591Y-55397037D01*
X114107007Y-55414075D01*
X113992993Y-55479901D01*
X113899901Y-55572993D01*
X113834075Y-55687007D01*
X113817037Y-55750590D01*
X113184728Y-55118281D01*
X113145380Y-55172441D01*
X113145372Y-55172454D01*
X113048908Y-55361774D01*
X113048904Y-55361784D01*
X112983241Y-55563876D01*
X112950000Y-55773743D01*
X112950000Y-55986256D01*
X112983241Y-56196123D01*
X113048904Y-56398215D01*
X113048908Y-56398225D01*
X113145371Y-56587545D01*
X113145375Y-56587551D01*
X113184729Y-56641717D01*
X113817037Y-56009408D01*
X113834075Y-56072993D01*
X113899901Y-56187007D01*
X113992993Y-56280099D01*
X114107007Y-56345925D01*
X114170589Y-56362962D01*
X113538282Y-56995269D01*
X113538282Y-56995270D01*
X113592445Y-57034622D01*
X113666584Y-57072398D01*
X113742882Y-57132546D01*
X113790354Y-57217313D01*
X113801773Y-57313795D01*
X113775402Y-57407302D01*
X113715254Y-57483600D01*
X113699900Y-57495704D01*
X113583078Y-57580580D01*
X113460581Y-57703077D01*
X113358770Y-57843207D01*
X113280126Y-57997556D01*
X113280124Y-57997562D01*
X113226597Y-58162302D01*
X113199501Y-58333378D01*
X113199500Y-58333393D01*
X113199500Y-58506606D01*
X113199501Y-58506621D01*
X113226597Y-58677697D01*
X113280124Y-58842437D01*
X113280126Y-58842443D01*
X113358770Y-58996792D01*
X113460581Y-59136922D01*
X113460583Y-59136924D01*
X113460586Y-59136928D01*
X113509890Y-59186232D01*
X113563864Y-59267011D01*
X113582818Y-59362299D01*
X113563864Y-59457587D01*
X113509889Y-59538367D01*
X113509873Y-59538382D01*
X113509861Y-59538395D01*
X112903270Y-60144805D01*
X112892460Y-60155611D01*
X112892438Y-60155625D01*
X112856176Y-60191886D01*
X112822560Y-60225493D01*
X112822537Y-60225516D01*
X112797431Y-60269000D01*
X112797365Y-60269114D01*
X112797022Y-60269710D01*
X112773111Y-60311111D01*
X112773103Y-60311138D01*
X112773090Y-60311162D01*
X112772790Y-60312280D01*
X112772789Y-60312283D01*
X112761085Y-60355960D01*
X112761078Y-60355987D01*
X112747506Y-60406608D01*
X112747500Y-60406654D01*
X112747500Y-60456078D01*
X112747491Y-60521780D01*
X97771835Y-60521780D01*
X97701232Y-60383212D01*
X97701230Y-60383209D01*
X97701229Y-60383207D01*
X97599418Y-60243077D01*
X97599416Y-60243075D01*
X97599414Y-60243072D01*
X97476928Y-60120586D01*
X97476924Y-60120583D01*
X97476922Y-60120581D01*
X97336792Y-60018770D01*
X97182443Y-59940126D01*
X97182434Y-59940122D01*
X97141470Y-59926813D01*
X97056702Y-59879342D01*
X96996554Y-59803045D01*
X96970182Y-59709538D01*
X96981601Y-59613056D01*
X97029072Y-59528288D01*
X97105369Y-59468140D01*
X97141470Y-59453187D01*
X97182434Y-59439877D01*
X97182437Y-59439875D01*
X97182445Y-59439873D01*
X97336788Y-59361232D01*
X97476928Y-59259414D01*
X97599414Y-59136928D01*
X97701232Y-58996788D01*
X97779873Y-58842445D01*
X97833402Y-58677701D01*
X97860500Y-58506611D01*
X97860500Y-58333389D01*
X97833402Y-58162299D01*
X97779873Y-57997555D01*
X97701232Y-57843212D01*
X97701230Y-57843209D01*
X97701229Y-57843207D01*
X97599418Y-57703077D01*
X97599416Y-57703075D01*
X97599414Y-57703072D01*
X97476928Y-57580586D01*
X97476924Y-57580583D01*
X97476922Y-57580581D01*
X97360099Y-57495704D01*
X97294150Y-57424361D01*
X97260524Y-57333211D01*
X97264338Y-57236131D01*
X97305013Y-57147900D01*
X97376356Y-57081951D01*
X97393415Y-57072398D01*
X97467553Y-57034622D01*
X97521716Y-56995270D01*
X96889408Y-56362962D01*
X96952993Y-56345925D01*
X97067007Y-56280099D01*
X97160099Y-56187007D01*
X97225925Y-56072993D01*
X97242962Y-56009408D01*
X97875270Y-56641716D01*
X97914624Y-56587551D01*
X98011091Y-56398224D01*
X98011095Y-56398215D01*
X98076758Y-56196123D01*
X98109999Y-55986256D01*
X98110000Y-55986244D01*
X98110000Y-55773755D01*
X98109999Y-55773743D01*
X98076758Y-55563876D01*
X98011095Y-55361784D01*
X98011091Y-55361774D01*
X97914624Y-55172448D01*
X97875270Y-55118282D01*
X97875269Y-55118282D01*
X97242962Y-55750589D01*
X97225925Y-55687007D01*
X97160099Y-55572993D01*
X97067007Y-55479901D01*
X96952993Y-55414075D01*
X96889408Y-55397037D01*
X97521717Y-54764729D01*
X97467551Y-54725375D01*
X97467544Y-54725371D01*
X97393414Y-54687600D01*
X97317117Y-54627452D01*
X97269645Y-54542685D01*
X97258226Y-54446203D01*
X97284598Y-54352696D01*
X97344746Y-54276399D01*
X97360087Y-54264304D01*
X97476928Y-54179414D01*
X97599414Y-54056928D01*
X97701232Y-53916788D01*
X97779873Y-53762445D01*
X97833402Y-53597701D01*
X97860500Y-53426611D01*
X97860500Y-53253389D01*
X97833402Y-53082299D01*
X97779873Y-52917555D01*
X97701232Y-52763212D01*
X97701230Y-52763209D01*
X97701229Y-52763207D01*
X97599418Y-52623077D01*
X97599416Y-52623075D01*
X97599414Y-52623072D01*
X97476928Y-52500586D01*
X97476924Y-52500583D01*
X97476922Y-52500581D01*
X97336791Y-52398770D01*
X97336788Y-52398768D01*
X97282998Y-52371361D01*
X97206700Y-52311214D01*
X97159227Y-52226446D01*
X97147807Y-52129965D01*
X97174179Y-52036458D01*
X97234326Y-51960160D01*
X97319094Y-51912687D01*
X97396040Y-51900500D01*
X97634675Y-51900500D01*
X97634675Y-51900499D01*
X97707740Y-51885966D01*
X97790601Y-51830601D01*
X97845966Y-51747740D01*
X97860500Y-51674674D01*
X97860500Y-49925326D01*
X97845966Y-49852260D01*
X97797769Y-49780127D01*
X97790602Y-49769400D01*
X97790599Y-49769397D01*
X97726542Y-49726597D01*
X97707740Y-49714034D01*
X97707739Y-49714033D01*
X97634676Y-49699500D01*
X97634674Y-49699500D01*
X95885326Y-49699500D01*
X95885323Y-49699500D01*
X95812260Y-49714033D01*
X95729400Y-49769397D01*
X95729397Y-49769400D01*
X95674033Y-49852260D01*
X95659500Y-49925323D01*
X95659500Y-51674676D01*
X95674033Y-51747739D01*
X95729397Y-51830599D01*
X95729399Y-51830601D01*
X95812260Y-51885966D01*
X95885324Y-51900499D01*
X95885325Y-51900500D01*
X96123960Y-51900500D01*
X96219248Y-51919454D01*
X96300030Y-51973430D01*
X96354006Y-52054212D01*
X96372960Y-52149500D01*
X96354006Y-52244788D01*
X96300030Y-52325570D01*
X96237002Y-52371361D01*
X96183211Y-52398768D01*
X96183208Y-52398770D01*
X96043077Y-52500581D01*
X95920581Y-52623077D01*
X95818770Y-52763207D01*
X95740126Y-52917556D01*
X95740124Y-52917562D01*
X95686597Y-53082302D01*
X95659501Y-53253378D01*
X95659500Y-53253393D01*
X95659500Y-53426606D01*
X95659501Y-53426621D01*
X95686597Y-53597697D01*
X95740124Y-53762437D01*
X95740126Y-53762443D01*
X95818770Y-53916792D01*
X95920581Y-54056922D01*
X95920583Y-54056924D01*
X95920586Y-54056928D01*
X96043072Y-54179414D01*
X96043075Y-54179416D01*
X96043079Y-54179420D01*
X96043082Y-54179422D01*
X96159899Y-54264295D01*
X96225848Y-54335638D01*
X96259475Y-54426788D01*
X96255661Y-54523868D01*
X96214986Y-54612098D01*
X96143643Y-54678047D01*
X96126586Y-54687600D01*
X96052450Y-54725374D01*
X96052441Y-54725380D01*
X95998281Y-54764728D01*
X96630591Y-55397037D01*
X96567007Y-55414075D01*
X96452993Y-55479901D01*
X96359901Y-55572993D01*
X96294075Y-55687007D01*
X96277037Y-55750590D01*
X95644728Y-55118281D01*
X95605380Y-55172441D01*
X95605372Y-55172454D01*
X95508908Y-55361774D01*
X95508904Y-55361784D01*
X95443241Y-55563876D01*
X95410000Y-55773743D01*
X95410000Y-55986256D01*
X95443241Y-56196123D01*
X95508904Y-56398215D01*
X95508908Y-56398225D01*
X95605371Y-56587545D01*
X95605375Y-56587551D01*
X95644729Y-56641717D01*
X96277037Y-56009408D01*
X96294075Y-56072993D01*
X96359901Y-56187007D01*
X96452993Y-56280099D01*
X96567007Y-56345925D01*
X96630589Y-56362962D01*
X95998282Y-56995269D01*
X95998282Y-56995270D01*
X96052445Y-57034622D01*
X96126584Y-57072398D01*
X96202882Y-57132546D01*
X96250354Y-57217313D01*
X96261773Y-57313795D01*
X96235402Y-57407302D01*
X96175254Y-57483600D01*
X96159900Y-57495704D01*
X96043078Y-57580580D01*
X95920581Y-57703077D01*
X95818770Y-57843207D01*
X95740126Y-57997556D01*
X95740124Y-57997562D01*
X95686597Y-58162302D01*
X95659501Y-58333378D01*
X95659500Y-58333393D01*
X95659500Y-58407122D01*
X95640546Y-58502410D01*
X95586570Y-58583192D01*
X83194038Y-70975723D01*
X83194039Y-70975724D01*
X83124124Y-71045639D01*
X83074690Y-71131262D01*
X83049100Y-71226763D01*
X83049100Y-92036723D01*
X83030146Y-92132011D01*
X82976170Y-92212793D01*
X82792770Y-92396193D01*
X82711988Y-92450169D01*
X82616700Y-92469123D01*
X82521412Y-92450169D01*
X82440630Y-92396193D01*
X82386654Y-92315411D01*
X82367700Y-92220123D01*
X82367700Y-88102763D01*
X82356397Y-88060581D01*
X82342110Y-88007262D01*
X82292675Y-87921638D01*
X82222762Y-87851725D01*
X81928430Y-87557393D01*
X81874454Y-87476611D01*
X81870862Y-87467428D01*
X81855500Y-87425744D01*
X81855500Y-87364234D01*
X81816281Y-87217865D01*
X81740515Y-87086635D01*
X81724694Y-87070814D01*
X81708217Y-87026105D01*
X81706423Y-87014759D01*
X81701343Y-87004458D01*
X81698893Y-86967113D01*
X81693050Y-86930141D01*
X81695735Y-86918970D01*
X81694984Y-86907511D01*
X81707011Y-86872074D01*
X81715762Y-86835678D01*
X81722517Y-86826386D01*
X81726209Y-86815510D01*
X81737398Y-86798763D01*
X81740515Y-86793365D01*
X81816281Y-86662135D01*
X81855500Y-86515766D01*
X81855500Y-86364234D01*
X81816281Y-86217865D01*
X81764532Y-86128234D01*
X81740517Y-86086638D01*
X81740516Y-86086637D01*
X81740515Y-86086635D01*
X81633365Y-85979485D01*
X81633362Y-85979483D01*
X81633361Y-85979482D01*
X81569659Y-85942704D01*
X81502135Y-85903719D01*
X81502132Y-85903718D01*
X81502134Y-85903718D01*
X81355766Y-85864500D01*
X81204234Y-85864500D01*
X81057866Y-85903718D01*
X80926638Y-85979482D01*
X80819482Y-86086638D01*
X80743718Y-86217866D01*
X80704500Y-86364233D01*
X80704500Y-86381323D01*
X80685546Y-86476611D01*
X80631571Y-86557390D01*
X80406526Y-86782437D01*
X80273524Y-86915439D01*
X80224090Y-87001062D01*
X80198500Y-87096563D01*
X53840500Y-87096563D01*
X53840500Y-77732123D01*
X75199500Y-77732123D01*
X75199500Y-79927865D01*
X75199500Y-79927868D01*
X75199501Y-79927872D01*
X75200058Y-79933056D01*
X75205908Y-79987480D01*
X75205909Y-79987484D01*
X75246112Y-80095273D01*
X75256204Y-80122331D01*
X75342454Y-80237546D01*
X75457669Y-80323796D01*
X75592517Y-80374091D01*
X75652127Y-80380500D01*
X77847872Y-80380499D01*
X77907483Y-80374091D01*
X78042331Y-80323796D01*
X78157546Y-80237546D01*
X78243796Y-80122331D01*
X78294091Y-79987483D01*
X78300500Y-79927873D01*
X78300499Y-77732128D01*
X78294091Y-77672517D01*
X78243796Y-77537669D01*
X78157546Y-77422454D01*
X78042331Y-77336204D01*
X77946604Y-77300500D01*
X77907481Y-77285908D01*
X77847873Y-77279500D01*
X75652134Y-77279500D01*
X75652130Y-77279500D01*
X75652128Y-77279501D01*
X75641356Y-77280659D01*
X75592519Y-77285908D01*
X75592515Y-77285909D01*
X75457670Y-77336203D01*
X75365373Y-77405297D01*
X75342454Y-77422454D01*
X75261140Y-77531075D01*
X75256204Y-77537669D01*
X75205908Y-77672518D01*
X75199500Y-77732123D01*
X53840500Y-77732123D01*
X53840500Y-72193467D01*
X60769500Y-72193467D01*
X60769500Y-72586532D01*
X60808026Y-72977697D01*
X60884711Y-73363222D01*
X60998805Y-73739339D01*
X60998813Y-73739360D01*
X61149226Y-74102491D01*
X61149228Y-74102495D01*
X61149229Y-74102497D01*
X61182637Y-74165000D01*
X61334521Y-74449154D01*
X61552884Y-74775956D01*
X61552893Y-74775969D01*
X61802250Y-75079812D01*
X62080188Y-75357750D01*
X62384031Y-75607107D01*
X62710851Y-75825482D01*
X63057503Y-76010771D01*
X63420647Y-76161190D01*
X63420659Y-76161193D01*
X63420660Y-76161194D01*
X63796777Y-76275288D01*
X63796781Y-76275288D01*
X63796785Y-76275290D01*
X64182297Y-76351973D01*
X64573468Y-76390500D01*
X64573471Y-76390500D01*
X64966529Y-76390500D01*
X64966532Y-76390500D01*
X65357703Y-76351973D01*
X65743215Y-76275290D01*
X66119353Y-76161190D01*
X66482497Y-76010771D01*
X66829149Y-75825482D01*
X67155969Y-75607107D01*
X67459812Y-75357750D01*
X67737750Y-75079812D01*
X67987107Y-74775969D01*
X68205482Y-74449149D01*
X68390771Y-74102497D01*
X68541190Y-73739353D01*
X68574980Y-73627963D01*
X75199500Y-73627963D01*
X75199500Y-73872036D01*
X75237678Y-74113073D01*
X75302580Y-74312822D01*
X75313096Y-74345185D01*
X75423894Y-74562639D01*
X75567345Y-74760083D01*
X75739917Y-74932655D01*
X75937361Y-75076106D01*
X76154815Y-75186904D01*
X76386924Y-75262321D01*
X76471703Y-75275748D01*
X76627963Y-75300499D01*
X76627970Y-75300499D01*
X76627973Y-75300500D01*
X76627976Y-75300500D01*
X76872024Y-75300500D01*
X76872027Y-75300500D01*
X76872030Y-75300499D01*
X76872036Y-75300499D01*
X76985906Y-75282462D01*
X77113076Y-75262321D01*
X77345185Y-75186904D01*
X77562639Y-75076106D01*
X77760083Y-74932655D01*
X77932655Y-74760083D01*
X78076106Y-74562639D01*
X78186904Y-74345185D01*
X78262321Y-74113076D01*
X78293266Y-73917701D01*
X78300499Y-73872036D01*
X78300500Y-73872024D01*
X78300500Y-73627975D01*
X78300499Y-73627963D01*
X78272467Y-73450981D01*
X78262321Y-73386924D01*
X78186904Y-73154815D01*
X78076106Y-72937361D01*
X77932655Y-72739917D01*
X77760083Y-72567345D01*
X77562639Y-72423894D01*
X77345185Y-72313096D01*
X77345182Y-72313095D01*
X77345180Y-72313094D01*
X77113073Y-72237678D01*
X76872036Y-72199500D01*
X76872027Y-72199500D01*
X76627973Y-72199500D01*
X76627963Y-72199500D01*
X76386926Y-72237678D01*
X76154819Y-72313094D01*
X75937359Y-72423895D01*
X75739919Y-72567343D01*
X75567343Y-72739919D01*
X75423895Y-72937359D01*
X75313094Y-73154819D01*
X75237678Y-73386926D01*
X75199500Y-73627963D01*
X68574980Y-73627963D01*
X68589827Y-73579019D01*
X68599871Y-73545909D01*
X68655288Y-73363222D01*
X68655288Y-73363220D01*
X68655290Y-73363215D01*
X68731973Y-72977703D01*
X68770500Y-72586532D01*
X68770500Y-72193468D01*
X68731973Y-71802297D01*
X68655290Y-71416785D01*
X68637702Y-71358806D01*
X68541194Y-71040660D01*
X68541193Y-71040659D01*
X68541190Y-71040647D01*
X68390771Y-70677503D01*
X68205482Y-70330851D01*
X67987107Y-70004031D01*
X67737750Y-69700188D01*
X67459812Y-69422250D01*
X67155969Y-69172893D01*
X67155956Y-69172884D01*
X66829154Y-68954521D01*
X66829151Y-68954519D01*
X66829149Y-68954518D01*
X66485281Y-68770717D01*
X66482490Y-68769225D01*
X66480098Y-68768235D01*
X66119360Y-68618813D01*
X66119353Y-68618810D01*
X66119348Y-68618808D01*
X66119339Y-68618805D01*
X65885805Y-68547963D01*
X75199500Y-68547963D01*
X75199500Y-68792036D01*
X75237678Y-69033073D01*
X75290621Y-69196016D01*
X75313096Y-69265185D01*
X75423894Y-69482639D01*
X75567345Y-69680083D01*
X75739917Y-69852655D01*
X75937361Y-69996106D01*
X76154815Y-70106904D01*
X76386924Y-70182321D01*
X76471703Y-70195748D01*
X76627963Y-70220499D01*
X76627970Y-70220499D01*
X76627973Y-70220500D01*
X76627976Y-70220500D01*
X76872024Y-70220500D01*
X76872027Y-70220500D01*
X76872030Y-70220499D01*
X76872036Y-70220499D01*
X76985906Y-70202462D01*
X77113076Y-70182321D01*
X77345185Y-70106904D01*
X77562639Y-69996106D01*
X77760083Y-69852655D01*
X77932655Y-69680083D01*
X78076106Y-69482639D01*
X78186904Y-69265185D01*
X78262321Y-69033076D01*
X78293266Y-68837701D01*
X78300499Y-68792036D01*
X78300500Y-68792024D01*
X78300500Y-68547975D01*
X78300499Y-68547963D01*
X78275400Y-68389500D01*
X78262321Y-68306924D01*
X78186904Y-68074815D01*
X78076106Y-67857361D01*
X77932655Y-67659917D01*
X77760083Y-67487345D01*
X77562639Y-67343894D01*
X77345185Y-67233096D01*
X77345182Y-67233095D01*
X77345180Y-67233094D01*
X77113073Y-67157678D01*
X76872036Y-67119500D01*
X76872027Y-67119500D01*
X76627973Y-67119500D01*
X76627963Y-67119500D01*
X76386926Y-67157678D01*
X76154819Y-67233094D01*
X75937359Y-67343895D01*
X75739919Y-67487343D01*
X75567343Y-67659919D01*
X75423895Y-67857359D01*
X75313094Y-68074819D01*
X75237678Y-68306926D01*
X75199500Y-68547963D01*
X65885805Y-68547963D01*
X65743222Y-68504711D01*
X65485012Y-68453350D01*
X65357703Y-68428027D01*
X65357701Y-68428026D01*
X65357697Y-68428026D01*
X64966532Y-68389500D01*
X64573468Y-68389500D01*
X64573467Y-68389500D01*
X64182302Y-68428026D01*
X63796777Y-68504711D01*
X63420660Y-68618805D01*
X63420639Y-68618813D01*
X63057508Y-68769226D01*
X62710845Y-68954521D01*
X62384043Y-69172884D01*
X62384032Y-69172892D01*
X62080191Y-69422247D01*
X61802247Y-69700191D01*
X61552892Y-70004032D01*
X61552884Y-70004043D01*
X61334521Y-70330845D01*
X61149226Y-70677508D01*
X60998813Y-71040639D01*
X60998805Y-71040660D01*
X60884711Y-71416777D01*
X60808026Y-71802302D01*
X60769500Y-72193467D01*
X53840500Y-72193467D01*
X53840500Y-57320018D01*
X59160000Y-57320018D01*
X59160000Y-58169999D01*
X59160001Y-58170000D01*
X60359999Y-58170000D01*
X60334979Y-58230402D01*
X60310000Y-58355981D01*
X60310000Y-58484019D01*
X60334979Y-58609598D01*
X60359999Y-58670000D01*
X59160002Y-58670000D01*
X59160001Y-58670001D01*
X59160001Y-59519984D01*
X59170494Y-59622699D01*
X59170495Y-59622702D01*
X59225640Y-59789119D01*
X59225641Y-59789121D01*
X59317681Y-59938341D01*
X59317684Y-59938345D01*
X59441654Y-60062315D01*
X59441658Y-60062318D01*
X59590878Y-60154358D01*
X59590879Y-60154359D01*
X59757298Y-60209504D01*
X59757305Y-60209505D01*
X59860023Y-60219999D01*
X60709998Y-60219999D01*
X60710000Y-60219998D01*
X60710000Y-59020001D01*
X60770402Y-59045021D01*
X60895981Y-59070000D01*
X61024019Y-59070000D01*
X61149598Y-59045021D01*
X61210000Y-59020001D01*
X61210000Y-60219998D01*
X61210001Y-60219999D01*
X62059968Y-60219999D01*
X62059984Y-60219998D01*
X62162699Y-60209505D01*
X62162702Y-60209504D01*
X62329119Y-60154359D01*
X62329121Y-60154358D01*
X62478341Y-60062318D01*
X62478345Y-60062315D01*
X62602315Y-59938345D01*
X62602318Y-59938341D01*
X62654670Y-59853466D01*
X88224500Y-59853466D01*
X88224500Y-59986533D01*
X88250459Y-60117034D01*
X88250460Y-60117037D01*
X88301376Y-60239960D01*
X88301380Y-60239969D01*
X88375305Y-60350606D01*
X88469394Y-60444695D01*
X88580031Y-60518620D01*
X88702964Y-60569540D01*
X88833467Y-60595499D01*
X88833468Y-60595500D01*
X88833469Y-60595500D01*
X88966532Y-60595500D01*
X88966532Y-60595499D01*
X89097036Y-60569540D01*
X89219969Y-60518620D01*
X89330606Y-60444695D01*
X89424695Y-60350606D01*
X89498620Y-60239969D01*
X89549540Y-60117036D01*
X89575500Y-59986531D01*
X89575500Y-59853469D01*
X89549540Y-59722964D01*
X89498620Y-59600031D01*
X89424695Y-59489394D01*
X89330606Y-59395305D01*
X89219969Y-59321380D01*
X89219963Y-59321377D01*
X89219960Y-59321376D01*
X89097037Y-59270460D01*
X89097034Y-59270459D01*
X88966533Y-59244500D01*
X88966531Y-59244500D01*
X88833469Y-59244500D01*
X88833466Y-59244500D01*
X88702965Y-59270459D01*
X88702962Y-59270460D01*
X88580039Y-59321376D01*
X88580033Y-59321379D01*
X88580031Y-59321380D01*
X88546169Y-59344006D01*
X88469395Y-59395304D01*
X88375304Y-59489395D01*
X88349317Y-59528288D01*
X88313057Y-59582556D01*
X88301379Y-59600033D01*
X88301376Y-59600039D01*
X88250460Y-59722962D01*
X88250459Y-59722965D01*
X88224500Y-59853466D01*
X62654670Y-59853466D01*
X62694358Y-59789121D01*
X62694359Y-59789119D01*
X62703043Y-59762914D01*
X62703043Y-59762912D01*
X62749503Y-59622704D01*
X62749505Y-59622694D01*
X62759999Y-59519981D01*
X62760000Y-59519971D01*
X62760000Y-58670001D01*
X62759999Y-58670000D01*
X61560001Y-58670000D01*
X61585021Y-58609598D01*
X61610000Y-58484019D01*
X61610000Y-58355981D01*
X61585021Y-58230402D01*
X61560001Y-58170000D01*
X62759998Y-58170000D01*
X62759999Y-58169999D01*
X62759999Y-57320032D01*
X62759998Y-57320015D01*
X62749505Y-57217300D01*
X62749504Y-57217297D01*
X62694359Y-57050880D01*
X62694358Y-57050878D01*
X62645678Y-56971955D01*
X62602318Y-56901658D01*
X62602315Y-56901654D01*
X62554127Y-56853466D01*
X88224500Y-56853466D01*
X88224500Y-56986533D01*
X88250459Y-57117034D01*
X88250460Y-57117037D01*
X88299790Y-57236131D01*
X88301380Y-57239969D01*
X88375305Y-57350606D01*
X88469394Y-57444695D01*
X88580031Y-57518620D01*
X88702964Y-57569540D01*
X88833467Y-57595499D01*
X88833468Y-57595500D01*
X88833469Y-57595500D01*
X88966532Y-57595500D01*
X88966532Y-57595499D01*
X89097036Y-57569540D01*
X89219969Y-57518620D01*
X89330606Y-57444695D01*
X89424695Y-57350606D01*
X89498620Y-57239969D01*
X89549540Y-57117036D01*
X89575500Y-56986531D01*
X89575500Y-56853469D01*
X89549540Y-56722964D01*
X89498620Y-56600031D01*
X89424695Y-56489394D01*
X89330606Y-56395305D01*
X89219969Y-56321380D01*
X89219963Y-56321377D01*
X89219960Y-56321376D01*
X89097037Y-56270460D01*
X89097034Y-56270459D01*
X88966533Y-56244500D01*
X88966531Y-56244500D01*
X88833469Y-56244500D01*
X88833466Y-56244500D01*
X88702965Y-56270459D01*
X88702962Y-56270460D01*
X88580039Y-56321376D01*
X88580033Y-56321379D01*
X88580031Y-56321380D01*
X88543297Y-56345925D01*
X88469395Y-56395304D01*
X88375304Y-56489395D01*
X88301379Y-56600033D01*
X88301376Y-56600039D01*
X88250460Y-56722962D01*
X88250459Y-56722965D01*
X88224500Y-56853466D01*
X62554127Y-56853466D01*
X62478345Y-56777684D01*
X62478341Y-56777681D01*
X62329121Y-56685641D01*
X62329120Y-56685640D01*
X62162701Y-56630495D01*
X62162694Y-56630494D01*
X62059981Y-56620000D01*
X61210001Y-56620000D01*
X61210000Y-56620001D01*
X61210000Y-57819998D01*
X61149598Y-57794979D01*
X61024019Y-57770000D01*
X60895981Y-57770000D01*
X60770402Y-57794979D01*
X60710000Y-57819998D01*
X60710000Y-56620001D01*
X60709999Y-56620000D01*
X59860023Y-56620000D01*
X59757300Y-56630494D01*
X59757297Y-56630495D01*
X59590880Y-56685640D01*
X59590878Y-56685641D01*
X59441658Y-56777681D01*
X59441654Y-56777684D01*
X59317684Y-56901654D01*
X59317681Y-56901658D01*
X59225641Y-57050878D01*
X59225640Y-57050879D01*
X59170495Y-57217298D01*
X59170494Y-57217305D01*
X59160000Y-57320018D01*
X53840500Y-57320018D01*
X53840500Y-53217963D01*
X59409500Y-53217963D01*
X59409500Y-53462036D01*
X59447678Y-53703073D01*
X59517119Y-53916792D01*
X59523096Y-53935185D01*
X59633894Y-54152639D01*
X59777345Y-54350083D01*
X59949917Y-54522655D01*
X60147361Y-54666106D01*
X60364815Y-54776904D01*
X60596924Y-54852321D01*
X60681703Y-54865748D01*
X60837963Y-54890499D01*
X60837970Y-54890499D01*
X60837973Y-54890500D01*
X60837976Y-54890500D01*
X61082024Y-54890500D01*
X61082027Y-54890500D01*
X61082030Y-54890499D01*
X61082036Y-54890499D01*
X61195906Y-54872462D01*
X61323076Y-54852321D01*
X61555185Y-54776904D01*
X61772639Y-54666106D01*
X61970083Y-54522655D01*
X62142655Y-54350083D01*
X62286106Y-54152639D01*
X62396904Y-53935185D01*
X62472321Y-53703076D01*
X62510500Y-53462027D01*
X62510500Y-53217973D01*
X62510499Y-53217970D01*
X62510499Y-53217963D01*
X62472321Y-52976926D01*
X62472321Y-52976924D01*
X62396904Y-52744815D01*
X62286106Y-52527361D01*
X62142655Y-52329917D01*
X61970083Y-52157345D01*
X61772639Y-52013894D01*
X61555185Y-51903096D01*
X61555182Y-51903095D01*
X61555180Y-51903094D01*
X61323073Y-51827678D01*
X61082036Y-51789500D01*
X61082027Y-51789500D01*
X60837973Y-51789500D01*
X60837963Y-51789500D01*
X60596926Y-51827678D01*
X60364819Y-51903094D01*
X60147359Y-52013895D01*
X59949919Y-52157343D01*
X59777343Y-52329919D01*
X59633895Y-52527359D01*
X59523094Y-52744819D01*
X59447678Y-52976926D01*
X59409500Y-53217963D01*
X53840500Y-53217963D01*
X53840500Y-41477963D01*
X153449500Y-41477963D01*
X153449500Y-41722036D01*
X153487678Y-41963073D01*
X153487679Y-41963076D01*
X153563096Y-42195185D01*
X153673894Y-42412639D01*
X153817345Y-42610083D01*
X153989917Y-42782655D01*
X154187361Y-42926106D01*
X154404815Y-43036904D01*
X154636924Y-43112321D01*
X154721703Y-43125748D01*
X154877963Y-43150499D01*
X154877970Y-43150499D01*
X154877973Y-43150500D01*
X154877976Y-43150500D01*
X155122024Y-43150500D01*
X155122027Y-43150500D01*
X155122030Y-43150499D01*
X155122036Y-43150499D01*
X155235906Y-43132462D01*
X155363076Y-43112321D01*
X155595185Y-43036904D01*
X155812639Y-42926106D01*
X156010083Y-42782655D01*
X156182655Y-42610083D01*
X156326106Y-42412639D01*
X156436904Y-42195185D01*
X156512321Y-41963076D01*
X156550500Y-41722027D01*
X156550500Y-41477973D01*
X156550499Y-41477970D01*
X156550499Y-41477963D01*
X156512321Y-41236926D01*
X156512321Y-41236924D01*
X156436904Y-41004815D01*
X156326106Y-40787361D01*
X156182655Y-40589917D01*
X156010083Y-40417345D01*
X155812639Y-40273894D01*
X155595185Y-40163096D01*
X155595182Y-40163095D01*
X155595180Y-40163094D01*
X155363073Y-40087678D01*
X155122036Y-40049500D01*
X155122027Y-40049500D01*
X154877973Y-40049500D01*
X154877963Y-40049500D01*
X154636926Y-40087678D01*
X154404819Y-40163094D01*
X154187359Y-40273895D01*
X153989919Y-40417343D01*
X153817343Y-40589919D01*
X153673895Y-40787359D01*
X153563094Y-41004819D01*
X153487678Y-41236926D01*
X153449500Y-41477963D01*
X53840500Y-41477963D01*
X53840500Y-36309500D01*
X53859454Y-36214212D01*
X53913430Y-36133430D01*
X53994212Y-36079454D01*
X54089500Y-36060500D01*
X162311000Y-36060500D01*
X162406288Y-36079454D01*
G37*
%TD.AperFunction*%
%TD*%
M02*
