%TF.GenerationSoftware,KiCad,Pcbnew,9.0.7*%
%TF.CreationDate,2026-02-19T19:21:46-05:00*%
%TF.ProjectId,low volt board - NL  S-3C-v2,6c6f7720-766f-46c7-9420-626f61726420,rev?*%
%TF.SameCoordinates,Original*%
%TF.FileFunction,Copper,L2,Bot*%
%TF.FilePolarity,Positive*%
%FSLAX46Y46*%
G04 Gerber Fmt 4.6, Leading zero omitted, Abs format (unit mm)*
G04 Created by KiCad (PCBNEW 9.0.7) date 2026-02-19 19:21:46*
%MOMM*%
%LPD*%
G01*
G04 APERTURE LIST*
G04 Aperture macros list*
%AMRoundRect*
0 Rectangle with rounded corners*
0 $1 Rounding radius*
0 $2 $3 $4 $5 $6 $7 $8 $9 X,Y pos of 4 corners*
0 Add a 4 corners polygon primitive as box body*
4,1,4,$2,$3,$4,$5,$6,$7,$8,$9,$2,$3,0*
0 Add four circle primitives for the rounded corners*
1,1,$1+$1,$2,$3*
1,1,$1+$1,$4,$5*
1,1,$1+$1,$6,$7*
1,1,$1+$1,$8,$9*
0 Add four rect primitives between the rounded corners*
20,1,$1+$1,$2,$3,$4,$5,0*
20,1,$1+$1,$4,$5,$6,$7,0*
20,1,$1+$1,$6,$7,$8,$9,0*
20,1,$1+$1,$8,$9,$2,$3,0*%
G04 Aperture macros list end*
%TA.AperFunction,ComponentPad*%
%ADD10RoundRect,0.250000X1.050000X-1.050000X1.050000X1.050000X-1.050000X1.050000X-1.050000X-1.050000X0*%
%TD*%
%TA.AperFunction,ComponentPad*%
%ADD11C,2.600000*%
%TD*%
%TA.AperFunction,ComponentPad*%
%ADD12C,7.500000*%
%TD*%
%TA.AperFunction,ComponentPad*%
%ADD13R,1.700000X1.700000*%
%TD*%
%TA.AperFunction,ComponentPad*%
%ADD14C,1.700000*%
%TD*%
%TA.AperFunction,ViaPad*%
%ADD15C,0.600000*%
%TD*%
%TA.AperFunction,ViaPad*%
%ADD16C,0.800000*%
%TD*%
%TA.AperFunction,Conductor*%
%ADD17C,0.250000*%
%TD*%
%TA.AperFunction,Conductor*%
%ADD18C,0.500000*%
%TD*%
%TA.AperFunction,Conductor*%
%ADD19C,0.750000*%
%TD*%
G04 APERTURE END LIST*
D10*
%TO.P,J6,1,GND*%
%TO.N,GND*%
X60960000Y-58420000D03*
D11*
%TO.P,J6,2,IO1*%
%TO.N,/Opto In*%
X60960000Y-53340000D03*
%TD*%
D12*
%TO.P,H1,1*%
%TO.N,N/C*%
X64770000Y-72390000D03*
%TD*%
D10*
%TO.P,J4,1,Throw_A*%
%TO.N,/Rnet1*%
X76750000Y-78830000D03*
D11*
%TO.P,J4,2,Common*%
%TO.N,/A1-0*%
X76750000Y-73750000D03*
%TO.P,J4,3,Throw_B*%
%TO.N,/Rnet2*%
X76750000Y-68670000D03*
%TD*%
D10*
%TO.P,J8,1,Pin_1*%
%TO.N,GND*%
X132672500Y-53295000D03*
D11*
%TO.P,J8,2,Pin_2*%
%TO.N,+5V*%
X132672500Y-48215000D03*
%TD*%
D10*
%TO.P,J5,1,A2-0*%
%TO.N,/A2-0-E*%
X155000000Y-103995000D03*
D11*
%TO.P,J5,2,A2-1*%
%TO.N,/A2-1-E*%
X155000000Y-98915000D03*
%TO.P,J5,3,A2-2*%
%TO.N,/A2-2-E*%
X155000000Y-93835000D03*
%TO.P,J5,4,A2-3*%
%TO.N,/A2-3-E*%
X155000000Y-88755000D03*
%TO.P,J5,5,A1-2*%
%TO.N,/A1-2-E*%
X155000000Y-83675000D03*
%TO.P,J5,6,A1-3*%
%TO.N,/A1-3-E*%
X155000000Y-78595000D03*
%TO.P,J5,7,GND*%
%TO.N,GND*%
X155000000Y-73515000D03*
%TD*%
D13*
%TO.P,J1,1,GPIO20_(D_P)*%
%TO.N,unconnected-(J1-GPIO20_(D_P)-Pad1)*%
X96760000Y-50800000D03*
D14*
%TO.P,J1,2,GPIO19_(D_N)*%
%TO.N,unconnected-(J1-GPIO19_(D_N)-Pad2)*%
X96760000Y-53340000D03*
%TO.P,J1,3,GND*%
%TO.N,GND*%
X96760000Y-55880000D03*
%TO.P,J1,4,GPIO48*%
%TO.N,/IO48*%
X96760000Y-58420000D03*
%TO.P,J1,5,GPIO47*%
%TO.N,unconnected-(J1-GPIO47-Pad5)*%
X96760000Y-60960000D03*
%TO.P,J1,6,GPIO46*%
%TO.N,unconnected-(J1-GPIO46-Pad6)*%
X96760000Y-63500000D03*
%TO.P,J1,7,GPIO45*%
%TO.N,unconnected-(J1-GPIO45-Pad7)*%
X96760000Y-66040000D03*
%TO.P,J1,8,GND*%
%TO.N,GND*%
X96760000Y-68580000D03*
%TO.P,J1,9,GPIO42*%
%TO.N,unconnected-(J1-GPIO42-Pad9)*%
X96760000Y-71120000D03*
%TO.P,J1,10,GPIO41*%
%TO.N,/IO41*%
X96760000Y-73660000D03*
%TO.P,J1,11,GPIO40*%
%TO.N,unconnected-(J1-GPIO40-Pad11)*%
X96760000Y-76200000D03*
%TO.P,J1,12,GPIO39*%
%TO.N,/IO39*%
X96760000Y-78740000D03*
%TO.P,J1,13,GND*%
%TO.N,GND*%
X96760000Y-81280000D03*
%TO.P,J1,14,GPIO38*%
%TO.N,/IO38 (SDO)*%
X96760000Y-83820000D03*
%TO.P,J1,15,GPIO37*%
%TO.N,/IO37*%
X96760000Y-86360000D03*
%TO.P,J1,16,GPIO36*%
%TO.N,/IO36*%
X96760000Y-88900000D03*
%TO.P,J1,17,GPIO35*%
%TO.N,/IO35*%
X96760000Y-91440000D03*
%TO.P,J1,18,GND*%
%TO.N,GND*%
X96760000Y-93980000D03*
%TO.P,J1,19,GPIO34*%
%TO.N,unconnected-(J1-GPIO34-Pad19)*%
X96760000Y-96520000D03*
%TO.P,J1,20,GPIO33*%
%TO.N,unconnected-(J1-GPIO33-Pad20)*%
X96760000Y-99060000D03*
%TO.P,J1,21,GPIO43_(UART0_TX)*%
%TO.N,/SDA*%
X114300000Y-99060000D03*
%TO.P,J1,22,GPIO44_(UART0_RX)*%
%TO.N,/SCL*%
X114300000Y-96520000D03*
%TO.P,J1,23,GND*%
%TO.N,GND*%
X114300000Y-93980000D03*
%TO.P,J1,24,GPIO0*%
%TO.N,unconnected-(J1-GPIO0-Pad24)*%
X114300000Y-91440000D03*
%TO.P,J1,25,GPIO1*%
%TO.N,/IO1*%
X114300000Y-88900000D03*
%TO.P,J1,26,GPIO2*%
%TO.N,/IO2*%
X114300000Y-86360000D03*
%TO.P,J1,27,GPIO3*%
%TO.N,/IO3*%
X114300000Y-83820000D03*
%TO.P,J1,28,GND*%
%TO.N,GND*%
X114300000Y-81280000D03*
%TO.P,J1,29,GPIO15*%
%TO.N,/IO15*%
X114300000Y-78740000D03*
%TO.P,J1,30,CHIP_UP*%
%TO.N,GND*%
X114300000Y-76200000D03*
%TO.P,J1,31,GPIO18*%
%TO.N,/IO18*%
X114300000Y-73660000D03*
%TO.P,J1,32,GPIO16*%
%TO.N,/IO16*%
X114300000Y-71120000D03*
%TO.P,J1,33,GND*%
%TO.N,GND*%
X114300000Y-68580000D03*
%TO.P,J1,34,GPIO17*%
%TO.N,unconnected-(J1-GPIO17-Pad34)*%
X114300000Y-66040000D03*
%TO.P,J1,35,GPIO21*%
%TO.N,/IO21*%
X114300000Y-63500000D03*
%TO.P,J1,36,3V3*%
%TO.N,+3.3V*%
X114300000Y-60960000D03*
%TO.P,J1,37,3V3_EN*%
%TO.N,unconnected-(J1-3V3_EN-Pad37)*%
X114300000Y-58420000D03*
%TO.P,J1,38,GND*%
%TO.N,GND*%
X114300000Y-55880000D03*
%TO.P,J1,39,VSYS*%
%TO.N,unconnected-(J1-VSYS-Pad39)*%
X114300000Y-53340000D03*
%TO.P,J1,40,VBUS*%
%TO.N,+5V*%
X114300000Y-50800000D03*
%TD*%
D10*
%TO.P,J3,1,IN4*%
%TO.N,/IO3*%
X155000000Y-67000000D03*
D11*
%TO.P,J3,2,IN3*%
%TO.N,/IO15*%
X155000000Y-61920000D03*
%TO.P,J3,3,IN2*%
%TO.N,/IO18*%
X155000000Y-56840000D03*
%TO.P,J3,4,IN1*%
%TO.N,/IO16*%
X155000000Y-51760000D03*
%TO.P,J3,5,GND*%
%TO.N,GND*%
X155000000Y-46680000D03*
%TO.P,J3,6,5v*%
%TO.N,+5V*%
X155000000Y-41600000D03*
%TD*%
D13*
%TO.P,J2,1,VCC*%
%TO.N,+3.3V*%
X58250000Y-101985000D03*
D14*
%TO.P,J2,2,GND*%
%TO.N,GND*%
X58250000Y-99445000D03*
%TO.P,J2,3,CS*%
%TO.N,/IO2*%
X58250000Y-96905000D03*
%TO.P,J2,4,RESET*%
%TO.N,/IO1*%
X58250000Y-94365000D03*
%TO.P,J2,5,DC*%
%TO.N,/IO48*%
X58250000Y-91825000D03*
%TO.P,J2,6,SDI(MOSI)*%
%TO.N,/IO35*%
X58250000Y-89285000D03*
%TO.P,J2,7,SCK*%
%TO.N,/IO36*%
X58250000Y-86745000D03*
%TO.P,J2,8,LED*%
%TO.N,/IO37*%
X58250000Y-84205000D03*
%TO.P,J2,9,SDO(MISO)*%
%TO.N,/IO38 (SDO)*%
X58250000Y-81665000D03*
%TO.P,J2,10,T_CLK*%
%TO.N,/IO36*%
X58250000Y-79125000D03*
%TO.P,J2,11,T_CS*%
%TO.N,/IO39*%
X58250000Y-76585000D03*
%TO.P,J2,12,T_DIN*%
%TO.N,/IO35*%
X58250000Y-74045000D03*
%TO.P,J2,13,T_DO*%
%TO.N,/IO38 (SDO)*%
X58250000Y-71505000D03*
%TD*%
D12*
%TO.P,H2,1*%
%TO.N,N/C*%
X166370000Y-72390000D03*
%TD*%
D15*
%TO.N,/IO41*%
X121850000Y-96800000D03*
X124550000Y-78200000D03*
%TO.N,+3.3V*%
X125862000Y-78740000D03*
%TO.N,/IO15*%
X118562000Y-68126300D03*
%TO.N,/SDA*%
X126147000Y-99932400D03*
D16*
%TO.N,+3.3V*%
X88383100Y-75636300D03*
%TO.N,GND*%
X131070000Y-79563500D03*
X92751600Y-69281500D03*
X142944000Y-43684700D03*
D15*
%TO.N,Net-(D1-Opto1-A)*%
X78468900Y-48754800D03*
D16*
%TO.N,GND*%
X84180500Y-57956200D03*
D15*
%TO.N,Net-(SW1-C)*%
X78733100Y-54919300D03*
D16*
%TO.N,GND*%
X131102000Y-102676000D03*
D15*
%TO.N,/SCL*%
X126700000Y-77458600D03*
D16*
%TO.N,GND*%
X134863000Y-93367500D03*
%TO.N,+3.3V*%
X117054000Y-45800400D03*
D15*
%TO.N,GND*%
X121920000Y-78740000D03*
D16*
%TO.N,+3.3V*%
X94236100Y-61492300D03*
%TO.N,GND*%
X141130000Y-42974100D03*
D15*
X92710000Y-78740000D03*
%TO.N,/SDA*%
X129339000Y-78335600D03*
X125992000Y-95971900D03*
D16*
%TO.N,GND*%
X78468900Y-58038800D03*
%TO.N,+3.3V*%
X124781000Y-94241600D03*
D15*
%TO.N,/A2-0*%
X126683000Y-98643100D03*
D16*
%TO.N,+3.3V*%
X81437000Y-98979600D03*
D15*
%TO.N,Net-(D1-Opto1-A)*%
X76970900Y-54920900D03*
D16*
%TO.N,GND*%
X121950000Y-77636300D03*
D15*
X121920000Y-97790000D03*
%TO.N,/IO48*%
X94799400Y-90627800D03*
%TO.N,/IO18*%
X115173000Y-59876700D03*
%TO.N,/IO3*%
X117054000Y-69709000D03*
%TO.N,/IO16*%
X152129000Y-68983200D03*
%TO.N,/A2-0*%
X126179000Y-102082000D03*
D16*
%TO.N,GND*%
X139991000Y-102735000D03*
D15*
%TO.N,/SCL*%
X126700000Y-90057100D03*
D16*
%TO.N,GND*%
X135621000Y-43684700D03*
X126089000Y-43036600D03*
X131102000Y-89096500D03*
D15*
%TO.N,Net-(SW1-C)*%
X80763500Y-48754800D03*
D16*
%TO.N,GND*%
X131102000Y-96986300D03*
X131102000Y-84361900D03*
X131895000Y-42846000D03*
X75861600Y-48590100D03*
X129245000Y-63528300D03*
D15*
%TO.N,/IO41*%
X118961000Y-94992000D03*
%TD*%
D17*
%TO.N,/IO41*%
X121850000Y-96800000D02*
X120769000Y-96800000D01*
X120769000Y-96800000D02*
X118961000Y-94992000D01*
D18*
%TO.N,+3.3V*%
X125862000Y-78740000D02*
X125862000Y-93160600D01*
X125862000Y-78298800D02*
X125862000Y-78740000D01*
X125862000Y-93160600D02*
X124781000Y-94241600D01*
D17*
%TO.N,/SCL*%
X126700000Y-90057100D02*
X126700000Y-77458600D01*
D18*
%TO.N,+3.3V*%
X94236100Y-61492300D02*
X94236100Y-69783300D01*
D17*
%TO.N,/IO41*%
X94223400Y-90866388D02*
X94223400Y-76534012D01*
%TO.N,/IO15*%
X114300000Y-78740000D02*
X114410000Y-78740000D01*
D18*
%TO.N,+3.3V*%
X125862000Y-72522200D02*
X125862000Y-78298800D01*
D17*
%TO.N,Net-(SW1-C)*%
X78733100Y-54919300D02*
X80763500Y-52888900D01*
D18*
%TO.N,+3.3V*%
X94236100Y-69783300D02*
X91599200Y-72420200D01*
D17*
%TO.N,/IO35*%
X56692000Y-87727000D02*
X58250000Y-89285000D01*
D18*
%TO.N,+3.3V*%
X81617100Y-98979600D02*
X88383100Y-92213600D01*
D17*
%TO.N,/IO15*%
X114410000Y-78740000D02*
X116400000Y-76750000D01*
%TO.N,/IO38 (SDO)*%
X59399500Y-72654500D02*
X58250000Y-71505000D01*
%TO.N,/IO48*%
X96375700Y-74965300D02*
X94799400Y-76541600D01*
%TO.N,/IO41*%
X118958000Y-94992000D02*
X124800000Y-89150000D01*
X94223400Y-76534012D02*
X96521412Y-74236000D01*
%TO.N,/IO38 (SDO)*%
X59399500Y-80515500D02*
X59399500Y-72654500D01*
D18*
%TO.N,+3.3V*%
X88383100Y-92213600D02*
X88383100Y-75636300D01*
D17*
%TO.N,/IO16*%
X152129000Y-54630800D02*
X152129000Y-68983200D01*
%TO.N,/IO35*%
X58250000Y-74045000D02*
X56692000Y-75603000D01*
%TO.N,/IO18*%
X114300000Y-73660000D02*
X113123000Y-72483300D01*
%TO.N,/SDA*%
X126147000Y-99932400D02*
X125992000Y-99776900D01*
%TO.N,Net-(D1-Opto1-A)*%
X78468900Y-48754800D02*
X76970900Y-50252800D01*
%TO.N,/IO48*%
X97937500Y-74194300D02*
X97166500Y-74965300D01*
%TO.N,Net-(SW1-C)*%
X80763500Y-52888900D02*
X80763500Y-48754800D01*
%TO.N,/IO41*%
X94560812Y-91203800D02*
X94223400Y-90866388D01*
%TO.N,/IO38 (SDO)*%
X58250000Y-81665000D02*
X59399500Y-80515500D01*
%TO.N,/IO41*%
X114766405Y-87486000D02*
X109926405Y-87486000D01*
%TO.N,/IO36*%
X58250000Y-86745000D02*
X57100500Y-85595500D01*
D19*
%TO.N,GND*%
X114300000Y-68056700D02*
X114300000Y-68580000D01*
D17*
%TO.N,/IO3*%
X117054000Y-69709000D02*
X117054000Y-81065800D01*
%TO.N,/SDA*%
X125992000Y-99776900D02*
X125992000Y-95971900D01*
%TO.N,/IO36*%
X57100500Y-85595500D02*
X57100500Y-80274500D01*
%TO.N,/IO15*%
X116400000Y-69200000D02*
X117474000Y-68126300D01*
%TO.N,/IO48*%
X97937500Y-59837100D02*
X97937500Y-74194300D01*
%TO.N,/IO36*%
X57100500Y-80274500D02*
X58250000Y-79125000D01*
%TO.N,/IO48*%
X96520400Y-58420000D02*
X96760000Y-58420000D01*
X96280800Y-58420000D02*
X96520400Y-58420000D01*
X96520400Y-58420000D02*
X97937500Y-59837100D01*
D18*
%TO.N,+3.3V*%
X117054000Y-45800400D02*
X117054000Y-59137900D01*
D17*
%TO.N,/IO48*%
X97166500Y-74965300D02*
X96375700Y-74965300D01*
X94799400Y-76541600D02*
X94799400Y-90627800D01*
D18*
%TO.N,+3.3V*%
X91599200Y-72420200D02*
X88383100Y-75636300D01*
D17*
%TO.N,/IO35*%
X56692000Y-75603000D02*
X56692000Y-87727000D01*
%TO.N,/SDA*%
X129339000Y-92624500D02*
X125992000Y-95971900D01*
D18*
%TO.N,+3.3V*%
X117054000Y-59137900D02*
X114766000Y-61426000D01*
D17*
%TO.N,/IO18*%
X113123000Y-60456100D02*
X113796000Y-59783300D01*
X113123000Y-72483300D02*
X113123000Y-60456100D01*
X113796000Y-59783300D02*
X115080000Y-59783300D01*
X115080000Y-59783300D02*
X115173000Y-59876700D01*
%TO.N,/IO15*%
X116400000Y-76750000D02*
X116400000Y-69200000D01*
%TO.N,/IO16*%
X155000000Y-51760000D02*
X152129000Y-54630800D01*
%TO.N,/IO41*%
X96521412Y-74236000D02*
X96760000Y-74236000D01*
D18*
%TO.N,+3.3V*%
X81437000Y-98979600D02*
X81617100Y-98979600D01*
D17*
%TO.N,/IO15*%
X117474000Y-68126300D02*
X118562000Y-68126300D01*
X114300000Y-78850000D02*
X114350000Y-78900000D01*
D18*
%TO.N,+3.3V*%
X114766000Y-61426000D02*
X125862000Y-72522200D01*
D17*
%TO.N,/IO3*%
X117054000Y-81065800D02*
X114300000Y-83820000D01*
%TO.N,Net-(D1-Opto1-A)*%
X76970900Y-50252800D02*
X76970900Y-54920900D01*
%TO.N,/IO41*%
X124800000Y-78450000D02*
X124550000Y-78200000D01*
X95403795Y-91203800D02*
X94560812Y-91203800D01*
D18*
%TO.N,+3.3V*%
X114300000Y-60960000D02*
X114766000Y-61426000D01*
D17*
%TO.N,/A2-0*%
X126724000Y-98683700D02*
X126683000Y-98643100D01*
%TO.N,/IO41*%
X96293595Y-90314000D02*
X95403795Y-91203800D01*
X123800000Y-78200000D02*
X123800000Y-78452405D01*
D19*
%TO.N,GND*%
X122131000Y-93905700D02*
X122069000Y-93905700D01*
D17*
%TO.N,/IO41*%
X109926405Y-87486000D02*
X107098405Y-90314000D01*
%TO.N,/A2-0*%
X126179000Y-102082000D02*
X126724000Y-101537000D01*
%TO.N,/IO41*%
X118961000Y-94992000D02*
X118958000Y-94992000D01*
%TO.N,/SDA*%
X129339000Y-78335600D02*
X129339000Y-92624500D01*
%TO.N,/IO41*%
X124800000Y-89150000D02*
X124800000Y-78450000D01*
X123800000Y-78452405D02*
X114766405Y-87486000D01*
%TO.N,/IO15*%
X114300000Y-78740000D02*
X114300000Y-78850000D01*
%TO.N,/IO41*%
X124550000Y-78200000D02*
X123800000Y-78200000D01*
X107098405Y-90314000D02*
X96293595Y-90314000D01*
%TO.N,/A2-0*%
X126724000Y-101537000D02*
X126724000Y-98683700D01*
%TD*%
%TA.AperFunction,Conductor*%
%TO.N,GND*%
G36*
X162503039Y-36080185D02*
G01*
X162548794Y-36132989D01*
X162560000Y-36184500D01*
X162560000Y-71150191D01*
X162554661Y-71186186D01*
X162484707Y-71416794D01*
X162484704Y-71416805D01*
X162408026Y-71802297D01*
X162380370Y-72083100D01*
X162369500Y-72193468D01*
X162369500Y-72586532D01*
X162374271Y-72634971D01*
X162408026Y-72977702D01*
X162484704Y-73363194D01*
X162484707Y-73363205D01*
X162484709Y-73363214D01*
X162484710Y-73363215D01*
X162552626Y-73587106D01*
X162554661Y-73593812D01*
X162560000Y-73629807D01*
X162560000Y-108595500D01*
X162540315Y-108662539D01*
X162487511Y-108708294D01*
X162436000Y-108719500D01*
X53964500Y-108719500D01*
X53897461Y-108699815D01*
X53851706Y-108647011D01*
X53840500Y-108595500D01*
X53840500Y-99338753D01*
X56900000Y-99338753D01*
X56900000Y-99551246D01*
X56933242Y-99761127D01*
X56933242Y-99761130D01*
X56998904Y-99963217D01*
X57095375Y-100152550D01*
X57134728Y-100206716D01*
X57767037Y-99574408D01*
X57784075Y-99637993D01*
X57849901Y-99752007D01*
X57942993Y-99845099D01*
X58057007Y-99910925D01*
X58120590Y-99927962D01*
X57488282Y-100560269D01*
X57488282Y-100560270D01*
X57542450Y-100599624D01*
X57641345Y-100650015D01*
X57692141Y-100697990D01*
X57708936Y-100765811D01*
X57686398Y-100831946D01*
X57631683Y-100875397D01*
X57585050Y-100884500D01*
X57375323Y-100884500D01*
X57302264Y-100899032D01*
X57302260Y-100899033D01*
X57219399Y-100954399D01*
X57164033Y-101037260D01*
X57164032Y-101037264D01*
X57149500Y-101110321D01*
X57149500Y-102859678D01*
X57164032Y-102932735D01*
X57164033Y-102932739D01*
X57164034Y-102932740D01*
X57219399Y-103015601D01*
X57302260Y-103070966D01*
X57302264Y-103070967D01*
X57375321Y-103085499D01*
X57375324Y-103085500D01*
X57375326Y-103085500D01*
X59124676Y-103085500D01*
X59124677Y-103085499D01*
X59197740Y-103070966D01*
X59280601Y-103015601D01*
X59335966Y-102932740D01*
X59335967Y-102932735D01*
X59343477Y-102894983D01*
X153199500Y-102894983D01*
X153199500Y-105095001D01*
X153199501Y-105095018D01*
X153210000Y-105197796D01*
X153210001Y-105197799D01*
X153265185Y-105364331D01*
X153265186Y-105364334D01*
X153357288Y-105513656D01*
X153481344Y-105637712D01*
X153630666Y-105729814D01*
X153797203Y-105784999D01*
X153899991Y-105795500D01*
X156100008Y-105795499D01*
X156202797Y-105784999D01*
X156369334Y-105729814D01*
X156518656Y-105637712D01*
X156642712Y-105513656D01*
X156734814Y-105364334D01*
X156789999Y-105197797D01*
X156800500Y-105095009D01*
X156800499Y-102894992D01*
X156796891Y-102859676D01*
X156789999Y-102792203D01*
X156789998Y-102792200D01*
X156734814Y-102625666D01*
X156642712Y-102476344D01*
X156518656Y-102352288D01*
X156369334Y-102260186D01*
X156202797Y-102205001D01*
X156202795Y-102205000D01*
X156100010Y-102194500D01*
X153899998Y-102194500D01*
X153899981Y-102194501D01*
X153797203Y-102205000D01*
X153797200Y-102205001D01*
X153630668Y-102260185D01*
X153630663Y-102260187D01*
X153481342Y-102352289D01*
X153357289Y-102476342D01*
X153265187Y-102625663D01*
X153265186Y-102625666D01*
X153210001Y-102792203D01*
X153210001Y-102792204D01*
X153210000Y-102792204D01*
X153199500Y-102894983D01*
X59343477Y-102894983D01*
X59348916Y-102867642D01*
X59350500Y-102859676D01*
X59350500Y-101110323D01*
X59350499Y-101110321D01*
X59335967Y-101037264D01*
X59335966Y-101037260D01*
X59280601Y-100954399D01*
X59197740Y-100899034D01*
X59197739Y-100899033D01*
X59197735Y-100899032D01*
X59124677Y-100884500D01*
X59124674Y-100884500D01*
X58914950Y-100884500D01*
X58847911Y-100864815D01*
X58802156Y-100812011D01*
X58792212Y-100742853D01*
X58821237Y-100679297D01*
X58858655Y-100650015D01*
X58957554Y-100599622D01*
X59011716Y-100560270D01*
X59011717Y-100560270D01*
X58379408Y-99927962D01*
X58442993Y-99910925D01*
X58557007Y-99845099D01*
X58650099Y-99752007D01*
X58715925Y-99637993D01*
X58732962Y-99574408D01*
X59365270Y-100206717D01*
X59365270Y-100206716D01*
X59404622Y-100152554D01*
X59501095Y-99963217D01*
X59566757Y-99761130D01*
X59566757Y-99761127D01*
X59600000Y-99551246D01*
X59600000Y-99338753D01*
X59566757Y-99128872D01*
X59566757Y-99128869D01*
X59539074Y-99043671D01*
X80786499Y-99043671D01*
X80811497Y-99169338D01*
X80811499Y-99169344D01*
X80860533Y-99287724D01*
X80860538Y-99287733D01*
X80931723Y-99394268D01*
X80931726Y-99394272D01*
X81022327Y-99484873D01*
X81022331Y-99484876D01*
X81128866Y-99556061D01*
X81128872Y-99556064D01*
X81128873Y-99556065D01*
X81247256Y-99605101D01*
X81247260Y-99605101D01*
X81247261Y-99605102D01*
X81372928Y-99630100D01*
X81372931Y-99630100D01*
X81501071Y-99630100D01*
X81585615Y-99613282D01*
X81626744Y-99605101D01*
X81745127Y-99556065D01*
X81851669Y-99484876D01*
X81942276Y-99394269D01*
X81999995Y-99307885D01*
X82015408Y-99289104D01*
X82331123Y-98973389D01*
X95659500Y-98973389D01*
X95659500Y-99146610D01*
X95681851Y-99287733D01*
X95686598Y-99317701D01*
X95740127Y-99482445D01*
X95818768Y-99636788D01*
X95920586Y-99776928D01*
X96043072Y-99899414D01*
X96183212Y-100001232D01*
X96337555Y-100079873D01*
X96502299Y-100133402D01*
X96673389Y-100160500D01*
X96673390Y-100160500D01*
X96846610Y-100160500D01*
X96846611Y-100160500D01*
X97017701Y-100133402D01*
X97182445Y-100079873D01*
X97336788Y-100001232D01*
X97476928Y-99899414D01*
X97599414Y-99776928D01*
X97701232Y-99636788D01*
X97779873Y-99482445D01*
X97833402Y-99317701D01*
X97860500Y-99146611D01*
X97860500Y-98973389D01*
X113199500Y-98973389D01*
X113199500Y-99146610D01*
X113221851Y-99287733D01*
X113226598Y-99317701D01*
X113280127Y-99482445D01*
X113358768Y-99636788D01*
X113460586Y-99776928D01*
X113583072Y-99899414D01*
X113723212Y-100001232D01*
X113877555Y-100079873D01*
X114042299Y-100133402D01*
X114213389Y-100160500D01*
X114213390Y-100160500D01*
X114386610Y-100160500D01*
X114386611Y-100160500D01*
X114557701Y-100133402D01*
X114722445Y-100079873D01*
X114876788Y-100001232D01*
X115016928Y-99899414D01*
X115139414Y-99776928D01*
X115241232Y-99636788D01*
X115319873Y-99482445D01*
X115373402Y-99317701D01*
X115400500Y-99146611D01*
X115400500Y-98973389D01*
X115373402Y-98802299D01*
X115319873Y-98637555D01*
X115241232Y-98483212D01*
X115139414Y-98343072D01*
X115016928Y-98220586D01*
X114876788Y-98118768D01*
X114722445Y-98040127D01*
X114557701Y-97986598D01*
X114557699Y-97986597D01*
X114557698Y-97986597D01*
X114423420Y-97965330D01*
X114386611Y-97959500D01*
X114213389Y-97959500D01*
X114176580Y-97965330D01*
X114042302Y-97986597D01*
X113877552Y-98040128D01*
X113723211Y-98118768D01*
X113707591Y-98130117D01*
X113583072Y-98220586D01*
X113583070Y-98220588D01*
X113583069Y-98220588D01*
X113460588Y-98343069D01*
X113460588Y-98343070D01*
X113460586Y-98343072D01*
X113416949Y-98403133D01*
X113358768Y-98483211D01*
X113280128Y-98637552D01*
X113226597Y-98802302D01*
X113199500Y-98973389D01*
X97860500Y-98973389D01*
X97833402Y-98802299D01*
X97779873Y-98637555D01*
X97701232Y-98483212D01*
X97599414Y-98343072D01*
X97476928Y-98220586D01*
X97336788Y-98118768D01*
X97182445Y-98040127D01*
X97017701Y-97986598D01*
X97017699Y-97986597D01*
X97017698Y-97986597D01*
X96883420Y-97965330D01*
X96846611Y-97959500D01*
X96673389Y-97959500D01*
X96636580Y-97965330D01*
X96502302Y-97986597D01*
X96337552Y-98040128D01*
X96183211Y-98118768D01*
X96167591Y-98130117D01*
X96043072Y-98220586D01*
X96043070Y-98220588D01*
X96043069Y-98220588D01*
X95920588Y-98343069D01*
X95920588Y-98343070D01*
X95920586Y-98343072D01*
X95876949Y-98403133D01*
X95818768Y-98483211D01*
X95740128Y-98637552D01*
X95686597Y-98802302D01*
X95659500Y-98973389D01*
X82331123Y-98973389D01*
X88783600Y-92520914D01*
X88849492Y-92406786D01*
X88883600Y-92279492D01*
X88883600Y-92147708D01*
X88883600Y-76484577D01*
X93847900Y-76484577D01*
X93847900Y-76484579D01*
X93847900Y-90915826D01*
X93856596Y-90948277D01*
X93856596Y-90948279D01*
X93856597Y-90948279D01*
X93873490Y-91011327D01*
X93873491Y-91011328D01*
X93915739Y-91084505D01*
X93922921Y-91096945D01*
X93922928Y-91096954D01*
X94179363Y-91353389D01*
X94330249Y-91504275D01*
X94330250Y-91504276D01*
X94330252Y-91504277D01*
X94368936Y-91526611D01*
X94415875Y-91553711D01*
X94511376Y-91579300D01*
X94511377Y-91579300D01*
X94511378Y-91579300D01*
X95453230Y-91579300D01*
X95453231Y-91579300D01*
X95498018Y-91567299D01*
X95500978Y-91566506D01*
X95500979Y-91566505D01*
X95500981Y-91566505D01*
X95526086Y-91559778D01*
X95595936Y-91561441D01*
X95653798Y-91600605D01*
X95680651Y-91660155D01*
X95686598Y-91697701D01*
X95740127Y-91862445D01*
X95818768Y-92016788D01*
X95920586Y-92156928D01*
X96043072Y-92279414D01*
X96183212Y-92381232D01*
X96337555Y-92459873D01*
X96340708Y-92460897D01*
X96341752Y-92461611D01*
X96342048Y-92461734D01*
X96342022Y-92461795D01*
X96398383Y-92500330D01*
X96425585Y-92564688D01*
X96413674Y-92633535D01*
X96366433Y-92685013D01*
X96340712Y-92696760D01*
X96241783Y-92728904D01*
X96052439Y-92825380D01*
X95998282Y-92864727D01*
X95998282Y-92864728D01*
X96630591Y-93497037D01*
X96567007Y-93514075D01*
X96452993Y-93579901D01*
X96359901Y-93672993D01*
X96294075Y-93787007D01*
X96277037Y-93850591D01*
X95644728Y-93218282D01*
X95644727Y-93218282D01*
X95605380Y-93272439D01*
X95508904Y-93461782D01*
X95443242Y-93663869D01*
X95443242Y-93663872D01*
X95410000Y-93873753D01*
X95410000Y-94086246D01*
X95443242Y-94296127D01*
X95443242Y-94296130D01*
X95508904Y-94498217D01*
X95605375Y-94687550D01*
X95644728Y-94741716D01*
X96277037Y-94109408D01*
X96294075Y-94172993D01*
X96359901Y-94287007D01*
X96452993Y-94380099D01*
X96567007Y-94445925D01*
X96630590Y-94462962D01*
X95998282Y-95095269D01*
X95998282Y-95095270D01*
X96052449Y-95134624D01*
X96241784Y-95231096D01*
X96340711Y-95263239D01*
X96398387Y-95302676D01*
X96425586Y-95367034D01*
X96413672Y-95435881D01*
X96366428Y-95487357D01*
X96340722Y-95499097D01*
X96339522Y-95499487D01*
X96337550Y-95500128D01*
X96183211Y-95578768D01*
X96147529Y-95604693D01*
X96043072Y-95680586D01*
X96043070Y-95680588D01*
X96043069Y-95680588D01*
X95920588Y-95803069D01*
X95920588Y-95803070D01*
X95920586Y-95803072D01*
X95899861Y-95831598D01*
X95818768Y-95943211D01*
X95740128Y-96097552D01*
X95686597Y-96262302D01*
X95676158Y-96328212D01*
X95659500Y-96433389D01*
X95659500Y-96606611D01*
X95686598Y-96777701D01*
X95740127Y-96942445D01*
X95818768Y-97096788D01*
X95920586Y-97236928D01*
X96043072Y-97359414D01*
X96183212Y-97461232D01*
X96337555Y-97539873D01*
X96502299Y-97593402D01*
X96673389Y-97620500D01*
X96673390Y-97620500D01*
X96846610Y-97620500D01*
X96846611Y-97620500D01*
X97017701Y-97593402D01*
X97182445Y-97539873D01*
X97336788Y-97461232D01*
X97476928Y-97359414D01*
X97599414Y-97236928D01*
X97701232Y-97096788D01*
X97779873Y-96942445D01*
X97833402Y-96777701D01*
X97860500Y-96606611D01*
X97860500Y-96433389D01*
X97833402Y-96262299D01*
X97779873Y-96097555D01*
X97701232Y-95943212D01*
X97599414Y-95803072D01*
X97476928Y-95680586D01*
X97336788Y-95578768D01*
X97304242Y-95562185D01*
X97182446Y-95500127D01*
X97179284Y-95499100D01*
X97178236Y-95498383D01*
X97177952Y-95498266D01*
X97177976Y-95498206D01*
X97121609Y-95459661D01*
X97094413Y-95395302D01*
X97106329Y-95326456D01*
X97153574Y-95274981D01*
X97179288Y-95263239D01*
X97278215Y-95231096D01*
X97467554Y-95134622D01*
X97521716Y-95095270D01*
X97521717Y-95095270D01*
X96889408Y-94462962D01*
X96952993Y-94445925D01*
X97067007Y-94380099D01*
X97160099Y-94287007D01*
X97225925Y-94172993D01*
X97242962Y-94109409D01*
X97875270Y-94741717D01*
X97875270Y-94741716D01*
X97914622Y-94687554D01*
X98011095Y-94498217D01*
X98076757Y-94296130D01*
X98076757Y-94296127D01*
X98110000Y-94086246D01*
X98110000Y-93873753D01*
X112950000Y-93873753D01*
X112950000Y-94086246D01*
X112983242Y-94296127D01*
X112983242Y-94296130D01*
X113048904Y-94498217D01*
X113145375Y-94687550D01*
X113184728Y-94741716D01*
X113817036Y-94109407D01*
X113834075Y-94172993D01*
X113899901Y-94287007D01*
X113992993Y-94380099D01*
X114107007Y-94445925D01*
X114170590Y-94462962D01*
X113538282Y-95095269D01*
X113538282Y-95095270D01*
X113592449Y-95134624D01*
X113781784Y-95231096D01*
X113880711Y-95263239D01*
X113938387Y-95302676D01*
X113965586Y-95367034D01*
X113953672Y-95435881D01*
X113906428Y-95487357D01*
X113880722Y-95499097D01*
X113879522Y-95499487D01*
X113877550Y-95500128D01*
X113723211Y-95578768D01*
X113687529Y-95604693D01*
X113583072Y-95680586D01*
X113583070Y-95680588D01*
X113583069Y-95680588D01*
X113460588Y-95803069D01*
X113460588Y-95803070D01*
X113460586Y-95803072D01*
X113439861Y-95831598D01*
X113358768Y-95943211D01*
X113280128Y-96097552D01*
X113226597Y-96262302D01*
X113216158Y-96328212D01*
X113199500Y-96433389D01*
X113199500Y-96606611D01*
X113226598Y-96777701D01*
X113280127Y-96942445D01*
X113358768Y-97096788D01*
X113460586Y-97236928D01*
X113583072Y-97359414D01*
X113723212Y-97461232D01*
X113877555Y-97539873D01*
X114042299Y-97593402D01*
X114213389Y-97620500D01*
X114213390Y-97620500D01*
X114386610Y-97620500D01*
X114386611Y-97620500D01*
X114557701Y-97593402D01*
X114722445Y-97539873D01*
X114876788Y-97461232D01*
X115016928Y-97359414D01*
X115139414Y-97236928D01*
X115241232Y-97096788D01*
X115319873Y-96942445D01*
X115373402Y-96777701D01*
X115400500Y-96606611D01*
X115400500Y-96433389D01*
X115373402Y-96262299D01*
X115319873Y-96097555D01*
X115241232Y-95943212D01*
X115139414Y-95803072D01*
X115016928Y-95680586D01*
X114876788Y-95578768D01*
X114844242Y-95562185D01*
X114722446Y-95500127D01*
X114719284Y-95499100D01*
X114718236Y-95498383D01*
X114717952Y-95498266D01*
X114717976Y-95498206D01*
X114661609Y-95459661D01*
X114634413Y-95395302D01*
X114646329Y-95326456D01*
X114693574Y-95274981D01*
X114719288Y-95263239D01*
X114818215Y-95231096D01*
X115007554Y-95134622D01*
X115061716Y-95095270D01*
X115061717Y-95095270D01*
X114429408Y-94462962D01*
X114492993Y-94445925D01*
X114607007Y-94380099D01*
X114700099Y-94287007D01*
X114765925Y-94172993D01*
X114782962Y-94109408D01*
X115415270Y-94741717D01*
X115415270Y-94741716D01*
X115454622Y-94687554D01*
X115551095Y-94498217D01*
X115616757Y-94296130D01*
X115616757Y-94296127D01*
X115650000Y-94086246D01*
X115650000Y-93873753D01*
X115616757Y-93663872D01*
X115616757Y-93663869D01*
X115551095Y-93461782D01*
X115454624Y-93272449D01*
X115415270Y-93218282D01*
X115415269Y-93218282D01*
X114782962Y-93850590D01*
X114765925Y-93787007D01*
X114700099Y-93672993D01*
X114607007Y-93579901D01*
X114492993Y-93514075D01*
X114429409Y-93497037D01*
X115061716Y-92864728D01*
X115007550Y-92825375D01*
X114818217Y-92728904D01*
X114719287Y-92696760D01*
X114661611Y-92657323D01*
X114634413Y-92592964D01*
X114646328Y-92524118D01*
X114693572Y-92472642D01*
X114719290Y-92460897D01*
X114722445Y-92459873D01*
X114876788Y-92381232D01*
X115016928Y-92279414D01*
X115139414Y-92156928D01*
X115241232Y-92016788D01*
X115319873Y-91862445D01*
X115373402Y-91697701D01*
X115400500Y-91526611D01*
X115400500Y-91353389D01*
X115373402Y-91182299D01*
X115319873Y-91017555D01*
X115241232Y-90863212D01*
X115139414Y-90723072D01*
X115016928Y-90600586D01*
X114876788Y-90498768D01*
X114722445Y-90420127D01*
X114557701Y-90366598D01*
X114557699Y-90366597D01*
X114557698Y-90366597D01*
X114426271Y-90345781D01*
X114386611Y-90339500D01*
X114213389Y-90339500D01*
X114173728Y-90345781D01*
X114042302Y-90366597D01*
X113877552Y-90420128D01*
X113723211Y-90498768D01*
X113687529Y-90524693D01*
X113583072Y-90600586D01*
X113583070Y-90600588D01*
X113583069Y-90600588D01*
X113460588Y-90723069D01*
X113460588Y-90723070D01*
X113460586Y-90723072D01*
X113439861Y-90751598D01*
X113358768Y-90863211D01*
X113280128Y-91017552D01*
X113226597Y-91182302D01*
X113199500Y-91353389D01*
X113199500Y-91526610D01*
X113211219Y-91600605D01*
X113226598Y-91697701D01*
X113280127Y-91862445D01*
X113358768Y-92016788D01*
X113460586Y-92156928D01*
X113583072Y-92279414D01*
X113723212Y-92381232D01*
X113877555Y-92459873D01*
X113880708Y-92460897D01*
X113881752Y-92461611D01*
X113882048Y-92461734D01*
X113882022Y-92461795D01*
X113938383Y-92500330D01*
X113965585Y-92564688D01*
X113953674Y-92633535D01*
X113906433Y-92685013D01*
X113880712Y-92696760D01*
X113781783Y-92728904D01*
X113592439Y-92825380D01*
X113538282Y-92864727D01*
X113538282Y-92864728D01*
X114170591Y-93497037D01*
X114107007Y-93514075D01*
X113992993Y-93579901D01*
X113899901Y-93672993D01*
X113834075Y-93787007D01*
X113817037Y-93850591D01*
X113184728Y-93218282D01*
X113184727Y-93218282D01*
X113145380Y-93272439D01*
X113048904Y-93461782D01*
X112983242Y-93663869D01*
X112983242Y-93663872D01*
X112950000Y-93873753D01*
X98110000Y-93873753D01*
X98076757Y-93663872D01*
X98076757Y-93663869D01*
X98011095Y-93461782D01*
X97914624Y-93272449D01*
X97875270Y-93218282D01*
X97875269Y-93218282D01*
X97242962Y-93850590D01*
X97225925Y-93787007D01*
X97160099Y-93672993D01*
X97067007Y-93579901D01*
X96952993Y-93514075D01*
X96889409Y-93497037D01*
X97521716Y-92864728D01*
X97467550Y-92825375D01*
X97278217Y-92728904D01*
X97179287Y-92696760D01*
X97121611Y-92657323D01*
X97094413Y-92592964D01*
X97106328Y-92524118D01*
X97153572Y-92472642D01*
X97179290Y-92460897D01*
X97182445Y-92459873D01*
X97336788Y-92381232D01*
X97476928Y-92279414D01*
X97599414Y-92156928D01*
X97701232Y-92016788D01*
X97779873Y-91862445D01*
X97833402Y-91697701D01*
X97860500Y-91526611D01*
X97860500Y-91353389D01*
X97833402Y-91182299D01*
X97779873Y-91017555D01*
X97704585Y-90869794D01*
X97691690Y-90801125D01*
X97717967Y-90736385D01*
X97775073Y-90696128D01*
X97815071Y-90689500D01*
X107147840Y-90689500D01*
X107147841Y-90689500D01*
X107195591Y-90676705D01*
X107243343Y-90663910D01*
X107328967Y-90614475D01*
X107398880Y-90544562D01*
X110045623Y-87897819D01*
X110106946Y-87864334D01*
X110133304Y-87861500D01*
X113482796Y-87861500D01*
X113549835Y-87881185D01*
X113595590Y-87933989D01*
X113605534Y-88003147D01*
X113576509Y-88066703D01*
X113570477Y-88073181D01*
X113460588Y-88183069D01*
X113460588Y-88183070D01*
X113460586Y-88183072D01*
X113416859Y-88243256D01*
X113358768Y-88323211D01*
X113280128Y-88477552D01*
X113226597Y-88642302D01*
X113216158Y-88708212D01*
X113199500Y-88813389D01*
X113199500Y-88986611D01*
X113226598Y-89157701D01*
X113280127Y-89322445D01*
X113358768Y-89476788D01*
X113460586Y-89616928D01*
X113583072Y-89739414D01*
X113723212Y-89841232D01*
X113877555Y-89919873D01*
X114042299Y-89973402D01*
X114213389Y-90000500D01*
X114213390Y-90000500D01*
X114386610Y-90000500D01*
X114386611Y-90000500D01*
X114557701Y-89973402D01*
X114722445Y-89919873D01*
X114876788Y-89841232D01*
X115016928Y-89739414D01*
X115139414Y-89616928D01*
X115241232Y-89476788D01*
X115319873Y-89322445D01*
X115373402Y-89157701D01*
X115400500Y-88986611D01*
X115400500Y-88813389D01*
X115373402Y-88642299D01*
X115319873Y-88477555D01*
X115241232Y-88323212D01*
X115139414Y-88183072D01*
X115016928Y-88060586D01*
X114952339Y-88013659D01*
X114909674Y-87958330D01*
X114903695Y-87888717D01*
X114936301Y-87826922D01*
X114963219Y-87805959D01*
X114996967Y-87786475D01*
X115066880Y-87716562D01*
X124100475Y-78682967D01*
X124100476Y-78682964D01*
X124100927Y-78682514D01*
X124124171Y-78669821D01*
X124145391Y-78653970D01*
X124154359Y-78653337D01*
X124162250Y-78649029D01*
X124188666Y-78650918D01*
X124215088Y-78649055D01*
X124226975Y-78653657D01*
X124231942Y-78654013D01*
X124248144Y-78661423D01*
X124249394Y-78662107D01*
X124337515Y-78712984D01*
X124346977Y-78715519D01*
X124360036Y-78722667D01*
X124374610Y-78737270D01*
X124392232Y-78748005D01*
X124398792Y-78761501D01*
X124409392Y-78772122D01*
X124413757Y-78792286D01*
X124422778Y-78810844D01*
X124424500Y-78831439D01*
X124424500Y-88943100D01*
X124404815Y-89010139D01*
X124388181Y-89030781D01*
X119013782Y-94405181D01*
X118952459Y-94438666D01*
X118926101Y-94441500D01*
X118888525Y-94441500D01*
X118759993Y-94475940D01*
X118748511Y-94479017D01*
X118622988Y-94551488D01*
X118622982Y-94551493D01*
X118520493Y-94653982D01*
X118520488Y-94653988D01*
X118448017Y-94779511D01*
X118448016Y-94779515D01*
X118410500Y-94919525D01*
X118410500Y-95064475D01*
X118444562Y-95191593D01*
X118448017Y-95204488D01*
X118520488Y-95330011D01*
X118520490Y-95330013D01*
X118520491Y-95330015D01*
X118622985Y-95432509D01*
X118622986Y-95432510D01*
X118622988Y-95432511D01*
X118748511Y-95504982D01*
X118748512Y-95504982D01*
X118748515Y-95504984D01*
X118888525Y-95542500D01*
X118929101Y-95542500D01*
X118996140Y-95562185D01*
X119016782Y-95578819D01*
X120468525Y-97030562D01*
X120538438Y-97100475D01*
X120624062Y-97149910D01*
X120671799Y-97162701D01*
X120719564Y-97175500D01*
X120719565Y-97175500D01*
X121395614Y-97175500D01*
X121462653Y-97195185D01*
X121483295Y-97211819D01*
X121511985Y-97240509D01*
X121511986Y-97240510D01*
X121511988Y-97240511D01*
X121637511Y-97312982D01*
X121637512Y-97312982D01*
X121637515Y-97312984D01*
X121777525Y-97350500D01*
X121777528Y-97350500D01*
X121922472Y-97350500D01*
X121922475Y-97350500D01*
X122062485Y-97312984D01*
X122188015Y-97240509D01*
X122290509Y-97138015D01*
X122362984Y-97012485D01*
X122400500Y-96872475D01*
X122400500Y-96727525D01*
X122362984Y-96587515D01*
X122302383Y-96482552D01*
X122290511Y-96461988D01*
X122290506Y-96461982D01*
X122188017Y-96359493D01*
X122188011Y-96359488D01*
X122062488Y-96287017D01*
X122062489Y-96287017D01*
X122051006Y-96283940D01*
X121922475Y-96249500D01*
X121777525Y-96249500D01*
X121648993Y-96283940D01*
X121637511Y-96287017D01*
X121511988Y-96359488D01*
X121511982Y-96359493D01*
X121483295Y-96388181D01*
X121421972Y-96421666D01*
X121395614Y-96424500D01*
X120975899Y-96424500D01*
X120908860Y-96404815D01*
X120888218Y-96388181D01*
X120399462Y-95899425D01*
X125441500Y-95899425D01*
X125441500Y-96044375D01*
X125455749Y-96097552D01*
X125479017Y-96184388D01*
X125551488Y-96309911D01*
X125551493Y-96309917D01*
X125580181Y-96338605D01*
X125613666Y-96399928D01*
X125616500Y-96426286D01*
X125616500Y-99768957D01*
X125612275Y-99801049D01*
X125596500Y-99859923D01*
X125596500Y-99859925D01*
X125596500Y-100004875D01*
X125630939Y-100133402D01*
X125634017Y-100144888D01*
X125706488Y-100270411D01*
X125706490Y-100270413D01*
X125706491Y-100270415D01*
X125808985Y-100372909D01*
X125808986Y-100372910D01*
X125808988Y-100372911D01*
X125934511Y-100445382D01*
X125934512Y-100445382D01*
X125934515Y-100445384D01*
X126074525Y-100482900D01*
X126074528Y-100482900D01*
X126224500Y-100482900D01*
X126291539Y-100502585D01*
X126337294Y-100555389D01*
X126348500Y-100606900D01*
X126348500Y-101330101D01*
X126339855Y-101359541D01*
X126333332Y-101389528D01*
X126329577Y-101394543D01*
X126328815Y-101397140D01*
X126312181Y-101417782D01*
X126234782Y-101495181D01*
X126173459Y-101528666D01*
X126147101Y-101531500D01*
X126106525Y-101531500D01*
X125977993Y-101565940D01*
X125966511Y-101569017D01*
X125840988Y-101641488D01*
X125840982Y-101641493D01*
X125738493Y-101743982D01*
X125738488Y-101743988D01*
X125666017Y-101869511D01*
X125666016Y-101869515D01*
X125628500Y-102009525D01*
X125628500Y-102154475D01*
X125656826Y-102260186D01*
X125666017Y-102294488D01*
X125738488Y-102420011D01*
X125738490Y-102420013D01*
X125738491Y-102420015D01*
X125840985Y-102522509D01*
X125840986Y-102522510D01*
X125840988Y-102522511D01*
X125966511Y-102594982D01*
X125966512Y-102594982D01*
X125966515Y-102594984D01*
X126106525Y-102632500D01*
X126106528Y-102632500D01*
X126251472Y-102632500D01*
X126251475Y-102632500D01*
X126391485Y-102594984D01*
X126517015Y-102522509D01*
X126619509Y-102420015D01*
X126691984Y-102294485D01*
X126729500Y-102154475D01*
X126729500Y-102113899D01*
X126749185Y-102046860D01*
X126765819Y-102026218D01*
X126782512Y-102009525D01*
X127024474Y-101767563D01*
X127024475Y-101767562D01*
X127073910Y-101681938D01*
X127099500Y-101586435D01*
X127099500Y-99054496D01*
X127119185Y-98987457D01*
X127122888Y-98982189D01*
X127123506Y-98981117D01*
X127123509Y-98981115D01*
X127195984Y-98855585D01*
X127211683Y-98796995D01*
X153199500Y-98796995D01*
X153199500Y-99033004D01*
X153199501Y-99033020D01*
X153217448Y-99169344D01*
X153230307Y-99267014D01*
X153260360Y-99379174D01*
X153291394Y-99494993D01*
X153381714Y-99713045D01*
X153381719Y-99713056D01*
X153431082Y-99798554D01*
X153499727Y-99917450D01*
X153499729Y-99917453D01*
X153499730Y-99917454D01*
X153643406Y-100104697D01*
X153643412Y-100104704D01*
X153810295Y-100271587D01*
X153810301Y-100271592D01*
X153997550Y-100415273D01*
X154128918Y-100491118D01*
X154201943Y-100533280D01*
X154201948Y-100533282D01*
X154201951Y-100533284D01*
X154420007Y-100623606D01*
X154647986Y-100684693D01*
X154881989Y-100715500D01*
X154881996Y-100715500D01*
X155118004Y-100715500D01*
X155118011Y-100715500D01*
X155352014Y-100684693D01*
X155579993Y-100623606D01*
X155798049Y-100533284D01*
X156002450Y-100415273D01*
X156189699Y-100271592D01*
X156356592Y-100104699D01*
X156500273Y-99917450D01*
X156618284Y-99713049D01*
X156708606Y-99494993D01*
X156769693Y-99267014D01*
X156800500Y-99033011D01*
X156800500Y-98796989D01*
X156769693Y-98562986D01*
X156708606Y-98335007D01*
X156618284Y-98116951D01*
X156618282Y-98116948D01*
X156618280Y-98116943D01*
X156567903Y-98029688D01*
X156500273Y-97912550D01*
X156356592Y-97725301D01*
X156356587Y-97725295D01*
X156189704Y-97558412D01*
X156189697Y-97558406D01*
X156002454Y-97414730D01*
X156002453Y-97414729D01*
X156002450Y-97414727D01*
X155891206Y-97350500D01*
X155798056Y-97296719D01*
X155798045Y-97296714D01*
X155579993Y-97206394D01*
X155416914Y-97162697D01*
X155352014Y-97145307D01*
X155352013Y-97145306D01*
X155352010Y-97145306D01*
X155118020Y-97114501D01*
X155118017Y-97114500D01*
X155118011Y-97114500D01*
X154881989Y-97114500D01*
X154881983Y-97114500D01*
X154881979Y-97114501D01*
X154647989Y-97145306D01*
X154420006Y-97206394D01*
X154201954Y-97296714D01*
X154201943Y-97296719D01*
X153997545Y-97414730D01*
X153810302Y-97558406D01*
X153810295Y-97558412D01*
X153643412Y-97725295D01*
X153643406Y-97725302D01*
X153499730Y-97912545D01*
X153381719Y-98116943D01*
X153381714Y-98116954D01*
X153291394Y-98335006D01*
X153230306Y-98562989D01*
X153199501Y-98796979D01*
X153199500Y-98796995D01*
X127211683Y-98796995D01*
X127233500Y-98715575D01*
X127233500Y-98570625D01*
X127195984Y-98430615D01*
X127180118Y-98403135D01*
X127123511Y-98305088D01*
X127123506Y-98305082D01*
X127021017Y-98202593D01*
X127021011Y-98202588D01*
X126895488Y-98130117D01*
X126895489Y-98130117D01*
X126866401Y-98122323D01*
X126755475Y-98092600D01*
X126610525Y-98092600D01*
X126523593Y-98115893D01*
X126453743Y-98114230D01*
X126395881Y-98075067D01*
X126368377Y-98010838D01*
X126367500Y-97996118D01*
X126367500Y-96426286D01*
X126387185Y-96359247D01*
X126403819Y-96338605D01*
X126414213Y-96328211D01*
X126432509Y-96309915D01*
X126504984Y-96184385D01*
X126542500Y-96044375D01*
X126542500Y-96003760D01*
X126562185Y-95936721D01*
X126578806Y-95916092D01*
X128777640Y-93716995D01*
X153199500Y-93716995D01*
X153199500Y-93953004D01*
X153199501Y-93953020D01*
X153230306Y-94187010D01*
X153291394Y-94414993D01*
X153381714Y-94633045D01*
X153381719Y-94633056D01*
X153447432Y-94746873D01*
X153499727Y-94837450D01*
X153499729Y-94837453D01*
X153499730Y-94837454D01*
X153643406Y-95024697D01*
X153643412Y-95024704D01*
X153810295Y-95191587D01*
X153810302Y-95191593D01*
X153827107Y-95204488D01*
X153997550Y-95335273D01*
X154128918Y-95411118D01*
X154201943Y-95453280D01*
X154201948Y-95453282D01*
X154201951Y-95453284D01*
X154420007Y-95543606D01*
X154647986Y-95604693D01*
X154881989Y-95635500D01*
X154881996Y-95635500D01*
X155118004Y-95635500D01*
X155118011Y-95635500D01*
X155352014Y-95604693D01*
X155579993Y-95543606D01*
X155798049Y-95453284D01*
X156002450Y-95335273D01*
X156189699Y-95191592D01*
X156356592Y-95024699D01*
X156500273Y-94837450D01*
X156618284Y-94633049D01*
X156708606Y-94414993D01*
X156769693Y-94187014D01*
X156800500Y-93953011D01*
X156800500Y-93716989D01*
X156769693Y-93482986D01*
X156708606Y-93255007D01*
X156618284Y-93036951D01*
X156618282Y-93036948D01*
X156618280Y-93036943D01*
X156569980Y-92953286D01*
X156500273Y-92832550D01*
X156356592Y-92645301D01*
X156356587Y-92645295D01*
X156189704Y-92478412D01*
X156189697Y-92478406D01*
X156002454Y-92334730D01*
X156002453Y-92334729D01*
X156002450Y-92334727D01*
X155906780Y-92279492D01*
X155798056Y-92216719D01*
X155798045Y-92216714D01*
X155579993Y-92126394D01*
X155352010Y-92065306D01*
X155118020Y-92034501D01*
X155118017Y-92034500D01*
X155118011Y-92034500D01*
X154881989Y-92034500D01*
X154881983Y-92034500D01*
X154881979Y-92034501D01*
X154647989Y-92065306D01*
X154420006Y-92126394D01*
X154201954Y-92216714D01*
X154201943Y-92216719D01*
X153997545Y-92334730D01*
X153810302Y-92478406D01*
X153810295Y-92478412D01*
X153643412Y-92645295D01*
X153643406Y-92645302D01*
X153499730Y-92832545D01*
X153381719Y-93036943D01*
X153381714Y-93036954D01*
X153291394Y-93255006D01*
X153230306Y-93482989D01*
X153199501Y-93716979D01*
X153199500Y-93716995D01*
X128777640Y-93716995D01*
X129606070Y-92888466D01*
X129636638Y-92857898D01*
X129639249Y-92855457D01*
X129639485Y-92855046D01*
X129639488Y-92855045D01*
X129662345Y-92815449D01*
X129662348Y-92815445D01*
X129673668Y-92795835D01*
X129688557Y-92770048D01*
X129688908Y-92769452D01*
X129688916Y-92769420D01*
X129688919Y-92769416D01*
X129695137Y-92746203D01*
X129702158Y-92719997D01*
X129702159Y-92719993D01*
X129708384Y-92696760D01*
X129714500Y-92673935D01*
X129714500Y-92673932D01*
X129714501Y-92673929D01*
X129714503Y-92673916D01*
X129714503Y-92673912D01*
X129714500Y-92624478D01*
X129714500Y-88636995D01*
X153199500Y-88636995D01*
X153199500Y-88873004D01*
X153199501Y-88873020D01*
X153229457Y-89100564D01*
X153230307Y-89107014D01*
X153273387Y-89267789D01*
X153291394Y-89334993D01*
X153381714Y-89553045D01*
X153381719Y-89553056D01*
X153425608Y-89629072D01*
X153499727Y-89757450D01*
X153499729Y-89757453D01*
X153499730Y-89757454D01*
X153643406Y-89944697D01*
X153643412Y-89944704D01*
X153810295Y-90111587D01*
X153810301Y-90111592D01*
X153997550Y-90255273D01*
X154083460Y-90304873D01*
X154201943Y-90373280D01*
X154201948Y-90373282D01*
X154201951Y-90373284D01*
X154420007Y-90463606D01*
X154647986Y-90524693D01*
X154881989Y-90555500D01*
X154881996Y-90555500D01*
X155118004Y-90555500D01*
X155118011Y-90555500D01*
X155352014Y-90524693D01*
X155579993Y-90463606D01*
X155798049Y-90373284D01*
X156002450Y-90255273D01*
X156189699Y-90111592D01*
X156356592Y-89944699D01*
X156500273Y-89757450D01*
X156618284Y-89553049D01*
X156708606Y-89334993D01*
X156769693Y-89107014D01*
X156800500Y-88873011D01*
X156800500Y-88636989D01*
X156769693Y-88402986D01*
X156708606Y-88175007D01*
X156618284Y-87956951D01*
X156618282Y-87956948D01*
X156618280Y-87956943D01*
X156569202Y-87871938D01*
X156500273Y-87752550D01*
X156371256Y-87584411D01*
X156356593Y-87565302D01*
X156356587Y-87565295D01*
X156189704Y-87398412D01*
X156189697Y-87398406D01*
X156002454Y-87254730D01*
X156002453Y-87254729D01*
X156002450Y-87254727D01*
X155906640Y-87199411D01*
X155798056Y-87136719D01*
X155798045Y-87136714D01*
X155579993Y-87046394D01*
X155352010Y-86985306D01*
X155118020Y-86954501D01*
X155118017Y-86954500D01*
X155118011Y-86954500D01*
X154881989Y-86954500D01*
X154881983Y-86954500D01*
X154881979Y-86954501D01*
X154647989Y-86985306D01*
X154420006Y-87046394D01*
X154201954Y-87136714D01*
X154201943Y-87136719D01*
X153997545Y-87254730D01*
X153810302Y-87398406D01*
X153810295Y-87398412D01*
X153643412Y-87565295D01*
X153643406Y-87565302D01*
X153499730Y-87752545D01*
X153381719Y-87956943D01*
X153381714Y-87956954D01*
X153291394Y-88175006D01*
X153230306Y-88402989D01*
X153199501Y-88636979D01*
X153199500Y-88636995D01*
X129714500Y-88636995D01*
X129714500Y-83556995D01*
X153199500Y-83556995D01*
X153199500Y-83793004D01*
X153199501Y-83793020D01*
X153230306Y-84027010D01*
X153291394Y-84254993D01*
X153381714Y-84473045D01*
X153381719Y-84473056D01*
X153452677Y-84595957D01*
X153499727Y-84677450D01*
X153499729Y-84677453D01*
X153499730Y-84677454D01*
X153643406Y-84864697D01*
X153643412Y-84864704D01*
X153810295Y-85031587D01*
X153810301Y-85031592D01*
X153997550Y-85175273D01*
X154083460Y-85224873D01*
X154201943Y-85293280D01*
X154201948Y-85293282D01*
X154201951Y-85293284D01*
X154420007Y-85383606D01*
X154647986Y-85444693D01*
X154881989Y-85475500D01*
X154881996Y-85475500D01*
X155118004Y-85475500D01*
X155118011Y-85475500D01*
X155352014Y-85444693D01*
X155579993Y-85383606D01*
X155798049Y-85293284D01*
X156002450Y-85175273D01*
X156189699Y-85031592D01*
X156356592Y-84864699D01*
X156500273Y-84677450D01*
X156618284Y-84473049D01*
X156708606Y-84254993D01*
X156769693Y-84027014D01*
X156800500Y-83793011D01*
X156800500Y-83556989D01*
X156769693Y-83322986D01*
X156708606Y-83095007D01*
X156618284Y-82876951D01*
X156618282Y-82876948D01*
X156618280Y-82876943D01*
X156572855Y-82798266D01*
X156500273Y-82672550D01*
X156356592Y-82485301D01*
X156356587Y-82485295D01*
X156189704Y-82318412D01*
X156189697Y-82318406D01*
X156002454Y-82174730D01*
X156002453Y-82174729D01*
X156002450Y-82174727D01*
X155920957Y-82127677D01*
X155798056Y-82056719D01*
X155798045Y-82056714D01*
X155579993Y-81966394D01*
X155352010Y-81905306D01*
X155118020Y-81874501D01*
X155118017Y-81874500D01*
X155118011Y-81874500D01*
X154881989Y-81874500D01*
X154881983Y-81874500D01*
X154881979Y-81874501D01*
X154647989Y-81905306D01*
X154420006Y-81966394D01*
X154201954Y-82056714D01*
X154201943Y-82056719D01*
X153997545Y-82174730D01*
X153810302Y-82318406D01*
X153810295Y-82318412D01*
X153643412Y-82485295D01*
X153643406Y-82485302D01*
X153499730Y-82672545D01*
X153381719Y-82876943D01*
X153381714Y-82876954D01*
X153291394Y-83095006D01*
X153230306Y-83322989D01*
X153199501Y-83556979D01*
X153199500Y-83556995D01*
X129714500Y-83556995D01*
X129714500Y-78789986D01*
X129734185Y-78722947D01*
X129750819Y-78702305D01*
X129779509Y-78673615D01*
X129851984Y-78548085D01*
X129871033Y-78476995D01*
X153199500Y-78476995D01*
X153199500Y-78713004D01*
X153199501Y-78713020D01*
X153230306Y-78947010D01*
X153291394Y-79174993D01*
X153381714Y-79393045D01*
X153381719Y-79393056D01*
X153452677Y-79515957D01*
X153499727Y-79597450D01*
X153499729Y-79597453D01*
X153499730Y-79597454D01*
X153643406Y-79784697D01*
X153643412Y-79784704D01*
X153810295Y-79951587D01*
X153810301Y-79951592D01*
X153997550Y-80095273D01*
X154083460Y-80144873D01*
X154201943Y-80213280D01*
X154201948Y-80213282D01*
X154201951Y-80213284D01*
X154420007Y-80303606D01*
X154647986Y-80364693D01*
X154881989Y-80395500D01*
X154881996Y-80395500D01*
X155118004Y-80395500D01*
X155118011Y-80395500D01*
X155352014Y-80364693D01*
X155579993Y-80303606D01*
X155798049Y-80213284D01*
X156002450Y-80095273D01*
X156189699Y-79951592D01*
X156356592Y-79784699D01*
X156500273Y-79597450D01*
X156618284Y-79393049D01*
X156708606Y-79174993D01*
X156769693Y-78947014D01*
X156800500Y-78713011D01*
X156800500Y-78476989D01*
X156769693Y-78242986D01*
X156708606Y-78015007D01*
X156618284Y-77796951D01*
X156618282Y-77796948D01*
X156618280Y-77796943D01*
X156566557Y-77707357D01*
X156500273Y-77592550D01*
X156369754Y-77422454D01*
X156356593Y-77405302D01*
X156356587Y-77405295D01*
X156189704Y-77238412D01*
X156189697Y-77238406D01*
X156002454Y-77094730D01*
X156002453Y-77094729D01*
X156002450Y-77094727D01*
X155906640Y-77039411D01*
X155798056Y-76976719D01*
X155798045Y-76976714D01*
X155579993Y-76886394D01*
X155352010Y-76825306D01*
X155118020Y-76794501D01*
X155118017Y-76794500D01*
X155118011Y-76794500D01*
X154881989Y-76794500D01*
X154881983Y-76794500D01*
X154881979Y-76794501D01*
X154647989Y-76825306D01*
X154420006Y-76886394D01*
X154201954Y-76976714D01*
X154201943Y-76976719D01*
X153997545Y-77094730D01*
X153810302Y-77238406D01*
X153810295Y-77238412D01*
X153643412Y-77405295D01*
X153643406Y-77405302D01*
X153499730Y-77592545D01*
X153381719Y-77796943D01*
X153381714Y-77796954D01*
X153291394Y-78015006D01*
X153230306Y-78242989D01*
X153199501Y-78476979D01*
X153199500Y-78476995D01*
X129871033Y-78476995D01*
X129889500Y-78408075D01*
X129889500Y-78263125D01*
X129851984Y-78123115D01*
X129812693Y-78055062D01*
X129779511Y-77997588D01*
X129779506Y-77997582D01*
X129677017Y-77895093D01*
X129677011Y-77895088D01*
X129551488Y-77822617D01*
X129551489Y-77822617D01*
X129540006Y-77819540D01*
X129411475Y-77785100D01*
X129266525Y-77785100D01*
X129137993Y-77819540D01*
X129126511Y-77822617D01*
X129000988Y-77895088D01*
X129000982Y-77895093D01*
X128898493Y-77997582D01*
X128898488Y-77997588D01*
X128826017Y-78123111D01*
X128826016Y-78123115D01*
X128788500Y-78263125D01*
X128788500Y-78408075D01*
X128826016Y-78548085D01*
X128826017Y-78548088D01*
X128898488Y-78673611D01*
X128898493Y-78673617D01*
X128927181Y-78702305D01*
X128960666Y-78763628D01*
X128963500Y-78789986D01*
X128963500Y-92417618D01*
X128943815Y-92484657D01*
X128927186Y-92505294D01*
X127651433Y-93781200D01*
X126065789Y-95367034D01*
X126047749Y-95385076D01*
X125986428Y-95418565D01*
X125960063Y-95421400D01*
X125919525Y-95421400D01*
X125800549Y-95453280D01*
X125779511Y-95458917D01*
X125653988Y-95531388D01*
X125653982Y-95531393D01*
X125551493Y-95633882D01*
X125551488Y-95633888D01*
X125479017Y-95759411D01*
X125479016Y-95759415D01*
X125441500Y-95899425D01*
X120399462Y-95899425D01*
X119578218Y-95078181D01*
X119544733Y-95016858D01*
X119549717Y-94947166D01*
X119578218Y-94902819D01*
X122264323Y-92216714D01*
X125100475Y-89380563D01*
X125130113Y-89329227D01*
X125180679Y-89281013D01*
X125249286Y-89267789D01*
X125314151Y-89293757D01*
X125354680Y-89350671D01*
X125361500Y-89391228D01*
X125361500Y-92901924D01*
X125341815Y-92968963D01*
X125325181Y-92989605D01*
X124751961Y-93562824D01*
X124690638Y-93596309D01*
X124688473Y-93596760D01*
X124591260Y-93616097D01*
X124591255Y-93616099D01*
X124472875Y-93665133D01*
X124472866Y-93665138D01*
X124366331Y-93736323D01*
X124366327Y-93736326D01*
X124275726Y-93826927D01*
X124275723Y-93826931D01*
X124204538Y-93933466D01*
X124204533Y-93933475D01*
X124155499Y-94051855D01*
X124155497Y-94051861D01*
X124130500Y-94177528D01*
X124130500Y-94177531D01*
X124130500Y-94305669D01*
X124130500Y-94305671D01*
X124130499Y-94305671D01*
X124155497Y-94431338D01*
X124155499Y-94431344D01*
X124204533Y-94549724D01*
X124204538Y-94549733D01*
X124275723Y-94656268D01*
X124275726Y-94656272D01*
X124366327Y-94746873D01*
X124366331Y-94746876D01*
X124472866Y-94818061D01*
X124472872Y-94818064D01*
X124472873Y-94818065D01*
X124591256Y-94867101D01*
X124591260Y-94867101D01*
X124591261Y-94867102D01*
X124716928Y-94892100D01*
X124716931Y-94892100D01*
X124845071Y-94892100D01*
X124929615Y-94875282D01*
X124970744Y-94867101D01*
X125089127Y-94818065D01*
X125195669Y-94746876D01*
X125286276Y-94656269D01*
X125357465Y-94549727D01*
X125406501Y-94431344D01*
X125425839Y-94334128D01*
X125458224Y-94272217D01*
X125459719Y-94270694D01*
X126262500Y-93467914D01*
X126328392Y-93353786D01*
X126362500Y-93226492D01*
X126362500Y-93094707D01*
X126362500Y-90698186D01*
X126382185Y-90631147D01*
X126434989Y-90585392D01*
X126504147Y-90575448D01*
X126518583Y-90578408D01*
X126627525Y-90607600D01*
X126627528Y-90607600D01*
X126772472Y-90607600D01*
X126772475Y-90607600D01*
X126912485Y-90570084D01*
X127038015Y-90497609D01*
X127140509Y-90395115D01*
X127212984Y-90269585D01*
X127250500Y-90129575D01*
X127250500Y-89984625D01*
X127212984Y-89844615D01*
X127211030Y-89841231D01*
X127140511Y-89719088D01*
X127140506Y-89719082D01*
X127111819Y-89690395D01*
X127078334Y-89629072D01*
X127075500Y-89602714D01*
X127075500Y-77912986D01*
X127095185Y-77845947D01*
X127111819Y-77825305D01*
X127115458Y-77821666D01*
X127140509Y-77796615D01*
X127212984Y-77671085D01*
X127250500Y-77531075D01*
X127250500Y-77386125D01*
X127212984Y-77246115D01*
X127208534Y-77238408D01*
X127140511Y-77120588D01*
X127140506Y-77120582D01*
X127038017Y-77018093D01*
X127038011Y-77018088D01*
X126912488Y-76945617D01*
X126912489Y-76945617D01*
X126901006Y-76942540D01*
X126772475Y-76908100D01*
X126627525Y-76908100D01*
X126518593Y-76937288D01*
X126448743Y-76935625D01*
X126390881Y-76896462D01*
X126363377Y-76832234D01*
X126362500Y-76817513D01*
X126362500Y-73397014D01*
X153200000Y-73397014D01*
X153200000Y-73632985D01*
X153230799Y-73866914D01*
X153291870Y-74094837D01*
X153382160Y-74312819D01*
X153382165Y-74312828D01*
X153500144Y-74517171D01*
X153500145Y-74517172D01*
X153562721Y-74598723D01*
X154398958Y-73762487D01*
X154423978Y-73822890D01*
X154495112Y-73929351D01*
X154585649Y-74019888D01*
X154692110Y-74091022D01*
X154752511Y-74116041D01*
X153916275Y-74952277D01*
X153997827Y-75014854D01*
X153997828Y-75014855D01*
X154202171Y-75132834D01*
X154202180Y-75132839D01*
X154420163Y-75223129D01*
X154420161Y-75223129D01*
X154648085Y-75284200D01*
X154882014Y-75314999D01*
X154882029Y-75315000D01*
X155117971Y-75315000D01*
X155117985Y-75314999D01*
X155351914Y-75284200D01*
X155579837Y-75223129D01*
X155797819Y-75132839D01*
X155797828Y-75132834D01*
X156002181Y-75014850D01*
X156083723Y-74952279D01*
X156083723Y-74952276D01*
X155247487Y-74116041D01*
X155307890Y-74091022D01*
X155414351Y-74019888D01*
X155504888Y-73929351D01*
X155576022Y-73822890D01*
X155601041Y-73762488D01*
X156437276Y-74598723D01*
X156437279Y-74598723D01*
X156499850Y-74517181D01*
X156617834Y-74312828D01*
X156617839Y-74312819D01*
X156708129Y-74094837D01*
X156769200Y-73866914D01*
X156799999Y-73632985D01*
X156800000Y-73632971D01*
X156800000Y-73397028D01*
X156799999Y-73397014D01*
X156769200Y-73163085D01*
X156708129Y-72935162D01*
X156617839Y-72717180D01*
X156617834Y-72717171D01*
X156499855Y-72512828D01*
X156499854Y-72512827D01*
X156437277Y-72431275D01*
X155601041Y-73267511D01*
X155576022Y-73207110D01*
X155504888Y-73100649D01*
X155414351Y-73010112D01*
X155307890Y-72938978D01*
X155247488Y-72913958D01*
X156083723Y-72077721D01*
X156002172Y-72015145D01*
X156002171Y-72015144D01*
X155797828Y-71897165D01*
X155797819Y-71897160D01*
X155579836Y-71806870D01*
X155579838Y-71806870D01*
X155351914Y-71745799D01*
X155117985Y-71715000D01*
X154882014Y-71715000D01*
X154648085Y-71745799D01*
X154420162Y-71806870D01*
X154202180Y-71897160D01*
X154202171Y-71897165D01*
X153997828Y-72015144D01*
X153997818Y-72015150D01*
X153916275Y-72077720D01*
X153916275Y-72077721D01*
X154752512Y-72913958D01*
X154692110Y-72938978D01*
X154585649Y-73010112D01*
X154495112Y-73100649D01*
X154423978Y-73207110D01*
X154398958Y-73267511D01*
X153562721Y-72431275D01*
X153562720Y-72431275D01*
X153500150Y-72512818D01*
X153500144Y-72512828D01*
X153382165Y-72717171D01*
X153382160Y-72717180D01*
X153291870Y-72935162D01*
X153230799Y-73163085D01*
X153200000Y-73397014D01*
X126362500Y-73397014D01*
X126362500Y-72483348D01*
X126362501Y-72456312D01*
X126328394Y-72329018D01*
X126319201Y-72313096D01*
X126262500Y-72214886D01*
X126180985Y-72133371D01*
X123243352Y-69195685D01*
X123037949Y-68990278D01*
X122958397Y-68910725D01*
X151578500Y-68910725D01*
X151578500Y-69055675D01*
X151609909Y-69172893D01*
X151616017Y-69195688D01*
X151688488Y-69321211D01*
X151688490Y-69321213D01*
X151688491Y-69321215D01*
X151790985Y-69423709D01*
X151790986Y-69423710D01*
X151790988Y-69423711D01*
X151916511Y-69496182D01*
X151916512Y-69496182D01*
X151916515Y-69496184D01*
X152056525Y-69533700D01*
X152056528Y-69533700D01*
X152201472Y-69533700D01*
X152201475Y-69533700D01*
X152341485Y-69496184D01*
X152467015Y-69423709D01*
X152569509Y-69321215D01*
X152641984Y-69195685D01*
X152679500Y-69055675D01*
X152679500Y-68910725D01*
X152641984Y-68770715D01*
X152569509Y-68645185D01*
X152540819Y-68616495D01*
X152507334Y-68555172D01*
X152504500Y-68528814D01*
X152504500Y-65902135D01*
X153449500Y-65902135D01*
X153449500Y-68097870D01*
X153449501Y-68097876D01*
X153455908Y-68157483D01*
X153506202Y-68292328D01*
X153506206Y-68292335D01*
X153592452Y-68407544D01*
X153592455Y-68407547D01*
X153707664Y-68493793D01*
X153707671Y-68493797D01*
X153842517Y-68544091D01*
X153842516Y-68544091D01*
X153849444Y-68544835D01*
X153902127Y-68550500D01*
X156097872Y-68550499D01*
X156157483Y-68544091D01*
X156292331Y-68493796D01*
X156407546Y-68407546D01*
X156493796Y-68292331D01*
X156544091Y-68157483D01*
X156550500Y-68097873D01*
X156550499Y-65902128D01*
X156544091Y-65842517D01*
X156521632Y-65782302D01*
X156493797Y-65707671D01*
X156493793Y-65707664D01*
X156407547Y-65592455D01*
X156407544Y-65592452D01*
X156292335Y-65506206D01*
X156292328Y-65506202D01*
X156157482Y-65455908D01*
X156157483Y-65455908D01*
X156097883Y-65449501D01*
X156097881Y-65449500D01*
X156097873Y-65449500D01*
X156097864Y-65449500D01*
X153902129Y-65449500D01*
X153902123Y-65449501D01*
X153842516Y-65455908D01*
X153707671Y-65506202D01*
X153707664Y-65506206D01*
X153592455Y-65592452D01*
X153592452Y-65592455D01*
X153506206Y-65707664D01*
X153506202Y-65707671D01*
X153455908Y-65842517D01*
X153449501Y-65902116D01*
X153449501Y-65902123D01*
X153449500Y-65902135D01*
X152504500Y-65902135D01*
X152504500Y-61797973D01*
X153449500Y-61797973D01*
X153449500Y-62042027D01*
X153487679Y-62283076D01*
X153563096Y-62515185D01*
X153637182Y-62660588D01*
X153673896Y-62732642D01*
X153817339Y-62930076D01*
X153817343Y-62930081D01*
X153989918Y-63102656D01*
X153989923Y-63102660D01*
X154162136Y-63227779D01*
X154187361Y-63246106D01*
X154404815Y-63356904D01*
X154636924Y-63432321D01*
X154877973Y-63470500D01*
X154877974Y-63470500D01*
X155122026Y-63470500D01*
X155122027Y-63470500D01*
X155363076Y-63432321D01*
X155595185Y-63356904D01*
X155812639Y-63246106D01*
X156010083Y-63102655D01*
X156182655Y-62930083D01*
X156326106Y-62732639D01*
X156436904Y-62515185D01*
X156512321Y-62283076D01*
X156550500Y-62042027D01*
X156550500Y-61797973D01*
X156512321Y-61556924D01*
X156436904Y-61324815D01*
X156326106Y-61107361D01*
X156238678Y-60987026D01*
X156182660Y-60909923D01*
X156182656Y-60909918D01*
X156010081Y-60737343D01*
X156010076Y-60737339D01*
X155812642Y-60593896D01*
X155812641Y-60593895D01*
X155812639Y-60593894D01*
X155595185Y-60483096D01*
X155363076Y-60407679D01*
X155363074Y-60407678D01*
X155363072Y-60407678D01*
X155194769Y-60381021D01*
X155122027Y-60369500D01*
X154877973Y-60369500D01*
X154822093Y-60378350D01*
X154636927Y-60407678D01*
X154404812Y-60483097D01*
X154187357Y-60593896D01*
X153989923Y-60737339D01*
X153989918Y-60737343D01*
X153817343Y-60909918D01*
X153817339Y-60909923D01*
X153673896Y-61107357D01*
X153563097Y-61324812D01*
X153487678Y-61556927D01*
X153462746Y-61714342D01*
X153449500Y-61797973D01*
X152504500Y-61797973D01*
X152504500Y-56717973D01*
X153449500Y-56717973D01*
X153449500Y-56962027D01*
X153454765Y-56995269D01*
X153487615Y-57202676D01*
X153487679Y-57203076D01*
X153563096Y-57435185D01*
X153644780Y-57595500D01*
X153673896Y-57652642D01*
X153817339Y-57850076D01*
X153817343Y-57850081D01*
X153989918Y-58022656D01*
X153989923Y-58022660D01*
X154162136Y-58147779D01*
X154187361Y-58166106D01*
X154404815Y-58276904D01*
X154636924Y-58352321D01*
X154877973Y-58390500D01*
X154877974Y-58390500D01*
X155122026Y-58390500D01*
X155122027Y-58390500D01*
X155363076Y-58352321D01*
X155595185Y-58276904D01*
X155812639Y-58166106D01*
X156010083Y-58022655D01*
X156182655Y-57850083D01*
X156326106Y-57652639D01*
X156436904Y-57435185D01*
X156512321Y-57203076D01*
X156550500Y-56962027D01*
X156550500Y-56717973D01*
X156512321Y-56476924D01*
X156436904Y-56244815D01*
X156326106Y-56027361D01*
X156219043Y-55880001D01*
X156182660Y-55829923D01*
X156182656Y-55829918D01*
X156010081Y-55657343D01*
X156010076Y-55657339D01*
X155812642Y-55513896D01*
X155812641Y-55513895D01*
X155812639Y-55513894D01*
X155595185Y-55403096D01*
X155363076Y-55327679D01*
X155363074Y-55327678D01*
X155363072Y-55327678D01*
X155194769Y-55301021D01*
X155122027Y-55289500D01*
X154877973Y-55289500D01*
X154822093Y-55298350D01*
X154636927Y-55327678D01*
X154404812Y-55403097D01*
X154187357Y-55513896D01*
X153989923Y-55657339D01*
X153989918Y-55657343D01*
X153817343Y-55829918D01*
X153817339Y-55829923D01*
X153673896Y-56027357D01*
X153563097Y-56244812D01*
X153487678Y-56476927D01*
X153461578Y-56641716D01*
X153449500Y-56717973D01*
X152504500Y-56717973D01*
X152504500Y-54837708D01*
X152524185Y-54770669D01*
X152540819Y-54750026D01*
X154135249Y-53155708D01*
X154196570Y-53122227D01*
X154266262Y-53127214D01*
X154279210Y-53132905D01*
X154404815Y-53196904D01*
X154636924Y-53272321D01*
X154877973Y-53310500D01*
X154877974Y-53310500D01*
X155122026Y-53310500D01*
X155122027Y-53310500D01*
X155363076Y-53272321D01*
X155595185Y-53196904D01*
X155812639Y-53086106D01*
X156010083Y-52942655D01*
X156182655Y-52770083D01*
X156326106Y-52572639D01*
X156436904Y-52355185D01*
X156512321Y-52123076D01*
X156550500Y-51882027D01*
X156550500Y-51637973D01*
X156512321Y-51396924D01*
X156436904Y-51164815D01*
X156326106Y-50947361D01*
X156281968Y-50886610D01*
X156182660Y-50749923D01*
X156182656Y-50749918D01*
X156010081Y-50577343D01*
X156010076Y-50577339D01*
X155812642Y-50433896D01*
X155812641Y-50433895D01*
X155812639Y-50433894D01*
X155595185Y-50323096D01*
X155363076Y-50247679D01*
X155363074Y-50247678D01*
X155363072Y-50247678D01*
X155194769Y-50221021D01*
X155122027Y-50209500D01*
X154877973Y-50209500D01*
X154822093Y-50218350D01*
X154636927Y-50247678D01*
X154404812Y-50323097D01*
X154187357Y-50433896D01*
X153989923Y-50577339D01*
X153989918Y-50577343D01*
X153817343Y-50749918D01*
X153817339Y-50749923D01*
X153673896Y-50947357D01*
X153563097Y-51164812D01*
X153487678Y-51396927D01*
X153461748Y-51560641D01*
X153449500Y-51637973D01*
X153449500Y-51882027D01*
X153487679Y-52123076D01*
X153554886Y-52329918D01*
X153563097Y-52355187D01*
X153627036Y-52480675D01*
X153639932Y-52549345D01*
X153613656Y-52614085D01*
X153604229Y-52624654D01*
X151902783Y-54325981D01*
X151898440Y-54330323D01*
X151898438Y-54330325D01*
X151878687Y-54350076D01*
X151874984Y-54353779D01*
X151859962Y-54368801D01*
X151828539Y-54400220D01*
X151828528Y-54400233D01*
X151828520Y-54400244D01*
X151795792Y-54456932D01*
X151795790Y-54456935D01*
X151779115Y-54485814D01*
X151779093Y-54485854D01*
X151779093Y-54485855D01*
X151779089Y-54485863D01*
X151765286Y-54537379D01*
X151765285Y-54537383D01*
X151753502Y-54581347D01*
X151753502Y-54581349D01*
X151753502Y-54581351D01*
X151753501Y-54581357D01*
X151753500Y-54581365D01*
X151753500Y-54630787D01*
X151753498Y-54680223D01*
X151753500Y-54680230D01*
X151753500Y-68528814D01*
X151733815Y-68595853D01*
X151717181Y-68616495D01*
X151688493Y-68645182D01*
X151688488Y-68645188D01*
X151616017Y-68770711D01*
X151616016Y-68770715D01*
X151578500Y-68910725D01*
X122958397Y-68910725D01*
X115561480Y-61513673D01*
X115527996Y-61452350D01*
X115532981Y-61382658D01*
X115561476Y-61338317D01*
X117417382Y-59482332D01*
X117448293Y-59451420D01*
X117451325Y-59448791D01*
X117452021Y-59448007D01*
X117454143Y-59445753D01*
X117454495Y-59445218D01*
X117454500Y-59445214D01*
X117454502Y-59445209D01*
X117454506Y-59445206D01*
X117454520Y-59445180D01*
X117456546Y-59442111D01*
X117456546Y-59442110D01*
X117457179Y-59441150D01*
X117458939Y-59437527D01*
X117483354Y-59395236D01*
X117483356Y-59395231D01*
X117520392Y-59331086D01*
X117520393Y-59331080D01*
X117520396Y-59331076D01*
X117526976Y-59306515D01*
X117535408Y-59275047D01*
X117544748Y-59240184D01*
X117553551Y-59207333D01*
X117554363Y-59204627D01*
X117554495Y-59203808D01*
X117554500Y-59203792D01*
X117554500Y-59203785D01*
X117554501Y-59203782D01*
X117554500Y-59141658D01*
X117554500Y-52195013D01*
X130872500Y-52195013D01*
X130872500Y-53045000D01*
X132072499Y-53045000D01*
X132047479Y-53105402D01*
X132022500Y-53230981D01*
X132022500Y-53359019D01*
X132047479Y-53484598D01*
X132072499Y-53545000D01*
X130872501Y-53545000D01*
X130872501Y-54394986D01*
X130882994Y-54497697D01*
X130938141Y-54664119D01*
X130938143Y-54664124D01*
X131030184Y-54813345D01*
X131154154Y-54937315D01*
X131303375Y-55029356D01*
X131303380Y-55029358D01*
X131469802Y-55084505D01*
X131469809Y-55084506D01*
X131572519Y-55094999D01*
X132422499Y-55094999D01*
X132422500Y-55094998D01*
X132422500Y-53895001D01*
X132482902Y-53920021D01*
X132608481Y-53945000D01*
X132736519Y-53945000D01*
X132862098Y-53920021D01*
X132922500Y-53895001D01*
X132922500Y-55094999D01*
X133772472Y-55094999D01*
X133772486Y-55094998D01*
X133875197Y-55084505D01*
X134041619Y-55029358D01*
X134041624Y-55029356D01*
X134190845Y-54937315D01*
X134314815Y-54813345D01*
X134406856Y-54664124D01*
X134406858Y-54664119D01*
X134462005Y-54497697D01*
X134462006Y-54497690D01*
X134472499Y-54394986D01*
X134472500Y-54394973D01*
X134472500Y-53545000D01*
X133272501Y-53545000D01*
X133297521Y-53484598D01*
X133322500Y-53359019D01*
X133322500Y-53230981D01*
X133297521Y-53105402D01*
X133272501Y-53045000D01*
X134472499Y-53045000D01*
X134472499Y-52195028D01*
X134472498Y-52195013D01*
X134462005Y-52092302D01*
X134406858Y-51925880D01*
X134406856Y-51925875D01*
X134314815Y-51776654D01*
X134190845Y-51652684D01*
X134041624Y-51560643D01*
X134041619Y-51560641D01*
X133875197Y-51505494D01*
X133875190Y-51505493D01*
X133772486Y-51495000D01*
X132922500Y-51495000D01*
X132922500Y-52694998D01*
X132862098Y-52669979D01*
X132736519Y-52645000D01*
X132608481Y-52645000D01*
X132482902Y-52669979D01*
X132422500Y-52694998D01*
X132422500Y-51495000D01*
X131572528Y-51495000D01*
X131572512Y-51495001D01*
X131469802Y-51505494D01*
X131303380Y-51560641D01*
X131303375Y-51560643D01*
X131154154Y-51652684D01*
X131030184Y-51776654D01*
X130938143Y-51925875D01*
X130938141Y-51925880D01*
X130882994Y-52092302D01*
X130882993Y-52092309D01*
X130872500Y-52195013D01*
X117554500Y-52195013D01*
X117554500Y-48092973D01*
X131122000Y-48092973D01*
X131122000Y-48337027D01*
X131160179Y-48578076D01*
X131235596Y-48810185D01*
X131315642Y-48967285D01*
X131346396Y-49027642D01*
X131489839Y-49225076D01*
X131489843Y-49225081D01*
X131662418Y-49397656D01*
X131662423Y-49397660D01*
X131834636Y-49522779D01*
X131859861Y-49541106D01*
X132077315Y-49651904D01*
X132309424Y-49727321D01*
X132550473Y-49765500D01*
X132550474Y-49765500D01*
X132794526Y-49765500D01*
X132794527Y-49765500D01*
X133035576Y-49727321D01*
X133267685Y-49651904D01*
X133485139Y-49541106D01*
X133682583Y-49397655D01*
X133855155Y-49225083D01*
X133998606Y-49027639D01*
X134109404Y-48810185D01*
X134184821Y-48578076D01*
X134223000Y-48337027D01*
X134223000Y-48092973D01*
X134184821Y-47851924D01*
X134109404Y-47619815D01*
X133998606Y-47402361D01*
X133892285Y-47256022D01*
X133855160Y-47204923D01*
X133855156Y-47204918D01*
X133682581Y-47032343D01*
X133682576Y-47032339D01*
X133485142Y-46888896D01*
X133485141Y-46888895D01*
X133485139Y-46888894D01*
X133267685Y-46778096D01*
X133035576Y-46702679D01*
X133035574Y-46702678D01*
X133035572Y-46702678D01*
X132895141Y-46680436D01*
X132892395Y-46680001D01*
X132794527Y-46664500D01*
X132550473Y-46664500D01*
X132494593Y-46673350D01*
X132309427Y-46702678D01*
X132077312Y-46778097D01*
X131859857Y-46888896D01*
X131662423Y-47032339D01*
X131662418Y-47032343D01*
X131489843Y-47204918D01*
X131489839Y-47204923D01*
X131346396Y-47402357D01*
X131235597Y-47619812D01*
X131160178Y-47851927D01*
X131122674Y-48088717D01*
X131122000Y-48092973D01*
X117554500Y-48092973D01*
X117554500Y-46562014D01*
X153200000Y-46562014D01*
X153200000Y-46797985D01*
X153230799Y-47031914D01*
X153291870Y-47259837D01*
X153382160Y-47477819D01*
X153382165Y-47477828D01*
X153500144Y-47682171D01*
X153500145Y-47682172D01*
X153562721Y-47763723D01*
X154398958Y-46927487D01*
X154423978Y-46987890D01*
X154495112Y-47094351D01*
X154585649Y-47184888D01*
X154692110Y-47256022D01*
X154752511Y-47281041D01*
X153916275Y-48117277D01*
X153997827Y-48179854D01*
X153997828Y-48179855D01*
X154202171Y-48297834D01*
X154202180Y-48297839D01*
X154420163Y-48388129D01*
X154420161Y-48388129D01*
X154648085Y-48449200D01*
X154882014Y-48479999D01*
X154882029Y-48480000D01*
X155117971Y-48480000D01*
X155117985Y-48479999D01*
X155351914Y-48449200D01*
X155579837Y-48388129D01*
X155797819Y-48297839D01*
X155797828Y-48297834D01*
X156002181Y-48179850D01*
X156083723Y-48117279D01*
X156083723Y-48117276D01*
X155247487Y-47281041D01*
X155307890Y-47256022D01*
X155414351Y-47184888D01*
X155504888Y-47094351D01*
X155576022Y-46987890D01*
X155601041Y-46927488D01*
X156437276Y-47763723D01*
X156437279Y-47763723D01*
X156499850Y-47682181D01*
X156617834Y-47477828D01*
X156617839Y-47477819D01*
X156708129Y-47259837D01*
X156769200Y-47031914D01*
X156799999Y-46797985D01*
X156800000Y-46797971D01*
X156800000Y-46562028D01*
X156799999Y-46562014D01*
X156769200Y-46328085D01*
X156708129Y-46100162D01*
X156617839Y-45882180D01*
X156617834Y-45882171D01*
X156499855Y-45677828D01*
X156499854Y-45677827D01*
X156437277Y-45596275D01*
X155601041Y-46432511D01*
X155576022Y-46372110D01*
X155504888Y-46265649D01*
X155414351Y-46175112D01*
X155307890Y-46103978D01*
X155247488Y-46078958D01*
X156083723Y-45242721D01*
X156002172Y-45180145D01*
X156002171Y-45180144D01*
X155797828Y-45062165D01*
X155797819Y-45062160D01*
X155579836Y-44971870D01*
X155579838Y-44971870D01*
X155351914Y-44910799D01*
X155117985Y-44880000D01*
X154882014Y-44880000D01*
X154648085Y-44910799D01*
X154420162Y-44971870D01*
X154202180Y-45062160D01*
X154202171Y-45062165D01*
X153997828Y-45180144D01*
X153997818Y-45180150D01*
X153916275Y-45242720D01*
X153916275Y-45242721D01*
X154752512Y-46078958D01*
X154692110Y-46103978D01*
X154585649Y-46175112D01*
X154495112Y-46265649D01*
X154423978Y-46372110D01*
X154398958Y-46432511D01*
X153562721Y-45596275D01*
X153562720Y-45596275D01*
X153500150Y-45677818D01*
X153500144Y-45677828D01*
X153382165Y-45882171D01*
X153382160Y-45882180D01*
X153291870Y-46100162D01*
X153230799Y-46328085D01*
X153200000Y-46562014D01*
X117554500Y-46562014D01*
X117554500Y-46259832D01*
X117574185Y-46192793D01*
X117575398Y-46190941D01*
X117630461Y-46108533D01*
X117630461Y-46108532D01*
X117630465Y-46108527D01*
X117679501Y-45990144D01*
X117704500Y-45864469D01*
X117704500Y-45736331D01*
X117704500Y-45736328D01*
X117679502Y-45610661D01*
X117679501Y-45610660D01*
X117679501Y-45610656D01*
X117630465Y-45492273D01*
X117630464Y-45492272D01*
X117630461Y-45492266D01*
X117559276Y-45385731D01*
X117559273Y-45385727D01*
X117468672Y-45295126D01*
X117468668Y-45295123D01*
X117362133Y-45223938D01*
X117362124Y-45223933D01*
X117243744Y-45174899D01*
X117243738Y-45174897D01*
X117118071Y-45149900D01*
X117118069Y-45149900D01*
X116989931Y-45149900D01*
X116989929Y-45149900D01*
X116864261Y-45174897D01*
X116864255Y-45174899D01*
X116745875Y-45223933D01*
X116745866Y-45223938D01*
X116639331Y-45295123D01*
X116639327Y-45295126D01*
X116548726Y-45385727D01*
X116548723Y-45385731D01*
X116477538Y-45492266D01*
X116477533Y-45492275D01*
X116428499Y-45610655D01*
X116428497Y-45610661D01*
X116403500Y-45736328D01*
X116403500Y-45736331D01*
X116403500Y-45864469D01*
X116403500Y-45864471D01*
X116403499Y-45864471D01*
X116428497Y-45990138D01*
X116428499Y-45990144D01*
X116477533Y-46108524D01*
X116477538Y-46108533D01*
X116532602Y-46190941D01*
X116553480Y-46257618D01*
X116553500Y-46259832D01*
X116553500Y-58879231D01*
X116533815Y-58946270D01*
X116517183Y-58966910D01*
X115849274Y-59634849D01*
X115787952Y-59668336D01*
X115718260Y-59663353D01*
X115662326Y-59621483D01*
X115654204Y-59609171D01*
X115648921Y-59600020D01*
X115613509Y-59538685D01*
X115511015Y-59436191D01*
X115511013Y-59436190D01*
X115511011Y-59436188D01*
X115385488Y-59363717D01*
X115385489Y-59363717D01*
X115374006Y-59360640D01*
X115245475Y-59326200D01*
X115245263Y-59326200D01*
X115245092Y-59326149D01*
X115237415Y-59325139D01*
X115237572Y-59323941D01*
X115178224Y-59306515D01*
X115132469Y-59253711D01*
X115122525Y-59184553D01*
X115144943Y-59129316D01*
X115241232Y-58996788D01*
X115319873Y-58842445D01*
X115373402Y-58677701D01*
X115400500Y-58506611D01*
X115400500Y-58333389D01*
X115373402Y-58162299D01*
X115319873Y-57997555D01*
X115241232Y-57843212D01*
X115139414Y-57703072D01*
X115016928Y-57580586D01*
X114876788Y-57478768D01*
X114722446Y-57400127D01*
X114719284Y-57399100D01*
X114718236Y-57398383D01*
X114717952Y-57398266D01*
X114717976Y-57398206D01*
X114661609Y-57359661D01*
X114634413Y-57295302D01*
X114646329Y-57226456D01*
X114693574Y-57174981D01*
X114719288Y-57163239D01*
X114818215Y-57131096D01*
X115007554Y-57034622D01*
X115061716Y-56995270D01*
X115061717Y-56995270D01*
X114429408Y-56362962D01*
X114492993Y-56345925D01*
X114607007Y-56280099D01*
X114700099Y-56187007D01*
X114765925Y-56072993D01*
X114782962Y-56009408D01*
X115415270Y-56641717D01*
X115415270Y-56641716D01*
X115454622Y-56587554D01*
X115551095Y-56398217D01*
X115616757Y-56196130D01*
X115616757Y-56196127D01*
X115650000Y-55986246D01*
X115650000Y-55773753D01*
X115616757Y-55563872D01*
X115616757Y-55563869D01*
X115551095Y-55361782D01*
X115454624Y-55172449D01*
X115415270Y-55118282D01*
X115415269Y-55118282D01*
X114782962Y-55750590D01*
X114765925Y-55687007D01*
X114700099Y-55572993D01*
X114607007Y-55479901D01*
X114492993Y-55414075D01*
X114429409Y-55397037D01*
X115061716Y-54764728D01*
X115007550Y-54725375D01*
X114818217Y-54628904D01*
X114719287Y-54596760D01*
X114661611Y-54557323D01*
X114634413Y-54492964D01*
X114646328Y-54424118D01*
X114693572Y-54372642D01*
X114719290Y-54360897D01*
X114722445Y-54359873D01*
X114876788Y-54281232D01*
X115016928Y-54179414D01*
X115139414Y-54056928D01*
X115241232Y-53916788D01*
X115319873Y-53762445D01*
X115373402Y-53597701D01*
X115400500Y-53426611D01*
X115400500Y-53253389D01*
X115373402Y-53082299D01*
X115319873Y-52917555D01*
X115241232Y-52763212D01*
X115139414Y-52623072D01*
X115016928Y-52500586D01*
X114876788Y-52398768D01*
X114722445Y-52320127D01*
X114557701Y-52266598D01*
X114557699Y-52266597D01*
X114557698Y-52266597D01*
X114426271Y-52245781D01*
X114386611Y-52239500D01*
X114213389Y-52239500D01*
X114173728Y-52245781D01*
X114042302Y-52266597D01*
X113877552Y-52320128D01*
X113723211Y-52398768D01*
X113643256Y-52456859D01*
X113583072Y-52500586D01*
X113583070Y-52500588D01*
X113583069Y-52500588D01*
X113460588Y-52623069D01*
X113460588Y-52623070D01*
X113460586Y-52623072D01*
X113426506Y-52669979D01*
X113358768Y-52763211D01*
X113280128Y-52917552D01*
X113280127Y-52917554D01*
X113280127Y-52917555D01*
X113226598Y-53082299D01*
X113199500Y-53253389D01*
X113199500Y-53426611D01*
X113226598Y-53597701D01*
X113280127Y-53762445D01*
X113358768Y-53916788D01*
X113460586Y-54056928D01*
X113583072Y-54179414D01*
X113723212Y-54281232D01*
X113877555Y-54359873D01*
X113880708Y-54360897D01*
X113881752Y-54361611D01*
X113882048Y-54361734D01*
X113882022Y-54361795D01*
X113938383Y-54400330D01*
X113965585Y-54464688D01*
X113953674Y-54533535D01*
X113906433Y-54585013D01*
X113880712Y-54596760D01*
X113781783Y-54628904D01*
X113592439Y-54725380D01*
X113538282Y-54764727D01*
X113538282Y-54764728D01*
X114170591Y-55397037D01*
X114107007Y-55414075D01*
X113992993Y-55479901D01*
X113899901Y-55572993D01*
X113834075Y-55687007D01*
X113817037Y-55750591D01*
X113184728Y-55118282D01*
X113184727Y-55118282D01*
X113145380Y-55172439D01*
X113048904Y-55361782D01*
X112983242Y-55563869D01*
X112983242Y-55563872D01*
X112950000Y-55773753D01*
X112950000Y-55986246D01*
X112983242Y-56196127D01*
X112983242Y-56196130D01*
X113048904Y-56398217D01*
X113145375Y-56587550D01*
X113184728Y-56641716D01*
X113817036Y-56009407D01*
X113834075Y-56072993D01*
X113899901Y-56187007D01*
X113992993Y-56280099D01*
X114107007Y-56345925D01*
X114170590Y-56362962D01*
X113538282Y-56995269D01*
X113538282Y-56995270D01*
X113592449Y-57034624D01*
X113781784Y-57131096D01*
X113880711Y-57163239D01*
X113938387Y-57202676D01*
X113965586Y-57267034D01*
X113953672Y-57335881D01*
X113906428Y-57387357D01*
X113880722Y-57399097D01*
X113879522Y-57399487D01*
X113877550Y-57400128D01*
X113723211Y-57478768D01*
X113668356Y-57518623D01*
X113583072Y-57580586D01*
X113583070Y-57580588D01*
X113583069Y-57580588D01*
X113460588Y-57703069D01*
X113460588Y-57703070D01*
X113460586Y-57703072D01*
X113416859Y-57763256D01*
X113358768Y-57843211D01*
X113280128Y-57997552D01*
X113226597Y-58162302D01*
X113199500Y-58333389D01*
X113199500Y-58506610D01*
X113215811Y-58609598D01*
X113226598Y-58677701D01*
X113280127Y-58842445D01*
X113358768Y-58996788D01*
X113460586Y-59136928D01*
X113583072Y-59259414D01*
X113592124Y-59265991D01*
X113612846Y-59292862D01*
X113634005Y-59319351D01*
X113634118Y-59320446D01*
X113634790Y-59321318D01*
X113637691Y-59355093D01*
X113641174Y-59388851D01*
X113640676Y-59389833D01*
X113640771Y-59390932D01*
X113624942Y-59420930D01*
X113609630Y-59451195D01*
X113608503Y-59452087D01*
X113608166Y-59452727D01*
X113582053Y-59473223D01*
X113581594Y-59473492D01*
X113565482Y-59482792D01*
X113565464Y-59482809D01*
X113565438Y-59482825D01*
X113565052Y-59483210D01*
X113565048Y-59483213D01*
X113528516Y-59519746D01*
X113528503Y-59519759D01*
X112897859Y-60150215D01*
X112892463Y-60155610D01*
X112892438Y-60155625D01*
X112859418Y-60188643D01*
X112856175Y-60191886D01*
X112856176Y-60191886D01*
X112822550Y-60225502D01*
X112822530Y-60225530D01*
X112822525Y-60225536D01*
X112822525Y-60225538D01*
X112812403Y-60243070D01*
X112797031Y-60269695D01*
X112797023Y-60269709D01*
X112773105Y-60311121D01*
X112773092Y-60311153D01*
X112773090Y-60311162D01*
X112761078Y-60355988D01*
X112761078Y-60355989D01*
X112747506Y-60406608D01*
X112747500Y-60406651D01*
X112747500Y-60406665D01*
X112747500Y-60456044D01*
X112747493Y-60505480D01*
X112747500Y-60505506D01*
X112747500Y-72425947D01*
X112747493Y-72426057D01*
X112747500Y-72483348D01*
X112747500Y-72532735D01*
X112747504Y-72532775D01*
X112747505Y-72532782D01*
X112747506Y-72532784D01*
X112755425Y-72562322D01*
X112759732Y-72578386D01*
X112759734Y-72578401D01*
X112759735Y-72578401D01*
X112773090Y-72628239D01*
X112773107Y-72628281D01*
X112797690Y-72670847D01*
X112797693Y-72670861D01*
X112797697Y-72670860D01*
X112822524Y-72713861D01*
X112822553Y-72713898D01*
X112822555Y-72713901D01*
X112857956Y-72749293D01*
X112892438Y-72783775D01*
X112892458Y-72783786D01*
X113235183Y-73126424D01*
X113242616Y-73133855D01*
X113276109Y-73195174D01*
X113272877Y-73259864D01*
X113226598Y-73402297D01*
X113226597Y-73402301D01*
X113216158Y-73468212D01*
X113199500Y-73573389D01*
X113199500Y-73746611D01*
X113226598Y-73917701D01*
X113239818Y-73958389D01*
X113280128Y-74082447D01*
X113358768Y-74236788D01*
X113460586Y-74376928D01*
X113583072Y-74499414D01*
X113723212Y-74601232D01*
X113877555Y-74679873D01*
X113880708Y-74680897D01*
X113881752Y-74681611D01*
X113882048Y-74681734D01*
X113882022Y-74681795D01*
X113938383Y-74720330D01*
X113965585Y-74784688D01*
X113953674Y-74853535D01*
X113906433Y-74905013D01*
X113880712Y-74916760D01*
X113781783Y-74948904D01*
X113592439Y-75045380D01*
X113538282Y-75084727D01*
X113538282Y-75084728D01*
X114170591Y-75717037D01*
X114107007Y-75734075D01*
X113992993Y-75799901D01*
X113899901Y-75892993D01*
X113834075Y-76007007D01*
X113817037Y-76070591D01*
X113184728Y-75438282D01*
X113184727Y-75438282D01*
X113145380Y-75492439D01*
X113048904Y-75681782D01*
X112983242Y-75883869D01*
X112983242Y-75883872D01*
X112950000Y-76093753D01*
X112950000Y-76306246D01*
X112983242Y-76516127D01*
X112983242Y-76516130D01*
X113048904Y-76718217D01*
X113145375Y-76907550D01*
X113184728Y-76961716D01*
X113817036Y-76329407D01*
X113834075Y-76392993D01*
X113899901Y-76507007D01*
X113992993Y-76600099D01*
X114107007Y-76665925D01*
X114170590Y-76682962D01*
X113538282Y-77315269D01*
X113538282Y-77315270D01*
X113592449Y-77354624D01*
X113781784Y-77451096D01*
X113880711Y-77483239D01*
X113938387Y-77522676D01*
X113965586Y-77587034D01*
X113953672Y-77655881D01*
X113906428Y-77707357D01*
X113880722Y-77719097D01*
X113879522Y-77719487D01*
X113877550Y-77720128D01*
X113723211Y-77798768D01*
X113652572Y-77850091D01*
X113583072Y-77900586D01*
X113583070Y-77900588D01*
X113583069Y-77900588D01*
X113460588Y-78023069D01*
X113460588Y-78023070D01*
X113460586Y-78023072D01*
X113437344Y-78055062D01*
X113358768Y-78163211D01*
X113280128Y-78317552D01*
X113226597Y-78482302D01*
X113203345Y-78629115D01*
X113199500Y-78653389D01*
X113199500Y-78826611D01*
X113226598Y-78997701D01*
X113280127Y-79162445D01*
X113358768Y-79316788D01*
X113460586Y-79456928D01*
X113583072Y-79579414D01*
X113723212Y-79681232D01*
X113877555Y-79759873D01*
X114042299Y-79813402D01*
X114213389Y-79840500D01*
X114213390Y-79840500D01*
X114386610Y-79840500D01*
X114386611Y-79840500D01*
X114557701Y-79813402D01*
X114722445Y-79759873D01*
X114876788Y-79681232D01*
X115016928Y-79579414D01*
X115139414Y-79456928D01*
X115241232Y-79316788D01*
X115319873Y-79162445D01*
X115373402Y-78997701D01*
X115400500Y-78826611D01*
X115400500Y-78653389D01*
X115373402Y-78482299D01*
X115354047Y-78422734D01*
X115352053Y-78352896D01*
X115384296Y-78296739D01*
X116466820Y-77214215D01*
X116528142Y-77180732D01*
X116597834Y-77185716D01*
X116653767Y-77227588D01*
X116678184Y-77293052D01*
X116678500Y-77301898D01*
X116678500Y-80858911D01*
X116658815Y-80925950D01*
X116642184Y-80946589D01*
X114826245Y-82762659D01*
X114764923Y-82796146D01*
X114700244Y-82792912D01*
X114557702Y-82746598D01*
X114557698Y-82746597D01*
X114426271Y-82725781D01*
X114386611Y-82719500D01*
X114213389Y-82719500D01*
X114173728Y-82725781D01*
X114042302Y-82746597D01*
X114042299Y-82746598D01*
X113882923Y-82798383D01*
X113877552Y-82800128D01*
X113723211Y-82878768D01*
X113643256Y-82936859D01*
X113583072Y-82980586D01*
X113583070Y-82980588D01*
X113583069Y-82980588D01*
X113460588Y-83103069D01*
X113460588Y-83103070D01*
X113460586Y-83103072D01*
X113439861Y-83131598D01*
X113358768Y-83243211D01*
X113280128Y-83397552D01*
X113226597Y-83562302D01*
X113216158Y-83628212D01*
X113199500Y-83733389D01*
X113199500Y-83906611D01*
X113226598Y-84077701D01*
X113280127Y-84242445D01*
X113358768Y-84396788D01*
X113460586Y-84536928D01*
X113583072Y-84659414D01*
X113723212Y-84761232D01*
X113877555Y-84839873D01*
X114042299Y-84893402D01*
X114213389Y-84920500D01*
X114213390Y-84920500D01*
X114386610Y-84920500D01*
X114386611Y-84920500D01*
X114557701Y-84893402D01*
X114722445Y-84839873D01*
X114876788Y-84761232D01*
X115016928Y-84659414D01*
X115139414Y-84536928D01*
X115241232Y-84396788D01*
X115319873Y-84242445D01*
X115373402Y-84077701D01*
X115400500Y-83906611D01*
X115400500Y-83733389D01*
X115373402Y-83562299D01*
X115327057Y-83419667D01*
X115325063Y-83349828D01*
X115357304Y-83293674D01*
X117326932Y-81323904D01*
X117350542Y-81300294D01*
X117353904Y-81297225D01*
X117354469Y-81296367D01*
X117354475Y-81296362D01*
X117354477Y-81296357D01*
X117354483Y-81296352D01*
X117354505Y-81296313D01*
X117356516Y-81293265D01*
X117356517Y-81293263D01*
X117356528Y-81293247D01*
X117357157Y-81292293D01*
X117358905Y-81288691D01*
X117385540Y-81242555D01*
X117400938Y-81215883D01*
X117403510Y-81211889D01*
X117403904Y-81210747D01*
X117403910Y-81210738D01*
X117403911Y-81210731D01*
X117403916Y-81210724D01*
X117403927Y-81210679D01*
X117405029Y-81207493D01*
X117405830Y-81203578D01*
X117419332Y-81153180D01*
X117429296Y-81115994D01*
X117429496Y-81115274D01*
X117429501Y-81115233D01*
X117429500Y-81115225D01*
X117429502Y-81115222D01*
X117429500Y-81065786D01*
X117429500Y-70163386D01*
X117449185Y-70096347D01*
X117465819Y-70075705D01*
X117494509Y-70047015D01*
X117566984Y-69921485D01*
X117604500Y-69781475D01*
X117604500Y-69636525D01*
X117566984Y-69496515D01*
X117558974Y-69482642D01*
X117494511Y-69370988D01*
X117494506Y-69370982D01*
X117392017Y-69268493D01*
X117392011Y-69268488D01*
X117266488Y-69196017D01*
X117266489Y-69196017D01*
X117256158Y-69193249D01*
X117212630Y-69181585D01*
X117152970Y-69145220D01*
X117122442Y-69082373D01*
X117130737Y-69012998D01*
X117157054Y-68974119D01*
X117514780Y-68616495D01*
X117593191Y-68538106D01*
X117654519Y-68504630D01*
X117680860Y-68501800D01*
X118107614Y-68501800D01*
X118174653Y-68521485D01*
X118195295Y-68538119D01*
X118223985Y-68566809D01*
X118223986Y-68566810D01*
X118223988Y-68566811D01*
X118349511Y-68639282D01*
X118349512Y-68639282D01*
X118349515Y-68639284D01*
X118489525Y-68676800D01*
X118489528Y-68676800D01*
X118634472Y-68676800D01*
X118634475Y-68676800D01*
X118774485Y-68639284D01*
X118900015Y-68566809D01*
X119002509Y-68464315D01*
X119074984Y-68338785D01*
X119112500Y-68198775D01*
X119112500Y-68053825D01*
X119074984Y-67913815D01*
X119024407Y-67826214D01*
X119002511Y-67788288D01*
X119002506Y-67788282D01*
X118900017Y-67685793D01*
X118900011Y-67685788D01*
X118774488Y-67613317D01*
X118774489Y-67613317D01*
X118763006Y-67610240D01*
X118634475Y-67575800D01*
X118489525Y-67575800D01*
X118360993Y-67610240D01*
X118349511Y-67613317D01*
X118223988Y-67685788D01*
X118223982Y-67685793D01*
X118195295Y-67714481D01*
X118133972Y-67747966D01*
X118107614Y-67750800D01*
X117474052Y-67750800D01*
X117424616Y-67750793D01*
X117424590Y-67750800D01*
X117424565Y-67750800D01*
X117421064Y-67751737D01*
X117421062Y-67751738D01*
X117376650Y-67763638D01*
X117376638Y-67763641D01*
X117329114Y-67776369D01*
X117329056Y-67776392D01*
X117282577Y-67803226D01*
X117282354Y-67803355D01*
X117282227Y-67803429D01*
X117243479Y-67825794D01*
X117243461Y-67825811D01*
X117243438Y-67825825D01*
X117243051Y-67826211D01*
X117243047Y-67826214D01*
X117207742Y-67861519D01*
X117207731Y-67861531D01*
X116174266Y-68894706D01*
X116174265Y-68894705D01*
X116169454Y-68899514D01*
X116169438Y-68899525D01*
X116136297Y-68932666D01*
X116114446Y-68954511D01*
X116099539Y-68969414D01*
X116099525Y-68969437D01*
X116099525Y-68969438D01*
X116074116Y-69013447D01*
X116050110Y-69055014D01*
X116050103Y-69055038D01*
X116050090Y-69055062D01*
X116049918Y-69055701D01*
X116049916Y-69055706D01*
X116037367Y-69102539D01*
X116037364Y-69102553D01*
X116024504Y-69150519D01*
X116024500Y-69150551D01*
X116024500Y-69150565D01*
X116024500Y-69199948D01*
X116024493Y-69249384D01*
X116024500Y-69249410D01*
X116024500Y-76543100D01*
X116004815Y-76610139D01*
X115988181Y-76630781D01*
X115741461Y-76877500D01*
X115680138Y-76910985D01*
X115610446Y-76906001D01*
X115554513Y-76864129D01*
X115530096Y-76798665D01*
X115543298Y-76733518D01*
X115551096Y-76718215D01*
X115616757Y-76516130D01*
X115616757Y-76516127D01*
X115650000Y-76306246D01*
X115650000Y-76093753D01*
X115616757Y-75883872D01*
X115616757Y-75883869D01*
X115551095Y-75681782D01*
X115454624Y-75492449D01*
X115415270Y-75438282D01*
X115415269Y-75438282D01*
X114782962Y-76070590D01*
X114765925Y-76007007D01*
X114700099Y-75892993D01*
X114607007Y-75799901D01*
X114492993Y-75734075D01*
X114429409Y-75717037D01*
X115061716Y-75084728D01*
X115007550Y-75045375D01*
X114818217Y-74948904D01*
X114719287Y-74916760D01*
X114661611Y-74877323D01*
X114634413Y-74812964D01*
X114646328Y-74744118D01*
X114693572Y-74692642D01*
X114719290Y-74680897D01*
X114722445Y-74679873D01*
X114876788Y-74601232D01*
X115016928Y-74499414D01*
X115139414Y-74376928D01*
X115241232Y-74236788D01*
X115319873Y-74082445D01*
X115373402Y-73917701D01*
X115400500Y-73746611D01*
X115400500Y-73573389D01*
X115373402Y-73402299D01*
X115319873Y-73237555D01*
X115241232Y-73083212D01*
X115139414Y-72943072D01*
X115016928Y-72820586D01*
X114876788Y-72718768D01*
X114722445Y-72640127D01*
X114557701Y-72586598D01*
X114557699Y-72586597D01*
X114557698Y-72586597D01*
X114404428Y-72562322D01*
X114386611Y-72559500D01*
X114213389Y-72559500D01*
X114195572Y-72562322D01*
X114042301Y-72586597D01*
X114042297Y-72586598D01*
X113899559Y-72632976D01*
X113829718Y-72634971D01*
X113773572Y-72602737D01*
X113534830Y-72364055D01*
X113520119Y-72337122D01*
X113503523Y-72311298D01*
X113502633Y-72305108D01*
X113501337Y-72302736D01*
X113498500Y-72276363D01*
X113498500Y-72141332D01*
X113518185Y-72074293D01*
X113570989Y-72028538D01*
X113640147Y-72018594D01*
X113695386Y-72041015D01*
X113723212Y-72061232D01*
X113877555Y-72139873D01*
X114042299Y-72193402D01*
X114213389Y-72220500D01*
X114213390Y-72220500D01*
X114386610Y-72220500D01*
X114386611Y-72220500D01*
X114557701Y-72193402D01*
X114722445Y-72139873D01*
X114876788Y-72061232D01*
X115016928Y-71959414D01*
X115139414Y-71836928D01*
X115241232Y-71696788D01*
X115319873Y-71542445D01*
X115373402Y-71377701D01*
X115400500Y-71206611D01*
X115400500Y-71033389D01*
X115373402Y-70862299D01*
X115319873Y-70697555D01*
X115241232Y-70543212D01*
X115139414Y-70403072D01*
X115016928Y-70280586D01*
X114876788Y-70178768D01*
X114722445Y-70100127D01*
X114557701Y-70046598D01*
X114557699Y-70046597D01*
X114557698Y-70046597D01*
X114426271Y-70025781D01*
X114386611Y-70019500D01*
X114213389Y-70019500D01*
X114173728Y-70025781D01*
X114042302Y-70046597D01*
X113877552Y-70100128D01*
X113723211Y-70178768D01*
X113695386Y-70198985D01*
X113629580Y-70222465D01*
X113561526Y-70206640D01*
X113512831Y-70156534D01*
X113498500Y-70098667D01*
X113498500Y-67061332D01*
X113518185Y-66994293D01*
X113570989Y-66948538D01*
X113640147Y-66938594D01*
X113695386Y-66961015D01*
X113723212Y-66981232D01*
X113877555Y-67059873D01*
X114042299Y-67113402D01*
X114213389Y-67140500D01*
X114213390Y-67140500D01*
X114386610Y-67140500D01*
X114386611Y-67140500D01*
X114557701Y-67113402D01*
X114722445Y-67059873D01*
X114876788Y-66981232D01*
X115016928Y-66879414D01*
X115139414Y-66756928D01*
X115241232Y-66616788D01*
X115319873Y-66462445D01*
X115373402Y-66297701D01*
X115400500Y-66126611D01*
X115400500Y-65953389D01*
X115373402Y-65782299D01*
X115319873Y-65617555D01*
X115241232Y-65463212D01*
X115139414Y-65323072D01*
X115016928Y-65200586D01*
X114876788Y-65098768D01*
X114722445Y-65020127D01*
X114557701Y-64966598D01*
X114557699Y-64966597D01*
X114557698Y-64966597D01*
X114426271Y-64945781D01*
X114386611Y-64939500D01*
X114213389Y-64939500D01*
X114173728Y-64945781D01*
X114042302Y-64966597D01*
X113877552Y-65020128D01*
X113723211Y-65098768D01*
X113695386Y-65118985D01*
X113629580Y-65142465D01*
X113561526Y-65126640D01*
X113512831Y-65076534D01*
X113498500Y-65018667D01*
X113498500Y-64521332D01*
X113518185Y-64454293D01*
X113570989Y-64408538D01*
X113640147Y-64398594D01*
X113695386Y-64421015D01*
X113723212Y-64441232D01*
X113877555Y-64519873D01*
X114042299Y-64573402D01*
X114213389Y-64600500D01*
X114213390Y-64600500D01*
X114386610Y-64600500D01*
X114386611Y-64600500D01*
X114557701Y-64573402D01*
X114722445Y-64519873D01*
X114876788Y-64441232D01*
X115016928Y-64339414D01*
X115139414Y-64216928D01*
X115241232Y-64076788D01*
X115319873Y-63922445D01*
X115373402Y-63757701D01*
X115400500Y-63586611D01*
X115400500Y-63413389D01*
X115373402Y-63242299D01*
X115319873Y-63077555D01*
X115270312Y-62980286D01*
X115257417Y-62911619D01*
X115283693Y-62846878D01*
X115340800Y-62806621D01*
X115410605Y-62803629D01*
X115468480Y-62836313D01*
X116708933Y-64076788D01*
X125294589Y-72662599D01*
X125325182Y-72693192D01*
X125358666Y-72754515D01*
X125361500Y-72780872D01*
X125361500Y-78208772D01*
X125360639Y-78211702D01*
X125361360Y-78214673D01*
X125350855Y-78245021D01*
X125341815Y-78275811D01*
X125339506Y-78277810D01*
X125338507Y-78280700D01*
X125313261Y-78300552D01*
X125289011Y-78321566D01*
X125285987Y-78322000D01*
X125283585Y-78323890D01*
X125251625Y-78326941D01*
X125219853Y-78331510D01*
X125217073Y-78330240D01*
X125214032Y-78330531D01*
X125185506Y-78315824D01*
X125156297Y-78302485D01*
X125153824Y-78299490D01*
X125151930Y-78298514D01*
X125130112Y-78270771D01*
X125117112Y-78248254D01*
X125100500Y-78186255D01*
X125100500Y-78127527D01*
X125100500Y-78127525D01*
X125062984Y-77987515D01*
X125052547Y-77969438D01*
X124990511Y-77861988D01*
X124990506Y-77861982D01*
X124888017Y-77759493D01*
X124888011Y-77759488D01*
X124762488Y-77687017D01*
X124762489Y-77687017D01*
X124751006Y-77683940D01*
X124622475Y-77649500D01*
X124477525Y-77649500D01*
X124348993Y-77683940D01*
X124337511Y-77687017D01*
X124211988Y-77759488D01*
X124211982Y-77759493D01*
X124183295Y-77788181D01*
X124121972Y-77821666D01*
X124095614Y-77824500D01*
X123849435Y-77824500D01*
X123750565Y-77824500D01*
X123655062Y-77850090D01*
X123655060Y-77850091D01*
X123655059Y-77850091D01*
X123569436Y-77899526D01*
X123499526Y-77969436D01*
X123450091Y-78055059D01*
X123450091Y-78055060D01*
X123450090Y-78055062D01*
X123424500Y-78150565D01*
X123424500Y-78150567D01*
X123424500Y-78245506D01*
X123404815Y-78312545D01*
X123388181Y-78333187D01*
X115576731Y-86144636D01*
X115515408Y-86178121D01*
X115445716Y-86173137D01*
X115389783Y-86131265D01*
X115371119Y-86095274D01*
X115370555Y-86093537D01*
X115319873Y-85937555D01*
X115241232Y-85783212D01*
X115139414Y-85643072D01*
X115016928Y-85520586D01*
X114876788Y-85418768D01*
X114722445Y-85340127D01*
X114557701Y-85286598D01*
X114557699Y-85286597D01*
X114557698Y-85286597D01*
X114426271Y-85265781D01*
X114386611Y-85259500D01*
X114213389Y-85259500D01*
X114173728Y-85265781D01*
X114042302Y-85286597D01*
X113877552Y-85340128D01*
X113723211Y-85418768D01*
X113687529Y-85444693D01*
X113583072Y-85520586D01*
X113583070Y-85520588D01*
X113583069Y-85520588D01*
X113460588Y-85643069D01*
X113460588Y-85643070D01*
X113460586Y-85643072D01*
X113416859Y-85703256D01*
X113358768Y-85783211D01*
X113280128Y-85937552D01*
X113226597Y-86102302D01*
X113216158Y-86168212D01*
X113199500Y-86273389D01*
X113199500Y-86446611D01*
X113226598Y-86617701D01*
X113239818Y-86658389D01*
X113280128Y-86782447D01*
X113355414Y-86930205D01*
X113368310Y-86998875D01*
X113342033Y-87063615D01*
X113284927Y-87103872D01*
X113244929Y-87110500D01*
X109876969Y-87110500D01*
X109829217Y-87123295D01*
X109829216Y-87123294D01*
X109781468Y-87136089D01*
X109781467Y-87136089D01*
X109695840Y-87185527D01*
X106979187Y-89902181D01*
X106917864Y-89935666D01*
X106891506Y-89938500D01*
X97577204Y-89938500D01*
X97510165Y-89918815D01*
X97464410Y-89866011D01*
X97454466Y-89796853D01*
X97483491Y-89733297D01*
X97489523Y-89726819D01*
X97525947Y-89690395D01*
X97599414Y-89616928D01*
X97701232Y-89476788D01*
X97779873Y-89322445D01*
X97833402Y-89157701D01*
X97860500Y-88986611D01*
X97860500Y-88813389D01*
X97833402Y-88642299D01*
X97779873Y-88477555D01*
X97701232Y-88323212D01*
X97599414Y-88183072D01*
X97476928Y-88060586D01*
X97336788Y-87958768D01*
X97182445Y-87880127D01*
X97017701Y-87826598D01*
X97017699Y-87826597D01*
X97017698Y-87826597D01*
X96886271Y-87805781D01*
X96846611Y-87799500D01*
X96673389Y-87799500D01*
X96633728Y-87805781D01*
X96502302Y-87826597D01*
X96337552Y-87880128D01*
X96183211Y-87958768D01*
X96122130Y-88003147D01*
X96043072Y-88060586D01*
X96043070Y-88060588D01*
X96043069Y-88060588D01*
X95920588Y-88183069D01*
X95920588Y-88183070D01*
X95920586Y-88183072D01*
X95876859Y-88243256D01*
X95818768Y-88323211D01*
X95740128Y-88477552D01*
X95686597Y-88642302D01*
X95676158Y-88708212D01*
X95659500Y-88813389D01*
X95659500Y-88986611D01*
X95686598Y-89157701D01*
X95740127Y-89322445D01*
X95818768Y-89476788D01*
X95920586Y-89616928D01*
X96043072Y-89739414D01*
X96067896Y-89757450D01*
X96107659Y-89786339D01*
X96126484Y-89810751D01*
X96146952Y-89833817D01*
X96147631Y-89838175D01*
X96150325Y-89841669D01*
X96152963Y-89872384D01*
X96157712Y-89902853D01*
X96155926Y-89906887D01*
X96156304Y-89911282D01*
X96141914Y-89938554D01*
X96129439Y-89966747D01*
X96125145Y-89970334D01*
X96123699Y-89973077D01*
X96103041Y-89990174D01*
X96099967Y-89992201D01*
X96063033Y-90013525D01*
X96063032Y-90013526D01*
X96054127Y-90022430D01*
X96054125Y-90022432D01*
X95537974Y-90538582D01*
X95476651Y-90572067D01*
X95406959Y-90567083D01*
X95351026Y-90525211D01*
X95330519Y-90482997D01*
X95312384Y-90415315D01*
X95300721Y-90395115D01*
X95239911Y-90289788D01*
X95239906Y-90289782D01*
X95211219Y-90261095D01*
X95177734Y-90199772D01*
X95174900Y-90173414D01*
X95174900Y-86273389D01*
X95659500Y-86273389D01*
X95659500Y-86446611D01*
X95686598Y-86617701D01*
X95740127Y-86782445D01*
X95818768Y-86936788D01*
X95920586Y-87076928D01*
X96043072Y-87199414D01*
X96183212Y-87301232D01*
X96337555Y-87379873D01*
X96502299Y-87433402D01*
X96673389Y-87460500D01*
X96673390Y-87460500D01*
X96846610Y-87460500D01*
X96846611Y-87460500D01*
X97017701Y-87433402D01*
X97182445Y-87379873D01*
X97336788Y-87301232D01*
X97476928Y-87199414D01*
X97599414Y-87076928D01*
X97701232Y-86936788D01*
X97779873Y-86782445D01*
X97833402Y-86617701D01*
X97860500Y-86446611D01*
X97860500Y-86273389D01*
X97833402Y-86102299D01*
X97779873Y-85937555D01*
X97701232Y-85783212D01*
X97599414Y-85643072D01*
X97476928Y-85520586D01*
X97336788Y-85418768D01*
X97182445Y-85340127D01*
X97017701Y-85286598D01*
X97017699Y-85286597D01*
X97017698Y-85286597D01*
X96886271Y-85265781D01*
X96846611Y-85259500D01*
X96673389Y-85259500D01*
X96633728Y-85265781D01*
X96502302Y-85286597D01*
X96337552Y-85340128D01*
X96183211Y-85418768D01*
X96147529Y-85444693D01*
X96043072Y-85520586D01*
X96043070Y-85520588D01*
X96043069Y-85520588D01*
X95920588Y-85643069D01*
X95920588Y-85643070D01*
X95920586Y-85643072D01*
X95876859Y-85703256D01*
X95818768Y-85783211D01*
X95740128Y-85937552D01*
X95686597Y-86102302D01*
X95676158Y-86168212D01*
X95659500Y-86273389D01*
X95174900Y-86273389D01*
X95174900Y-81477450D01*
X95194585Y-81410411D01*
X95247389Y-81364656D01*
X95316547Y-81354712D01*
X95380103Y-81383737D01*
X95417877Y-81442515D01*
X95421373Y-81458052D01*
X95443242Y-81596127D01*
X95443242Y-81596130D01*
X95508904Y-81798217D01*
X95605375Y-81987550D01*
X95644728Y-82041716D01*
X96277037Y-81409408D01*
X96294075Y-81472993D01*
X96359901Y-81587007D01*
X96452993Y-81680099D01*
X96567007Y-81745925D01*
X96630590Y-81762962D01*
X95998282Y-82395269D01*
X95998282Y-82395270D01*
X96052449Y-82434624D01*
X96241784Y-82531096D01*
X96340711Y-82563239D01*
X96398387Y-82602676D01*
X96425586Y-82667034D01*
X96413672Y-82735881D01*
X96366428Y-82787357D01*
X96340722Y-82799097D01*
X96339522Y-82799487D01*
X96337550Y-82800128D01*
X96183211Y-82878768D01*
X96103256Y-82936859D01*
X96043072Y-82980586D01*
X96043070Y-82980588D01*
X96043069Y-82980588D01*
X95920588Y-83103069D01*
X95920588Y-83103070D01*
X95920586Y-83103072D01*
X95899861Y-83131598D01*
X95818768Y-83243211D01*
X95740128Y-83397552D01*
X95686597Y-83562302D01*
X95676158Y-83628212D01*
X95659500Y-83733389D01*
X95659500Y-83906611D01*
X95686598Y-84077701D01*
X95740127Y-84242445D01*
X95818768Y-84396788D01*
X95920586Y-84536928D01*
X96043072Y-84659414D01*
X96183212Y-84761232D01*
X96337555Y-84839873D01*
X96502299Y-84893402D01*
X96673389Y-84920500D01*
X96673390Y-84920500D01*
X96846610Y-84920500D01*
X96846611Y-84920500D01*
X97017701Y-84893402D01*
X97182445Y-84839873D01*
X97336788Y-84761232D01*
X97476928Y-84659414D01*
X97599414Y-84536928D01*
X97701232Y-84396788D01*
X97779873Y-84242445D01*
X97833402Y-84077701D01*
X97860500Y-83906611D01*
X97860500Y-83733389D01*
X97833402Y-83562299D01*
X97779873Y-83397555D01*
X97701232Y-83243212D01*
X97599414Y-83103072D01*
X97476928Y-82980586D01*
X97336788Y-82878768D01*
X97333206Y-82876943D01*
X97182446Y-82800127D01*
X97179284Y-82799100D01*
X97178236Y-82798383D01*
X97177952Y-82798266D01*
X97177976Y-82798206D01*
X97121609Y-82759661D01*
X97094413Y-82695302D01*
X97106329Y-82626456D01*
X97153574Y-82574981D01*
X97179288Y-82563239D01*
X97278215Y-82531096D01*
X97467554Y-82434622D01*
X97521716Y-82395270D01*
X97521717Y-82395270D01*
X96889408Y-81762962D01*
X96952993Y-81745925D01*
X97067007Y-81680099D01*
X97160099Y-81587007D01*
X97225925Y-81472993D01*
X97242962Y-81409409D01*
X97875270Y-82041717D01*
X97875270Y-82041716D01*
X97914622Y-81987554D01*
X98011095Y-81798217D01*
X98076757Y-81596130D01*
X98076757Y-81596127D01*
X98110000Y-81386246D01*
X98110000Y-81173753D01*
X98076757Y-80963872D01*
X98076757Y-80963869D01*
X98011095Y-80761782D01*
X97914624Y-80572449D01*
X97875270Y-80518282D01*
X97875269Y-80518282D01*
X97242962Y-81150590D01*
X97225925Y-81087007D01*
X97160099Y-80972993D01*
X97067007Y-80879901D01*
X96952993Y-80814075D01*
X96889409Y-80797037D01*
X97521716Y-80164728D01*
X97467550Y-80125375D01*
X97278217Y-80028904D01*
X97179287Y-79996760D01*
X97121611Y-79957323D01*
X97094413Y-79892964D01*
X97106328Y-79824118D01*
X97153572Y-79772642D01*
X97179290Y-79760897D01*
X97182445Y-79759873D01*
X97336788Y-79681232D01*
X97476928Y-79579414D01*
X97599414Y-79456928D01*
X97701232Y-79316788D01*
X97779873Y-79162445D01*
X97833402Y-78997701D01*
X97860500Y-78826611D01*
X97860500Y-78653389D01*
X97833402Y-78482299D01*
X97779873Y-78317555D01*
X97701232Y-78163212D01*
X97599414Y-78023072D01*
X97476928Y-77900586D01*
X97336788Y-77798768D01*
X97206000Y-77732129D01*
X97182447Y-77720128D01*
X97182446Y-77720127D01*
X97182445Y-77720127D01*
X97017701Y-77666598D01*
X97017699Y-77666597D01*
X97017698Y-77666597D01*
X96886271Y-77645781D01*
X96846611Y-77639500D01*
X96673389Y-77639500D01*
X96633728Y-77645781D01*
X96502302Y-77666597D01*
X96337552Y-77720128D01*
X96183211Y-77798768D01*
X96112572Y-77850091D01*
X96043072Y-77900586D01*
X96043070Y-77900588D01*
X96043069Y-77900588D01*
X95920588Y-78023069D01*
X95920588Y-78023070D01*
X95920586Y-78023072D01*
X95897344Y-78055062D01*
X95818768Y-78163211D01*
X95740128Y-78317552D01*
X95686597Y-78482302D01*
X95663345Y-78629115D01*
X95659500Y-78653389D01*
X95659500Y-78826611D01*
X95686598Y-78997701D01*
X95740127Y-79162445D01*
X95818768Y-79316788D01*
X95920586Y-79456928D01*
X96043072Y-79579414D01*
X96183212Y-79681232D01*
X96337555Y-79759873D01*
X96340708Y-79760897D01*
X96341752Y-79761611D01*
X96342048Y-79761734D01*
X96342022Y-79761795D01*
X96398383Y-79800330D01*
X96425585Y-79864688D01*
X96413674Y-79933535D01*
X96366433Y-79985013D01*
X96340712Y-79996760D01*
X96241783Y-80028904D01*
X96052439Y-80125380D01*
X95998282Y-80164727D01*
X95998282Y-80164728D01*
X96630591Y-80797037D01*
X96567007Y-80814075D01*
X96452993Y-80879901D01*
X96359901Y-80972993D01*
X96294075Y-81087007D01*
X96277037Y-81150591D01*
X95644728Y-80518282D01*
X95644727Y-80518282D01*
X95605380Y-80572439D01*
X95508904Y-80761782D01*
X95443242Y-80963869D01*
X95443242Y-80963872D01*
X95421373Y-81101947D01*
X95391444Y-81165082D01*
X95332132Y-81202013D01*
X95262270Y-81201015D01*
X95204037Y-81162405D01*
X95175923Y-81098441D01*
X95174900Y-81082549D01*
X95174900Y-76748499D01*
X95194585Y-76681460D01*
X95211219Y-76660818D01*
X95328937Y-76543100D01*
X95477324Y-76394712D01*
X95538645Y-76361229D01*
X95608336Y-76366213D01*
X95664270Y-76408084D01*
X95685575Y-76453442D01*
X95686595Y-76457693D01*
X95705582Y-76516127D01*
X95740127Y-76622445D01*
X95818768Y-76776788D01*
X95920586Y-76916928D01*
X96043072Y-77039414D01*
X96183212Y-77141232D01*
X96337555Y-77219873D01*
X96502299Y-77273402D01*
X96673389Y-77300500D01*
X96673390Y-77300500D01*
X96846610Y-77300500D01*
X96846611Y-77300500D01*
X97017701Y-77273402D01*
X97182445Y-77219873D01*
X97336788Y-77141232D01*
X97476928Y-77039414D01*
X97599414Y-76916928D01*
X97701232Y-76776788D01*
X97779873Y-76622445D01*
X97833402Y-76457701D01*
X97860500Y-76286611D01*
X97860500Y-76113389D01*
X97857703Y-76095732D01*
X97845950Y-76021526D01*
X97833402Y-75942299D01*
X97779873Y-75777555D01*
X97701232Y-75623212D01*
X97599414Y-75483072D01*
X97477271Y-75360929D01*
X97472934Y-75352986D01*
X97465687Y-75347562D01*
X97456449Y-75322797D01*
X97443786Y-75299606D01*
X97444431Y-75290579D01*
X97441268Y-75282098D01*
X97446884Y-75256274D01*
X97448770Y-75229914D01*
X97454587Y-75220861D01*
X97456118Y-75213825D01*
X97477258Y-75185583D01*
X97477268Y-75185569D01*
X97492306Y-75170529D01*
X98237975Y-74424863D01*
X98287411Y-74339237D01*
X98313000Y-74243736D01*
X98313000Y-74144864D01*
X98313000Y-59787665D01*
X98287410Y-59692162D01*
X98237975Y-59606538D01*
X98168062Y-59536625D01*
X97740293Y-59108856D01*
X97706808Y-59047533D01*
X97711792Y-58977841D01*
X97717483Y-58964891D01*
X97779873Y-58842445D01*
X97833402Y-58677701D01*
X97860500Y-58506611D01*
X97860500Y-58333389D01*
X97833402Y-58162299D01*
X97779873Y-57997555D01*
X97701232Y-57843212D01*
X97599414Y-57703072D01*
X97476928Y-57580586D01*
X97336788Y-57478768D01*
X97182446Y-57400127D01*
X97179284Y-57399100D01*
X97178236Y-57398383D01*
X97177952Y-57398266D01*
X97177976Y-57398206D01*
X97121609Y-57359661D01*
X97094413Y-57295302D01*
X97106329Y-57226456D01*
X97153574Y-57174981D01*
X97179288Y-57163239D01*
X97278215Y-57131096D01*
X97467554Y-57034622D01*
X97521716Y-56995270D01*
X97521717Y-56995270D01*
X96889408Y-56362962D01*
X96952993Y-56345925D01*
X97067007Y-56280099D01*
X97160099Y-56187007D01*
X97225925Y-56072993D01*
X97242962Y-56009409D01*
X97875270Y-56641717D01*
X97875270Y-56641716D01*
X97914622Y-56587554D01*
X98011095Y-56398217D01*
X98076757Y-56196130D01*
X98076757Y-56196127D01*
X98110000Y-55986246D01*
X98110000Y-55773753D01*
X98076757Y-55563872D01*
X98076757Y-55563869D01*
X98011095Y-55361782D01*
X97914624Y-55172449D01*
X97875270Y-55118282D01*
X97875269Y-55118282D01*
X97242962Y-55750590D01*
X97225925Y-55687007D01*
X97160099Y-55572993D01*
X97067007Y-55479901D01*
X96952993Y-55414075D01*
X96889409Y-55397037D01*
X97521716Y-54764728D01*
X97467550Y-54725375D01*
X97278217Y-54628904D01*
X97179287Y-54596760D01*
X97121611Y-54557323D01*
X97094413Y-54492964D01*
X97106328Y-54424118D01*
X97153572Y-54372642D01*
X97179290Y-54360897D01*
X97182445Y-54359873D01*
X97336788Y-54281232D01*
X97476928Y-54179414D01*
X97599414Y-54056928D01*
X97701232Y-53916788D01*
X97779873Y-53762445D01*
X97833402Y-53597701D01*
X97860500Y-53426611D01*
X97860500Y-53253389D01*
X97833402Y-53082299D01*
X97779873Y-52917555D01*
X97701232Y-52763212D01*
X97599414Y-52623072D01*
X97476928Y-52500586D01*
X97336788Y-52398768D01*
X97182445Y-52320127D01*
X97017701Y-52266598D01*
X97017699Y-52266597D01*
X97017698Y-52266597D01*
X96886271Y-52245781D01*
X96846611Y-52239500D01*
X96673389Y-52239500D01*
X96633728Y-52245781D01*
X96502302Y-52266597D01*
X96337552Y-52320128D01*
X96183211Y-52398768D01*
X96103256Y-52456859D01*
X96043072Y-52500586D01*
X96043070Y-52500588D01*
X96043069Y-52500588D01*
X95920588Y-52623069D01*
X95920588Y-52623070D01*
X95920586Y-52623072D01*
X95886506Y-52669979D01*
X95818768Y-52763211D01*
X95740128Y-52917552D01*
X95740127Y-52917554D01*
X95740127Y-52917555D01*
X95686598Y-53082299D01*
X95659500Y-53253389D01*
X95659500Y-53426611D01*
X95686598Y-53597701D01*
X95740127Y-53762445D01*
X95818768Y-53916788D01*
X95920586Y-54056928D01*
X96043072Y-54179414D01*
X96183212Y-54281232D01*
X96337555Y-54359873D01*
X96340708Y-54360897D01*
X96341752Y-54361611D01*
X96342048Y-54361734D01*
X96342022Y-54361795D01*
X96398383Y-54400330D01*
X96425585Y-54464688D01*
X96413674Y-54533535D01*
X96366433Y-54585013D01*
X96340712Y-54596760D01*
X96241783Y-54628904D01*
X96052439Y-54725380D01*
X95998282Y-54764727D01*
X95998282Y-54764728D01*
X96630591Y-55397037D01*
X96567007Y-55414075D01*
X96452993Y-55479901D01*
X96359901Y-55572993D01*
X96294075Y-55687007D01*
X96277037Y-55750591D01*
X95644728Y-55118282D01*
X95644727Y-55118282D01*
X95605380Y-55172439D01*
X95508904Y-55361782D01*
X95443242Y-55563869D01*
X95443242Y-55563872D01*
X95410000Y-55773753D01*
X95410000Y-55986246D01*
X95443242Y-56196127D01*
X95443242Y-56196130D01*
X95508904Y-56398217D01*
X95605375Y-56587550D01*
X95644728Y-56641716D01*
X96277037Y-56009408D01*
X96294075Y-56072993D01*
X96359901Y-56187007D01*
X96452993Y-56280099D01*
X96567007Y-56345925D01*
X96630590Y-56362962D01*
X95998282Y-56995269D01*
X95998282Y-56995270D01*
X96052449Y-57034624D01*
X96241784Y-57131096D01*
X96340711Y-57163239D01*
X96398387Y-57202676D01*
X96425586Y-57267034D01*
X96413672Y-57335881D01*
X96366428Y-57387357D01*
X96340722Y-57399097D01*
X96339522Y-57399487D01*
X96337550Y-57400128D01*
X96183211Y-57478768D01*
X96128356Y-57518623D01*
X96043072Y-57580586D01*
X96043070Y-57580588D01*
X96043069Y-57580588D01*
X95920588Y-57703069D01*
X95920588Y-57703070D01*
X95920586Y-57703072D01*
X95876859Y-57763256D01*
X95818768Y-57843211D01*
X95740128Y-57997552D01*
X95686597Y-58162302D01*
X95659500Y-58333389D01*
X95659500Y-58506610D01*
X95675811Y-58609598D01*
X95686598Y-58677701D01*
X95740127Y-58842445D01*
X95818768Y-58996788D01*
X95920586Y-59136928D01*
X96043072Y-59259414D01*
X96183212Y-59361232D01*
X96337555Y-59439873D01*
X96502299Y-59493402D01*
X96673389Y-59520500D01*
X96673390Y-59520500D01*
X96846610Y-59520500D01*
X96846611Y-59520500D01*
X96994200Y-59497124D01*
X97063494Y-59506079D01*
X97101279Y-59531916D01*
X97301680Y-59732317D01*
X97335165Y-59793640D01*
X97330181Y-59863332D01*
X97288309Y-59919265D01*
X97222845Y-59943682D01*
X97175681Y-59937929D01*
X97017698Y-59886597D01*
X96870805Y-59863332D01*
X96846611Y-59859500D01*
X96673389Y-59859500D01*
X96649195Y-59863332D01*
X96502302Y-59886597D01*
X96337552Y-59940128D01*
X96183211Y-60018768D01*
X96123275Y-60062315D01*
X96043072Y-60120586D01*
X96043070Y-60120588D01*
X96043069Y-60120588D01*
X95920588Y-60243069D01*
X95920588Y-60243070D01*
X95920586Y-60243072D01*
X95876859Y-60303256D01*
X95818768Y-60383211D01*
X95740128Y-60537552D01*
X95686597Y-60702302D01*
X95681047Y-60737345D01*
X95659500Y-60873389D01*
X95659500Y-61046611D01*
X95664413Y-61077631D01*
X95681287Y-61184173D01*
X95686598Y-61217701D01*
X95740127Y-61382445D01*
X95818768Y-61536788D01*
X95920586Y-61676928D01*
X96043072Y-61799414D01*
X96183212Y-61901232D01*
X96337555Y-61979873D01*
X96502299Y-62033402D01*
X96673389Y-62060500D01*
X96673390Y-62060500D01*
X96846610Y-62060500D01*
X96846611Y-62060500D01*
X97017701Y-62033402D01*
X97182445Y-61979873D01*
X97336788Y-61901232D01*
X97365114Y-61880651D01*
X97430919Y-61857171D01*
X97498973Y-61872995D01*
X97547669Y-61923100D01*
X97562000Y-61980969D01*
X97562000Y-62479030D01*
X97542315Y-62546069D01*
X97489511Y-62591824D01*
X97420353Y-62601768D01*
X97365115Y-62579348D01*
X97336791Y-62558770D01*
X97336790Y-62558769D01*
X97336788Y-62558768D01*
X97182445Y-62480127D01*
X97017701Y-62426598D01*
X97017699Y-62426597D01*
X97017698Y-62426597D01*
X96886271Y-62405781D01*
X96846611Y-62399500D01*
X96673389Y-62399500D01*
X96633728Y-62405781D01*
X96502302Y-62426597D01*
X96337552Y-62480128D01*
X96183211Y-62558768D01*
X96137714Y-62591824D01*
X96043072Y-62660586D01*
X96043070Y-62660588D01*
X96043069Y-62660588D01*
X95920588Y-62783069D01*
X95920588Y-62783070D01*
X95920586Y-62783072D01*
X95903477Y-62806621D01*
X95818768Y-62923211D01*
X95740128Y-63077552D01*
X95686597Y-63242302D01*
X95668446Y-63356904D01*
X95659500Y-63413389D01*
X95659500Y-63586611D01*
X95686598Y-63757701D01*
X95740127Y-63922445D01*
X95818768Y-64076788D01*
X95920586Y-64216928D01*
X96043072Y-64339414D01*
X96183212Y-64441232D01*
X96337555Y-64519873D01*
X96502299Y-64573402D01*
X96673389Y-64600500D01*
X96673390Y-64600500D01*
X96846610Y-64600500D01*
X96846611Y-64600500D01*
X97017701Y-64573402D01*
X97182445Y-64519873D01*
X97336788Y-64441232D01*
X97365114Y-64420651D01*
X97430919Y-64397171D01*
X97498973Y-64412995D01*
X97547669Y-64463100D01*
X97562000Y-64520969D01*
X97562000Y-65019030D01*
X97542315Y-65086069D01*
X97489511Y-65131824D01*
X97420353Y-65141768D01*
X97365115Y-65119348D01*
X97336791Y-65098770D01*
X97336790Y-65098769D01*
X97336788Y-65098768D01*
X97182445Y-65020127D01*
X97017701Y-64966598D01*
X97017699Y-64966597D01*
X97017698Y-64966597D01*
X96886271Y-64945781D01*
X96846611Y-64939500D01*
X96673389Y-64939500D01*
X96633728Y-64945781D01*
X96502302Y-64966597D01*
X96337552Y-65020128D01*
X96183211Y-65098768D01*
X96137714Y-65131824D01*
X96043072Y-65200586D01*
X96043070Y-65200588D01*
X96043069Y-65200588D01*
X95920588Y-65323069D01*
X95920588Y-65323070D01*
X95920586Y-65323072D01*
X95876859Y-65383256D01*
X95818768Y-65463211D01*
X95740128Y-65617552D01*
X95686597Y-65782302D01*
X95677060Y-65842517D01*
X95659500Y-65953389D01*
X95659500Y-66126611D01*
X95686598Y-66297701D01*
X95740127Y-66462445D01*
X95818768Y-66616788D01*
X95920586Y-66756928D01*
X96043072Y-66879414D01*
X96183212Y-66981232D01*
X96337555Y-67059873D01*
X96502299Y-67113402D01*
X96673389Y-67140500D01*
X96673390Y-67140500D01*
X96846610Y-67140500D01*
X96846611Y-67140500D01*
X97017701Y-67113402D01*
X97182445Y-67059873D01*
X97336788Y-66981232D01*
X97365114Y-66960651D01*
X97430919Y-66937171D01*
X97498973Y-66952995D01*
X97547669Y-67003100D01*
X97562000Y-67060969D01*
X97562000Y-70099030D01*
X97542315Y-70166069D01*
X97489511Y-70211824D01*
X97420353Y-70221768D01*
X97365115Y-70199348D01*
X97336791Y-70178770D01*
X97336790Y-70178769D01*
X97336788Y-70178768D01*
X97182445Y-70100127D01*
X97017701Y-70046598D01*
X97017699Y-70046597D01*
X97017698Y-70046597D01*
X96886271Y-70025781D01*
X96846611Y-70019500D01*
X96673389Y-70019500D01*
X96633728Y-70025781D01*
X96502302Y-70046597D01*
X96337552Y-70100128D01*
X96183211Y-70178768D01*
X96137714Y-70211824D01*
X96043072Y-70280586D01*
X96043070Y-70280588D01*
X96043069Y-70280588D01*
X95920588Y-70403069D01*
X95920588Y-70403070D01*
X95920586Y-70403072D01*
X95899861Y-70431598D01*
X95818768Y-70543211D01*
X95740128Y-70697552D01*
X95686597Y-70862302D01*
X95676158Y-70928212D01*
X95659500Y-71033389D01*
X95659500Y-71206611D01*
X95686598Y-71377701D01*
X95740127Y-71542445D01*
X95818768Y-71696788D01*
X95920586Y-71836928D01*
X96043072Y-71959414D01*
X96183212Y-72061232D01*
X96337555Y-72139873D01*
X96502299Y-72193402D01*
X96673389Y-72220500D01*
X96673390Y-72220500D01*
X96846610Y-72220500D01*
X96846611Y-72220500D01*
X97017701Y-72193402D01*
X97182445Y-72139873D01*
X97336788Y-72061232D01*
X97365114Y-72040651D01*
X97430919Y-72017171D01*
X97498973Y-72032995D01*
X97547669Y-72083100D01*
X97562000Y-72140969D01*
X97562000Y-72639030D01*
X97542315Y-72706069D01*
X97489511Y-72751824D01*
X97420353Y-72761768D01*
X97365115Y-72739348D01*
X97336791Y-72718770D01*
X97336790Y-72718769D01*
X97336788Y-72718768D01*
X97182445Y-72640127D01*
X97017701Y-72586598D01*
X97017699Y-72586597D01*
X97017698Y-72586597D01*
X96864428Y-72562322D01*
X96846611Y-72559500D01*
X96673389Y-72559500D01*
X96655572Y-72562322D01*
X96502302Y-72586597D01*
X96337552Y-72640128D01*
X96183211Y-72718768D01*
X96124028Y-72761768D01*
X96043072Y-72820586D01*
X96043070Y-72820588D01*
X96043069Y-72820588D01*
X95920588Y-72943069D01*
X95920588Y-72943070D01*
X95920586Y-72943072D01*
X95899861Y-72971598D01*
X95818768Y-73083211D01*
X95740128Y-73237552D01*
X95686597Y-73402302D01*
X95676158Y-73468212D01*
X95659500Y-73573389D01*
X95659500Y-73746611D01*
X95686598Y-73917701D01*
X95740127Y-74082445D01*
X95750347Y-74102504D01*
X95818769Y-74236789D01*
X95818773Y-74236795D01*
X95828397Y-74250041D01*
X95851879Y-74315847D01*
X95836055Y-74383901D01*
X95815762Y-74410610D01*
X93992838Y-76233537D01*
X93922926Y-76303448D01*
X93873491Y-76389071D01*
X93873491Y-76389072D01*
X93873490Y-76389074D01*
X93847900Y-76484577D01*
X88883600Y-76484577D01*
X88883600Y-76095732D01*
X88903285Y-76028693D01*
X88904498Y-76026841D01*
X88959561Y-75944433D01*
X88959561Y-75944432D01*
X88959565Y-75944427D01*
X89008601Y-75826044D01*
X89027939Y-75728826D01*
X89060324Y-75666916D01*
X89061820Y-75665392D01*
X91896304Y-72830907D01*
X91896309Y-72830904D01*
X91906512Y-72820700D01*
X91906514Y-72820700D01*
X94636600Y-70090614D01*
X94702492Y-69976486D01*
X94736600Y-69849192D01*
X94736600Y-69717407D01*
X94736600Y-61951732D01*
X94756285Y-61884693D01*
X94757498Y-61882841D01*
X94812561Y-61800433D01*
X94812561Y-61800432D01*
X94812565Y-61800427D01*
X94861601Y-61682044D01*
X94886600Y-61556369D01*
X94886600Y-61428231D01*
X94886600Y-61428228D01*
X94861602Y-61302561D01*
X94861601Y-61302560D01*
X94861601Y-61302556D01*
X94812565Y-61184173D01*
X94812564Y-61184172D01*
X94812561Y-61184166D01*
X94741376Y-61077631D01*
X94741373Y-61077627D01*
X94650772Y-60987026D01*
X94650768Y-60987023D01*
X94544233Y-60915838D01*
X94544224Y-60915833D01*
X94425844Y-60866799D01*
X94425838Y-60866797D01*
X94300171Y-60841800D01*
X94300169Y-60841800D01*
X94172031Y-60841800D01*
X94172029Y-60841800D01*
X94046361Y-60866797D01*
X94046355Y-60866799D01*
X93927975Y-60915833D01*
X93927966Y-60915838D01*
X93821431Y-60987023D01*
X93821427Y-60987026D01*
X93730826Y-61077627D01*
X93730823Y-61077631D01*
X93659638Y-61184166D01*
X93659633Y-61184175D01*
X93610599Y-61302555D01*
X93610597Y-61302561D01*
X93585600Y-61428228D01*
X93585600Y-61428231D01*
X93585600Y-61556369D01*
X93585600Y-61556371D01*
X93585599Y-61556371D01*
X93610597Y-61682038D01*
X93610599Y-61682044D01*
X93659633Y-61800424D01*
X93659638Y-61800433D01*
X93714702Y-61882841D01*
X93735580Y-61949518D01*
X93735600Y-61951732D01*
X93735600Y-69524624D01*
X93715915Y-69591663D01*
X93699281Y-69612305D01*
X91198698Y-72112888D01*
X88354061Y-74957524D01*
X88292738Y-74991009D01*
X88290573Y-74991460D01*
X88193360Y-75010797D01*
X88193355Y-75010799D01*
X88074975Y-75059833D01*
X88074966Y-75059838D01*
X87968431Y-75131023D01*
X87968427Y-75131026D01*
X87877826Y-75221627D01*
X87877823Y-75221631D01*
X87806638Y-75328166D01*
X87806633Y-75328175D01*
X87757599Y-75446555D01*
X87757597Y-75446561D01*
X87732600Y-75572228D01*
X87732600Y-75572231D01*
X87732600Y-75700369D01*
X87732600Y-75700371D01*
X87732599Y-75700371D01*
X87757597Y-75826038D01*
X87757599Y-75826044D01*
X87806633Y-75944424D01*
X87806638Y-75944433D01*
X87861702Y-76026841D01*
X87882580Y-76093518D01*
X87882600Y-76095732D01*
X87882600Y-91954923D01*
X87862915Y-92021962D01*
X87846281Y-92042604D01*
X81595990Y-98292894D01*
X81534667Y-98326379D01*
X81507161Y-98327977D01*
X81507161Y-98329100D01*
X81372929Y-98329100D01*
X81247261Y-98354097D01*
X81247255Y-98354099D01*
X81128875Y-98403133D01*
X81128866Y-98403138D01*
X81022331Y-98474323D01*
X81022327Y-98474326D01*
X80931726Y-98564927D01*
X80931723Y-98564931D01*
X80860538Y-98671466D01*
X80860533Y-98671475D01*
X80811499Y-98789855D01*
X80811497Y-98789861D01*
X80786500Y-98915528D01*
X80786500Y-98915531D01*
X80786500Y-99043669D01*
X80786500Y-99043671D01*
X80786499Y-99043671D01*
X59539074Y-99043671D01*
X59507910Y-98947757D01*
X59507909Y-98947755D01*
X59501094Y-98926780D01*
X59404624Y-98737449D01*
X59365270Y-98683282D01*
X59365269Y-98683282D01*
X58732962Y-99315590D01*
X58715925Y-99252007D01*
X58650099Y-99137993D01*
X58557007Y-99044901D01*
X58442993Y-98979075D01*
X58379409Y-98962037D01*
X59011716Y-98329728D01*
X58957550Y-98290375D01*
X58768217Y-98193904D01*
X58669287Y-98161760D01*
X58611611Y-98122323D01*
X58584413Y-98057964D01*
X58596328Y-97989118D01*
X58643572Y-97937642D01*
X58669290Y-97925897D01*
X58672445Y-97924873D01*
X58826788Y-97846232D01*
X58966928Y-97744414D01*
X59089414Y-97621928D01*
X59191232Y-97481788D01*
X59269873Y-97327445D01*
X59323402Y-97162701D01*
X59350500Y-96991611D01*
X59350500Y-96818389D01*
X59323402Y-96647299D01*
X59269873Y-96482555D01*
X59191232Y-96328212D01*
X59089414Y-96188072D01*
X58966928Y-96065586D01*
X58826788Y-95963768D01*
X58672445Y-95885127D01*
X58507701Y-95831598D01*
X58507699Y-95831597D01*
X58507698Y-95831597D01*
X58376271Y-95810781D01*
X58336611Y-95804500D01*
X58163389Y-95804500D01*
X58123728Y-95810781D01*
X57992302Y-95831597D01*
X57827552Y-95885128D01*
X57673211Y-95963768D01*
X57618168Y-96003760D01*
X57533072Y-96065586D01*
X57533070Y-96065588D01*
X57533069Y-96065588D01*
X57410588Y-96188069D01*
X57410588Y-96188070D01*
X57410586Y-96188072D01*
X57366859Y-96248256D01*
X57308768Y-96328211D01*
X57230128Y-96482552D01*
X57176597Y-96647302D01*
X57149500Y-96818389D01*
X57149500Y-96991610D01*
X57174571Y-97149908D01*
X57176598Y-97162701D01*
X57230127Y-97327445D01*
X57308768Y-97481788D01*
X57410586Y-97621928D01*
X57533072Y-97744414D01*
X57673212Y-97846232D01*
X57827555Y-97924873D01*
X57830708Y-97925897D01*
X57831752Y-97926611D01*
X57832048Y-97926734D01*
X57832022Y-97926795D01*
X57888383Y-97965330D01*
X57915585Y-98029688D01*
X57903674Y-98098535D01*
X57856433Y-98150013D01*
X57830712Y-98161760D01*
X57731783Y-98193904D01*
X57542439Y-98290380D01*
X57488282Y-98329727D01*
X57488282Y-98329728D01*
X58120591Y-98962037D01*
X58057007Y-98979075D01*
X57942993Y-99044901D01*
X57849901Y-99137993D01*
X57784075Y-99252007D01*
X57767037Y-99315591D01*
X57134728Y-98683282D01*
X57134727Y-98683282D01*
X57095380Y-98737439D01*
X56998904Y-98926782D01*
X56933242Y-99128869D01*
X56933242Y-99128872D01*
X56900000Y-99338753D01*
X53840500Y-99338753D01*
X53840500Y-94278389D01*
X57149500Y-94278389D01*
X57149500Y-94451610D01*
X57165039Y-94549724D01*
X57176598Y-94622701D01*
X57230127Y-94787445D01*
X57308768Y-94941788D01*
X57410586Y-95081928D01*
X57533072Y-95204414D01*
X57673212Y-95306232D01*
X57827555Y-95384873D01*
X57992299Y-95438402D01*
X58163389Y-95465500D01*
X58163390Y-95465500D01*
X58336610Y-95465500D01*
X58336611Y-95465500D01*
X58507701Y-95438402D01*
X58672445Y-95384873D01*
X58826788Y-95306232D01*
X58966928Y-95204414D01*
X59089414Y-95081928D01*
X59191232Y-94941788D01*
X59269873Y-94787445D01*
X59323402Y-94622701D01*
X59350500Y-94451611D01*
X59350500Y-94278389D01*
X59323402Y-94107299D01*
X59269873Y-93942555D01*
X59191232Y-93788212D01*
X59089414Y-93648072D01*
X58966928Y-93525586D01*
X58826788Y-93423768D01*
X58672445Y-93345127D01*
X58507701Y-93291598D01*
X58507699Y-93291597D01*
X58507698Y-93291597D01*
X58376271Y-93270781D01*
X58336611Y-93264500D01*
X58163389Y-93264500D01*
X58123728Y-93270781D01*
X57992302Y-93291597D01*
X57827552Y-93345128D01*
X57673211Y-93423768D01*
X57595816Y-93480000D01*
X57533072Y-93525586D01*
X57533070Y-93525588D01*
X57533069Y-93525588D01*
X57410588Y-93648069D01*
X57410588Y-93648070D01*
X57410586Y-93648072D01*
X57398189Y-93665135D01*
X57308768Y-93788211D01*
X57230128Y-93942552D01*
X57176597Y-94107302D01*
X57149500Y-94278389D01*
X53840500Y-94278389D01*
X53840500Y-91738389D01*
X57149500Y-91738389D01*
X57149500Y-91911610D01*
X57168963Y-92034500D01*
X57176598Y-92082701D01*
X57230127Y-92247445D01*
X57308768Y-92401788D01*
X57410586Y-92541928D01*
X57533072Y-92664414D01*
X57673212Y-92766232D01*
X57827555Y-92844873D01*
X57992299Y-92898402D01*
X58163389Y-92925500D01*
X58163390Y-92925500D01*
X58336610Y-92925500D01*
X58336611Y-92925500D01*
X58507701Y-92898402D01*
X58672445Y-92844873D01*
X58826788Y-92766232D01*
X58966928Y-92664414D01*
X59089414Y-92541928D01*
X59191232Y-92401788D01*
X59269873Y-92247445D01*
X59323402Y-92082701D01*
X59350500Y-91911611D01*
X59350500Y-91738389D01*
X59323402Y-91567299D01*
X59269873Y-91402555D01*
X59191232Y-91248212D01*
X59089414Y-91108072D01*
X58966928Y-90985586D01*
X58826788Y-90883768D01*
X58672445Y-90805127D01*
X58507701Y-90751598D01*
X58507699Y-90751597D01*
X58507698Y-90751597D01*
X58376271Y-90730781D01*
X58336611Y-90724500D01*
X58163389Y-90724500D01*
X58123728Y-90730781D01*
X57992302Y-90751597D01*
X57827552Y-90805128D01*
X57673211Y-90883768D01*
X57629088Y-90915826D01*
X57533072Y-90985586D01*
X57533070Y-90985588D01*
X57533069Y-90985588D01*
X57410588Y-91108069D01*
X57410588Y-91108070D01*
X57410586Y-91108072D01*
X57366859Y-91168256D01*
X57308768Y-91248211D01*
X57230128Y-91402552D01*
X57176597Y-91567302D01*
X57149500Y-91738389D01*
X53840500Y-91738389D01*
X53840500Y-75553565D01*
X56316500Y-75553565D01*
X56316500Y-87776435D01*
X56342090Y-87871938D01*
X56391172Y-87956951D01*
X56391526Y-87957563D01*
X57192677Y-88758714D01*
X57226162Y-88820037D01*
X57222927Y-88884713D01*
X57176597Y-89027301D01*
X57164994Y-89100564D01*
X57149500Y-89198389D01*
X57149500Y-89371611D01*
X57176598Y-89542701D01*
X57230127Y-89707445D01*
X57308768Y-89861788D01*
X57410586Y-90001928D01*
X57533072Y-90124414D01*
X57673212Y-90226232D01*
X57827555Y-90304873D01*
X57992299Y-90358402D01*
X58163389Y-90385500D01*
X58163390Y-90385500D01*
X58336610Y-90385500D01*
X58336611Y-90385500D01*
X58507701Y-90358402D01*
X58672445Y-90304873D01*
X58826788Y-90226232D01*
X58966928Y-90124414D01*
X59089414Y-90001928D01*
X59191232Y-89861788D01*
X59269873Y-89707445D01*
X59323402Y-89542701D01*
X59350500Y-89371611D01*
X59350500Y-89198389D01*
X59323402Y-89027299D01*
X59269873Y-88862555D01*
X59191232Y-88708212D01*
X59089414Y-88568072D01*
X58966928Y-88445586D01*
X58826788Y-88343768D01*
X58672445Y-88265127D01*
X58507701Y-88211598D01*
X58507699Y-88211597D01*
X58507698Y-88211597D01*
X58376271Y-88190781D01*
X58336611Y-88184500D01*
X58163389Y-88184500D01*
X58131192Y-88189599D01*
X57992301Y-88211597D01*
X57849713Y-88257927D01*
X57779872Y-88259922D01*
X57723714Y-88227677D01*
X57103819Y-87607781D01*
X57070334Y-87546458D01*
X57067500Y-87520100D01*
X57067500Y-87364770D01*
X57087185Y-87297731D01*
X57139989Y-87251976D01*
X57209147Y-87242032D01*
X57272703Y-87271057D01*
X57301985Y-87308476D01*
X57308766Y-87321786D01*
X57339357Y-87363890D01*
X57410586Y-87461928D01*
X57533072Y-87584414D01*
X57673212Y-87686232D01*
X57827555Y-87764873D01*
X57992299Y-87818402D01*
X58163389Y-87845500D01*
X58163390Y-87845500D01*
X58336610Y-87845500D01*
X58336611Y-87845500D01*
X58507701Y-87818402D01*
X58672445Y-87764873D01*
X58826788Y-87686232D01*
X58966928Y-87584414D01*
X59089414Y-87461928D01*
X59191232Y-87321788D01*
X59269873Y-87167445D01*
X59323402Y-87002701D01*
X59350500Y-86831611D01*
X59350500Y-86658389D01*
X59323402Y-86487299D01*
X59269873Y-86322555D01*
X59191232Y-86168212D01*
X59089414Y-86028072D01*
X58966928Y-85905586D01*
X58826788Y-85803768D01*
X58672445Y-85725127D01*
X58507701Y-85671598D01*
X58507699Y-85671597D01*
X58507698Y-85671597D01*
X58376271Y-85650781D01*
X58336611Y-85644500D01*
X58163389Y-85644500D01*
X58131192Y-85649599D01*
X57992301Y-85671597D01*
X57849713Y-85717927D01*
X57779872Y-85719922D01*
X57723714Y-85687677D01*
X57512319Y-85476282D01*
X57497615Y-85449354D01*
X57481023Y-85423536D01*
X57480131Y-85417335D01*
X57478834Y-85414959D01*
X57476000Y-85388601D01*
X57476000Y-85246313D01*
X57495685Y-85179274D01*
X57548489Y-85133519D01*
X57617647Y-85123575D01*
X57668685Y-85144290D01*
X57669056Y-85143686D01*
X57672705Y-85145922D01*
X57672887Y-85145996D01*
X57673210Y-85146231D01*
X57673212Y-85146232D01*
X57827555Y-85224873D01*
X57992299Y-85278402D01*
X58163389Y-85305500D01*
X58163390Y-85305500D01*
X58336610Y-85305500D01*
X58336611Y-85305500D01*
X58507701Y-85278402D01*
X58672445Y-85224873D01*
X58826788Y-85146232D01*
X58966928Y-85044414D01*
X59089414Y-84921928D01*
X59191232Y-84781788D01*
X59269873Y-84627445D01*
X59323402Y-84462701D01*
X59350500Y-84291611D01*
X59350500Y-84118389D01*
X59323402Y-83947299D01*
X59269873Y-83782555D01*
X59191232Y-83628212D01*
X59089414Y-83488072D01*
X58966928Y-83365586D01*
X58826788Y-83263768D01*
X58672445Y-83185127D01*
X58507701Y-83131598D01*
X58507699Y-83131597D01*
X58507698Y-83131597D01*
X58376271Y-83110781D01*
X58336611Y-83104500D01*
X58163389Y-83104500D01*
X58123728Y-83110781D01*
X57992302Y-83131597D01*
X57827552Y-83185128D01*
X57673206Y-83263770D01*
X57672872Y-83264014D01*
X57672722Y-83264067D01*
X57669056Y-83266314D01*
X57668583Y-83265543D01*
X57607062Y-83287485D01*
X57539010Y-83271650D01*
X57490322Y-83221538D01*
X57476000Y-83163686D01*
X57476000Y-82706313D01*
X57495685Y-82639274D01*
X57548489Y-82593519D01*
X57617647Y-82583575D01*
X57668685Y-82604290D01*
X57669056Y-82603686D01*
X57672705Y-82605922D01*
X57672887Y-82605996D01*
X57673210Y-82606231D01*
X57673212Y-82606232D01*
X57827555Y-82684873D01*
X57992299Y-82738402D01*
X58163389Y-82765500D01*
X58163390Y-82765500D01*
X58336610Y-82765500D01*
X58336611Y-82765500D01*
X58507701Y-82738402D01*
X58672445Y-82684873D01*
X58826788Y-82606232D01*
X58966928Y-82504414D01*
X59089414Y-82381928D01*
X59191232Y-82241788D01*
X59269873Y-82087445D01*
X59323402Y-81922701D01*
X59350500Y-81751611D01*
X59350500Y-81578389D01*
X59323402Y-81407299D01*
X59277071Y-81264710D01*
X59275077Y-81194871D01*
X59307320Y-81138715D01*
X59699974Y-80746063D01*
X59712846Y-80723768D01*
X59749410Y-80660438D01*
X59775000Y-80564935D01*
X59775000Y-77732135D01*
X75199500Y-77732135D01*
X75199500Y-79927870D01*
X75199501Y-79927876D01*
X75205908Y-79987483D01*
X75256202Y-80122328D01*
X75256206Y-80122335D01*
X75342452Y-80237544D01*
X75342455Y-80237547D01*
X75457664Y-80323793D01*
X75457671Y-80323797D01*
X75592517Y-80374091D01*
X75592516Y-80374091D01*
X75599444Y-80374835D01*
X75652127Y-80380500D01*
X77847872Y-80380499D01*
X77907483Y-80374091D01*
X78042331Y-80323796D01*
X78157546Y-80237546D01*
X78243796Y-80122331D01*
X78294091Y-79987483D01*
X78300500Y-79927873D01*
X78300499Y-77732128D01*
X78294091Y-77672517D01*
X78291883Y-77666598D01*
X78243797Y-77537671D01*
X78243793Y-77537664D01*
X78157547Y-77422455D01*
X78157544Y-77422452D01*
X78042335Y-77336206D01*
X78042328Y-77336202D01*
X77907482Y-77285908D01*
X77907483Y-77285908D01*
X77847883Y-77279501D01*
X77847881Y-77279500D01*
X77847873Y-77279500D01*
X77847864Y-77279500D01*
X75652129Y-77279500D01*
X75652123Y-77279501D01*
X75592516Y-77285908D01*
X75457671Y-77336202D01*
X75457664Y-77336206D01*
X75342455Y-77422452D01*
X75342452Y-77422455D01*
X75256206Y-77537664D01*
X75256202Y-77537671D01*
X75205908Y-77672517D01*
X75200790Y-77720127D01*
X75199501Y-77732123D01*
X75199500Y-77732135D01*
X59775000Y-77732135D01*
X59775000Y-72605065D01*
X59770453Y-72588097D01*
X59755619Y-72532735D01*
X59755619Y-72532733D01*
X59749411Y-72509564D01*
X59749410Y-72509562D01*
X59712846Y-72446232D01*
X59699975Y-72423938D01*
X59630062Y-72354025D01*
X59469505Y-72193468D01*
X60769500Y-72193468D01*
X60769500Y-72586532D01*
X60774271Y-72634971D01*
X60808026Y-72977702D01*
X60884704Y-73363194D01*
X60884707Y-73363205D01*
X60998810Y-73739354D01*
X61149230Y-74102499D01*
X61149232Y-74102504D01*
X61334511Y-74449137D01*
X61334522Y-74449155D01*
X61552887Y-74775960D01*
X61552897Y-74775974D01*
X61802254Y-75079817D01*
X62080182Y-75357745D01*
X62080187Y-75357749D01*
X62080188Y-75357750D01*
X62384031Y-75607107D01*
X62710851Y-75825482D01*
X62710860Y-75825487D01*
X62710862Y-75825488D01*
X63057495Y-76010767D01*
X63057497Y-76010767D01*
X63057503Y-76010771D01*
X63420647Y-76161190D01*
X63796785Y-76275290D01*
X63796791Y-76275291D01*
X63796794Y-76275292D01*
X63796805Y-76275295D01*
X64182297Y-76351973D01*
X64573468Y-76390500D01*
X64573471Y-76390500D01*
X64966529Y-76390500D01*
X64966532Y-76390500D01*
X65357703Y-76351973D01*
X65481748Y-76327299D01*
X65743194Y-76275295D01*
X65743205Y-76275292D01*
X65743205Y-76275291D01*
X65743215Y-76275290D01*
X66119353Y-76161190D01*
X66482497Y-76010771D01*
X66829149Y-75825482D01*
X67155969Y-75607107D01*
X67459812Y-75357750D01*
X67737750Y-75079812D01*
X67987107Y-74775969D01*
X68205482Y-74449149D01*
X68390771Y-74102497D01*
X68541190Y-73739353D01*
X68574977Y-73627973D01*
X75199500Y-73627973D01*
X75199500Y-73872026D01*
X75236004Y-74102504D01*
X75237679Y-74113076D01*
X75313096Y-74345185D01*
X75400727Y-74517172D01*
X75423896Y-74562642D01*
X75567339Y-74760076D01*
X75567343Y-74760081D01*
X75739918Y-74932656D01*
X75739923Y-74932660D01*
X75891055Y-75042463D01*
X75937361Y-75076106D01*
X76154815Y-75186904D01*
X76386924Y-75262321D01*
X76627973Y-75300500D01*
X76627974Y-75300500D01*
X76872026Y-75300500D01*
X76872027Y-75300500D01*
X77113076Y-75262321D01*
X77345185Y-75186904D01*
X77562639Y-75076106D01*
X77760083Y-74932655D01*
X77932655Y-74760083D01*
X78076106Y-74562639D01*
X78186904Y-74345185D01*
X78262321Y-74113076D01*
X78300500Y-73872027D01*
X78300500Y-73627973D01*
X78262321Y-73386924D01*
X78186904Y-73154815D01*
X78076106Y-72937361D01*
X78057779Y-72912136D01*
X77932660Y-72739923D01*
X77932656Y-72739918D01*
X77760081Y-72567343D01*
X77760076Y-72567339D01*
X77562642Y-72423896D01*
X77562641Y-72423895D01*
X77562639Y-72423894D01*
X77345185Y-72313096D01*
X77113076Y-72237679D01*
X77113074Y-72237678D01*
X77113072Y-72237678D01*
X76944769Y-72211021D01*
X76872027Y-72199500D01*
X76627973Y-72199500D01*
X76604278Y-72203253D01*
X76386927Y-72237678D01*
X76386924Y-72237679D01*
X76179400Y-72305108D01*
X76154812Y-72313097D01*
X75937357Y-72423896D01*
X75739923Y-72567339D01*
X75739918Y-72567343D01*
X75567343Y-72739918D01*
X75567339Y-72739923D01*
X75423896Y-72937357D01*
X75313097Y-73154812D01*
X75237678Y-73386927D01*
X75199500Y-73627973D01*
X68574977Y-73627973D01*
X68655290Y-73363215D01*
X68655292Y-73363205D01*
X68655295Y-73363194D01*
X68731973Y-72977702D01*
X68746258Y-72832664D01*
X68770500Y-72586532D01*
X68770500Y-72193468D01*
X68731973Y-71802297D01*
X68710986Y-71696788D01*
X68655295Y-71416805D01*
X68655292Y-71416794D01*
X68655291Y-71416791D01*
X68655290Y-71416785D01*
X68541190Y-71040647D01*
X68390771Y-70677503D01*
X68384402Y-70665588D01*
X68205488Y-70330862D01*
X68205487Y-70330860D01*
X68205482Y-70330851D01*
X67987107Y-70004031D01*
X67737750Y-69700188D01*
X67737749Y-69700187D01*
X67737745Y-69700182D01*
X67459817Y-69422254D01*
X67155974Y-69172897D01*
X67155973Y-69172896D01*
X67155969Y-69172893D01*
X66829149Y-68954518D01*
X66829144Y-68954515D01*
X66829137Y-68954511D01*
X66482504Y-68769232D01*
X66482499Y-68769230D01*
X66213150Y-68657662D01*
X66119354Y-68618810D01*
X65885835Y-68547973D01*
X75199500Y-68547973D01*
X75199500Y-68792026D01*
X75228340Y-68974117D01*
X75237679Y-69033076D01*
X75307970Y-69249410D01*
X75313097Y-69265187D01*
X75317399Y-69273631D01*
X75393866Y-69423706D01*
X75423896Y-69482642D01*
X75567339Y-69680076D01*
X75567343Y-69680081D01*
X75739918Y-69852656D01*
X75739923Y-69852660D01*
X75910356Y-69976486D01*
X75937361Y-69996106D01*
X76154815Y-70106904D01*
X76386924Y-70182321D01*
X76627973Y-70220500D01*
X76627974Y-70220500D01*
X76872026Y-70220500D01*
X76872027Y-70220500D01*
X77113076Y-70182321D01*
X77345185Y-70106904D01*
X77562639Y-69996106D01*
X77760083Y-69852655D01*
X77932655Y-69680083D01*
X78076106Y-69482639D01*
X78186904Y-69265185D01*
X78262321Y-69033076D01*
X78300500Y-68792027D01*
X78300500Y-68547973D01*
X78262321Y-68306924D01*
X78186904Y-68074815D01*
X78076106Y-67857361D01*
X78017279Y-67776392D01*
X77932660Y-67659923D01*
X77932656Y-67659918D01*
X77760081Y-67487343D01*
X77760076Y-67487339D01*
X77562642Y-67343896D01*
X77562641Y-67343895D01*
X77562639Y-67343894D01*
X77345185Y-67233096D01*
X77113076Y-67157679D01*
X77113074Y-67157678D01*
X77113072Y-67157678D01*
X76944769Y-67131021D01*
X76872027Y-67119500D01*
X76627973Y-67119500D01*
X76572093Y-67128350D01*
X76386927Y-67157678D01*
X76154812Y-67233097D01*
X75937357Y-67343896D01*
X75739923Y-67487339D01*
X75739918Y-67487343D01*
X75567343Y-67659918D01*
X75567339Y-67659923D01*
X75423896Y-67857357D01*
X75313097Y-68074812D01*
X75237678Y-68306927D01*
X75199500Y-68547973D01*
X65885835Y-68547973D01*
X65743205Y-68504707D01*
X65743194Y-68504704D01*
X65357702Y-68428026D01*
X65063089Y-68399010D01*
X64966532Y-68389500D01*
X64573468Y-68389500D01*
X64484251Y-68398287D01*
X64182297Y-68428026D01*
X63796805Y-68504704D01*
X63796794Y-68504707D01*
X63420645Y-68618810D01*
X63057500Y-68769230D01*
X63057495Y-68769232D01*
X62710862Y-68954511D01*
X62710844Y-68954522D01*
X62384039Y-69172887D01*
X62384025Y-69172897D01*
X62080182Y-69422254D01*
X61802254Y-69700182D01*
X61552897Y-70004025D01*
X61552887Y-70004039D01*
X61334522Y-70330844D01*
X61334511Y-70330862D01*
X61149232Y-70677495D01*
X61149230Y-70677500D01*
X60998810Y-71040645D01*
X60884707Y-71416794D01*
X60884704Y-71416805D01*
X60808026Y-71802297D01*
X60780370Y-72083100D01*
X60769500Y-72193468D01*
X59469505Y-72193468D01*
X59307322Y-72031285D01*
X59273837Y-71969962D01*
X59277071Y-71905289D01*
X59323402Y-71762701D01*
X59350500Y-71591611D01*
X59350500Y-71418389D01*
X59323402Y-71247299D01*
X59269873Y-71082555D01*
X59191232Y-70928212D01*
X59089414Y-70788072D01*
X58966928Y-70665586D01*
X58826788Y-70563768D01*
X58672445Y-70485127D01*
X58507701Y-70431598D01*
X58507699Y-70431597D01*
X58507698Y-70431597D01*
X58376271Y-70410781D01*
X58336611Y-70404500D01*
X58163389Y-70404500D01*
X58123728Y-70410781D01*
X57992302Y-70431597D01*
X57827552Y-70485128D01*
X57673211Y-70563768D01*
X57593256Y-70621859D01*
X57533072Y-70665586D01*
X57533070Y-70665588D01*
X57533069Y-70665588D01*
X57410588Y-70788069D01*
X57410588Y-70788070D01*
X57410586Y-70788072D01*
X57366859Y-70848256D01*
X57308768Y-70928211D01*
X57230128Y-71082552D01*
X57176597Y-71247302D01*
X57155945Y-71377697D01*
X57149500Y-71418389D01*
X57149500Y-71591611D01*
X57176598Y-71762701D01*
X57230127Y-71927445D01*
X57308768Y-72081788D01*
X57410586Y-72221928D01*
X57533072Y-72344414D01*
X57673212Y-72446232D01*
X57827555Y-72524873D01*
X57992299Y-72578402D01*
X58163389Y-72605500D01*
X58163390Y-72605500D01*
X58336610Y-72605500D01*
X58336611Y-72605500D01*
X58507701Y-72578402D01*
X58650289Y-72532071D01*
X58720126Y-72530077D01*
X58776285Y-72562322D01*
X58987681Y-72773718D01*
X59002384Y-72800645D01*
X59018977Y-72826464D01*
X59019868Y-72832664D01*
X59021166Y-72835041D01*
X59024000Y-72861399D01*
X59024000Y-73003686D01*
X59004315Y-73070725D01*
X58951511Y-73116480D01*
X58882353Y-73126424D01*
X58831312Y-73105712D01*
X58830944Y-73106314D01*
X58827313Y-73104089D01*
X58827128Y-73104014D01*
X58826793Y-73103770D01*
X58672447Y-73025128D01*
X58672446Y-73025127D01*
X58672445Y-73025127D01*
X58507701Y-72971598D01*
X58507699Y-72971597D01*
X58507698Y-72971597D01*
X58376271Y-72950781D01*
X58336611Y-72944500D01*
X58163389Y-72944500D01*
X58123728Y-72950781D01*
X57992302Y-72971597D01*
X57827552Y-73025128D01*
X57673211Y-73103768D01*
X57602956Y-73154812D01*
X57533072Y-73205586D01*
X57533070Y-73205588D01*
X57533069Y-73205588D01*
X57410588Y-73328069D01*
X57410588Y-73328070D01*
X57410586Y-73328072D01*
X57385053Y-73363215D01*
X57308768Y-73468211D01*
X57230128Y-73622552D01*
X57176597Y-73787302D01*
X57149500Y-73958389D01*
X57149500Y-74131610D01*
X57167258Y-74243734D01*
X57176598Y-74302701D01*
X57222927Y-74445285D01*
X57224922Y-74515126D01*
X57192677Y-74571284D01*
X56461438Y-75302525D01*
X56391526Y-75372436D01*
X56342091Y-75458059D01*
X56342091Y-75458060D01*
X56342090Y-75458062D01*
X56316500Y-75553565D01*
X53840500Y-75553565D01*
X53840500Y-57320013D01*
X59160000Y-57320013D01*
X59160000Y-58170000D01*
X60359999Y-58170000D01*
X60334979Y-58230402D01*
X60310000Y-58355981D01*
X60310000Y-58484019D01*
X60334979Y-58609598D01*
X60359999Y-58670000D01*
X59160001Y-58670000D01*
X59160001Y-59519986D01*
X59170494Y-59622697D01*
X59225641Y-59789119D01*
X59225643Y-59789124D01*
X59317684Y-59938345D01*
X59441654Y-60062315D01*
X59590875Y-60154356D01*
X59590880Y-60154358D01*
X59757302Y-60209505D01*
X59757309Y-60209506D01*
X59860019Y-60219999D01*
X60709999Y-60219999D01*
X60710000Y-60219998D01*
X60710000Y-59020001D01*
X60770402Y-59045021D01*
X60895981Y-59070000D01*
X61024019Y-59070000D01*
X61149598Y-59045021D01*
X61210000Y-59020001D01*
X61210000Y-60219999D01*
X62059972Y-60219999D01*
X62059986Y-60219998D01*
X62162697Y-60209505D01*
X62329119Y-60154358D01*
X62329124Y-60154356D01*
X62478345Y-60062315D01*
X62554127Y-59986533D01*
X88224499Y-59986533D01*
X88250458Y-60117030D01*
X88250461Y-60117040D01*
X88301376Y-60239961D01*
X88301386Y-60239979D01*
X88375301Y-60350601D01*
X88375307Y-60350609D01*
X88469390Y-60444692D01*
X88469398Y-60444698D01*
X88580020Y-60518613D01*
X88580023Y-60518614D01*
X88580031Y-60518620D01*
X88580037Y-60518622D01*
X88580038Y-60518623D01*
X88702959Y-60569538D01*
X88702964Y-60569540D01*
X88702968Y-60569540D01*
X88702969Y-60569541D01*
X88833466Y-60595500D01*
X88833469Y-60595500D01*
X88966533Y-60595500D01*
X89054325Y-60578035D01*
X89097036Y-60569540D01*
X89219969Y-60518620D01*
X89330606Y-60444695D01*
X89424695Y-60350606D01*
X89498620Y-60239969D01*
X89549540Y-60117036D01*
X89560425Y-60062315D01*
X89575500Y-59986533D01*
X89575500Y-59853466D01*
X89549541Y-59722969D01*
X89549540Y-59722968D01*
X89549540Y-59722964D01*
X89513042Y-59634849D01*
X89498623Y-59600038D01*
X89498622Y-59600037D01*
X89498620Y-59600031D01*
X89453107Y-59531916D01*
X89424698Y-59489398D01*
X89424692Y-59489390D01*
X89330609Y-59395307D01*
X89330601Y-59395301D01*
X89219979Y-59321386D01*
X89219972Y-59321382D01*
X89219969Y-59321380D01*
X89219965Y-59321378D01*
X89219961Y-59321376D01*
X89097040Y-59270461D01*
X89097030Y-59270458D01*
X88966533Y-59244500D01*
X88966531Y-59244500D01*
X88833469Y-59244500D01*
X88833467Y-59244500D01*
X88702969Y-59270458D01*
X88702959Y-59270461D01*
X88580038Y-59321376D01*
X88580020Y-59321386D01*
X88469398Y-59395301D01*
X88469390Y-59395307D01*
X88375307Y-59489390D01*
X88375301Y-59489398D01*
X88301386Y-59600020D01*
X88301376Y-59600038D01*
X88250461Y-59722959D01*
X88250458Y-59722969D01*
X88224500Y-59853466D01*
X88224500Y-59853469D01*
X88224500Y-59986531D01*
X88224500Y-59986533D01*
X88224499Y-59986533D01*
X62554127Y-59986533D01*
X62602315Y-59938345D01*
X62694357Y-59789121D01*
X62749505Y-59622697D01*
X62749506Y-59622690D01*
X62759999Y-59519986D01*
X62760000Y-59519973D01*
X62760000Y-58670000D01*
X61560001Y-58670000D01*
X61585021Y-58609598D01*
X61610000Y-58484019D01*
X61610000Y-58355981D01*
X61585021Y-58230402D01*
X61560001Y-58170000D01*
X62759999Y-58170000D01*
X62759999Y-57320028D01*
X62759998Y-57320013D01*
X62749505Y-57217302D01*
X62694358Y-57050880D01*
X62694356Y-57050875D01*
X62654669Y-56986533D01*
X88224499Y-56986533D01*
X88250458Y-57117030D01*
X88250461Y-57117040D01*
X88301376Y-57239961D01*
X88301386Y-57239979D01*
X88375301Y-57350601D01*
X88375307Y-57350609D01*
X88469390Y-57444692D01*
X88469398Y-57444698D01*
X88580020Y-57518613D01*
X88580023Y-57518614D01*
X88580031Y-57518620D01*
X88702964Y-57569540D01*
X88702968Y-57569540D01*
X88702969Y-57569541D01*
X88833466Y-57595500D01*
X88833469Y-57595500D01*
X88966533Y-57595500D01*
X89054325Y-57578035D01*
X89097036Y-57569540D01*
X89219969Y-57518620D01*
X89330606Y-57444695D01*
X89424695Y-57350606D01*
X89498620Y-57239969D01*
X89549540Y-57117036D01*
X89562701Y-57050875D01*
X89575500Y-56986533D01*
X89575500Y-56853466D01*
X89549541Y-56722969D01*
X89549540Y-56722968D01*
X89549540Y-56722964D01*
X89534081Y-56685643D01*
X89498623Y-56600038D01*
X89498622Y-56600037D01*
X89498620Y-56600031D01*
X89490283Y-56587554D01*
X89424698Y-56489398D01*
X89424692Y-56489390D01*
X89330609Y-56395307D01*
X89330601Y-56395301D01*
X89219979Y-56321386D01*
X89219972Y-56321382D01*
X89219969Y-56321380D01*
X89219965Y-56321378D01*
X89219961Y-56321376D01*
X89097040Y-56270461D01*
X89097030Y-56270458D01*
X88966533Y-56244500D01*
X88966531Y-56244500D01*
X88833469Y-56244500D01*
X88833467Y-56244500D01*
X88702969Y-56270458D01*
X88702959Y-56270461D01*
X88580038Y-56321376D01*
X88580020Y-56321386D01*
X88469398Y-56395301D01*
X88469390Y-56395307D01*
X88375307Y-56489390D01*
X88375301Y-56489398D01*
X88301386Y-56600020D01*
X88301376Y-56600038D01*
X88250461Y-56722959D01*
X88250458Y-56722969D01*
X88224500Y-56853466D01*
X88224500Y-56853469D01*
X88224500Y-56986531D01*
X88224500Y-56986533D01*
X88224499Y-56986533D01*
X62654669Y-56986533D01*
X62608989Y-56912474D01*
X62608988Y-56912472D01*
X62602317Y-56901656D01*
X62478345Y-56777684D01*
X62329124Y-56685643D01*
X62329119Y-56685641D01*
X62162697Y-56630494D01*
X62162690Y-56630493D01*
X62059986Y-56620000D01*
X61210000Y-56620000D01*
X61210000Y-57819998D01*
X61149598Y-57794979D01*
X61024019Y-57770000D01*
X60895981Y-57770000D01*
X60770402Y-57794979D01*
X60710000Y-57819998D01*
X60710000Y-56620000D01*
X59860028Y-56620000D01*
X59860012Y-56620001D01*
X59757302Y-56630494D01*
X59590880Y-56685641D01*
X59590875Y-56685643D01*
X59441654Y-56777684D01*
X59317684Y-56901654D01*
X59225643Y-57050875D01*
X59225641Y-57050880D01*
X59170494Y-57217302D01*
X59170493Y-57217309D01*
X59160000Y-57320013D01*
X53840500Y-57320013D01*
X53840500Y-53217973D01*
X59409500Y-53217973D01*
X59409500Y-53462027D01*
X59447679Y-53703076D01*
X59523096Y-53935185D01*
X59585127Y-54056929D01*
X59633896Y-54152642D01*
X59777339Y-54350076D01*
X59777343Y-54350081D01*
X59949918Y-54522656D01*
X59949923Y-54522660D01*
X60051914Y-54596760D01*
X60147361Y-54666106D01*
X60364815Y-54776904D01*
X60596924Y-54852321D01*
X60837973Y-54890500D01*
X60837974Y-54890500D01*
X61082026Y-54890500D01*
X61082027Y-54890500D01*
X61323076Y-54852321D01*
X61335067Y-54848425D01*
X76420400Y-54848425D01*
X76420400Y-54993375D01*
X76453869Y-55118282D01*
X76457917Y-55133388D01*
X76530388Y-55258911D01*
X76530390Y-55258913D01*
X76530391Y-55258915D01*
X76632885Y-55361409D01*
X76632886Y-55361410D01*
X76632888Y-55361411D01*
X76758411Y-55433882D01*
X76758412Y-55433882D01*
X76758415Y-55433884D01*
X76898425Y-55471400D01*
X76898428Y-55471400D01*
X77043372Y-55471400D01*
X77043375Y-55471400D01*
X77183385Y-55433884D01*
X77308915Y-55361409D01*
X77411409Y-55258915D01*
X77483884Y-55133385D01*
X77521400Y-54993375D01*
X77521400Y-54848425D01*
X77520971Y-54846825D01*
X78182600Y-54846825D01*
X78182600Y-54991775D01*
X78210259Y-55094998D01*
X78220117Y-55131788D01*
X78292588Y-55257311D01*
X78292590Y-55257313D01*
X78292591Y-55257315D01*
X78395085Y-55359809D01*
X78395086Y-55359810D01*
X78395088Y-55359811D01*
X78520611Y-55432282D01*
X78520612Y-55432282D01*
X78520615Y-55432284D01*
X78660625Y-55469800D01*
X78660628Y-55469800D01*
X78805572Y-55469800D01*
X78805575Y-55469800D01*
X78945585Y-55432284D01*
X79071115Y-55359809D01*
X79173609Y-55257315D01*
X79246084Y-55131785D01*
X79283600Y-54991775D01*
X79283600Y-54951199D01*
X79303285Y-54884160D01*
X79319919Y-54863518D01*
X81022601Y-53160836D01*
X81027727Y-53155710D01*
X81063974Y-53119463D01*
X81085431Y-53082299D01*
X81113410Y-53033838D01*
X81128660Y-52976924D01*
X81139000Y-52938336D01*
X81139000Y-52839464D01*
X81139000Y-49925321D01*
X95659500Y-49925321D01*
X95659500Y-51674678D01*
X95674032Y-51747735D01*
X95674033Y-51747739D01*
X95674034Y-51747740D01*
X95729399Y-51830601D01*
X95806363Y-51882026D01*
X95812260Y-51885966D01*
X95812264Y-51885967D01*
X95885321Y-51900499D01*
X95885324Y-51900500D01*
X95885326Y-51900500D01*
X97634676Y-51900500D01*
X97634677Y-51900499D01*
X97707740Y-51885966D01*
X97790601Y-51830601D01*
X97845966Y-51747740D01*
X97860500Y-51674674D01*
X97860500Y-50713389D01*
X113199500Y-50713389D01*
X113199500Y-50886611D01*
X113226598Y-51057701D01*
X113280127Y-51222445D01*
X113358768Y-51376788D01*
X113460586Y-51516928D01*
X113583072Y-51639414D01*
X113723212Y-51741232D01*
X113877555Y-51819873D01*
X114042299Y-51873402D01*
X114213389Y-51900500D01*
X114213390Y-51900500D01*
X114386610Y-51900500D01*
X114386611Y-51900500D01*
X114557701Y-51873402D01*
X114722445Y-51819873D01*
X114876788Y-51741232D01*
X115016928Y-51639414D01*
X115139414Y-51516928D01*
X115241232Y-51376788D01*
X115319873Y-51222445D01*
X115373402Y-51057701D01*
X115400500Y-50886611D01*
X115400500Y-50713389D01*
X115373402Y-50542299D01*
X115319873Y-50377555D01*
X115241232Y-50223212D01*
X115139414Y-50083072D01*
X115016928Y-49960586D01*
X114876788Y-49858768D01*
X114722445Y-49780127D01*
X114557701Y-49726598D01*
X114557699Y-49726597D01*
X114557698Y-49726597D01*
X114426271Y-49705781D01*
X114386611Y-49699500D01*
X114213389Y-49699500D01*
X114173728Y-49705781D01*
X114042302Y-49726597D01*
X113877552Y-49780128D01*
X113723211Y-49858768D01*
X113643256Y-49916859D01*
X113583072Y-49960586D01*
X113583070Y-49960588D01*
X113583069Y-49960588D01*
X113460588Y-50083069D01*
X113460588Y-50083070D01*
X113460586Y-50083072D01*
X113442575Y-50107862D01*
X113358768Y-50223211D01*
X113280128Y-50377552D01*
X113226597Y-50542302D01*
X113221047Y-50577345D01*
X113199500Y-50713389D01*
X97860500Y-50713389D01*
X97860500Y-49925326D01*
X97860500Y-49925323D01*
X97860499Y-49925321D01*
X97845967Y-49852264D01*
X97845966Y-49852260D01*
X97790601Y-49769399D01*
X97707740Y-49714034D01*
X97707739Y-49714033D01*
X97707735Y-49714032D01*
X97634677Y-49699500D01*
X97634674Y-49699500D01*
X95885326Y-49699500D01*
X95885323Y-49699500D01*
X95812264Y-49714032D01*
X95812260Y-49714033D01*
X95729399Y-49769399D01*
X95674033Y-49852260D01*
X95674032Y-49852264D01*
X95659500Y-49925321D01*
X81139000Y-49925321D01*
X81139000Y-49209186D01*
X81158685Y-49142147D01*
X81175319Y-49121505D01*
X81204009Y-49092815D01*
X81276484Y-48967285D01*
X81314000Y-48827275D01*
X81314000Y-48682325D01*
X81276484Y-48542315D01*
X81240506Y-48480000D01*
X81204011Y-48416788D01*
X81204006Y-48416782D01*
X81101517Y-48314293D01*
X81101511Y-48314288D01*
X80975988Y-48241817D01*
X80975989Y-48241817D01*
X80964506Y-48238740D01*
X80835975Y-48204300D01*
X80691025Y-48204300D01*
X80562493Y-48238740D01*
X80551011Y-48241817D01*
X80425488Y-48314288D01*
X80425482Y-48314293D01*
X80322993Y-48416782D01*
X80322988Y-48416788D01*
X80250517Y-48542311D01*
X80250516Y-48542315D01*
X80213000Y-48682325D01*
X80213000Y-48827275D01*
X80250516Y-48967285D01*
X80250517Y-48967288D01*
X80322988Y-49092811D01*
X80322993Y-49092817D01*
X80351681Y-49121505D01*
X80385166Y-49182828D01*
X80388000Y-49209186D01*
X80388000Y-52682001D01*
X80368315Y-52749040D01*
X80351681Y-52769682D01*
X78788882Y-54332481D01*
X78727559Y-54365966D01*
X78701201Y-54368800D01*
X78660625Y-54368800D01*
X78543317Y-54400233D01*
X78520611Y-54406317D01*
X78395088Y-54478788D01*
X78395082Y-54478793D01*
X78292593Y-54581282D01*
X78292588Y-54581288D01*
X78220117Y-54706811D01*
X78220116Y-54706815D01*
X78182600Y-54846825D01*
X77520971Y-54846825D01*
X77483884Y-54708415D01*
X77482960Y-54706815D01*
X77411411Y-54582888D01*
X77411406Y-54582882D01*
X77382719Y-54554195D01*
X77349234Y-54492872D01*
X77346400Y-54466514D01*
X77346400Y-50459699D01*
X77366085Y-50392660D01*
X77382719Y-50372018D01*
X78413118Y-49341619D01*
X78474441Y-49308134D01*
X78500799Y-49305300D01*
X78541372Y-49305300D01*
X78541375Y-49305300D01*
X78681385Y-49267784D01*
X78806915Y-49195309D01*
X78909409Y-49092815D01*
X78981884Y-48967285D01*
X79019400Y-48827275D01*
X79019400Y-48682325D01*
X78981884Y-48542315D01*
X78945906Y-48480000D01*
X78909411Y-48416788D01*
X78909406Y-48416782D01*
X78806917Y-48314293D01*
X78806911Y-48314288D01*
X78681388Y-48241817D01*
X78681389Y-48241817D01*
X78669906Y-48238740D01*
X78541375Y-48204300D01*
X78396425Y-48204300D01*
X78267893Y-48238740D01*
X78256411Y-48241817D01*
X78130888Y-48314288D01*
X78130882Y-48314293D01*
X78028393Y-48416782D01*
X78028388Y-48416788D01*
X77955917Y-48542311D01*
X77955916Y-48542315D01*
X77918400Y-48682325D01*
X77918400Y-48682327D01*
X77918400Y-48722901D01*
X77898715Y-48789940D01*
X77882081Y-48810582D01*
X76670426Y-50022236D01*
X76620991Y-50107859D01*
X76620991Y-50107860D01*
X76620990Y-50107862D01*
X76595400Y-50203365D01*
X76595400Y-50203367D01*
X76595400Y-54466514D01*
X76575715Y-54533553D01*
X76559081Y-54554195D01*
X76530393Y-54582882D01*
X76530388Y-54582888D01*
X76457917Y-54708411D01*
X76457916Y-54708415D01*
X76420400Y-54848425D01*
X61335067Y-54848425D01*
X61555185Y-54776904D01*
X61772639Y-54666106D01*
X61970083Y-54522655D01*
X62142655Y-54350083D01*
X62286106Y-54152639D01*
X62396904Y-53935185D01*
X62472321Y-53703076D01*
X62510500Y-53462027D01*
X62510500Y-53217973D01*
X62472321Y-52976924D01*
X62396904Y-52744815D01*
X62286106Y-52527361D01*
X62161015Y-52355187D01*
X62142660Y-52329923D01*
X62142656Y-52329918D01*
X61970081Y-52157343D01*
X61970076Y-52157339D01*
X61772642Y-52013896D01*
X61772641Y-52013895D01*
X61772639Y-52013894D01*
X61555185Y-51903096D01*
X61323076Y-51827679D01*
X61323074Y-51827678D01*
X61323072Y-51827678D01*
X61154769Y-51801021D01*
X61082027Y-51789500D01*
X60837973Y-51789500D01*
X60782093Y-51798350D01*
X60596927Y-51827678D01*
X60596924Y-51827679D01*
X60417533Y-51885967D01*
X60364812Y-51903097D01*
X60147357Y-52013896D01*
X59949923Y-52157339D01*
X59949918Y-52157343D01*
X59777343Y-52329918D01*
X59777339Y-52329923D01*
X59633896Y-52527357D01*
X59523097Y-52744812D01*
X59523096Y-52744814D01*
X59523096Y-52744815D01*
X59447679Y-52976924D01*
X59409500Y-53217973D01*
X53840500Y-53217973D01*
X53840500Y-41477973D01*
X153449500Y-41477973D01*
X153449500Y-41722026D01*
X153487678Y-41963072D01*
X153563097Y-42195187D01*
X153673896Y-42412642D01*
X153817339Y-42610076D01*
X153817343Y-42610081D01*
X153989918Y-42782656D01*
X153989923Y-42782660D01*
X154162136Y-42907779D01*
X154187361Y-42926106D01*
X154404815Y-43036904D01*
X154636924Y-43112321D01*
X154877973Y-43150500D01*
X154877974Y-43150500D01*
X155122026Y-43150500D01*
X155122027Y-43150500D01*
X155363076Y-43112321D01*
X155595185Y-43036904D01*
X155812639Y-42926106D01*
X156010083Y-42782655D01*
X156182655Y-42610083D01*
X156326106Y-42412639D01*
X156436904Y-42195185D01*
X156512321Y-41963076D01*
X156550500Y-41722027D01*
X156550500Y-41477973D01*
X156512321Y-41236924D01*
X156436904Y-41004815D01*
X156326106Y-40787361D01*
X156307779Y-40762136D01*
X156182660Y-40589923D01*
X156182656Y-40589918D01*
X156010081Y-40417343D01*
X156010076Y-40417339D01*
X155812642Y-40273896D01*
X155812641Y-40273895D01*
X155812639Y-40273894D01*
X155595185Y-40163096D01*
X155363076Y-40087679D01*
X155363074Y-40087678D01*
X155363072Y-40087678D01*
X155194769Y-40061021D01*
X155122027Y-40049500D01*
X154877973Y-40049500D01*
X154822093Y-40058350D01*
X154636927Y-40087678D01*
X154404812Y-40163097D01*
X154187357Y-40273896D01*
X153989923Y-40417339D01*
X153989918Y-40417343D01*
X153817343Y-40589918D01*
X153817339Y-40589923D01*
X153673896Y-40787357D01*
X153563097Y-41004812D01*
X153487678Y-41236927D01*
X153449500Y-41477973D01*
X53840500Y-41477973D01*
X53840500Y-36184500D01*
X53860185Y-36117461D01*
X53912989Y-36071706D01*
X53964500Y-36060500D01*
X162436000Y-36060500D01*
X162503039Y-36080185D01*
G37*
%TD.AperFunction*%
%TD*%
M02*
