%TF.GenerationSoftware,KiCad,Pcbnew,9.0.7*%
%TF.CreationDate,2026-02-19T18:08:01-05:00*%
%TF.ProjectId,low volt board - NL  S-3C-v2,6c6f7720-766f-46c7-9420-626f61726420,rev?*%
%TF.SameCoordinates,Original*%
%TF.FileFunction,Paste,Top*%
%TF.FilePolarity,Positive*%
%FSLAX46Y46*%
G04 Gerber Fmt 4.6, Leading zero omitted, Abs format (unit mm)*
G04 Created by KiCad (PCBNEW 9.0.7) date 2026-02-19 18:08:01*
%MOMM*%
%LPD*%
G01*
G04 APERTURE LIST*
G04 Aperture macros list*
%AMRoundRect*
0 Rectangle with rounded corners*
0 $1 Rounding radius*
0 $2 $3 $4 $5 $6 $7 $8 $9 X,Y pos of 4 corners*
0 Add a 4 corners polygon primitive as box body*
4,1,4,$2,$3,$4,$5,$6,$7,$8,$9,$2,$3,0*
0 Add four circle primitives for the rounded corners*
1,1,$1+$1,$2,$3*
1,1,$1+$1,$4,$5*
1,1,$1+$1,$6,$7*
1,1,$1+$1,$8,$9*
0 Add four rect primitives between the rounded corners*
20,1,$1+$1,$2,$3,$4,$5,0*
20,1,$1+$1,$4,$5,$6,$7,0*
20,1,$1+$1,$6,$7,$8,$9,0*
20,1,$1+$1,$8,$9,$2,$3,0*%
G04 Aperture macros list end*
%ADD10RoundRect,0.150000X0.662500X0.150000X-0.662500X0.150000X-0.662500X-0.150000X0.662500X-0.150000X0*%
%ADD11RoundRect,0.250000X-0.262500X-0.450000X0.262500X-0.450000X0.262500X0.450000X-0.262500X0.450000X0*%
%ADD12R,1.100000X0.250000*%
%ADD13RoundRect,0.250000X0.262500X0.450000X-0.262500X0.450000X-0.262500X-0.450000X0.262500X-0.450000X0*%
%ADD14RoundRect,0.243750X0.243750X0.456250X-0.243750X0.456250X-0.243750X-0.456250X0.243750X-0.456250X0*%
%ADD15RoundRect,0.250000X-0.475000X0.250000X-0.475000X-0.250000X0.475000X-0.250000X0.475000X0.250000X0*%
%ADD16RoundRect,0.150000X-0.587500X-0.150000X0.587500X-0.150000X0.587500X0.150000X-0.587500X0.150000X0*%
%ADD17RoundRect,0.250000X0.475000X-0.250000X0.475000X0.250000X-0.475000X0.250000X-0.475000X-0.250000X0*%
%ADD18RoundRect,0.250000X0.450000X-0.262500X0.450000X0.262500X-0.450000X0.262500X-0.450000X-0.262500X0*%
%ADD19RoundRect,0.150000X0.500000X-0.150000X0.500000X0.150000X-0.500000X0.150000X-0.500000X-0.150000X0*%
%ADD20RoundRect,0.175000X0.175000X-0.350000X0.175000X0.350000X-0.175000X0.350000X-0.175000X-0.350000X0*%
%ADD21RoundRect,0.250000X-0.450000X0.262500X-0.450000X-0.262500X0.450000X-0.262500X0.450000X0.262500X0*%
%ADD22R,2.300000X2.300000*%
G04 APERTURE END LIST*
D10*
%TO.C,U3-Opto1*%
X81927500Y-59055000D03*
X81927500Y-57785000D03*
X75552500Y-57785000D03*
X75552500Y-59055000D03*
%TD*%
D11*
%TO.C,R2-Throw-A1*%
X88895000Y-78830000D03*
X90720000Y-78830000D03*
%TD*%
D12*
%TO.C,U1*%
X123500000Y-77726000D03*
X123500000Y-78226000D03*
X123500000Y-78726000D03*
X123500000Y-79226000D03*
X123500000Y-79726000D03*
X127800000Y-79726000D03*
X127800000Y-79226000D03*
X127800000Y-78726000D03*
X127800000Y-78226000D03*
X127800000Y-77726000D03*
%TD*%
D13*
%TO.C,R1-Buzzer1*%
X130202500Y-67090000D03*
X128377500Y-67090000D03*
%TD*%
D11*
%TO.C,R5*%
X117935000Y-93966000D03*
X119760000Y-93966000D03*
%TD*%
D14*
%TO.C,D1-Opto1*%
X74250000Y-49000000D03*
X72375000Y-49000000D03*
%TD*%
D11*
%TO.C,R3-ThrowB1*%
X88895000Y-68670000D03*
X90720000Y-68670000D03*
%TD*%
%TO.C,R18-A1-2*%
X141860000Y-83656000D03*
X143685000Y-83656000D03*
%TD*%
D13*
%TO.C,R9-A2-2*%
X143685000Y-93816000D03*
X141860000Y-93816000D03*
%TD*%
D15*
%TO.C,C4-3v1*%
X129090000Y-41500000D03*
X129090000Y-43400000D03*
%TD*%
D13*
%TO.C,R8-A2-1*%
X143685000Y-98896000D03*
X141860000Y-98896000D03*
%TD*%
D16*
%TO.C,Q1-Buzzer1*%
X127082500Y-61060000D03*
X127082500Y-62960000D03*
X128957500Y-62010000D03*
%TD*%
D13*
%TO.C,R7-SDA1*%
X119760000Y-101586000D03*
X117935000Y-101586000D03*
%TD*%
D17*
%TO.C,C2*%
X132520000Y-93962000D03*
X132520000Y-92062000D03*
%TD*%
D18*
%TO.C,R15-Purple1*%
X137600000Y-102498500D03*
X137600000Y-100673500D03*
%TD*%
D15*
%TO.C,C2-5v1*%
X144330000Y-41500000D03*
X144330000Y-43400000D03*
%TD*%
D19*
%TO.C,SW1*%
X86950000Y-60670000D03*
X86950000Y-57670000D03*
X86950000Y-56170000D03*
D20*
X87800000Y-62095000D03*
X90000000Y-62095000D03*
X87800000Y-54745000D03*
X90000000Y-54745000D03*
%TD*%
D17*
%TO.C,C3*%
X132520000Y-89200000D03*
X132520000Y-87300000D03*
%TD*%
%TO.C,C6*%
X132520000Y-103486000D03*
X132520000Y-101586000D03*
%TD*%
D15*
%TO.C,C5-3v1*%
X134170000Y-41500000D03*
X134170000Y-43400000D03*
%TD*%
%TO.C,C3-3v1*%
X124010000Y-41500000D03*
X124010000Y-43400000D03*
%TD*%
D21*
%TO.C,R13-Opto-GND1*%
X71120000Y-57515000D03*
X71120000Y-59340000D03*
%TD*%
D15*
%TO.C,C1-5v1*%
X139250000Y-41500000D03*
X139250000Y-43400000D03*
%TD*%
D11*
%TO.C,R16-A2-0*%
X141860000Y-103976000D03*
X143685000Y-103976000D03*
%TD*%
%TO.C,R10-A2-3*%
X141860000Y-88736000D03*
X143685000Y-88736000D03*
%TD*%
D22*
%TO.C,LS1-Buzzer1*%
X143000000Y-68100000D03*
X143000000Y-61000000D03*
X135900000Y-61000000D03*
X135900000Y-68100000D03*
%TD*%
D11*
%TO.C,R6-SCL1*%
X117935000Y-96506000D03*
X119760000Y-96506000D03*
%TD*%
%TO.C,R12-Opto-PullUp1*%
X70207500Y-53340000D03*
X72032500Y-53340000D03*
%TD*%
D17*
%TO.C,C4*%
X132520000Y-84438000D03*
X132520000Y-82538000D03*
%TD*%
%TO.C,C5*%
X132520000Y-79676000D03*
X132520000Y-77776000D03*
%TD*%
D13*
%TO.C,R11-Opto-In1*%
X83912500Y-48250000D03*
X82087500Y-48250000D03*
%TD*%
D12*
%TO.C,U2*%
X123500000Y-96879700D03*
X123500000Y-97379700D03*
X123500000Y-97879700D03*
X123500000Y-98379700D03*
X123500000Y-98879700D03*
X127800000Y-98879700D03*
X127800000Y-98379700D03*
X127800000Y-97879700D03*
X127800000Y-97379700D03*
X127800000Y-96879700D03*
%TD*%
D11*
%TO.C,R17-A1-3*%
X141860000Y-78576000D03*
X143685000Y-78576000D03*
%TD*%
D15*
%TO.C,C1*%
X132520000Y-96824000D03*
X132520000Y-98724000D03*
%TD*%
D13*
%TO.C,R4-Common1*%
X90720000Y-73750000D03*
X88895000Y-73750000D03*
%TD*%
M02*
