M48
; DRILL file {KiCad 9.0.7} date 2026-02-19T13:23:03-0500
; FORMAT={-:-/ absolute / metric / decimal}
; #@! TF.CreationDate,2026-02-19T13:23:03-05:00
; #@! TF.GenerationSoftware,Kicad,Pcbnew,9.0.7
; #@! TF.FileFunction,Plated,1,2,PTH
FMAT,2
METRIC
; #@! TA.AperFunction,Plated,PTH,ViaDrill
T1C0.300
; #@! TA.AperFunction,Plated,PTH,ComponentDrill
T2C1.000
; #@! TA.AperFunction,Plated,PTH,ComponentDrill
T3C1.300
; #@! TA.AperFunction,Plated,PTH,ComponentDrill
T4C4.300
%
G90
G05
T1
X78.469Y-58.039
X78.74Y-53.54
X81.437Y-98.98
X84.18Y-57.956
X88.286Y-71.981
X88.383Y-75.636
X92.71Y-78.74
X92.752Y-69.281
X94.236Y-61.492
X94.799Y-90.628
X115.173Y-59.877
X117.054Y-45.8
X117.054Y-69.709
X118.562Y-68.126
X121.92Y-78.74
X121.92Y-97.79
X121.95Y-77.636
X124.781Y-94.242
X125.409Y-60.572
X125.862Y-78.299
X125.992Y-95.972
X126.089Y-43.037
X126.145Y-90.612
X126.147Y-99.932
X126.179Y-102.082
X126.683Y-98.643
X126.7Y-77.459
X126.813Y-64.466
X129.245Y-63.528
X129.339Y-78.336
X131.07Y-79.563
X131.102Y-84.362
X131.102Y-89.096
X131.102Y-96.986
X131.102Y-102.676
X131.895Y-42.846
X134.863Y-93.367
X135.621Y-43.685
X139.991Y-102.735
X141.13Y-42.974
X142.944Y-43.685
X152.129Y-68.983
T2
X58.25Y-71.505
X58.25Y-74.045
X58.25Y-76.585
X58.25Y-79.125
X58.25Y-81.665
X58.25Y-84.205
X58.25Y-86.745
X58.25Y-89.285
X58.25Y-91.825
X58.25Y-94.365
X58.25Y-96.905
X58.25Y-99.445
X58.25Y-101.985
X96.76Y-50.8
X96.76Y-53.34
X96.76Y-55.88
X96.76Y-58.42
X96.76Y-60.96
X96.76Y-63.5
X96.76Y-66.04
X96.76Y-68.58
X96.76Y-71.12
X96.76Y-73.66
X96.76Y-76.2
X96.76Y-78.74
X96.76Y-81.28
X96.76Y-83.82
X96.76Y-86.36
X96.76Y-88.9
X96.76Y-91.44
X96.76Y-93.98
X96.76Y-96.52
X96.76Y-99.06
X114.3Y-50.8
X114.3Y-53.34
X114.3Y-55.88
X114.3Y-58.42
X114.3Y-60.96
X114.3Y-63.5
X114.3Y-66.04
X114.3Y-68.58
X114.3Y-71.12
X114.3Y-73.66
X114.3Y-76.2
X114.3Y-78.74
X114.3Y-81.28
X114.3Y-83.82
X114.3Y-86.36
X114.3Y-88.9
X114.3Y-91.44
X114.3Y-93.98
X114.3Y-96.52
X114.3Y-99.06
T3
X60.96Y-53.34
X60.96Y-58.42
X76.75Y-68.67
X76.75Y-73.75
X76.75Y-78.83
X132.672Y-48.215
X132.672Y-53.295
X155.0Y-41.6
X155.0Y-46.68
X155.0Y-51.76
X155.0Y-56.84
X155.0Y-61.92
X155.0Y-67.0
X155.0Y-73.515
X155.0Y-78.595
X155.0Y-83.675
X155.0Y-88.755
X155.0Y-93.835
X155.0Y-98.915
X155.0Y-103.995
T4
X64.77Y-72.39
X166.37Y-72.39
M30
