%TF.GenerationSoftware,KiCad,Pcbnew,9.0.7*%
%TF.CreationDate,2026-02-19T18:08:01-05:00*%
%TF.ProjectId,low volt board - NL  S-3C-v2,6c6f7720-766f-46c7-9420-626f61726420,rev?*%
%TF.SameCoordinates,Original*%
%TF.FileFunction,Legend,Top*%
%TF.FilePolarity,Positive*%
%FSLAX46Y46*%
G04 Gerber Fmt 4.6, Leading zero omitted, Abs format (unit mm)*
G04 Created by KiCad (PCBNEW 9.0.7) date 2026-02-19 18:08:01*
%MOMM*%
%LPD*%
G01*
G04 APERTURE LIST*
%ADD10C,0.200000*%
%ADD11C,0.150000*%
%ADD12C,0.254000*%
%ADD13C,0.120000*%
%ADD14C,0.100000*%
G04 APERTURE END LIST*
D10*
X91809673Y-101467219D02*
X91809673Y-100467219D01*
X92476339Y-100467219D02*
X92666815Y-100467219D01*
X92666815Y-100467219D02*
X92762053Y-100514838D01*
X92762053Y-100514838D02*
X92857291Y-100610076D01*
X92857291Y-100610076D02*
X92904910Y-100800552D01*
X92904910Y-100800552D02*
X92904910Y-101133885D01*
X92904910Y-101133885D02*
X92857291Y-101324361D01*
X92857291Y-101324361D02*
X92762053Y-101419600D01*
X92762053Y-101419600D02*
X92666815Y-101467219D01*
X92666815Y-101467219D02*
X92476339Y-101467219D01*
X92476339Y-101467219D02*
X92381101Y-101419600D01*
X92381101Y-101419600D02*
X92285863Y-101324361D01*
X92285863Y-101324361D02*
X92238244Y-101133885D01*
X92238244Y-101133885D02*
X92238244Y-100800552D01*
X92238244Y-100800552D02*
X92285863Y-100610076D01*
X92285863Y-100610076D02*
X92381101Y-100514838D01*
X92381101Y-100514838D02*
X92476339Y-100467219D01*
X93238244Y-100467219D02*
X93857291Y-100467219D01*
X93857291Y-100467219D02*
X93523958Y-100848171D01*
X93523958Y-100848171D02*
X93666815Y-100848171D01*
X93666815Y-100848171D02*
X93762053Y-100895790D01*
X93762053Y-100895790D02*
X93809672Y-100943409D01*
X93809672Y-100943409D02*
X93857291Y-101038647D01*
X93857291Y-101038647D02*
X93857291Y-101276742D01*
X93857291Y-101276742D02*
X93809672Y-101371980D01*
X93809672Y-101371980D02*
X93762053Y-101419600D01*
X93762053Y-101419600D02*
X93666815Y-101467219D01*
X93666815Y-101467219D02*
X93381101Y-101467219D01*
X93381101Y-101467219D02*
X93285863Y-101419600D01*
X93285863Y-101419600D02*
X93238244Y-101371980D01*
X94190625Y-100467219D02*
X94809672Y-100467219D01*
X94809672Y-100467219D02*
X94476339Y-100848171D01*
X94476339Y-100848171D02*
X94619196Y-100848171D01*
X94619196Y-100848171D02*
X94714434Y-100895790D01*
X94714434Y-100895790D02*
X94762053Y-100943409D01*
X94762053Y-100943409D02*
X94809672Y-101038647D01*
X94809672Y-101038647D02*
X94809672Y-101276742D01*
X94809672Y-101276742D02*
X94762053Y-101371980D01*
X94762053Y-101371980D02*
X94714434Y-101419600D01*
X94714434Y-101419600D02*
X94619196Y-101467219D01*
X94619196Y-101467219D02*
X94333482Y-101467219D01*
X94333482Y-101467219D02*
X94238244Y-101419600D01*
X94238244Y-101419600D02*
X94190625Y-101371980D01*
X74601101Y-96291980D02*
X74553482Y-96339600D01*
X74553482Y-96339600D02*
X74410625Y-96387219D01*
X74410625Y-96387219D02*
X74315387Y-96387219D01*
X74315387Y-96387219D02*
X74172530Y-96339600D01*
X74172530Y-96339600D02*
X74077292Y-96244361D01*
X74077292Y-96244361D02*
X74029673Y-96149123D01*
X74029673Y-96149123D02*
X73982054Y-95958647D01*
X73982054Y-95958647D02*
X73982054Y-95815790D01*
X73982054Y-95815790D02*
X74029673Y-95625314D01*
X74029673Y-95625314D02*
X74077292Y-95530076D01*
X74077292Y-95530076D02*
X74172530Y-95434838D01*
X74172530Y-95434838D02*
X74315387Y-95387219D01*
X74315387Y-95387219D02*
X74410625Y-95387219D01*
X74410625Y-95387219D02*
X74553482Y-95434838D01*
X74553482Y-95434838D02*
X74601101Y-95482457D01*
X75172530Y-96387219D02*
X75077292Y-96339600D01*
X75077292Y-96339600D02*
X75029673Y-96291980D01*
X75029673Y-96291980D02*
X74982054Y-96196742D01*
X74982054Y-96196742D02*
X74982054Y-95911028D01*
X74982054Y-95911028D02*
X75029673Y-95815790D01*
X75029673Y-95815790D02*
X75077292Y-95768171D01*
X75077292Y-95768171D02*
X75172530Y-95720552D01*
X75172530Y-95720552D02*
X75315387Y-95720552D01*
X75315387Y-95720552D02*
X75410625Y-95768171D01*
X75410625Y-95768171D02*
X75458244Y-95815790D01*
X75458244Y-95815790D02*
X75505863Y-95911028D01*
X75505863Y-95911028D02*
X75505863Y-96196742D01*
X75505863Y-96196742D02*
X75458244Y-96291980D01*
X75458244Y-96291980D02*
X75410625Y-96339600D01*
X75410625Y-96339600D02*
X75315387Y-96387219D01*
X75315387Y-96387219D02*
X75172530Y-96387219D01*
X75934435Y-96387219D02*
X75934435Y-95720552D01*
X75934435Y-95815790D02*
X75982054Y-95768171D01*
X75982054Y-95768171D02*
X76077292Y-95720552D01*
X76077292Y-95720552D02*
X76220149Y-95720552D01*
X76220149Y-95720552D02*
X76315387Y-95768171D01*
X76315387Y-95768171D02*
X76363006Y-95863409D01*
X76363006Y-95863409D02*
X76363006Y-96387219D01*
X76363006Y-95863409D02*
X76410625Y-95768171D01*
X76410625Y-95768171D02*
X76505863Y-95720552D01*
X76505863Y-95720552D02*
X76648720Y-95720552D01*
X76648720Y-95720552D02*
X76743959Y-95768171D01*
X76743959Y-95768171D02*
X76791578Y-95863409D01*
X76791578Y-95863409D02*
X76791578Y-96387219D01*
X77267768Y-96387219D02*
X77267768Y-95720552D01*
X77267768Y-95815790D02*
X77315387Y-95768171D01*
X77315387Y-95768171D02*
X77410625Y-95720552D01*
X77410625Y-95720552D02*
X77553482Y-95720552D01*
X77553482Y-95720552D02*
X77648720Y-95768171D01*
X77648720Y-95768171D02*
X77696339Y-95863409D01*
X77696339Y-95863409D02*
X77696339Y-96387219D01*
X77696339Y-95863409D02*
X77743958Y-95768171D01*
X77743958Y-95768171D02*
X77839196Y-95720552D01*
X77839196Y-95720552D02*
X77982053Y-95720552D01*
X77982053Y-95720552D02*
X78077292Y-95768171D01*
X78077292Y-95768171D02*
X78124911Y-95863409D01*
X78124911Y-95863409D02*
X78124911Y-96387219D01*
X78743958Y-96387219D02*
X78648720Y-96339600D01*
X78648720Y-96339600D02*
X78601101Y-96291980D01*
X78601101Y-96291980D02*
X78553482Y-96196742D01*
X78553482Y-96196742D02*
X78553482Y-95911028D01*
X78553482Y-95911028D02*
X78601101Y-95815790D01*
X78601101Y-95815790D02*
X78648720Y-95768171D01*
X78648720Y-95768171D02*
X78743958Y-95720552D01*
X78743958Y-95720552D02*
X78886815Y-95720552D01*
X78886815Y-95720552D02*
X78982053Y-95768171D01*
X78982053Y-95768171D02*
X79029672Y-95815790D01*
X79029672Y-95815790D02*
X79077291Y-95911028D01*
X79077291Y-95911028D02*
X79077291Y-96196742D01*
X79077291Y-96196742D02*
X79029672Y-96291980D01*
X79029672Y-96291980D02*
X78982053Y-96339600D01*
X78982053Y-96339600D02*
X78886815Y-96387219D01*
X78886815Y-96387219D02*
X78743958Y-96387219D01*
X79505863Y-95720552D02*
X79505863Y-96387219D01*
X79505863Y-95815790D02*
X79553482Y-95768171D01*
X79553482Y-95768171D02*
X79648720Y-95720552D01*
X79648720Y-95720552D02*
X79791577Y-95720552D01*
X79791577Y-95720552D02*
X79886815Y-95768171D01*
X79886815Y-95768171D02*
X79934434Y-95863409D01*
X79934434Y-95863409D02*
X79934434Y-96387219D01*
X117066816Y-49667219D02*
X117400149Y-50667219D01*
X117400149Y-50667219D02*
X117733482Y-49667219D01*
X118400149Y-50143409D02*
X118543006Y-50191028D01*
X118543006Y-50191028D02*
X118590625Y-50238647D01*
X118590625Y-50238647D02*
X118638244Y-50333885D01*
X118638244Y-50333885D02*
X118638244Y-50476742D01*
X118638244Y-50476742D02*
X118590625Y-50571980D01*
X118590625Y-50571980D02*
X118543006Y-50619600D01*
X118543006Y-50619600D02*
X118447768Y-50667219D01*
X118447768Y-50667219D02*
X118066816Y-50667219D01*
X118066816Y-50667219D02*
X118066816Y-49667219D01*
X118066816Y-49667219D02*
X118400149Y-49667219D01*
X118400149Y-49667219D02*
X118495387Y-49714838D01*
X118495387Y-49714838D02*
X118543006Y-49762457D01*
X118543006Y-49762457D02*
X118590625Y-49857695D01*
X118590625Y-49857695D02*
X118590625Y-49952933D01*
X118590625Y-49952933D02*
X118543006Y-50048171D01*
X118543006Y-50048171D02*
X118495387Y-50095790D01*
X118495387Y-50095790D02*
X118400149Y-50143409D01*
X118400149Y-50143409D02*
X118066816Y-50143409D01*
X119066816Y-49667219D02*
X119066816Y-50476742D01*
X119066816Y-50476742D02*
X119114435Y-50571980D01*
X119114435Y-50571980D02*
X119162054Y-50619600D01*
X119162054Y-50619600D02*
X119257292Y-50667219D01*
X119257292Y-50667219D02*
X119447768Y-50667219D01*
X119447768Y-50667219D02*
X119543006Y-50619600D01*
X119543006Y-50619600D02*
X119590625Y-50571980D01*
X119590625Y-50571980D02*
X119638244Y-50476742D01*
X119638244Y-50476742D02*
X119638244Y-49667219D01*
X120066816Y-50619600D02*
X120209673Y-50667219D01*
X120209673Y-50667219D02*
X120447768Y-50667219D01*
X120447768Y-50667219D02*
X120543006Y-50619600D01*
X120543006Y-50619600D02*
X120590625Y-50571980D01*
X120590625Y-50571980D02*
X120638244Y-50476742D01*
X120638244Y-50476742D02*
X120638244Y-50381504D01*
X120638244Y-50381504D02*
X120590625Y-50286266D01*
X120590625Y-50286266D02*
X120543006Y-50238647D01*
X120543006Y-50238647D02*
X120447768Y-50191028D01*
X120447768Y-50191028D02*
X120257292Y-50143409D01*
X120257292Y-50143409D02*
X120162054Y-50095790D01*
X120162054Y-50095790D02*
X120114435Y-50048171D01*
X120114435Y-50048171D02*
X120066816Y-49952933D01*
X120066816Y-49952933D02*
X120066816Y-49857695D01*
X120066816Y-49857695D02*
X120114435Y-49762457D01*
X120114435Y-49762457D02*
X120162054Y-49714838D01*
X120162054Y-49714838D02*
X120257292Y-49667219D01*
X120257292Y-49667219D02*
X120495387Y-49667219D01*
X120495387Y-49667219D02*
X120638244Y-49714838D01*
X127226816Y-77607219D02*
X127560149Y-78607219D01*
X127560149Y-78607219D02*
X127893482Y-77607219D01*
X128798244Y-78511980D02*
X128750625Y-78559600D01*
X128750625Y-78559600D02*
X128607768Y-78607219D01*
X128607768Y-78607219D02*
X128512530Y-78607219D01*
X128512530Y-78607219D02*
X128369673Y-78559600D01*
X128369673Y-78559600D02*
X128274435Y-78464361D01*
X128274435Y-78464361D02*
X128226816Y-78369123D01*
X128226816Y-78369123D02*
X128179197Y-78178647D01*
X128179197Y-78178647D02*
X128179197Y-78035790D01*
X128179197Y-78035790D02*
X128226816Y-77845314D01*
X128226816Y-77845314D02*
X128274435Y-77750076D01*
X128274435Y-77750076D02*
X128369673Y-77654838D01*
X128369673Y-77654838D02*
X128512530Y-77607219D01*
X128512530Y-77607219D02*
X128607768Y-77607219D01*
X128607768Y-77607219D02*
X128750625Y-77654838D01*
X128750625Y-77654838D02*
X128798244Y-77702457D01*
X129798244Y-78511980D02*
X129750625Y-78559600D01*
X129750625Y-78559600D02*
X129607768Y-78607219D01*
X129607768Y-78607219D02*
X129512530Y-78607219D01*
X129512530Y-78607219D02*
X129369673Y-78559600D01*
X129369673Y-78559600D02*
X129274435Y-78464361D01*
X129274435Y-78464361D02*
X129226816Y-78369123D01*
X129226816Y-78369123D02*
X129179197Y-78178647D01*
X129179197Y-78178647D02*
X129179197Y-78035790D01*
X129179197Y-78035790D02*
X129226816Y-77845314D01*
X129226816Y-77845314D02*
X129274435Y-77750076D01*
X129274435Y-77750076D02*
X129369673Y-77654838D01*
X129369673Y-77654838D02*
X129512530Y-77607219D01*
X129512530Y-77607219D02*
X129607768Y-77607219D01*
X129607768Y-77607219D02*
X129750625Y-77654838D01*
X129750625Y-77654838D02*
X129798244Y-77702457D01*
X127226816Y-57287219D02*
X127560149Y-58287219D01*
X127560149Y-58287219D02*
X127893482Y-57287219D01*
X128798244Y-58191980D02*
X128750625Y-58239600D01*
X128750625Y-58239600D02*
X128607768Y-58287219D01*
X128607768Y-58287219D02*
X128512530Y-58287219D01*
X128512530Y-58287219D02*
X128369673Y-58239600D01*
X128369673Y-58239600D02*
X128274435Y-58144361D01*
X128274435Y-58144361D02*
X128226816Y-58049123D01*
X128226816Y-58049123D02*
X128179197Y-57858647D01*
X128179197Y-57858647D02*
X128179197Y-57715790D01*
X128179197Y-57715790D02*
X128226816Y-57525314D01*
X128226816Y-57525314D02*
X128274435Y-57430076D01*
X128274435Y-57430076D02*
X128369673Y-57334838D01*
X128369673Y-57334838D02*
X128512530Y-57287219D01*
X128512530Y-57287219D02*
X128607768Y-57287219D01*
X128607768Y-57287219D02*
X128750625Y-57334838D01*
X128750625Y-57334838D02*
X128798244Y-57382457D01*
X129798244Y-58191980D02*
X129750625Y-58239600D01*
X129750625Y-58239600D02*
X129607768Y-58287219D01*
X129607768Y-58287219D02*
X129512530Y-58287219D01*
X129512530Y-58287219D02*
X129369673Y-58239600D01*
X129369673Y-58239600D02*
X129274435Y-58144361D01*
X129274435Y-58144361D02*
X129226816Y-58049123D01*
X129226816Y-58049123D02*
X129179197Y-57858647D01*
X129179197Y-57858647D02*
X129179197Y-57715790D01*
X129179197Y-57715790D02*
X129226816Y-57525314D01*
X129226816Y-57525314D02*
X129274435Y-57430076D01*
X129274435Y-57430076D02*
X129369673Y-57334838D01*
X129369673Y-57334838D02*
X129512530Y-57287219D01*
X129512530Y-57287219D02*
X129607768Y-57287219D01*
X129607768Y-57287219D02*
X129750625Y-57334838D01*
X129750625Y-57334838D02*
X129798244Y-57382457D01*
X74553482Y-77654838D02*
X74458244Y-77607219D01*
X74458244Y-77607219D02*
X74315387Y-77607219D01*
X74315387Y-77607219D02*
X74172530Y-77654838D01*
X74172530Y-77654838D02*
X74077292Y-77750076D01*
X74077292Y-77750076D02*
X74029673Y-77845314D01*
X74029673Y-77845314D02*
X73982054Y-78035790D01*
X73982054Y-78035790D02*
X73982054Y-78178647D01*
X73982054Y-78178647D02*
X74029673Y-78369123D01*
X74029673Y-78369123D02*
X74077292Y-78464361D01*
X74077292Y-78464361D02*
X74172530Y-78559600D01*
X74172530Y-78559600D02*
X74315387Y-78607219D01*
X74315387Y-78607219D02*
X74410625Y-78607219D01*
X74410625Y-78607219D02*
X74553482Y-78559600D01*
X74553482Y-78559600D02*
X74601101Y-78511980D01*
X74601101Y-78511980D02*
X74601101Y-78178647D01*
X74601101Y-78178647D02*
X74410625Y-78178647D01*
X75029673Y-78607219D02*
X75029673Y-77607219D01*
X75029673Y-77607219D02*
X75601101Y-78607219D01*
X75601101Y-78607219D02*
X75601101Y-77607219D01*
X76077292Y-78607219D02*
X76077292Y-77607219D01*
X76077292Y-77607219D02*
X76315387Y-77607219D01*
X76315387Y-77607219D02*
X76458244Y-77654838D01*
X76458244Y-77654838D02*
X76553482Y-77750076D01*
X76553482Y-77750076D02*
X76601101Y-77845314D01*
X76601101Y-77845314D02*
X76648720Y-78035790D01*
X76648720Y-78035790D02*
X76648720Y-78178647D01*
X76648720Y-78178647D02*
X76601101Y-78369123D01*
X76601101Y-78369123D02*
X76553482Y-78464361D01*
X76553482Y-78464361D02*
X76458244Y-78559600D01*
X76458244Y-78559600D02*
X76315387Y-78607219D01*
X76315387Y-78607219D02*
X76077292Y-78607219D01*
X73934435Y-59827219D02*
X74553482Y-59827219D01*
X74553482Y-59827219D02*
X74220149Y-60208171D01*
X74220149Y-60208171D02*
X74363006Y-60208171D01*
X74363006Y-60208171D02*
X74458244Y-60255790D01*
X74458244Y-60255790D02*
X74505863Y-60303409D01*
X74505863Y-60303409D02*
X74553482Y-60398647D01*
X74553482Y-60398647D02*
X74553482Y-60636742D01*
X74553482Y-60636742D02*
X74505863Y-60731980D01*
X74505863Y-60731980D02*
X74458244Y-60779600D01*
X74458244Y-60779600D02*
X74363006Y-60827219D01*
X74363006Y-60827219D02*
X74077292Y-60827219D01*
X74077292Y-60827219D02*
X73982054Y-60779600D01*
X73982054Y-60779600D02*
X73934435Y-60731980D01*
X74982054Y-60731980D02*
X75029673Y-60779600D01*
X75029673Y-60779600D02*
X74982054Y-60827219D01*
X74982054Y-60827219D02*
X74934435Y-60779600D01*
X74934435Y-60779600D02*
X74982054Y-60731980D01*
X74982054Y-60731980D02*
X74982054Y-60827219D01*
X75363006Y-59827219D02*
X75982053Y-59827219D01*
X75982053Y-59827219D02*
X75648720Y-60208171D01*
X75648720Y-60208171D02*
X75791577Y-60208171D01*
X75791577Y-60208171D02*
X75886815Y-60255790D01*
X75886815Y-60255790D02*
X75934434Y-60303409D01*
X75934434Y-60303409D02*
X75982053Y-60398647D01*
X75982053Y-60398647D02*
X75982053Y-60636742D01*
X75982053Y-60636742D02*
X75934434Y-60731980D01*
X75934434Y-60731980D02*
X75886815Y-60779600D01*
X75886815Y-60779600D02*
X75791577Y-60827219D01*
X75791577Y-60827219D02*
X75505863Y-60827219D01*
X75505863Y-60827219D02*
X75410625Y-60779600D01*
X75410625Y-60779600D02*
X75363006Y-60731980D01*
X76267768Y-59827219D02*
X76601101Y-60827219D01*
X76601101Y-60827219D02*
X76934434Y-59827219D01*
D11*
X66235990Y-55779945D02*
X66235990Y-56589468D01*
X66235990Y-56589468D02*
X66283609Y-56684706D01*
X66283609Y-56684706D02*
X66331228Y-56732326D01*
X66331228Y-56732326D02*
X66426466Y-56779945D01*
X66426466Y-56779945D02*
X66616942Y-56779945D01*
X66616942Y-56779945D02*
X66712180Y-56732326D01*
X66712180Y-56732326D02*
X66759799Y-56684706D01*
X66759799Y-56684706D02*
X66807418Y-56589468D01*
X66807418Y-56589468D02*
X66807418Y-55779945D01*
X67188371Y-55779945D02*
X67807418Y-55779945D01*
X67807418Y-55779945D02*
X67474085Y-56160897D01*
X67474085Y-56160897D02*
X67616942Y-56160897D01*
X67616942Y-56160897D02*
X67712180Y-56208516D01*
X67712180Y-56208516D02*
X67759799Y-56256135D01*
X67759799Y-56256135D02*
X67807418Y-56351373D01*
X67807418Y-56351373D02*
X67807418Y-56589468D01*
X67807418Y-56589468D02*
X67759799Y-56684706D01*
X67759799Y-56684706D02*
X67712180Y-56732326D01*
X67712180Y-56732326D02*
X67616942Y-56779945D01*
X67616942Y-56779945D02*
X67331228Y-56779945D01*
X67331228Y-56779945D02*
X67235990Y-56732326D01*
X67235990Y-56732326D02*
X67188371Y-56684706D01*
X68235990Y-56398992D02*
X68997895Y-56398992D01*
X69664561Y-55779945D02*
X69855037Y-55779945D01*
X69855037Y-55779945D02*
X69950275Y-55827564D01*
X69950275Y-55827564D02*
X70045513Y-55922802D01*
X70045513Y-55922802D02*
X70093132Y-56113278D01*
X70093132Y-56113278D02*
X70093132Y-56446611D01*
X70093132Y-56446611D02*
X70045513Y-56637087D01*
X70045513Y-56637087D02*
X69950275Y-56732326D01*
X69950275Y-56732326D02*
X69855037Y-56779945D01*
X69855037Y-56779945D02*
X69664561Y-56779945D01*
X69664561Y-56779945D02*
X69569323Y-56732326D01*
X69569323Y-56732326D02*
X69474085Y-56637087D01*
X69474085Y-56637087D02*
X69426466Y-56446611D01*
X69426466Y-56446611D02*
X69426466Y-56113278D01*
X69426466Y-56113278D02*
X69474085Y-55922802D01*
X69474085Y-55922802D02*
X69569323Y-55827564D01*
X69569323Y-55827564D02*
X69664561Y-55779945D01*
X70521704Y-56113278D02*
X70521704Y-57113278D01*
X70521704Y-56160897D02*
X70616942Y-56113278D01*
X70616942Y-56113278D02*
X70807418Y-56113278D01*
X70807418Y-56113278D02*
X70902656Y-56160897D01*
X70902656Y-56160897D02*
X70950275Y-56208516D01*
X70950275Y-56208516D02*
X70997894Y-56303754D01*
X70997894Y-56303754D02*
X70997894Y-56589468D01*
X70997894Y-56589468D02*
X70950275Y-56684706D01*
X70950275Y-56684706D02*
X70902656Y-56732326D01*
X70902656Y-56732326D02*
X70807418Y-56779945D01*
X70807418Y-56779945D02*
X70616942Y-56779945D01*
X70616942Y-56779945D02*
X70521704Y-56732326D01*
X71283609Y-56113278D02*
X71664561Y-56113278D01*
X71426466Y-55779945D02*
X71426466Y-56637087D01*
X71426466Y-56637087D02*
X71474085Y-56732326D01*
X71474085Y-56732326D02*
X71569323Y-56779945D01*
X71569323Y-56779945D02*
X71664561Y-56779945D01*
X72140752Y-56779945D02*
X72045514Y-56732326D01*
X72045514Y-56732326D02*
X71997895Y-56684706D01*
X71997895Y-56684706D02*
X71950276Y-56589468D01*
X71950276Y-56589468D02*
X71950276Y-56303754D01*
X71950276Y-56303754D02*
X71997895Y-56208516D01*
X71997895Y-56208516D02*
X72045514Y-56160897D01*
X72045514Y-56160897D02*
X72140752Y-56113278D01*
X72140752Y-56113278D02*
X72283609Y-56113278D01*
X72283609Y-56113278D02*
X72378847Y-56160897D01*
X72378847Y-56160897D02*
X72426466Y-56208516D01*
X72426466Y-56208516D02*
X72474085Y-56303754D01*
X72474085Y-56303754D02*
X72474085Y-56589468D01*
X72474085Y-56589468D02*
X72426466Y-56684706D01*
X72426466Y-56684706D02*
X72378847Y-56732326D01*
X72378847Y-56732326D02*
X72283609Y-56779945D01*
X72283609Y-56779945D02*
X72140752Y-56779945D01*
X73426466Y-56779945D02*
X72855038Y-56779945D01*
X73140752Y-56779945D02*
X73140752Y-55779945D01*
X73140752Y-55779945D02*
X73045514Y-55922802D01*
X73045514Y-55922802D02*
X72950276Y-56018040D01*
X72950276Y-56018040D02*
X72855038Y-56065659D01*
X54094819Y-56213333D02*
X54809104Y-56213333D01*
X54809104Y-56213333D02*
X54951961Y-56260952D01*
X54951961Y-56260952D02*
X55047200Y-56356190D01*
X55047200Y-56356190D02*
X55094819Y-56499047D01*
X55094819Y-56499047D02*
X55094819Y-56594285D01*
X54094819Y-55308571D02*
X54094819Y-55499047D01*
X54094819Y-55499047D02*
X54142438Y-55594285D01*
X54142438Y-55594285D02*
X54190057Y-55641904D01*
X54190057Y-55641904D02*
X54332914Y-55737142D01*
X54332914Y-55737142D02*
X54523390Y-55784761D01*
X54523390Y-55784761D02*
X54904342Y-55784761D01*
X54904342Y-55784761D02*
X54999580Y-55737142D01*
X54999580Y-55737142D02*
X55047200Y-55689523D01*
X55047200Y-55689523D02*
X55094819Y-55594285D01*
X55094819Y-55594285D02*
X55094819Y-55403809D01*
X55094819Y-55403809D02*
X55047200Y-55308571D01*
X55047200Y-55308571D02*
X54999580Y-55260952D01*
X54999580Y-55260952D02*
X54904342Y-55213333D01*
X54904342Y-55213333D02*
X54666247Y-55213333D01*
X54666247Y-55213333D02*
X54571009Y-55260952D01*
X54571009Y-55260952D02*
X54523390Y-55308571D01*
X54523390Y-55308571D02*
X54475771Y-55403809D01*
X54475771Y-55403809D02*
X54475771Y-55594285D01*
X54475771Y-55594285D02*
X54523390Y-55689523D01*
X54523390Y-55689523D02*
X54571009Y-55737142D01*
X54571009Y-55737142D02*
X54666247Y-55784761D01*
X85378928Y-77634819D02*
X85045595Y-77158628D01*
X84807500Y-77634819D02*
X84807500Y-76634819D01*
X84807500Y-76634819D02*
X85188452Y-76634819D01*
X85188452Y-76634819D02*
X85283690Y-76682438D01*
X85283690Y-76682438D02*
X85331309Y-76730057D01*
X85331309Y-76730057D02*
X85378928Y-76825295D01*
X85378928Y-76825295D02*
X85378928Y-76968152D01*
X85378928Y-76968152D02*
X85331309Y-77063390D01*
X85331309Y-77063390D02*
X85283690Y-77111009D01*
X85283690Y-77111009D02*
X85188452Y-77158628D01*
X85188452Y-77158628D02*
X84807500Y-77158628D01*
X85759881Y-76730057D02*
X85807500Y-76682438D01*
X85807500Y-76682438D02*
X85902738Y-76634819D01*
X85902738Y-76634819D02*
X86140833Y-76634819D01*
X86140833Y-76634819D02*
X86236071Y-76682438D01*
X86236071Y-76682438D02*
X86283690Y-76730057D01*
X86283690Y-76730057D02*
X86331309Y-76825295D01*
X86331309Y-76825295D02*
X86331309Y-76920533D01*
X86331309Y-76920533D02*
X86283690Y-77063390D01*
X86283690Y-77063390D02*
X85712262Y-77634819D01*
X85712262Y-77634819D02*
X86331309Y-77634819D01*
X86759881Y-77253866D02*
X87521786Y-77253866D01*
X87855119Y-76634819D02*
X88426547Y-76634819D01*
X88140833Y-77634819D02*
X88140833Y-76634819D01*
X88759881Y-77634819D02*
X88759881Y-76634819D01*
X89188452Y-77634819D02*
X89188452Y-77111009D01*
X89188452Y-77111009D02*
X89140833Y-77015771D01*
X89140833Y-77015771D02*
X89045595Y-76968152D01*
X89045595Y-76968152D02*
X88902738Y-76968152D01*
X88902738Y-76968152D02*
X88807500Y-77015771D01*
X88807500Y-77015771D02*
X88759881Y-77063390D01*
X89664643Y-77634819D02*
X89664643Y-76968152D01*
X89664643Y-77158628D02*
X89712262Y-77063390D01*
X89712262Y-77063390D02*
X89759881Y-77015771D01*
X89759881Y-77015771D02*
X89855119Y-76968152D01*
X89855119Y-76968152D02*
X89950357Y-76968152D01*
X90426548Y-77634819D02*
X90331310Y-77587200D01*
X90331310Y-77587200D02*
X90283691Y-77539580D01*
X90283691Y-77539580D02*
X90236072Y-77444342D01*
X90236072Y-77444342D02*
X90236072Y-77158628D01*
X90236072Y-77158628D02*
X90283691Y-77063390D01*
X90283691Y-77063390D02*
X90331310Y-77015771D01*
X90331310Y-77015771D02*
X90426548Y-76968152D01*
X90426548Y-76968152D02*
X90569405Y-76968152D01*
X90569405Y-76968152D02*
X90664643Y-77015771D01*
X90664643Y-77015771D02*
X90712262Y-77063390D01*
X90712262Y-77063390D02*
X90759881Y-77158628D01*
X90759881Y-77158628D02*
X90759881Y-77444342D01*
X90759881Y-77444342D02*
X90712262Y-77539580D01*
X90712262Y-77539580D02*
X90664643Y-77587200D01*
X90664643Y-77587200D02*
X90569405Y-77634819D01*
X90569405Y-77634819D02*
X90426548Y-77634819D01*
X91093215Y-76968152D02*
X91283691Y-77634819D01*
X91283691Y-77634819D02*
X91474167Y-77158628D01*
X91474167Y-77158628D02*
X91664643Y-77634819D01*
X91664643Y-77634819D02*
X91855119Y-76968152D01*
X92236072Y-77253866D02*
X92997977Y-77253866D01*
X93426548Y-77349104D02*
X93902738Y-77349104D01*
X93331310Y-77634819D02*
X93664643Y-76634819D01*
X93664643Y-76634819D02*
X93997976Y-77634819D01*
X94855119Y-77634819D02*
X94283691Y-77634819D01*
X94569405Y-77634819D02*
X94569405Y-76634819D01*
X94569405Y-76634819D02*
X94474167Y-76777676D01*
X94474167Y-76777676D02*
X94378929Y-76872914D01*
X94378929Y-76872914D02*
X94283691Y-76920533D01*
X64008095Y-68144819D02*
X64008095Y-67144819D01*
X64008095Y-67621009D02*
X64579523Y-67621009D01*
X64579523Y-68144819D02*
X64579523Y-67144819D01*
X65579523Y-68144819D02*
X65008095Y-68144819D01*
X65293809Y-68144819D02*
X65293809Y-67144819D01*
X65293809Y-67144819D02*
X65198571Y-67287676D01*
X65198571Y-67287676D02*
X65103333Y-67382914D01*
X65103333Y-67382914D02*
X65008095Y-67430533D01*
X124888095Y-75630819D02*
X124888095Y-76440342D01*
X124888095Y-76440342D02*
X124935714Y-76535580D01*
X124935714Y-76535580D02*
X124983333Y-76583200D01*
X124983333Y-76583200D02*
X125078571Y-76630819D01*
X125078571Y-76630819D02*
X125269047Y-76630819D01*
X125269047Y-76630819D02*
X125364285Y-76583200D01*
X125364285Y-76583200D02*
X125411904Y-76535580D01*
X125411904Y-76535580D02*
X125459523Y-76440342D01*
X125459523Y-76440342D02*
X125459523Y-75630819D01*
X126459523Y-76630819D02*
X125888095Y-76630819D01*
X126173809Y-76630819D02*
X126173809Y-75630819D01*
X126173809Y-75630819D02*
X126078571Y-75773676D01*
X126078571Y-75773676D02*
X125983333Y-75868914D01*
X125983333Y-75868914D02*
X125888095Y-75916533D01*
X125528094Y-69194819D02*
X125194761Y-68718628D01*
X124956666Y-69194819D02*
X124956666Y-68194819D01*
X124956666Y-68194819D02*
X125337618Y-68194819D01*
X125337618Y-68194819D02*
X125432856Y-68242438D01*
X125432856Y-68242438D02*
X125480475Y-68290057D01*
X125480475Y-68290057D02*
X125528094Y-68385295D01*
X125528094Y-68385295D02*
X125528094Y-68528152D01*
X125528094Y-68528152D02*
X125480475Y-68623390D01*
X125480475Y-68623390D02*
X125432856Y-68671009D01*
X125432856Y-68671009D02*
X125337618Y-68718628D01*
X125337618Y-68718628D02*
X124956666Y-68718628D01*
X126480475Y-69194819D02*
X125909047Y-69194819D01*
X126194761Y-69194819D02*
X126194761Y-68194819D01*
X126194761Y-68194819D02*
X126099523Y-68337676D01*
X126099523Y-68337676D02*
X126004285Y-68432914D01*
X126004285Y-68432914D02*
X125909047Y-68480533D01*
X126909047Y-68813866D02*
X127670952Y-68813866D01*
X128480475Y-68671009D02*
X128623332Y-68718628D01*
X128623332Y-68718628D02*
X128670951Y-68766247D01*
X128670951Y-68766247D02*
X128718570Y-68861485D01*
X128718570Y-68861485D02*
X128718570Y-69004342D01*
X128718570Y-69004342D02*
X128670951Y-69099580D01*
X128670951Y-69099580D02*
X128623332Y-69147200D01*
X128623332Y-69147200D02*
X128528094Y-69194819D01*
X128528094Y-69194819D02*
X128147142Y-69194819D01*
X128147142Y-69194819D02*
X128147142Y-68194819D01*
X128147142Y-68194819D02*
X128480475Y-68194819D01*
X128480475Y-68194819D02*
X128575713Y-68242438D01*
X128575713Y-68242438D02*
X128623332Y-68290057D01*
X128623332Y-68290057D02*
X128670951Y-68385295D01*
X128670951Y-68385295D02*
X128670951Y-68480533D01*
X128670951Y-68480533D02*
X128623332Y-68575771D01*
X128623332Y-68575771D02*
X128575713Y-68623390D01*
X128575713Y-68623390D02*
X128480475Y-68671009D01*
X128480475Y-68671009D02*
X128147142Y-68671009D01*
X129575713Y-68528152D02*
X129575713Y-69194819D01*
X129147142Y-68528152D02*
X129147142Y-69051961D01*
X129147142Y-69051961D02*
X129194761Y-69147200D01*
X129194761Y-69147200D02*
X129289999Y-69194819D01*
X129289999Y-69194819D02*
X129432856Y-69194819D01*
X129432856Y-69194819D02*
X129528094Y-69147200D01*
X129528094Y-69147200D02*
X129575713Y-69099580D01*
X129956666Y-68528152D02*
X130480475Y-68528152D01*
X130480475Y-68528152D02*
X129956666Y-69194819D01*
X129956666Y-69194819D02*
X130480475Y-69194819D01*
X130766190Y-68528152D02*
X131289999Y-68528152D01*
X131289999Y-68528152D02*
X130766190Y-69194819D01*
X130766190Y-69194819D02*
X131289999Y-69194819D01*
X132051904Y-69147200D02*
X131956666Y-69194819D01*
X131956666Y-69194819D02*
X131766190Y-69194819D01*
X131766190Y-69194819D02*
X131670952Y-69147200D01*
X131670952Y-69147200D02*
X131623333Y-69051961D01*
X131623333Y-69051961D02*
X131623333Y-68671009D01*
X131623333Y-68671009D02*
X131670952Y-68575771D01*
X131670952Y-68575771D02*
X131766190Y-68528152D01*
X131766190Y-68528152D02*
X131956666Y-68528152D01*
X131956666Y-68528152D02*
X132051904Y-68575771D01*
X132051904Y-68575771D02*
X132099523Y-68671009D01*
X132099523Y-68671009D02*
X132099523Y-68766247D01*
X132099523Y-68766247D02*
X131623333Y-68861485D01*
X132528095Y-69194819D02*
X132528095Y-68528152D01*
X132528095Y-68718628D02*
X132575714Y-68623390D01*
X132575714Y-68623390D02*
X132623333Y-68575771D01*
X132623333Y-68575771D02*
X132718571Y-68528152D01*
X132718571Y-68528152D02*
X132813809Y-68528152D01*
X133670952Y-69194819D02*
X133099524Y-69194819D01*
X133385238Y-69194819D02*
X133385238Y-68194819D01*
X133385238Y-68194819D02*
X133290000Y-68337676D01*
X133290000Y-68337676D02*
X133194762Y-68432914D01*
X133194762Y-68432914D02*
X133099524Y-68480533D01*
X118680833Y-92770819D02*
X118347500Y-92294628D01*
X118109405Y-92770819D02*
X118109405Y-91770819D01*
X118109405Y-91770819D02*
X118490357Y-91770819D01*
X118490357Y-91770819D02*
X118585595Y-91818438D01*
X118585595Y-91818438D02*
X118633214Y-91866057D01*
X118633214Y-91866057D02*
X118680833Y-91961295D01*
X118680833Y-91961295D02*
X118680833Y-92104152D01*
X118680833Y-92104152D02*
X118633214Y-92199390D01*
X118633214Y-92199390D02*
X118585595Y-92247009D01*
X118585595Y-92247009D02*
X118490357Y-92294628D01*
X118490357Y-92294628D02*
X118109405Y-92294628D01*
X119585595Y-91770819D02*
X119109405Y-91770819D01*
X119109405Y-91770819D02*
X119061786Y-92247009D01*
X119061786Y-92247009D02*
X119109405Y-92199390D01*
X119109405Y-92199390D02*
X119204643Y-92151771D01*
X119204643Y-92151771D02*
X119442738Y-92151771D01*
X119442738Y-92151771D02*
X119537976Y-92199390D01*
X119537976Y-92199390D02*
X119585595Y-92247009D01*
X119585595Y-92247009D02*
X119633214Y-92342247D01*
X119633214Y-92342247D02*
X119633214Y-92580342D01*
X119633214Y-92580342D02*
X119585595Y-92675580D01*
X119585595Y-92675580D02*
X119537976Y-92723200D01*
X119537976Y-92723200D02*
X119442738Y-92770819D01*
X119442738Y-92770819D02*
X119204643Y-92770819D01*
X119204643Y-92770819D02*
X119109405Y-92723200D01*
X119109405Y-92723200D02*
X119061786Y-92675580D01*
X69764881Y-51104819D02*
X69764881Y-50104819D01*
X69764881Y-50104819D02*
X70002976Y-50104819D01*
X70002976Y-50104819D02*
X70145833Y-50152438D01*
X70145833Y-50152438D02*
X70241071Y-50247676D01*
X70241071Y-50247676D02*
X70288690Y-50342914D01*
X70288690Y-50342914D02*
X70336309Y-50533390D01*
X70336309Y-50533390D02*
X70336309Y-50676247D01*
X70336309Y-50676247D02*
X70288690Y-50866723D01*
X70288690Y-50866723D02*
X70241071Y-50961961D01*
X70241071Y-50961961D02*
X70145833Y-51057200D01*
X70145833Y-51057200D02*
X70002976Y-51104819D01*
X70002976Y-51104819D02*
X69764881Y-51104819D01*
X71288690Y-51104819D02*
X70717262Y-51104819D01*
X71002976Y-51104819D02*
X71002976Y-50104819D01*
X71002976Y-50104819D02*
X70907738Y-50247676D01*
X70907738Y-50247676D02*
X70812500Y-50342914D01*
X70812500Y-50342914D02*
X70717262Y-50390533D01*
X71717262Y-50723866D02*
X72479167Y-50723866D01*
X73145833Y-50104819D02*
X73336309Y-50104819D01*
X73336309Y-50104819D02*
X73431547Y-50152438D01*
X73431547Y-50152438D02*
X73526785Y-50247676D01*
X73526785Y-50247676D02*
X73574404Y-50438152D01*
X73574404Y-50438152D02*
X73574404Y-50771485D01*
X73574404Y-50771485D02*
X73526785Y-50961961D01*
X73526785Y-50961961D02*
X73431547Y-51057200D01*
X73431547Y-51057200D02*
X73336309Y-51104819D01*
X73336309Y-51104819D02*
X73145833Y-51104819D01*
X73145833Y-51104819D02*
X73050595Y-51057200D01*
X73050595Y-51057200D02*
X72955357Y-50961961D01*
X72955357Y-50961961D02*
X72907738Y-50771485D01*
X72907738Y-50771485D02*
X72907738Y-50438152D01*
X72907738Y-50438152D02*
X72955357Y-50247676D01*
X72955357Y-50247676D02*
X73050595Y-50152438D01*
X73050595Y-50152438D02*
X73145833Y-50104819D01*
X74002976Y-50438152D02*
X74002976Y-51438152D01*
X74002976Y-50485771D02*
X74098214Y-50438152D01*
X74098214Y-50438152D02*
X74288690Y-50438152D01*
X74288690Y-50438152D02*
X74383928Y-50485771D01*
X74383928Y-50485771D02*
X74431547Y-50533390D01*
X74431547Y-50533390D02*
X74479166Y-50628628D01*
X74479166Y-50628628D02*
X74479166Y-50914342D01*
X74479166Y-50914342D02*
X74431547Y-51009580D01*
X74431547Y-51009580D02*
X74383928Y-51057200D01*
X74383928Y-51057200D02*
X74288690Y-51104819D01*
X74288690Y-51104819D02*
X74098214Y-51104819D01*
X74098214Y-51104819D02*
X74002976Y-51057200D01*
X74764881Y-50438152D02*
X75145833Y-50438152D01*
X74907738Y-50104819D02*
X74907738Y-50961961D01*
X74907738Y-50961961D02*
X74955357Y-51057200D01*
X74955357Y-51057200D02*
X75050595Y-51104819D01*
X75050595Y-51104819D02*
X75145833Y-51104819D01*
X75622024Y-51104819D02*
X75526786Y-51057200D01*
X75526786Y-51057200D02*
X75479167Y-51009580D01*
X75479167Y-51009580D02*
X75431548Y-50914342D01*
X75431548Y-50914342D02*
X75431548Y-50628628D01*
X75431548Y-50628628D02*
X75479167Y-50533390D01*
X75479167Y-50533390D02*
X75526786Y-50485771D01*
X75526786Y-50485771D02*
X75622024Y-50438152D01*
X75622024Y-50438152D02*
X75764881Y-50438152D01*
X75764881Y-50438152D02*
X75860119Y-50485771D01*
X75860119Y-50485771D02*
X75907738Y-50533390D01*
X75907738Y-50533390D02*
X75955357Y-50628628D01*
X75955357Y-50628628D02*
X75955357Y-50914342D01*
X75955357Y-50914342D02*
X75907738Y-51009580D01*
X75907738Y-51009580D02*
X75860119Y-51057200D01*
X75860119Y-51057200D02*
X75764881Y-51104819D01*
X75764881Y-51104819D02*
X75622024Y-51104819D01*
X76907738Y-51104819D02*
X76336310Y-51104819D01*
X76622024Y-51104819D02*
X76622024Y-50104819D01*
X76622024Y-50104819D02*
X76526786Y-50247676D01*
X76526786Y-50247676D02*
X76431548Y-50342914D01*
X76431548Y-50342914D02*
X76336310Y-50390533D01*
X85926547Y-67474819D02*
X85593214Y-66998628D01*
X85355119Y-67474819D02*
X85355119Y-66474819D01*
X85355119Y-66474819D02*
X85736071Y-66474819D01*
X85736071Y-66474819D02*
X85831309Y-66522438D01*
X85831309Y-66522438D02*
X85878928Y-66570057D01*
X85878928Y-66570057D02*
X85926547Y-66665295D01*
X85926547Y-66665295D02*
X85926547Y-66808152D01*
X85926547Y-66808152D02*
X85878928Y-66903390D01*
X85878928Y-66903390D02*
X85831309Y-66951009D01*
X85831309Y-66951009D02*
X85736071Y-66998628D01*
X85736071Y-66998628D02*
X85355119Y-66998628D01*
X86259881Y-66474819D02*
X86878928Y-66474819D01*
X86878928Y-66474819D02*
X86545595Y-66855771D01*
X86545595Y-66855771D02*
X86688452Y-66855771D01*
X86688452Y-66855771D02*
X86783690Y-66903390D01*
X86783690Y-66903390D02*
X86831309Y-66951009D01*
X86831309Y-66951009D02*
X86878928Y-67046247D01*
X86878928Y-67046247D02*
X86878928Y-67284342D01*
X86878928Y-67284342D02*
X86831309Y-67379580D01*
X86831309Y-67379580D02*
X86783690Y-67427200D01*
X86783690Y-67427200D02*
X86688452Y-67474819D01*
X86688452Y-67474819D02*
X86402738Y-67474819D01*
X86402738Y-67474819D02*
X86307500Y-67427200D01*
X86307500Y-67427200D02*
X86259881Y-67379580D01*
X87307500Y-67093866D02*
X88069405Y-67093866D01*
X88402738Y-66474819D02*
X88974166Y-66474819D01*
X88688452Y-67474819D02*
X88688452Y-66474819D01*
X89307500Y-67474819D02*
X89307500Y-66474819D01*
X89736071Y-67474819D02*
X89736071Y-66951009D01*
X89736071Y-66951009D02*
X89688452Y-66855771D01*
X89688452Y-66855771D02*
X89593214Y-66808152D01*
X89593214Y-66808152D02*
X89450357Y-66808152D01*
X89450357Y-66808152D02*
X89355119Y-66855771D01*
X89355119Y-66855771D02*
X89307500Y-66903390D01*
X90212262Y-67474819D02*
X90212262Y-66808152D01*
X90212262Y-66998628D02*
X90259881Y-66903390D01*
X90259881Y-66903390D02*
X90307500Y-66855771D01*
X90307500Y-66855771D02*
X90402738Y-66808152D01*
X90402738Y-66808152D02*
X90497976Y-66808152D01*
X90974167Y-67474819D02*
X90878929Y-67427200D01*
X90878929Y-67427200D02*
X90831310Y-67379580D01*
X90831310Y-67379580D02*
X90783691Y-67284342D01*
X90783691Y-67284342D02*
X90783691Y-66998628D01*
X90783691Y-66998628D02*
X90831310Y-66903390D01*
X90831310Y-66903390D02*
X90878929Y-66855771D01*
X90878929Y-66855771D02*
X90974167Y-66808152D01*
X90974167Y-66808152D02*
X91117024Y-66808152D01*
X91117024Y-66808152D02*
X91212262Y-66855771D01*
X91212262Y-66855771D02*
X91259881Y-66903390D01*
X91259881Y-66903390D02*
X91307500Y-66998628D01*
X91307500Y-66998628D02*
X91307500Y-67284342D01*
X91307500Y-67284342D02*
X91259881Y-67379580D01*
X91259881Y-67379580D02*
X91212262Y-67427200D01*
X91212262Y-67427200D02*
X91117024Y-67474819D01*
X91117024Y-67474819D02*
X90974167Y-67474819D01*
X91640834Y-66808152D02*
X91831310Y-67474819D01*
X91831310Y-67474819D02*
X92021786Y-66998628D01*
X92021786Y-66998628D02*
X92212262Y-67474819D01*
X92212262Y-67474819D02*
X92402738Y-66808152D01*
X93117024Y-66951009D02*
X93259881Y-66998628D01*
X93259881Y-66998628D02*
X93307500Y-67046247D01*
X93307500Y-67046247D02*
X93355119Y-67141485D01*
X93355119Y-67141485D02*
X93355119Y-67284342D01*
X93355119Y-67284342D02*
X93307500Y-67379580D01*
X93307500Y-67379580D02*
X93259881Y-67427200D01*
X93259881Y-67427200D02*
X93164643Y-67474819D01*
X93164643Y-67474819D02*
X92783691Y-67474819D01*
X92783691Y-67474819D02*
X92783691Y-66474819D01*
X92783691Y-66474819D02*
X93117024Y-66474819D01*
X93117024Y-66474819D02*
X93212262Y-66522438D01*
X93212262Y-66522438D02*
X93259881Y-66570057D01*
X93259881Y-66570057D02*
X93307500Y-66665295D01*
X93307500Y-66665295D02*
X93307500Y-66760533D01*
X93307500Y-66760533D02*
X93259881Y-66855771D01*
X93259881Y-66855771D02*
X93212262Y-66903390D01*
X93212262Y-66903390D02*
X93117024Y-66951009D01*
X93117024Y-66951009D02*
X92783691Y-66951009D01*
X94307500Y-67474819D02*
X93736072Y-67474819D01*
X94021786Y-67474819D02*
X94021786Y-66474819D01*
X94021786Y-66474819D02*
X93926548Y-66617676D01*
X93926548Y-66617676D02*
X93831310Y-66712914D01*
X93831310Y-66712914D02*
X93736072Y-66760533D01*
X139510595Y-82460819D02*
X139177262Y-81984628D01*
X138939167Y-82460819D02*
X138939167Y-81460819D01*
X138939167Y-81460819D02*
X139320119Y-81460819D01*
X139320119Y-81460819D02*
X139415357Y-81508438D01*
X139415357Y-81508438D02*
X139462976Y-81556057D01*
X139462976Y-81556057D02*
X139510595Y-81651295D01*
X139510595Y-81651295D02*
X139510595Y-81794152D01*
X139510595Y-81794152D02*
X139462976Y-81889390D01*
X139462976Y-81889390D02*
X139415357Y-81937009D01*
X139415357Y-81937009D02*
X139320119Y-81984628D01*
X139320119Y-81984628D02*
X138939167Y-81984628D01*
X140462976Y-82460819D02*
X139891548Y-82460819D01*
X140177262Y-82460819D02*
X140177262Y-81460819D01*
X140177262Y-81460819D02*
X140082024Y-81603676D01*
X140082024Y-81603676D02*
X139986786Y-81698914D01*
X139986786Y-81698914D02*
X139891548Y-81746533D01*
X141034405Y-81889390D02*
X140939167Y-81841771D01*
X140939167Y-81841771D02*
X140891548Y-81794152D01*
X140891548Y-81794152D02*
X140843929Y-81698914D01*
X140843929Y-81698914D02*
X140843929Y-81651295D01*
X140843929Y-81651295D02*
X140891548Y-81556057D01*
X140891548Y-81556057D02*
X140939167Y-81508438D01*
X140939167Y-81508438D02*
X141034405Y-81460819D01*
X141034405Y-81460819D02*
X141224881Y-81460819D01*
X141224881Y-81460819D02*
X141320119Y-81508438D01*
X141320119Y-81508438D02*
X141367738Y-81556057D01*
X141367738Y-81556057D02*
X141415357Y-81651295D01*
X141415357Y-81651295D02*
X141415357Y-81698914D01*
X141415357Y-81698914D02*
X141367738Y-81794152D01*
X141367738Y-81794152D02*
X141320119Y-81841771D01*
X141320119Y-81841771D02*
X141224881Y-81889390D01*
X141224881Y-81889390D02*
X141034405Y-81889390D01*
X141034405Y-81889390D02*
X140939167Y-81937009D01*
X140939167Y-81937009D02*
X140891548Y-81984628D01*
X140891548Y-81984628D02*
X140843929Y-82079866D01*
X140843929Y-82079866D02*
X140843929Y-82270342D01*
X140843929Y-82270342D02*
X140891548Y-82365580D01*
X140891548Y-82365580D02*
X140939167Y-82413200D01*
X140939167Y-82413200D02*
X141034405Y-82460819D01*
X141034405Y-82460819D02*
X141224881Y-82460819D01*
X141224881Y-82460819D02*
X141320119Y-82413200D01*
X141320119Y-82413200D02*
X141367738Y-82365580D01*
X141367738Y-82365580D02*
X141415357Y-82270342D01*
X141415357Y-82270342D02*
X141415357Y-82079866D01*
X141415357Y-82079866D02*
X141367738Y-81984628D01*
X141367738Y-81984628D02*
X141320119Y-81937009D01*
X141320119Y-81937009D02*
X141224881Y-81889390D01*
X141843929Y-82079866D02*
X142605834Y-82079866D01*
X143034405Y-82175104D02*
X143510595Y-82175104D01*
X142939167Y-82460819D02*
X143272500Y-81460819D01*
X143272500Y-81460819D02*
X143605833Y-82460819D01*
X144462976Y-82460819D02*
X143891548Y-82460819D01*
X144177262Y-82460819D02*
X144177262Y-81460819D01*
X144177262Y-81460819D02*
X144082024Y-81603676D01*
X144082024Y-81603676D02*
X143986786Y-81698914D01*
X143986786Y-81698914D02*
X143891548Y-81746533D01*
X144891548Y-82079866D02*
X145653453Y-82079866D01*
X146082024Y-81556057D02*
X146129643Y-81508438D01*
X146129643Y-81508438D02*
X146224881Y-81460819D01*
X146224881Y-81460819D02*
X146462976Y-81460819D01*
X146462976Y-81460819D02*
X146558214Y-81508438D01*
X146558214Y-81508438D02*
X146605833Y-81556057D01*
X146605833Y-81556057D02*
X146653452Y-81651295D01*
X146653452Y-81651295D02*
X146653452Y-81746533D01*
X146653452Y-81746533D02*
X146605833Y-81889390D01*
X146605833Y-81889390D02*
X146034405Y-82460819D01*
X146034405Y-82460819D02*
X146653452Y-82460819D01*
X139986785Y-95920819D02*
X139653452Y-95444628D01*
X139415357Y-95920819D02*
X139415357Y-94920819D01*
X139415357Y-94920819D02*
X139796309Y-94920819D01*
X139796309Y-94920819D02*
X139891547Y-94968438D01*
X139891547Y-94968438D02*
X139939166Y-95016057D01*
X139939166Y-95016057D02*
X139986785Y-95111295D01*
X139986785Y-95111295D02*
X139986785Y-95254152D01*
X139986785Y-95254152D02*
X139939166Y-95349390D01*
X139939166Y-95349390D02*
X139891547Y-95397009D01*
X139891547Y-95397009D02*
X139796309Y-95444628D01*
X139796309Y-95444628D02*
X139415357Y-95444628D01*
X140462976Y-95920819D02*
X140653452Y-95920819D01*
X140653452Y-95920819D02*
X140748690Y-95873200D01*
X140748690Y-95873200D02*
X140796309Y-95825580D01*
X140796309Y-95825580D02*
X140891547Y-95682723D01*
X140891547Y-95682723D02*
X140939166Y-95492247D01*
X140939166Y-95492247D02*
X140939166Y-95111295D01*
X140939166Y-95111295D02*
X140891547Y-95016057D01*
X140891547Y-95016057D02*
X140843928Y-94968438D01*
X140843928Y-94968438D02*
X140748690Y-94920819D01*
X140748690Y-94920819D02*
X140558214Y-94920819D01*
X140558214Y-94920819D02*
X140462976Y-94968438D01*
X140462976Y-94968438D02*
X140415357Y-95016057D01*
X140415357Y-95016057D02*
X140367738Y-95111295D01*
X140367738Y-95111295D02*
X140367738Y-95349390D01*
X140367738Y-95349390D02*
X140415357Y-95444628D01*
X140415357Y-95444628D02*
X140462976Y-95492247D01*
X140462976Y-95492247D02*
X140558214Y-95539866D01*
X140558214Y-95539866D02*
X140748690Y-95539866D01*
X140748690Y-95539866D02*
X140843928Y-95492247D01*
X140843928Y-95492247D02*
X140891547Y-95444628D01*
X140891547Y-95444628D02*
X140939166Y-95349390D01*
X141367738Y-95539866D02*
X142129643Y-95539866D01*
X142558214Y-95635104D02*
X143034404Y-95635104D01*
X142462976Y-95920819D02*
X142796309Y-94920819D01*
X142796309Y-94920819D02*
X143129642Y-95920819D01*
X143415357Y-95016057D02*
X143462976Y-94968438D01*
X143462976Y-94968438D02*
X143558214Y-94920819D01*
X143558214Y-94920819D02*
X143796309Y-94920819D01*
X143796309Y-94920819D02*
X143891547Y-94968438D01*
X143891547Y-94968438D02*
X143939166Y-95016057D01*
X143939166Y-95016057D02*
X143986785Y-95111295D01*
X143986785Y-95111295D02*
X143986785Y-95206533D01*
X143986785Y-95206533D02*
X143939166Y-95349390D01*
X143939166Y-95349390D02*
X143367738Y-95920819D01*
X143367738Y-95920819D02*
X143986785Y-95920819D01*
X144415357Y-95539866D02*
X145177262Y-95539866D01*
X145605833Y-95016057D02*
X145653452Y-94968438D01*
X145653452Y-94968438D02*
X145748690Y-94920819D01*
X145748690Y-94920819D02*
X145986785Y-94920819D01*
X145986785Y-94920819D02*
X146082023Y-94968438D01*
X146082023Y-94968438D02*
X146129642Y-95016057D01*
X146129642Y-95016057D02*
X146177261Y-95111295D01*
X146177261Y-95111295D02*
X146177261Y-95206533D01*
X146177261Y-95206533D02*
X146129642Y-95349390D01*
X146129642Y-95349390D02*
X145558214Y-95920819D01*
X145558214Y-95920819D02*
X146177261Y-95920819D01*
X69884819Y-74083333D02*
X70599104Y-74083333D01*
X70599104Y-74083333D02*
X70741961Y-74130952D01*
X70741961Y-74130952D02*
X70837200Y-74226190D01*
X70837200Y-74226190D02*
X70884819Y-74369047D01*
X70884819Y-74369047D02*
X70884819Y-74464285D01*
X70218152Y-73178571D02*
X70884819Y-73178571D01*
X69837200Y-73416666D02*
X70551485Y-73654761D01*
X70551485Y-73654761D02*
X70551485Y-73035714D01*
X131129580Y-44569047D02*
X131177200Y-44616666D01*
X131177200Y-44616666D02*
X131224819Y-44759523D01*
X131224819Y-44759523D02*
X131224819Y-44854761D01*
X131224819Y-44854761D02*
X131177200Y-44997618D01*
X131177200Y-44997618D02*
X131081961Y-45092856D01*
X131081961Y-45092856D02*
X130986723Y-45140475D01*
X130986723Y-45140475D02*
X130796247Y-45188094D01*
X130796247Y-45188094D02*
X130653390Y-45188094D01*
X130653390Y-45188094D02*
X130462914Y-45140475D01*
X130462914Y-45140475D02*
X130367676Y-45092856D01*
X130367676Y-45092856D02*
X130272438Y-44997618D01*
X130272438Y-44997618D02*
X130224819Y-44854761D01*
X130224819Y-44854761D02*
X130224819Y-44759523D01*
X130224819Y-44759523D02*
X130272438Y-44616666D01*
X130272438Y-44616666D02*
X130320057Y-44569047D01*
X130558152Y-43711904D02*
X131224819Y-43711904D01*
X130177200Y-43949999D02*
X130891485Y-44188094D01*
X130891485Y-44188094D02*
X130891485Y-43569047D01*
X130843866Y-43188094D02*
X130843866Y-42426190D01*
X130224819Y-42045237D02*
X130224819Y-41426190D01*
X130224819Y-41426190D02*
X130605771Y-41759523D01*
X130605771Y-41759523D02*
X130605771Y-41616666D01*
X130605771Y-41616666D02*
X130653390Y-41521428D01*
X130653390Y-41521428D02*
X130701009Y-41473809D01*
X130701009Y-41473809D02*
X130796247Y-41426190D01*
X130796247Y-41426190D02*
X131034342Y-41426190D01*
X131034342Y-41426190D02*
X131129580Y-41473809D01*
X131129580Y-41473809D02*
X131177200Y-41521428D01*
X131177200Y-41521428D02*
X131224819Y-41616666D01*
X131224819Y-41616666D02*
X131224819Y-41902380D01*
X131224819Y-41902380D02*
X131177200Y-41997618D01*
X131177200Y-41997618D02*
X131129580Y-42045237D01*
X130558152Y-41092856D02*
X131224819Y-40854761D01*
X131224819Y-40854761D02*
X130558152Y-40616666D01*
X131224819Y-39711904D02*
X131224819Y-40283332D01*
X131224819Y-39997618D02*
X130224819Y-39997618D01*
X130224819Y-39997618D02*
X130367676Y-40092856D01*
X130367676Y-40092856D02*
X130462914Y-40188094D01*
X130462914Y-40188094D02*
X130510533Y-40283332D01*
X139986785Y-101000819D02*
X139653452Y-100524628D01*
X139415357Y-101000819D02*
X139415357Y-100000819D01*
X139415357Y-100000819D02*
X139796309Y-100000819D01*
X139796309Y-100000819D02*
X139891547Y-100048438D01*
X139891547Y-100048438D02*
X139939166Y-100096057D01*
X139939166Y-100096057D02*
X139986785Y-100191295D01*
X139986785Y-100191295D02*
X139986785Y-100334152D01*
X139986785Y-100334152D02*
X139939166Y-100429390D01*
X139939166Y-100429390D02*
X139891547Y-100477009D01*
X139891547Y-100477009D02*
X139796309Y-100524628D01*
X139796309Y-100524628D02*
X139415357Y-100524628D01*
X140558214Y-100429390D02*
X140462976Y-100381771D01*
X140462976Y-100381771D02*
X140415357Y-100334152D01*
X140415357Y-100334152D02*
X140367738Y-100238914D01*
X140367738Y-100238914D02*
X140367738Y-100191295D01*
X140367738Y-100191295D02*
X140415357Y-100096057D01*
X140415357Y-100096057D02*
X140462976Y-100048438D01*
X140462976Y-100048438D02*
X140558214Y-100000819D01*
X140558214Y-100000819D02*
X140748690Y-100000819D01*
X140748690Y-100000819D02*
X140843928Y-100048438D01*
X140843928Y-100048438D02*
X140891547Y-100096057D01*
X140891547Y-100096057D02*
X140939166Y-100191295D01*
X140939166Y-100191295D02*
X140939166Y-100238914D01*
X140939166Y-100238914D02*
X140891547Y-100334152D01*
X140891547Y-100334152D02*
X140843928Y-100381771D01*
X140843928Y-100381771D02*
X140748690Y-100429390D01*
X140748690Y-100429390D02*
X140558214Y-100429390D01*
X140558214Y-100429390D02*
X140462976Y-100477009D01*
X140462976Y-100477009D02*
X140415357Y-100524628D01*
X140415357Y-100524628D02*
X140367738Y-100619866D01*
X140367738Y-100619866D02*
X140367738Y-100810342D01*
X140367738Y-100810342D02*
X140415357Y-100905580D01*
X140415357Y-100905580D02*
X140462976Y-100953200D01*
X140462976Y-100953200D02*
X140558214Y-101000819D01*
X140558214Y-101000819D02*
X140748690Y-101000819D01*
X140748690Y-101000819D02*
X140843928Y-100953200D01*
X140843928Y-100953200D02*
X140891547Y-100905580D01*
X140891547Y-100905580D02*
X140939166Y-100810342D01*
X140939166Y-100810342D02*
X140939166Y-100619866D01*
X140939166Y-100619866D02*
X140891547Y-100524628D01*
X140891547Y-100524628D02*
X140843928Y-100477009D01*
X140843928Y-100477009D02*
X140748690Y-100429390D01*
X141367738Y-100619866D02*
X142129643Y-100619866D01*
X142558214Y-100715104D02*
X143034404Y-100715104D01*
X142462976Y-101000819D02*
X142796309Y-100000819D01*
X142796309Y-100000819D02*
X143129642Y-101000819D01*
X143415357Y-100096057D02*
X143462976Y-100048438D01*
X143462976Y-100048438D02*
X143558214Y-100000819D01*
X143558214Y-100000819D02*
X143796309Y-100000819D01*
X143796309Y-100000819D02*
X143891547Y-100048438D01*
X143891547Y-100048438D02*
X143939166Y-100096057D01*
X143939166Y-100096057D02*
X143986785Y-100191295D01*
X143986785Y-100191295D02*
X143986785Y-100286533D01*
X143986785Y-100286533D02*
X143939166Y-100429390D01*
X143939166Y-100429390D02*
X143367738Y-101000819D01*
X143367738Y-101000819D02*
X143986785Y-101000819D01*
X144415357Y-100619866D02*
X145177262Y-100619866D01*
X146177261Y-101000819D02*
X145605833Y-101000819D01*
X145891547Y-101000819D02*
X145891547Y-100000819D01*
X145891547Y-100000819D02*
X145796309Y-100143676D01*
X145796309Y-100143676D02*
X145701071Y-100238914D01*
X145701071Y-100238914D02*
X145605833Y-100286533D01*
X124329523Y-60160057D02*
X124234285Y-60112438D01*
X124234285Y-60112438D02*
X124139047Y-60017200D01*
X124139047Y-60017200D02*
X123996190Y-59874342D01*
X123996190Y-59874342D02*
X123900952Y-59826723D01*
X123900952Y-59826723D02*
X123805714Y-59826723D01*
X123853333Y-60064819D02*
X123758095Y-60017200D01*
X123758095Y-60017200D02*
X123662857Y-59921961D01*
X123662857Y-59921961D02*
X123615238Y-59731485D01*
X123615238Y-59731485D02*
X123615238Y-59398152D01*
X123615238Y-59398152D02*
X123662857Y-59207676D01*
X123662857Y-59207676D02*
X123758095Y-59112438D01*
X123758095Y-59112438D02*
X123853333Y-59064819D01*
X123853333Y-59064819D02*
X124043809Y-59064819D01*
X124043809Y-59064819D02*
X124139047Y-59112438D01*
X124139047Y-59112438D02*
X124234285Y-59207676D01*
X124234285Y-59207676D02*
X124281904Y-59398152D01*
X124281904Y-59398152D02*
X124281904Y-59731485D01*
X124281904Y-59731485D02*
X124234285Y-59921961D01*
X124234285Y-59921961D02*
X124139047Y-60017200D01*
X124139047Y-60017200D02*
X124043809Y-60064819D01*
X124043809Y-60064819D02*
X123853333Y-60064819D01*
X125234285Y-60064819D02*
X124662857Y-60064819D01*
X124948571Y-60064819D02*
X124948571Y-59064819D01*
X124948571Y-59064819D02*
X124853333Y-59207676D01*
X124853333Y-59207676D02*
X124758095Y-59302914D01*
X124758095Y-59302914D02*
X124662857Y-59350533D01*
X125662857Y-59683866D02*
X126424762Y-59683866D01*
X127234285Y-59541009D02*
X127377142Y-59588628D01*
X127377142Y-59588628D02*
X127424761Y-59636247D01*
X127424761Y-59636247D02*
X127472380Y-59731485D01*
X127472380Y-59731485D02*
X127472380Y-59874342D01*
X127472380Y-59874342D02*
X127424761Y-59969580D01*
X127424761Y-59969580D02*
X127377142Y-60017200D01*
X127377142Y-60017200D02*
X127281904Y-60064819D01*
X127281904Y-60064819D02*
X126900952Y-60064819D01*
X126900952Y-60064819D02*
X126900952Y-59064819D01*
X126900952Y-59064819D02*
X127234285Y-59064819D01*
X127234285Y-59064819D02*
X127329523Y-59112438D01*
X127329523Y-59112438D02*
X127377142Y-59160057D01*
X127377142Y-59160057D02*
X127424761Y-59255295D01*
X127424761Y-59255295D02*
X127424761Y-59350533D01*
X127424761Y-59350533D02*
X127377142Y-59445771D01*
X127377142Y-59445771D02*
X127329523Y-59493390D01*
X127329523Y-59493390D02*
X127234285Y-59541009D01*
X127234285Y-59541009D02*
X126900952Y-59541009D01*
X128329523Y-59398152D02*
X128329523Y-60064819D01*
X127900952Y-59398152D02*
X127900952Y-59921961D01*
X127900952Y-59921961D02*
X127948571Y-60017200D01*
X127948571Y-60017200D02*
X128043809Y-60064819D01*
X128043809Y-60064819D02*
X128186666Y-60064819D01*
X128186666Y-60064819D02*
X128281904Y-60017200D01*
X128281904Y-60017200D02*
X128329523Y-59969580D01*
X128710476Y-59398152D02*
X129234285Y-59398152D01*
X129234285Y-59398152D02*
X128710476Y-60064819D01*
X128710476Y-60064819D02*
X129234285Y-60064819D01*
X129520000Y-59398152D02*
X130043809Y-59398152D01*
X130043809Y-59398152D02*
X129520000Y-60064819D01*
X129520000Y-60064819D02*
X130043809Y-60064819D01*
X130805714Y-60017200D02*
X130710476Y-60064819D01*
X130710476Y-60064819D02*
X130520000Y-60064819D01*
X130520000Y-60064819D02*
X130424762Y-60017200D01*
X130424762Y-60017200D02*
X130377143Y-59921961D01*
X130377143Y-59921961D02*
X130377143Y-59541009D01*
X130377143Y-59541009D02*
X130424762Y-59445771D01*
X130424762Y-59445771D02*
X130520000Y-59398152D01*
X130520000Y-59398152D02*
X130710476Y-59398152D01*
X130710476Y-59398152D02*
X130805714Y-59445771D01*
X130805714Y-59445771D02*
X130853333Y-59541009D01*
X130853333Y-59541009D02*
X130853333Y-59636247D01*
X130853333Y-59636247D02*
X130377143Y-59731485D01*
X131281905Y-60064819D02*
X131281905Y-59398152D01*
X131281905Y-59588628D02*
X131329524Y-59493390D01*
X131329524Y-59493390D02*
X131377143Y-59445771D01*
X131377143Y-59445771D02*
X131472381Y-59398152D01*
X131472381Y-59398152D02*
X131567619Y-59398152D01*
X132424762Y-60064819D02*
X131853334Y-60064819D01*
X132139048Y-60064819D02*
X132139048Y-59064819D01*
X132139048Y-59064819D02*
X132043810Y-59207676D01*
X132043810Y-59207676D02*
X131948572Y-59302914D01*
X131948572Y-59302914D02*
X131853334Y-59350533D01*
X116180833Y-103690819D02*
X115847500Y-103214628D01*
X115609405Y-103690819D02*
X115609405Y-102690819D01*
X115609405Y-102690819D02*
X115990357Y-102690819D01*
X115990357Y-102690819D02*
X116085595Y-102738438D01*
X116085595Y-102738438D02*
X116133214Y-102786057D01*
X116133214Y-102786057D02*
X116180833Y-102881295D01*
X116180833Y-102881295D02*
X116180833Y-103024152D01*
X116180833Y-103024152D02*
X116133214Y-103119390D01*
X116133214Y-103119390D02*
X116085595Y-103167009D01*
X116085595Y-103167009D02*
X115990357Y-103214628D01*
X115990357Y-103214628D02*
X115609405Y-103214628D01*
X116514167Y-102690819D02*
X117180833Y-102690819D01*
X117180833Y-102690819D02*
X116752262Y-103690819D01*
X117561786Y-103309866D02*
X118323691Y-103309866D01*
X118752262Y-103643200D02*
X118895119Y-103690819D01*
X118895119Y-103690819D02*
X119133214Y-103690819D01*
X119133214Y-103690819D02*
X119228452Y-103643200D01*
X119228452Y-103643200D02*
X119276071Y-103595580D01*
X119276071Y-103595580D02*
X119323690Y-103500342D01*
X119323690Y-103500342D02*
X119323690Y-103405104D01*
X119323690Y-103405104D02*
X119276071Y-103309866D01*
X119276071Y-103309866D02*
X119228452Y-103262247D01*
X119228452Y-103262247D02*
X119133214Y-103214628D01*
X119133214Y-103214628D02*
X118942738Y-103167009D01*
X118942738Y-103167009D02*
X118847500Y-103119390D01*
X118847500Y-103119390D02*
X118799881Y-103071771D01*
X118799881Y-103071771D02*
X118752262Y-102976533D01*
X118752262Y-102976533D02*
X118752262Y-102881295D01*
X118752262Y-102881295D02*
X118799881Y-102786057D01*
X118799881Y-102786057D02*
X118847500Y-102738438D01*
X118847500Y-102738438D02*
X118942738Y-102690819D01*
X118942738Y-102690819D02*
X119180833Y-102690819D01*
X119180833Y-102690819D02*
X119323690Y-102738438D01*
X119752262Y-103690819D02*
X119752262Y-102690819D01*
X119752262Y-102690819D02*
X119990357Y-102690819D01*
X119990357Y-102690819D02*
X120133214Y-102738438D01*
X120133214Y-102738438D02*
X120228452Y-102833676D01*
X120228452Y-102833676D02*
X120276071Y-102928914D01*
X120276071Y-102928914D02*
X120323690Y-103119390D01*
X120323690Y-103119390D02*
X120323690Y-103262247D01*
X120323690Y-103262247D02*
X120276071Y-103452723D01*
X120276071Y-103452723D02*
X120228452Y-103547961D01*
X120228452Y-103547961D02*
X120133214Y-103643200D01*
X120133214Y-103643200D02*
X119990357Y-103690819D01*
X119990357Y-103690819D02*
X119752262Y-103690819D01*
X120704643Y-103405104D02*
X121180833Y-103405104D01*
X120609405Y-103690819D02*
X120942738Y-102690819D01*
X120942738Y-102690819D02*
X121276071Y-103690819D01*
X122133214Y-103690819D02*
X121561786Y-103690819D01*
X121847500Y-103690819D02*
X121847500Y-102690819D01*
X121847500Y-102690819D02*
X121752262Y-102833676D01*
X121752262Y-102833676D02*
X121657024Y-102928914D01*
X121657024Y-102928914D02*
X121561786Y-102976533D01*
X131199580Y-93178666D02*
X131247200Y-93226285D01*
X131247200Y-93226285D02*
X131294819Y-93369142D01*
X131294819Y-93369142D02*
X131294819Y-93464380D01*
X131294819Y-93464380D02*
X131247200Y-93607237D01*
X131247200Y-93607237D02*
X131151961Y-93702475D01*
X131151961Y-93702475D02*
X131056723Y-93750094D01*
X131056723Y-93750094D02*
X130866247Y-93797713D01*
X130866247Y-93797713D02*
X130723390Y-93797713D01*
X130723390Y-93797713D02*
X130532914Y-93750094D01*
X130532914Y-93750094D02*
X130437676Y-93702475D01*
X130437676Y-93702475D02*
X130342438Y-93607237D01*
X130342438Y-93607237D02*
X130294819Y-93464380D01*
X130294819Y-93464380D02*
X130294819Y-93369142D01*
X130294819Y-93369142D02*
X130342438Y-93226285D01*
X130342438Y-93226285D02*
X130390057Y-93178666D01*
X130390057Y-92797713D02*
X130342438Y-92750094D01*
X130342438Y-92750094D02*
X130294819Y-92654856D01*
X130294819Y-92654856D02*
X130294819Y-92416761D01*
X130294819Y-92416761D02*
X130342438Y-92321523D01*
X130342438Y-92321523D02*
X130390057Y-92273904D01*
X130390057Y-92273904D02*
X130485295Y-92226285D01*
X130485295Y-92226285D02*
X130580533Y-92226285D01*
X130580533Y-92226285D02*
X130723390Y-92273904D01*
X130723390Y-92273904D02*
X131294819Y-92845332D01*
X131294819Y-92845332D02*
X131294819Y-92226285D01*
X136404819Y-105728857D02*
X135928628Y-106062190D01*
X136404819Y-106300285D02*
X135404819Y-106300285D01*
X135404819Y-106300285D02*
X135404819Y-105919333D01*
X135404819Y-105919333D02*
X135452438Y-105824095D01*
X135452438Y-105824095D02*
X135500057Y-105776476D01*
X135500057Y-105776476D02*
X135595295Y-105728857D01*
X135595295Y-105728857D02*
X135738152Y-105728857D01*
X135738152Y-105728857D02*
X135833390Y-105776476D01*
X135833390Y-105776476D02*
X135881009Y-105824095D01*
X135881009Y-105824095D02*
X135928628Y-105919333D01*
X135928628Y-105919333D02*
X135928628Y-106300285D01*
X136404819Y-104776476D02*
X136404819Y-105347904D01*
X136404819Y-105062190D02*
X135404819Y-105062190D01*
X135404819Y-105062190D02*
X135547676Y-105157428D01*
X135547676Y-105157428D02*
X135642914Y-105252666D01*
X135642914Y-105252666D02*
X135690533Y-105347904D01*
X135404819Y-103871714D02*
X135404819Y-104347904D01*
X135404819Y-104347904D02*
X135881009Y-104395523D01*
X135881009Y-104395523D02*
X135833390Y-104347904D01*
X135833390Y-104347904D02*
X135785771Y-104252666D01*
X135785771Y-104252666D02*
X135785771Y-104014571D01*
X135785771Y-104014571D02*
X135833390Y-103919333D01*
X135833390Y-103919333D02*
X135881009Y-103871714D01*
X135881009Y-103871714D02*
X135976247Y-103824095D01*
X135976247Y-103824095D02*
X136214342Y-103824095D01*
X136214342Y-103824095D02*
X136309580Y-103871714D01*
X136309580Y-103871714D02*
X136357200Y-103919333D01*
X136357200Y-103919333D02*
X136404819Y-104014571D01*
X136404819Y-104014571D02*
X136404819Y-104252666D01*
X136404819Y-104252666D02*
X136357200Y-104347904D01*
X136357200Y-104347904D02*
X136309580Y-104395523D01*
X136023866Y-103395523D02*
X136023866Y-102633619D01*
X136404819Y-102157428D02*
X135404819Y-102157428D01*
X135404819Y-102157428D02*
X135404819Y-101776476D01*
X135404819Y-101776476D02*
X135452438Y-101681238D01*
X135452438Y-101681238D02*
X135500057Y-101633619D01*
X135500057Y-101633619D02*
X135595295Y-101586000D01*
X135595295Y-101586000D02*
X135738152Y-101586000D01*
X135738152Y-101586000D02*
X135833390Y-101633619D01*
X135833390Y-101633619D02*
X135881009Y-101681238D01*
X135881009Y-101681238D02*
X135928628Y-101776476D01*
X135928628Y-101776476D02*
X135928628Y-102157428D01*
X135738152Y-100728857D02*
X136404819Y-100728857D01*
X135738152Y-101157428D02*
X136261961Y-101157428D01*
X136261961Y-101157428D02*
X136357200Y-101109809D01*
X136357200Y-101109809D02*
X136404819Y-101014571D01*
X136404819Y-101014571D02*
X136404819Y-100871714D01*
X136404819Y-100871714D02*
X136357200Y-100776476D01*
X136357200Y-100776476D02*
X136309580Y-100728857D01*
X136404819Y-100252666D02*
X135738152Y-100252666D01*
X135928628Y-100252666D02*
X135833390Y-100205047D01*
X135833390Y-100205047D02*
X135785771Y-100157428D01*
X135785771Y-100157428D02*
X135738152Y-100062190D01*
X135738152Y-100062190D02*
X135738152Y-99966952D01*
X135738152Y-99633618D02*
X136738152Y-99633618D01*
X135785771Y-99633618D02*
X135738152Y-99538380D01*
X135738152Y-99538380D02*
X135738152Y-99347904D01*
X135738152Y-99347904D02*
X135785771Y-99252666D01*
X135785771Y-99252666D02*
X135833390Y-99205047D01*
X135833390Y-99205047D02*
X135928628Y-99157428D01*
X135928628Y-99157428D02*
X136214342Y-99157428D01*
X136214342Y-99157428D02*
X136309580Y-99205047D01*
X136309580Y-99205047D02*
X136357200Y-99252666D01*
X136357200Y-99252666D02*
X136404819Y-99347904D01*
X136404819Y-99347904D02*
X136404819Y-99538380D01*
X136404819Y-99538380D02*
X136357200Y-99633618D01*
X136404819Y-98585999D02*
X136357200Y-98681237D01*
X136357200Y-98681237D02*
X136261961Y-98728856D01*
X136261961Y-98728856D02*
X135404819Y-98728856D01*
X136357200Y-97824094D02*
X136404819Y-97919332D01*
X136404819Y-97919332D02*
X136404819Y-98109808D01*
X136404819Y-98109808D02*
X136357200Y-98205046D01*
X136357200Y-98205046D02*
X136261961Y-98252665D01*
X136261961Y-98252665D02*
X135881009Y-98252665D01*
X135881009Y-98252665D02*
X135785771Y-98205046D01*
X135785771Y-98205046D02*
X135738152Y-98109808D01*
X135738152Y-98109808D02*
X135738152Y-97919332D01*
X135738152Y-97919332D02*
X135785771Y-97824094D01*
X135785771Y-97824094D02*
X135881009Y-97776475D01*
X135881009Y-97776475D02*
X135976247Y-97776475D01*
X135976247Y-97776475D02*
X136071485Y-98252665D01*
X136404819Y-96824094D02*
X136404819Y-97395522D01*
X136404819Y-97109808D02*
X135404819Y-97109808D01*
X135404819Y-97109808D02*
X135547676Y-97205046D01*
X135547676Y-97205046D02*
X135642914Y-97300284D01*
X135642914Y-97300284D02*
X135690533Y-97395522D01*
X146369580Y-44569047D02*
X146417200Y-44616666D01*
X146417200Y-44616666D02*
X146464819Y-44759523D01*
X146464819Y-44759523D02*
X146464819Y-44854761D01*
X146464819Y-44854761D02*
X146417200Y-44997618D01*
X146417200Y-44997618D02*
X146321961Y-45092856D01*
X146321961Y-45092856D02*
X146226723Y-45140475D01*
X146226723Y-45140475D02*
X146036247Y-45188094D01*
X146036247Y-45188094D02*
X145893390Y-45188094D01*
X145893390Y-45188094D02*
X145702914Y-45140475D01*
X145702914Y-45140475D02*
X145607676Y-45092856D01*
X145607676Y-45092856D02*
X145512438Y-44997618D01*
X145512438Y-44997618D02*
X145464819Y-44854761D01*
X145464819Y-44854761D02*
X145464819Y-44759523D01*
X145464819Y-44759523D02*
X145512438Y-44616666D01*
X145512438Y-44616666D02*
X145560057Y-44569047D01*
X145560057Y-44188094D02*
X145512438Y-44140475D01*
X145512438Y-44140475D02*
X145464819Y-44045237D01*
X145464819Y-44045237D02*
X145464819Y-43807142D01*
X145464819Y-43807142D02*
X145512438Y-43711904D01*
X145512438Y-43711904D02*
X145560057Y-43664285D01*
X145560057Y-43664285D02*
X145655295Y-43616666D01*
X145655295Y-43616666D02*
X145750533Y-43616666D01*
X145750533Y-43616666D02*
X145893390Y-43664285D01*
X145893390Y-43664285D02*
X146464819Y-44235713D01*
X146464819Y-44235713D02*
X146464819Y-43616666D01*
X146083866Y-43188094D02*
X146083866Y-42426190D01*
X145464819Y-41473809D02*
X145464819Y-41949999D01*
X145464819Y-41949999D02*
X145941009Y-41997618D01*
X145941009Y-41997618D02*
X145893390Y-41949999D01*
X145893390Y-41949999D02*
X145845771Y-41854761D01*
X145845771Y-41854761D02*
X145845771Y-41616666D01*
X145845771Y-41616666D02*
X145893390Y-41521428D01*
X145893390Y-41521428D02*
X145941009Y-41473809D01*
X145941009Y-41473809D02*
X146036247Y-41426190D01*
X146036247Y-41426190D02*
X146274342Y-41426190D01*
X146274342Y-41426190D02*
X146369580Y-41473809D01*
X146369580Y-41473809D02*
X146417200Y-41521428D01*
X146417200Y-41521428D02*
X146464819Y-41616666D01*
X146464819Y-41616666D02*
X146464819Y-41854761D01*
X146464819Y-41854761D02*
X146417200Y-41949999D01*
X146417200Y-41949999D02*
X146369580Y-41997618D01*
X145798152Y-41092856D02*
X146464819Y-40854761D01*
X146464819Y-40854761D02*
X145798152Y-40616666D01*
X146464819Y-39711904D02*
X146464819Y-40283332D01*
X146464819Y-39997618D02*
X145464819Y-39997618D01*
X145464819Y-39997618D02*
X145607676Y-40092856D01*
X145607676Y-40092856D02*
X145702914Y-40188094D01*
X145702914Y-40188094D02*
X145750533Y-40283332D01*
X125807319Y-51088333D02*
X126521604Y-51088333D01*
X126521604Y-51088333D02*
X126664461Y-51135952D01*
X126664461Y-51135952D02*
X126759700Y-51231190D01*
X126759700Y-51231190D02*
X126807319Y-51374047D01*
X126807319Y-51374047D02*
X126807319Y-51469285D01*
X126235890Y-50469285D02*
X126188271Y-50564523D01*
X126188271Y-50564523D02*
X126140652Y-50612142D01*
X126140652Y-50612142D02*
X126045414Y-50659761D01*
X126045414Y-50659761D02*
X125997795Y-50659761D01*
X125997795Y-50659761D02*
X125902557Y-50612142D01*
X125902557Y-50612142D02*
X125854938Y-50564523D01*
X125854938Y-50564523D02*
X125807319Y-50469285D01*
X125807319Y-50469285D02*
X125807319Y-50278809D01*
X125807319Y-50278809D02*
X125854938Y-50183571D01*
X125854938Y-50183571D02*
X125902557Y-50135952D01*
X125902557Y-50135952D02*
X125997795Y-50088333D01*
X125997795Y-50088333D02*
X126045414Y-50088333D01*
X126045414Y-50088333D02*
X126140652Y-50135952D01*
X126140652Y-50135952D02*
X126188271Y-50183571D01*
X126188271Y-50183571D02*
X126235890Y-50278809D01*
X126235890Y-50278809D02*
X126235890Y-50469285D01*
X126235890Y-50469285D02*
X126283509Y-50564523D01*
X126283509Y-50564523D02*
X126331128Y-50612142D01*
X126331128Y-50612142D02*
X126426366Y-50659761D01*
X126426366Y-50659761D02*
X126616842Y-50659761D01*
X126616842Y-50659761D02*
X126712080Y-50612142D01*
X126712080Y-50612142D02*
X126759700Y-50564523D01*
X126759700Y-50564523D02*
X126807319Y-50469285D01*
X126807319Y-50469285D02*
X126807319Y-50278809D01*
X126807319Y-50278809D02*
X126759700Y-50183571D01*
X126759700Y-50183571D02*
X126712080Y-50135952D01*
X126712080Y-50135952D02*
X126616842Y-50088333D01*
X126616842Y-50088333D02*
X126426366Y-50088333D01*
X126426366Y-50088333D02*
X126331128Y-50135952D01*
X126331128Y-50135952D02*
X126283509Y-50183571D01*
X126283509Y-50183571D02*
X126235890Y-50278809D01*
X79972200Y-10788332D02*
X80019819Y-10645475D01*
X80019819Y-10645475D02*
X80019819Y-10407380D01*
X80019819Y-10407380D02*
X79972200Y-10312142D01*
X79972200Y-10312142D02*
X79924580Y-10264523D01*
X79924580Y-10264523D02*
X79829342Y-10216904D01*
X79829342Y-10216904D02*
X79734104Y-10216904D01*
X79734104Y-10216904D02*
X79638866Y-10264523D01*
X79638866Y-10264523D02*
X79591247Y-10312142D01*
X79591247Y-10312142D02*
X79543628Y-10407380D01*
X79543628Y-10407380D02*
X79496009Y-10597856D01*
X79496009Y-10597856D02*
X79448390Y-10693094D01*
X79448390Y-10693094D02*
X79400771Y-10740713D01*
X79400771Y-10740713D02*
X79305533Y-10788332D01*
X79305533Y-10788332D02*
X79210295Y-10788332D01*
X79210295Y-10788332D02*
X79115057Y-10740713D01*
X79115057Y-10740713D02*
X79067438Y-10693094D01*
X79067438Y-10693094D02*
X79019819Y-10597856D01*
X79019819Y-10597856D02*
X79019819Y-10359761D01*
X79019819Y-10359761D02*
X79067438Y-10216904D01*
X79019819Y-9883570D02*
X80019819Y-9645475D01*
X80019819Y-9645475D02*
X79305533Y-9454999D01*
X79305533Y-9454999D02*
X80019819Y-9264523D01*
X80019819Y-9264523D02*
X79019819Y-9026428D01*
X80019819Y-8121666D02*
X80019819Y-8693094D01*
X80019819Y-8407380D02*
X79019819Y-8407380D01*
X79019819Y-8407380D02*
X79162676Y-8502618D01*
X79162676Y-8502618D02*
X79257914Y-8597856D01*
X79257914Y-8597856D02*
X79305533Y-8693094D01*
X131199580Y-88416666D02*
X131247200Y-88464285D01*
X131247200Y-88464285D02*
X131294819Y-88607142D01*
X131294819Y-88607142D02*
X131294819Y-88702380D01*
X131294819Y-88702380D02*
X131247200Y-88845237D01*
X131247200Y-88845237D02*
X131151961Y-88940475D01*
X131151961Y-88940475D02*
X131056723Y-88988094D01*
X131056723Y-88988094D02*
X130866247Y-89035713D01*
X130866247Y-89035713D02*
X130723390Y-89035713D01*
X130723390Y-89035713D02*
X130532914Y-88988094D01*
X130532914Y-88988094D02*
X130437676Y-88940475D01*
X130437676Y-88940475D02*
X130342438Y-88845237D01*
X130342438Y-88845237D02*
X130294819Y-88702380D01*
X130294819Y-88702380D02*
X130294819Y-88607142D01*
X130294819Y-88607142D02*
X130342438Y-88464285D01*
X130342438Y-88464285D02*
X130390057Y-88416666D01*
X130294819Y-88083332D02*
X130294819Y-87464285D01*
X130294819Y-87464285D02*
X130675771Y-87797618D01*
X130675771Y-87797618D02*
X130675771Y-87654761D01*
X130675771Y-87654761D02*
X130723390Y-87559523D01*
X130723390Y-87559523D02*
X130771009Y-87511904D01*
X130771009Y-87511904D02*
X130866247Y-87464285D01*
X130866247Y-87464285D02*
X131104342Y-87464285D01*
X131104342Y-87464285D02*
X131199580Y-87511904D01*
X131199580Y-87511904D02*
X131247200Y-87559523D01*
X131247200Y-87559523D02*
X131294819Y-87654761D01*
X131294819Y-87654761D02*
X131294819Y-87940475D01*
X131294819Y-87940475D02*
X131247200Y-88035713D01*
X131247200Y-88035713D02*
X131199580Y-88083332D01*
X148134819Y-89088333D02*
X148849104Y-89088333D01*
X148849104Y-89088333D02*
X148991961Y-89135952D01*
X148991961Y-89135952D02*
X149087200Y-89231190D01*
X149087200Y-89231190D02*
X149134819Y-89374047D01*
X149134819Y-89374047D02*
X149134819Y-89469285D01*
X148134819Y-88135952D02*
X148134819Y-88612142D01*
X148134819Y-88612142D02*
X148611009Y-88659761D01*
X148611009Y-88659761D02*
X148563390Y-88612142D01*
X148563390Y-88612142D02*
X148515771Y-88516904D01*
X148515771Y-88516904D02*
X148515771Y-88278809D01*
X148515771Y-88278809D02*
X148563390Y-88183571D01*
X148563390Y-88183571D02*
X148611009Y-88135952D01*
X148611009Y-88135952D02*
X148706247Y-88088333D01*
X148706247Y-88088333D02*
X148944342Y-88088333D01*
X148944342Y-88088333D02*
X149039580Y-88135952D01*
X149039580Y-88135952D02*
X149087200Y-88183571D01*
X149087200Y-88183571D02*
X149134819Y-88278809D01*
X149134819Y-88278809D02*
X149134819Y-88516904D01*
X149134819Y-88516904D02*
X149087200Y-88612142D01*
X149087200Y-88612142D02*
X149039580Y-88659761D01*
X131632161Y-106168157D02*
X131679781Y-106215776D01*
X131679781Y-106215776D02*
X131727400Y-106358633D01*
X131727400Y-106358633D02*
X131727400Y-106453871D01*
X131727400Y-106453871D02*
X131679781Y-106596728D01*
X131679781Y-106596728D02*
X131584542Y-106691966D01*
X131584542Y-106691966D02*
X131489304Y-106739585D01*
X131489304Y-106739585D02*
X131298828Y-106787204D01*
X131298828Y-106787204D02*
X131155971Y-106787204D01*
X131155971Y-106787204D02*
X130965495Y-106739585D01*
X130965495Y-106739585D02*
X130870257Y-106691966D01*
X130870257Y-106691966D02*
X130775019Y-106596728D01*
X130775019Y-106596728D02*
X130727400Y-106453871D01*
X130727400Y-106453871D02*
X130727400Y-106358633D01*
X130727400Y-106358633D02*
X130775019Y-106215776D01*
X130775019Y-106215776D02*
X130822638Y-106168157D01*
X130727400Y-105311014D02*
X130727400Y-105501490D01*
X130727400Y-105501490D02*
X130775019Y-105596728D01*
X130775019Y-105596728D02*
X130822638Y-105644347D01*
X130822638Y-105644347D02*
X130965495Y-105739585D01*
X130965495Y-105739585D02*
X131155971Y-105787204D01*
X131155971Y-105787204D02*
X131536923Y-105787204D01*
X131536923Y-105787204D02*
X131632161Y-105739585D01*
X131632161Y-105739585D02*
X131679781Y-105691966D01*
X131679781Y-105691966D02*
X131727400Y-105596728D01*
X131727400Y-105596728D02*
X131727400Y-105406252D01*
X131727400Y-105406252D02*
X131679781Y-105311014D01*
X131679781Y-105311014D02*
X131632161Y-105263395D01*
X131632161Y-105263395D02*
X131536923Y-105215776D01*
X131536923Y-105215776D02*
X131298828Y-105215776D01*
X131298828Y-105215776D02*
X131203590Y-105263395D01*
X131203590Y-105263395D02*
X131155971Y-105311014D01*
X131155971Y-105311014D02*
X131108352Y-105406252D01*
X131108352Y-105406252D02*
X131108352Y-105596728D01*
X131108352Y-105596728D02*
X131155971Y-105691966D01*
X131155971Y-105691966D02*
X131203590Y-105739585D01*
X131203590Y-105739585D02*
X131298828Y-105787204D01*
X136209580Y-44569047D02*
X136257200Y-44616666D01*
X136257200Y-44616666D02*
X136304819Y-44759523D01*
X136304819Y-44759523D02*
X136304819Y-44854761D01*
X136304819Y-44854761D02*
X136257200Y-44997618D01*
X136257200Y-44997618D02*
X136161961Y-45092856D01*
X136161961Y-45092856D02*
X136066723Y-45140475D01*
X136066723Y-45140475D02*
X135876247Y-45188094D01*
X135876247Y-45188094D02*
X135733390Y-45188094D01*
X135733390Y-45188094D02*
X135542914Y-45140475D01*
X135542914Y-45140475D02*
X135447676Y-45092856D01*
X135447676Y-45092856D02*
X135352438Y-44997618D01*
X135352438Y-44997618D02*
X135304819Y-44854761D01*
X135304819Y-44854761D02*
X135304819Y-44759523D01*
X135304819Y-44759523D02*
X135352438Y-44616666D01*
X135352438Y-44616666D02*
X135400057Y-44569047D01*
X135304819Y-43664285D02*
X135304819Y-44140475D01*
X135304819Y-44140475D02*
X135781009Y-44188094D01*
X135781009Y-44188094D02*
X135733390Y-44140475D01*
X135733390Y-44140475D02*
X135685771Y-44045237D01*
X135685771Y-44045237D02*
X135685771Y-43807142D01*
X135685771Y-43807142D02*
X135733390Y-43711904D01*
X135733390Y-43711904D02*
X135781009Y-43664285D01*
X135781009Y-43664285D02*
X135876247Y-43616666D01*
X135876247Y-43616666D02*
X136114342Y-43616666D01*
X136114342Y-43616666D02*
X136209580Y-43664285D01*
X136209580Y-43664285D02*
X136257200Y-43711904D01*
X136257200Y-43711904D02*
X136304819Y-43807142D01*
X136304819Y-43807142D02*
X136304819Y-44045237D01*
X136304819Y-44045237D02*
X136257200Y-44140475D01*
X136257200Y-44140475D02*
X136209580Y-44188094D01*
X135923866Y-43188094D02*
X135923866Y-42426190D01*
X135304819Y-42045237D02*
X135304819Y-41426190D01*
X135304819Y-41426190D02*
X135685771Y-41759523D01*
X135685771Y-41759523D02*
X135685771Y-41616666D01*
X135685771Y-41616666D02*
X135733390Y-41521428D01*
X135733390Y-41521428D02*
X135781009Y-41473809D01*
X135781009Y-41473809D02*
X135876247Y-41426190D01*
X135876247Y-41426190D02*
X136114342Y-41426190D01*
X136114342Y-41426190D02*
X136209580Y-41473809D01*
X136209580Y-41473809D02*
X136257200Y-41521428D01*
X136257200Y-41521428D02*
X136304819Y-41616666D01*
X136304819Y-41616666D02*
X136304819Y-41902380D01*
X136304819Y-41902380D02*
X136257200Y-41997618D01*
X136257200Y-41997618D02*
X136209580Y-42045237D01*
X135638152Y-41092856D02*
X136304819Y-40854761D01*
X136304819Y-40854761D02*
X135638152Y-40616666D01*
X136304819Y-39711904D02*
X136304819Y-40283332D01*
X136304819Y-39997618D02*
X135304819Y-39997618D01*
X135304819Y-39997618D02*
X135447676Y-40092856D01*
X135447676Y-40092856D02*
X135542914Y-40188094D01*
X135542914Y-40188094D02*
X135590533Y-40283332D01*
X126049580Y-44569047D02*
X126097200Y-44616666D01*
X126097200Y-44616666D02*
X126144819Y-44759523D01*
X126144819Y-44759523D02*
X126144819Y-44854761D01*
X126144819Y-44854761D02*
X126097200Y-44997618D01*
X126097200Y-44997618D02*
X126001961Y-45092856D01*
X126001961Y-45092856D02*
X125906723Y-45140475D01*
X125906723Y-45140475D02*
X125716247Y-45188094D01*
X125716247Y-45188094D02*
X125573390Y-45188094D01*
X125573390Y-45188094D02*
X125382914Y-45140475D01*
X125382914Y-45140475D02*
X125287676Y-45092856D01*
X125287676Y-45092856D02*
X125192438Y-44997618D01*
X125192438Y-44997618D02*
X125144819Y-44854761D01*
X125144819Y-44854761D02*
X125144819Y-44759523D01*
X125144819Y-44759523D02*
X125192438Y-44616666D01*
X125192438Y-44616666D02*
X125240057Y-44569047D01*
X125144819Y-44235713D02*
X125144819Y-43616666D01*
X125144819Y-43616666D02*
X125525771Y-43949999D01*
X125525771Y-43949999D02*
X125525771Y-43807142D01*
X125525771Y-43807142D02*
X125573390Y-43711904D01*
X125573390Y-43711904D02*
X125621009Y-43664285D01*
X125621009Y-43664285D02*
X125716247Y-43616666D01*
X125716247Y-43616666D02*
X125954342Y-43616666D01*
X125954342Y-43616666D02*
X126049580Y-43664285D01*
X126049580Y-43664285D02*
X126097200Y-43711904D01*
X126097200Y-43711904D02*
X126144819Y-43807142D01*
X126144819Y-43807142D02*
X126144819Y-44092856D01*
X126144819Y-44092856D02*
X126097200Y-44188094D01*
X126097200Y-44188094D02*
X126049580Y-44235713D01*
X125763866Y-43188094D02*
X125763866Y-42426190D01*
X125144819Y-42045237D02*
X125144819Y-41426190D01*
X125144819Y-41426190D02*
X125525771Y-41759523D01*
X125525771Y-41759523D02*
X125525771Y-41616666D01*
X125525771Y-41616666D02*
X125573390Y-41521428D01*
X125573390Y-41521428D02*
X125621009Y-41473809D01*
X125621009Y-41473809D02*
X125716247Y-41426190D01*
X125716247Y-41426190D02*
X125954342Y-41426190D01*
X125954342Y-41426190D02*
X126049580Y-41473809D01*
X126049580Y-41473809D02*
X126097200Y-41521428D01*
X126097200Y-41521428D02*
X126144819Y-41616666D01*
X126144819Y-41616666D02*
X126144819Y-41902380D01*
X126144819Y-41902380D02*
X126097200Y-41997618D01*
X126097200Y-41997618D02*
X126049580Y-42045237D01*
X125478152Y-41092856D02*
X126144819Y-40854761D01*
X126144819Y-40854761D02*
X125478152Y-40616666D01*
X126144819Y-39711904D02*
X126144819Y-40283332D01*
X126144819Y-39997618D02*
X125144819Y-39997618D01*
X125144819Y-39997618D02*
X125287676Y-40092856D01*
X125287676Y-40092856D02*
X125382914Y-40188094D01*
X125382914Y-40188094D02*
X125430533Y-40283332D01*
X73224819Y-64022738D02*
X72748628Y-64356071D01*
X73224819Y-64594166D02*
X72224819Y-64594166D01*
X72224819Y-64594166D02*
X72224819Y-64213214D01*
X72224819Y-64213214D02*
X72272438Y-64117976D01*
X72272438Y-64117976D02*
X72320057Y-64070357D01*
X72320057Y-64070357D02*
X72415295Y-64022738D01*
X72415295Y-64022738D02*
X72558152Y-64022738D01*
X72558152Y-64022738D02*
X72653390Y-64070357D01*
X72653390Y-64070357D02*
X72701009Y-64117976D01*
X72701009Y-64117976D02*
X72748628Y-64213214D01*
X72748628Y-64213214D02*
X72748628Y-64594166D01*
X73224819Y-63070357D02*
X73224819Y-63641785D01*
X73224819Y-63356071D02*
X72224819Y-63356071D01*
X72224819Y-63356071D02*
X72367676Y-63451309D01*
X72367676Y-63451309D02*
X72462914Y-63546547D01*
X72462914Y-63546547D02*
X72510533Y-63641785D01*
X72224819Y-62737023D02*
X72224819Y-62117976D01*
X72224819Y-62117976D02*
X72605771Y-62451309D01*
X72605771Y-62451309D02*
X72605771Y-62308452D01*
X72605771Y-62308452D02*
X72653390Y-62213214D01*
X72653390Y-62213214D02*
X72701009Y-62165595D01*
X72701009Y-62165595D02*
X72796247Y-62117976D01*
X72796247Y-62117976D02*
X73034342Y-62117976D01*
X73034342Y-62117976D02*
X73129580Y-62165595D01*
X73129580Y-62165595D02*
X73177200Y-62213214D01*
X73177200Y-62213214D02*
X73224819Y-62308452D01*
X73224819Y-62308452D02*
X73224819Y-62594166D01*
X73224819Y-62594166D02*
X73177200Y-62689404D01*
X73177200Y-62689404D02*
X73129580Y-62737023D01*
X72843866Y-61689404D02*
X72843866Y-60927500D01*
X72224819Y-60260833D02*
X72224819Y-60070357D01*
X72224819Y-60070357D02*
X72272438Y-59975119D01*
X72272438Y-59975119D02*
X72367676Y-59879881D01*
X72367676Y-59879881D02*
X72558152Y-59832262D01*
X72558152Y-59832262D02*
X72891485Y-59832262D01*
X72891485Y-59832262D02*
X73081961Y-59879881D01*
X73081961Y-59879881D02*
X73177200Y-59975119D01*
X73177200Y-59975119D02*
X73224819Y-60070357D01*
X73224819Y-60070357D02*
X73224819Y-60260833D01*
X73224819Y-60260833D02*
X73177200Y-60356071D01*
X73177200Y-60356071D02*
X73081961Y-60451309D01*
X73081961Y-60451309D02*
X72891485Y-60498928D01*
X72891485Y-60498928D02*
X72558152Y-60498928D01*
X72558152Y-60498928D02*
X72367676Y-60451309D01*
X72367676Y-60451309D02*
X72272438Y-60356071D01*
X72272438Y-60356071D02*
X72224819Y-60260833D01*
X72558152Y-59403690D02*
X73558152Y-59403690D01*
X72605771Y-59403690D02*
X72558152Y-59308452D01*
X72558152Y-59308452D02*
X72558152Y-59117976D01*
X72558152Y-59117976D02*
X72605771Y-59022738D01*
X72605771Y-59022738D02*
X72653390Y-58975119D01*
X72653390Y-58975119D02*
X72748628Y-58927500D01*
X72748628Y-58927500D02*
X73034342Y-58927500D01*
X73034342Y-58927500D02*
X73129580Y-58975119D01*
X73129580Y-58975119D02*
X73177200Y-59022738D01*
X73177200Y-59022738D02*
X73224819Y-59117976D01*
X73224819Y-59117976D02*
X73224819Y-59308452D01*
X73224819Y-59308452D02*
X73177200Y-59403690D01*
X72558152Y-58641785D02*
X72558152Y-58260833D01*
X72224819Y-58498928D02*
X73081961Y-58498928D01*
X73081961Y-58498928D02*
X73177200Y-58451309D01*
X73177200Y-58451309D02*
X73224819Y-58356071D01*
X73224819Y-58356071D02*
X73224819Y-58260833D01*
X73224819Y-57784642D02*
X73177200Y-57879880D01*
X73177200Y-57879880D02*
X73129580Y-57927499D01*
X73129580Y-57927499D02*
X73034342Y-57975118D01*
X73034342Y-57975118D02*
X72748628Y-57975118D01*
X72748628Y-57975118D02*
X72653390Y-57927499D01*
X72653390Y-57927499D02*
X72605771Y-57879880D01*
X72605771Y-57879880D02*
X72558152Y-57784642D01*
X72558152Y-57784642D02*
X72558152Y-57641785D01*
X72558152Y-57641785D02*
X72605771Y-57546547D01*
X72605771Y-57546547D02*
X72653390Y-57498928D01*
X72653390Y-57498928D02*
X72748628Y-57451309D01*
X72748628Y-57451309D02*
X73034342Y-57451309D01*
X73034342Y-57451309D02*
X73129580Y-57498928D01*
X73129580Y-57498928D02*
X73177200Y-57546547D01*
X73177200Y-57546547D02*
X73224819Y-57641785D01*
X73224819Y-57641785D02*
X73224819Y-57784642D01*
X72843866Y-57022737D02*
X72843866Y-56260833D01*
X72272438Y-55260833D02*
X72224819Y-55356071D01*
X72224819Y-55356071D02*
X72224819Y-55498928D01*
X72224819Y-55498928D02*
X72272438Y-55641785D01*
X72272438Y-55641785D02*
X72367676Y-55737023D01*
X72367676Y-55737023D02*
X72462914Y-55784642D01*
X72462914Y-55784642D02*
X72653390Y-55832261D01*
X72653390Y-55832261D02*
X72796247Y-55832261D01*
X72796247Y-55832261D02*
X72986723Y-55784642D01*
X72986723Y-55784642D02*
X73081961Y-55737023D01*
X73081961Y-55737023D02*
X73177200Y-55641785D01*
X73177200Y-55641785D02*
X73224819Y-55498928D01*
X73224819Y-55498928D02*
X73224819Y-55403690D01*
X73224819Y-55403690D02*
X73177200Y-55260833D01*
X73177200Y-55260833D02*
X73129580Y-55213214D01*
X73129580Y-55213214D02*
X72796247Y-55213214D01*
X72796247Y-55213214D02*
X72796247Y-55403690D01*
X73224819Y-54784642D02*
X72224819Y-54784642D01*
X72224819Y-54784642D02*
X73224819Y-54213214D01*
X73224819Y-54213214D02*
X72224819Y-54213214D01*
X73224819Y-53737023D02*
X72224819Y-53737023D01*
X72224819Y-53737023D02*
X72224819Y-53498928D01*
X72224819Y-53498928D02*
X72272438Y-53356071D01*
X72272438Y-53356071D02*
X72367676Y-53260833D01*
X72367676Y-53260833D02*
X72462914Y-53213214D01*
X72462914Y-53213214D02*
X72653390Y-53165595D01*
X72653390Y-53165595D02*
X72796247Y-53165595D01*
X72796247Y-53165595D02*
X72986723Y-53213214D01*
X72986723Y-53213214D02*
X73081961Y-53260833D01*
X73081961Y-53260833D02*
X73177200Y-53356071D01*
X73177200Y-53356071D02*
X73224819Y-53498928D01*
X73224819Y-53498928D02*
X73224819Y-53737023D01*
X73224819Y-52213214D02*
X73224819Y-52784642D01*
X73224819Y-52498928D02*
X72224819Y-52498928D01*
X72224819Y-52498928D02*
X72367676Y-52594166D01*
X72367676Y-52594166D02*
X72462914Y-52689404D01*
X72462914Y-52689404D02*
X72510533Y-52784642D01*
X97696666Y-47874819D02*
X97696666Y-48589104D01*
X97696666Y-48589104D02*
X97649047Y-48731961D01*
X97649047Y-48731961D02*
X97553809Y-48827200D01*
X97553809Y-48827200D02*
X97410952Y-48874819D01*
X97410952Y-48874819D02*
X97315714Y-48874819D01*
X98696666Y-48874819D02*
X98125238Y-48874819D01*
X98410952Y-48874819D02*
X98410952Y-47874819D01*
X98410952Y-47874819D02*
X98315714Y-48017676D01*
X98315714Y-48017676D02*
X98220476Y-48112914D01*
X98220476Y-48112914D02*
X98125238Y-48160533D01*
X141289580Y-44569047D02*
X141337200Y-44616666D01*
X141337200Y-44616666D02*
X141384819Y-44759523D01*
X141384819Y-44759523D02*
X141384819Y-44854761D01*
X141384819Y-44854761D02*
X141337200Y-44997618D01*
X141337200Y-44997618D02*
X141241961Y-45092856D01*
X141241961Y-45092856D02*
X141146723Y-45140475D01*
X141146723Y-45140475D02*
X140956247Y-45188094D01*
X140956247Y-45188094D02*
X140813390Y-45188094D01*
X140813390Y-45188094D02*
X140622914Y-45140475D01*
X140622914Y-45140475D02*
X140527676Y-45092856D01*
X140527676Y-45092856D02*
X140432438Y-44997618D01*
X140432438Y-44997618D02*
X140384819Y-44854761D01*
X140384819Y-44854761D02*
X140384819Y-44759523D01*
X140384819Y-44759523D02*
X140432438Y-44616666D01*
X140432438Y-44616666D02*
X140480057Y-44569047D01*
X141384819Y-43616666D02*
X141384819Y-44188094D01*
X141384819Y-43902380D02*
X140384819Y-43902380D01*
X140384819Y-43902380D02*
X140527676Y-43997618D01*
X140527676Y-43997618D02*
X140622914Y-44092856D01*
X140622914Y-44092856D02*
X140670533Y-44188094D01*
X141003866Y-43188094D02*
X141003866Y-42426190D01*
X140384819Y-41473809D02*
X140384819Y-41949999D01*
X140384819Y-41949999D02*
X140861009Y-41997618D01*
X140861009Y-41997618D02*
X140813390Y-41949999D01*
X140813390Y-41949999D02*
X140765771Y-41854761D01*
X140765771Y-41854761D02*
X140765771Y-41616666D01*
X140765771Y-41616666D02*
X140813390Y-41521428D01*
X140813390Y-41521428D02*
X140861009Y-41473809D01*
X140861009Y-41473809D02*
X140956247Y-41426190D01*
X140956247Y-41426190D02*
X141194342Y-41426190D01*
X141194342Y-41426190D02*
X141289580Y-41473809D01*
X141289580Y-41473809D02*
X141337200Y-41521428D01*
X141337200Y-41521428D02*
X141384819Y-41616666D01*
X141384819Y-41616666D02*
X141384819Y-41854761D01*
X141384819Y-41854761D02*
X141337200Y-41949999D01*
X141337200Y-41949999D02*
X141289580Y-41997618D01*
X140718152Y-41092856D02*
X141384819Y-40854761D01*
X141384819Y-40854761D02*
X140718152Y-40616666D01*
X141384819Y-39711904D02*
X141384819Y-40283332D01*
X141384819Y-39997618D02*
X140384819Y-39997618D01*
X140384819Y-39997618D02*
X140527676Y-40092856D01*
X140527676Y-40092856D02*
X140622914Y-40188094D01*
X140622914Y-40188094D02*
X140670533Y-40283332D01*
X139510595Y-102780819D02*
X139177262Y-102304628D01*
X138939167Y-102780819D02*
X138939167Y-101780819D01*
X138939167Y-101780819D02*
X139320119Y-101780819D01*
X139320119Y-101780819D02*
X139415357Y-101828438D01*
X139415357Y-101828438D02*
X139462976Y-101876057D01*
X139462976Y-101876057D02*
X139510595Y-101971295D01*
X139510595Y-101971295D02*
X139510595Y-102114152D01*
X139510595Y-102114152D02*
X139462976Y-102209390D01*
X139462976Y-102209390D02*
X139415357Y-102257009D01*
X139415357Y-102257009D02*
X139320119Y-102304628D01*
X139320119Y-102304628D02*
X138939167Y-102304628D01*
X140462976Y-102780819D02*
X139891548Y-102780819D01*
X140177262Y-102780819D02*
X140177262Y-101780819D01*
X140177262Y-101780819D02*
X140082024Y-101923676D01*
X140082024Y-101923676D02*
X139986786Y-102018914D01*
X139986786Y-102018914D02*
X139891548Y-102066533D01*
X141320119Y-101780819D02*
X141129643Y-101780819D01*
X141129643Y-101780819D02*
X141034405Y-101828438D01*
X141034405Y-101828438D02*
X140986786Y-101876057D01*
X140986786Y-101876057D02*
X140891548Y-102018914D01*
X140891548Y-102018914D02*
X140843929Y-102209390D01*
X140843929Y-102209390D02*
X140843929Y-102590342D01*
X140843929Y-102590342D02*
X140891548Y-102685580D01*
X140891548Y-102685580D02*
X140939167Y-102733200D01*
X140939167Y-102733200D02*
X141034405Y-102780819D01*
X141034405Y-102780819D02*
X141224881Y-102780819D01*
X141224881Y-102780819D02*
X141320119Y-102733200D01*
X141320119Y-102733200D02*
X141367738Y-102685580D01*
X141367738Y-102685580D02*
X141415357Y-102590342D01*
X141415357Y-102590342D02*
X141415357Y-102352247D01*
X141415357Y-102352247D02*
X141367738Y-102257009D01*
X141367738Y-102257009D02*
X141320119Y-102209390D01*
X141320119Y-102209390D02*
X141224881Y-102161771D01*
X141224881Y-102161771D02*
X141034405Y-102161771D01*
X141034405Y-102161771D02*
X140939167Y-102209390D01*
X140939167Y-102209390D02*
X140891548Y-102257009D01*
X140891548Y-102257009D02*
X140843929Y-102352247D01*
X141843929Y-102399866D02*
X142605834Y-102399866D01*
X143034405Y-102495104D02*
X143510595Y-102495104D01*
X142939167Y-102780819D02*
X143272500Y-101780819D01*
X143272500Y-101780819D02*
X143605833Y-102780819D01*
X143891548Y-101876057D02*
X143939167Y-101828438D01*
X143939167Y-101828438D02*
X144034405Y-101780819D01*
X144034405Y-101780819D02*
X144272500Y-101780819D01*
X144272500Y-101780819D02*
X144367738Y-101828438D01*
X144367738Y-101828438D02*
X144415357Y-101876057D01*
X144415357Y-101876057D02*
X144462976Y-101971295D01*
X144462976Y-101971295D02*
X144462976Y-102066533D01*
X144462976Y-102066533D02*
X144415357Y-102209390D01*
X144415357Y-102209390D02*
X143843929Y-102780819D01*
X143843929Y-102780819D02*
X144462976Y-102780819D01*
X144891548Y-102399866D02*
X145653453Y-102399866D01*
X146320119Y-101780819D02*
X146415357Y-101780819D01*
X146415357Y-101780819D02*
X146510595Y-101828438D01*
X146510595Y-101828438D02*
X146558214Y-101876057D01*
X146558214Y-101876057D02*
X146605833Y-101971295D01*
X146605833Y-101971295D02*
X146653452Y-102161771D01*
X146653452Y-102161771D02*
X146653452Y-102399866D01*
X146653452Y-102399866D02*
X146605833Y-102590342D01*
X146605833Y-102590342D02*
X146558214Y-102685580D01*
X146558214Y-102685580D02*
X146510595Y-102733200D01*
X146510595Y-102733200D02*
X146415357Y-102780819D01*
X146415357Y-102780819D02*
X146320119Y-102780819D01*
X146320119Y-102780819D02*
X146224881Y-102733200D01*
X146224881Y-102733200D02*
X146177262Y-102685580D01*
X146177262Y-102685580D02*
X146129643Y-102590342D01*
X146129643Y-102590342D02*
X146082024Y-102399866D01*
X146082024Y-102399866D02*
X146082024Y-102161771D01*
X146082024Y-102161771D02*
X146129643Y-101971295D01*
X146129643Y-101971295D02*
X146177262Y-101876057D01*
X146177262Y-101876057D02*
X146224881Y-101828438D01*
X146224881Y-101828438D02*
X146320119Y-101780819D01*
X139510595Y-87540819D02*
X139177262Y-87064628D01*
X138939167Y-87540819D02*
X138939167Y-86540819D01*
X138939167Y-86540819D02*
X139320119Y-86540819D01*
X139320119Y-86540819D02*
X139415357Y-86588438D01*
X139415357Y-86588438D02*
X139462976Y-86636057D01*
X139462976Y-86636057D02*
X139510595Y-86731295D01*
X139510595Y-86731295D02*
X139510595Y-86874152D01*
X139510595Y-86874152D02*
X139462976Y-86969390D01*
X139462976Y-86969390D02*
X139415357Y-87017009D01*
X139415357Y-87017009D02*
X139320119Y-87064628D01*
X139320119Y-87064628D02*
X138939167Y-87064628D01*
X140462976Y-87540819D02*
X139891548Y-87540819D01*
X140177262Y-87540819D02*
X140177262Y-86540819D01*
X140177262Y-86540819D02*
X140082024Y-86683676D01*
X140082024Y-86683676D02*
X139986786Y-86778914D01*
X139986786Y-86778914D02*
X139891548Y-86826533D01*
X141082024Y-86540819D02*
X141177262Y-86540819D01*
X141177262Y-86540819D02*
X141272500Y-86588438D01*
X141272500Y-86588438D02*
X141320119Y-86636057D01*
X141320119Y-86636057D02*
X141367738Y-86731295D01*
X141367738Y-86731295D02*
X141415357Y-86921771D01*
X141415357Y-86921771D02*
X141415357Y-87159866D01*
X141415357Y-87159866D02*
X141367738Y-87350342D01*
X141367738Y-87350342D02*
X141320119Y-87445580D01*
X141320119Y-87445580D02*
X141272500Y-87493200D01*
X141272500Y-87493200D02*
X141177262Y-87540819D01*
X141177262Y-87540819D02*
X141082024Y-87540819D01*
X141082024Y-87540819D02*
X140986786Y-87493200D01*
X140986786Y-87493200D02*
X140939167Y-87445580D01*
X140939167Y-87445580D02*
X140891548Y-87350342D01*
X140891548Y-87350342D02*
X140843929Y-87159866D01*
X140843929Y-87159866D02*
X140843929Y-86921771D01*
X140843929Y-86921771D02*
X140891548Y-86731295D01*
X140891548Y-86731295D02*
X140939167Y-86636057D01*
X140939167Y-86636057D02*
X140986786Y-86588438D01*
X140986786Y-86588438D02*
X141082024Y-86540819D01*
X141843929Y-87159866D02*
X142605834Y-87159866D01*
X143034405Y-87255104D02*
X143510595Y-87255104D01*
X142939167Y-87540819D02*
X143272500Y-86540819D01*
X143272500Y-86540819D02*
X143605833Y-87540819D01*
X143891548Y-86636057D02*
X143939167Y-86588438D01*
X143939167Y-86588438D02*
X144034405Y-86540819D01*
X144034405Y-86540819D02*
X144272500Y-86540819D01*
X144272500Y-86540819D02*
X144367738Y-86588438D01*
X144367738Y-86588438D02*
X144415357Y-86636057D01*
X144415357Y-86636057D02*
X144462976Y-86731295D01*
X144462976Y-86731295D02*
X144462976Y-86826533D01*
X144462976Y-86826533D02*
X144415357Y-86969390D01*
X144415357Y-86969390D02*
X143843929Y-87540819D01*
X143843929Y-87540819D02*
X144462976Y-87540819D01*
X144891548Y-87159866D02*
X145653453Y-87159866D01*
X146034405Y-86540819D02*
X146653452Y-86540819D01*
X146653452Y-86540819D02*
X146320119Y-86921771D01*
X146320119Y-86921771D02*
X146462976Y-86921771D01*
X146462976Y-86921771D02*
X146558214Y-86969390D01*
X146558214Y-86969390D02*
X146605833Y-87017009D01*
X146605833Y-87017009D02*
X146653452Y-87112247D01*
X146653452Y-87112247D02*
X146653452Y-87350342D01*
X146653452Y-87350342D02*
X146605833Y-87445580D01*
X146605833Y-87445580D02*
X146558214Y-87493200D01*
X146558214Y-87493200D02*
X146462976Y-87540819D01*
X146462976Y-87540819D02*
X146177262Y-87540819D01*
X146177262Y-87540819D02*
X146082024Y-87493200D01*
X146082024Y-87493200D02*
X146034405Y-87445580D01*
X148134819Y-54633333D02*
X148849104Y-54633333D01*
X148849104Y-54633333D02*
X148991961Y-54680952D01*
X148991961Y-54680952D02*
X149087200Y-54776190D01*
X149087200Y-54776190D02*
X149134819Y-54919047D01*
X149134819Y-54919047D02*
X149134819Y-55014285D01*
X148134819Y-54252380D02*
X148134819Y-53633333D01*
X148134819Y-53633333D02*
X148515771Y-53966666D01*
X148515771Y-53966666D02*
X148515771Y-53823809D01*
X148515771Y-53823809D02*
X148563390Y-53728571D01*
X148563390Y-53728571D02*
X148611009Y-53680952D01*
X148611009Y-53680952D02*
X148706247Y-53633333D01*
X148706247Y-53633333D02*
X148944342Y-53633333D01*
X148944342Y-53633333D02*
X149039580Y-53680952D01*
X149039580Y-53680952D02*
X149087200Y-53728571D01*
X149087200Y-53728571D02*
X149134819Y-53823809D01*
X149134819Y-53823809D02*
X149134819Y-54109523D01*
X149134819Y-54109523D02*
X149087200Y-54204761D01*
X149087200Y-54204761D02*
X149039580Y-54252380D01*
D12*
X140499318Y-69932380D02*
X140499318Y-70537142D01*
X140499318Y-70537142D02*
X139229318Y-70537142D01*
X140438842Y-69569523D02*
X140499318Y-69388094D01*
X140499318Y-69388094D02*
X140499318Y-69085713D01*
X140499318Y-69085713D02*
X140438842Y-68964761D01*
X140438842Y-68964761D02*
X140378365Y-68904285D01*
X140378365Y-68904285D02*
X140257413Y-68843808D01*
X140257413Y-68843808D02*
X140136461Y-68843808D01*
X140136461Y-68843808D02*
X140015508Y-68904285D01*
X140015508Y-68904285D02*
X139955032Y-68964761D01*
X139955032Y-68964761D02*
X139894556Y-69085713D01*
X139894556Y-69085713D02*
X139834080Y-69327618D01*
X139834080Y-69327618D02*
X139773603Y-69448570D01*
X139773603Y-69448570D02*
X139713127Y-69509047D01*
X139713127Y-69509047D02*
X139592175Y-69569523D01*
X139592175Y-69569523D02*
X139471222Y-69569523D01*
X139471222Y-69569523D02*
X139350270Y-69509047D01*
X139350270Y-69509047D02*
X139289794Y-69448570D01*
X139289794Y-69448570D02*
X139229318Y-69327618D01*
X139229318Y-69327618D02*
X139229318Y-69025237D01*
X139229318Y-69025237D02*
X139289794Y-68843808D01*
X140499318Y-67634284D02*
X140499318Y-68359999D01*
X140499318Y-67997142D02*
X139229318Y-67997142D01*
X139229318Y-67997142D02*
X139410746Y-68118094D01*
X139410746Y-68118094D02*
X139531699Y-68239046D01*
X139531699Y-68239046D02*
X139592175Y-68359999D01*
X140015508Y-67089999D02*
X140015508Y-66122380D01*
X139834080Y-65094284D02*
X139894556Y-64912856D01*
X139894556Y-64912856D02*
X139955032Y-64852379D01*
X139955032Y-64852379D02*
X140075984Y-64791903D01*
X140075984Y-64791903D02*
X140257413Y-64791903D01*
X140257413Y-64791903D02*
X140378365Y-64852379D01*
X140378365Y-64852379D02*
X140438842Y-64912856D01*
X140438842Y-64912856D02*
X140499318Y-65033808D01*
X140499318Y-65033808D02*
X140499318Y-65517618D01*
X140499318Y-65517618D02*
X139229318Y-65517618D01*
X139229318Y-65517618D02*
X139229318Y-65094284D01*
X139229318Y-65094284D02*
X139289794Y-64973332D01*
X139289794Y-64973332D02*
X139350270Y-64912856D01*
X139350270Y-64912856D02*
X139471222Y-64852379D01*
X139471222Y-64852379D02*
X139592175Y-64852379D01*
X139592175Y-64852379D02*
X139713127Y-64912856D01*
X139713127Y-64912856D02*
X139773603Y-64973332D01*
X139773603Y-64973332D02*
X139834080Y-65094284D01*
X139834080Y-65094284D02*
X139834080Y-65517618D01*
X139652651Y-63703332D02*
X140499318Y-63703332D01*
X139652651Y-64247618D02*
X140317889Y-64247618D01*
X140317889Y-64247618D02*
X140438842Y-64187141D01*
X140438842Y-64187141D02*
X140499318Y-64066189D01*
X140499318Y-64066189D02*
X140499318Y-63884760D01*
X140499318Y-63884760D02*
X140438842Y-63763808D01*
X140438842Y-63763808D02*
X140378365Y-63703332D01*
X139652651Y-63219522D02*
X139652651Y-62554284D01*
X139652651Y-62554284D02*
X140499318Y-63219522D01*
X140499318Y-63219522D02*
X140499318Y-62554284D01*
X139652651Y-62191427D02*
X139652651Y-61526189D01*
X139652651Y-61526189D02*
X140499318Y-62191427D01*
X140499318Y-62191427D02*
X140499318Y-61526189D01*
X140438842Y-60558570D02*
X140499318Y-60679522D01*
X140499318Y-60679522D02*
X140499318Y-60921427D01*
X140499318Y-60921427D02*
X140438842Y-61042380D01*
X140438842Y-61042380D02*
X140317889Y-61102856D01*
X140317889Y-61102856D02*
X139834080Y-61102856D01*
X139834080Y-61102856D02*
X139713127Y-61042380D01*
X139713127Y-61042380D02*
X139652651Y-60921427D01*
X139652651Y-60921427D02*
X139652651Y-60679522D01*
X139652651Y-60679522D02*
X139713127Y-60558570D01*
X139713127Y-60558570D02*
X139834080Y-60498094D01*
X139834080Y-60498094D02*
X139955032Y-60498094D01*
X139955032Y-60498094D02*
X140075984Y-61102856D01*
X140499318Y-59953809D02*
X139652651Y-59953809D01*
X139894556Y-59953809D02*
X139773603Y-59893332D01*
X139773603Y-59893332D02*
X139713127Y-59832856D01*
X139713127Y-59832856D02*
X139652651Y-59711904D01*
X139652651Y-59711904D02*
X139652651Y-59590951D01*
X140499318Y-58502380D02*
X140499318Y-59228095D01*
X140499318Y-58865238D02*
X139229318Y-58865238D01*
X139229318Y-58865238D02*
X139410746Y-58986190D01*
X139410746Y-58986190D02*
X139531699Y-59107142D01*
X139531699Y-59107142D02*
X139592175Y-59228095D01*
D11*
X116204642Y-95310819D02*
X115871309Y-94834628D01*
X115633214Y-95310819D02*
X115633214Y-94310819D01*
X115633214Y-94310819D02*
X116014166Y-94310819D01*
X116014166Y-94310819D02*
X116109404Y-94358438D01*
X116109404Y-94358438D02*
X116157023Y-94406057D01*
X116157023Y-94406057D02*
X116204642Y-94501295D01*
X116204642Y-94501295D02*
X116204642Y-94644152D01*
X116204642Y-94644152D02*
X116157023Y-94739390D01*
X116157023Y-94739390D02*
X116109404Y-94787009D01*
X116109404Y-94787009D02*
X116014166Y-94834628D01*
X116014166Y-94834628D02*
X115633214Y-94834628D01*
X117061785Y-94310819D02*
X116871309Y-94310819D01*
X116871309Y-94310819D02*
X116776071Y-94358438D01*
X116776071Y-94358438D02*
X116728452Y-94406057D01*
X116728452Y-94406057D02*
X116633214Y-94548914D01*
X116633214Y-94548914D02*
X116585595Y-94739390D01*
X116585595Y-94739390D02*
X116585595Y-95120342D01*
X116585595Y-95120342D02*
X116633214Y-95215580D01*
X116633214Y-95215580D02*
X116680833Y-95263200D01*
X116680833Y-95263200D02*
X116776071Y-95310819D01*
X116776071Y-95310819D02*
X116966547Y-95310819D01*
X116966547Y-95310819D02*
X117061785Y-95263200D01*
X117061785Y-95263200D02*
X117109404Y-95215580D01*
X117109404Y-95215580D02*
X117157023Y-95120342D01*
X117157023Y-95120342D02*
X117157023Y-94882247D01*
X117157023Y-94882247D02*
X117109404Y-94787009D01*
X117109404Y-94787009D02*
X117061785Y-94739390D01*
X117061785Y-94739390D02*
X116966547Y-94691771D01*
X116966547Y-94691771D02*
X116776071Y-94691771D01*
X116776071Y-94691771D02*
X116680833Y-94739390D01*
X116680833Y-94739390D02*
X116633214Y-94787009D01*
X116633214Y-94787009D02*
X116585595Y-94882247D01*
X117585595Y-94929866D02*
X118347500Y-94929866D01*
X118776071Y-95263200D02*
X118918928Y-95310819D01*
X118918928Y-95310819D02*
X119157023Y-95310819D01*
X119157023Y-95310819D02*
X119252261Y-95263200D01*
X119252261Y-95263200D02*
X119299880Y-95215580D01*
X119299880Y-95215580D02*
X119347499Y-95120342D01*
X119347499Y-95120342D02*
X119347499Y-95025104D01*
X119347499Y-95025104D02*
X119299880Y-94929866D01*
X119299880Y-94929866D02*
X119252261Y-94882247D01*
X119252261Y-94882247D02*
X119157023Y-94834628D01*
X119157023Y-94834628D02*
X118966547Y-94787009D01*
X118966547Y-94787009D02*
X118871309Y-94739390D01*
X118871309Y-94739390D02*
X118823690Y-94691771D01*
X118823690Y-94691771D02*
X118776071Y-94596533D01*
X118776071Y-94596533D02*
X118776071Y-94501295D01*
X118776071Y-94501295D02*
X118823690Y-94406057D01*
X118823690Y-94406057D02*
X118871309Y-94358438D01*
X118871309Y-94358438D02*
X118966547Y-94310819D01*
X118966547Y-94310819D02*
X119204642Y-94310819D01*
X119204642Y-94310819D02*
X119347499Y-94358438D01*
X120347499Y-95215580D02*
X120299880Y-95263200D01*
X120299880Y-95263200D02*
X120157023Y-95310819D01*
X120157023Y-95310819D02*
X120061785Y-95310819D01*
X120061785Y-95310819D02*
X119918928Y-95263200D01*
X119918928Y-95263200D02*
X119823690Y-95167961D01*
X119823690Y-95167961D02*
X119776071Y-95072723D01*
X119776071Y-95072723D02*
X119728452Y-94882247D01*
X119728452Y-94882247D02*
X119728452Y-94739390D01*
X119728452Y-94739390D02*
X119776071Y-94548914D01*
X119776071Y-94548914D02*
X119823690Y-94453676D01*
X119823690Y-94453676D02*
X119918928Y-94358438D01*
X119918928Y-94358438D02*
X120061785Y-94310819D01*
X120061785Y-94310819D02*
X120157023Y-94310819D01*
X120157023Y-94310819D02*
X120299880Y-94358438D01*
X120299880Y-94358438D02*
X120347499Y-94406057D01*
X121252261Y-95310819D02*
X120776071Y-95310819D01*
X120776071Y-95310819D02*
X120776071Y-94310819D01*
X122109404Y-95310819D02*
X121537976Y-95310819D01*
X121823690Y-95310819D02*
X121823690Y-94310819D01*
X121823690Y-94310819D02*
X121728452Y-94453676D01*
X121728452Y-94453676D02*
X121633214Y-94548914D01*
X121633214Y-94548914D02*
X121537976Y-94596533D01*
X96541189Y-31116126D02*
X96207856Y-30639935D01*
X95969761Y-31116126D02*
X95969761Y-30116126D01*
X95969761Y-30116126D02*
X96350713Y-30116126D01*
X96350713Y-30116126D02*
X96445951Y-30163745D01*
X96445951Y-30163745D02*
X96493570Y-30211364D01*
X96493570Y-30211364D02*
X96541189Y-30306602D01*
X96541189Y-30306602D02*
X96541189Y-30449459D01*
X96541189Y-30449459D02*
X96493570Y-30544697D01*
X96493570Y-30544697D02*
X96445951Y-30592316D01*
X96445951Y-30592316D02*
X96350713Y-30639935D01*
X96350713Y-30639935D02*
X95969761Y-30639935D01*
X97493570Y-31116126D02*
X96922142Y-31116126D01*
X97207856Y-31116126D02*
X97207856Y-30116126D01*
X97207856Y-30116126D02*
X97112618Y-30258983D01*
X97112618Y-30258983D02*
X97017380Y-30354221D01*
X97017380Y-30354221D02*
X96922142Y-30401840D01*
X97874523Y-30211364D02*
X97922142Y-30163745D01*
X97922142Y-30163745D02*
X98017380Y-30116126D01*
X98017380Y-30116126D02*
X98255475Y-30116126D01*
X98255475Y-30116126D02*
X98350713Y-30163745D01*
X98350713Y-30163745D02*
X98398332Y-30211364D01*
X98398332Y-30211364D02*
X98445951Y-30306602D01*
X98445951Y-30306602D02*
X98445951Y-30401840D01*
X98445951Y-30401840D02*
X98398332Y-30544697D01*
X98398332Y-30544697D02*
X97826904Y-31116126D01*
X97826904Y-31116126D02*
X98445951Y-31116126D01*
X98874523Y-30735173D02*
X99636428Y-30735173D01*
X100303094Y-30116126D02*
X100493570Y-30116126D01*
X100493570Y-30116126D02*
X100588808Y-30163745D01*
X100588808Y-30163745D02*
X100684046Y-30258983D01*
X100684046Y-30258983D02*
X100731665Y-30449459D01*
X100731665Y-30449459D02*
X100731665Y-30782792D01*
X100731665Y-30782792D02*
X100684046Y-30973268D01*
X100684046Y-30973268D02*
X100588808Y-31068507D01*
X100588808Y-31068507D02*
X100493570Y-31116126D01*
X100493570Y-31116126D02*
X100303094Y-31116126D01*
X100303094Y-31116126D02*
X100207856Y-31068507D01*
X100207856Y-31068507D02*
X100112618Y-30973268D01*
X100112618Y-30973268D02*
X100064999Y-30782792D01*
X100064999Y-30782792D02*
X100064999Y-30449459D01*
X100064999Y-30449459D02*
X100112618Y-30258983D01*
X100112618Y-30258983D02*
X100207856Y-30163745D01*
X100207856Y-30163745D02*
X100303094Y-30116126D01*
X101160237Y-30449459D02*
X101160237Y-31449459D01*
X101160237Y-30497078D02*
X101255475Y-30449459D01*
X101255475Y-30449459D02*
X101445951Y-30449459D01*
X101445951Y-30449459D02*
X101541189Y-30497078D01*
X101541189Y-30497078D02*
X101588808Y-30544697D01*
X101588808Y-30544697D02*
X101636427Y-30639935D01*
X101636427Y-30639935D02*
X101636427Y-30925649D01*
X101636427Y-30925649D02*
X101588808Y-31020887D01*
X101588808Y-31020887D02*
X101541189Y-31068507D01*
X101541189Y-31068507D02*
X101445951Y-31116126D01*
X101445951Y-31116126D02*
X101255475Y-31116126D01*
X101255475Y-31116126D02*
X101160237Y-31068507D01*
X101922142Y-30449459D02*
X102303094Y-30449459D01*
X102064999Y-30116126D02*
X102064999Y-30973268D01*
X102064999Y-30973268D02*
X102112618Y-31068507D01*
X102112618Y-31068507D02*
X102207856Y-31116126D01*
X102207856Y-31116126D02*
X102303094Y-31116126D01*
X102779285Y-31116126D02*
X102684047Y-31068507D01*
X102684047Y-31068507D02*
X102636428Y-31020887D01*
X102636428Y-31020887D02*
X102588809Y-30925649D01*
X102588809Y-30925649D02*
X102588809Y-30639935D01*
X102588809Y-30639935D02*
X102636428Y-30544697D01*
X102636428Y-30544697D02*
X102684047Y-30497078D01*
X102684047Y-30497078D02*
X102779285Y-30449459D01*
X102779285Y-30449459D02*
X102922142Y-30449459D01*
X102922142Y-30449459D02*
X103017380Y-30497078D01*
X103017380Y-30497078D02*
X103064999Y-30544697D01*
X103064999Y-30544697D02*
X103112618Y-30639935D01*
X103112618Y-30639935D02*
X103112618Y-30925649D01*
X103112618Y-30925649D02*
X103064999Y-31020887D01*
X103064999Y-31020887D02*
X103017380Y-31068507D01*
X103017380Y-31068507D02*
X102922142Y-31116126D01*
X102922142Y-31116126D02*
X102779285Y-31116126D01*
X103541190Y-30735173D02*
X104303095Y-30735173D01*
X104779285Y-31116126D02*
X104779285Y-30116126D01*
X104779285Y-30116126D02*
X105160237Y-30116126D01*
X105160237Y-30116126D02*
X105255475Y-30163745D01*
X105255475Y-30163745D02*
X105303094Y-30211364D01*
X105303094Y-30211364D02*
X105350713Y-30306602D01*
X105350713Y-30306602D02*
X105350713Y-30449459D01*
X105350713Y-30449459D02*
X105303094Y-30544697D01*
X105303094Y-30544697D02*
X105255475Y-30592316D01*
X105255475Y-30592316D02*
X105160237Y-30639935D01*
X105160237Y-30639935D02*
X104779285Y-30639935D01*
X106207856Y-30449459D02*
X106207856Y-31116126D01*
X105779285Y-30449459D02*
X105779285Y-30973268D01*
X105779285Y-30973268D02*
X105826904Y-31068507D01*
X105826904Y-31068507D02*
X105922142Y-31116126D01*
X105922142Y-31116126D02*
X106064999Y-31116126D01*
X106064999Y-31116126D02*
X106160237Y-31068507D01*
X106160237Y-31068507D02*
X106207856Y-31020887D01*
X106826904Y-31116126D02*
X106731666Y-31068507D01*
X106731666Y-31068507D02*
X106684047Y-30973268D01*
X106684047Y-30973268D02*
X106684047Y-30116126D01*
X107350714Y-31116126D02*
X107255476Y-31068507D01*
X107255476Y-31068507D02*
X107207857Y-30973268D01*
X107207857Y-30973268D02*
X107207857Y-30116126D01*
X107731667Y-30116126D02*
X107731667Y-30925649D01*
X107731667Y-30925649D02*
X107779286Y-31020887D01*
X107779286Y-31020887D02*
X107826905Y-31068507D01*
X107826905Y-31068507D02*
X107922143Y-31116126D01*
X107922143Y-31116126D02*
X108112619Y-31116126D01*
X108112619Y-31116126D02*
X108207857Y-31068507D01*
X108207857Y-31068507D02*
X108255476Y-31020887D01*
X108255476Y-31020887D02*
X108303095Y-30925649D01*
X108303095Y-30925649D02*
X108303095Y-30116126D01*
X108779286Y-30449459D02*
X108779286Y-31449459D01*
X108779286Y-30497078D02*
X108874524Y-30449459D01*
X108874524Y-30449459D02*
X109065000Y-30449459D01*
X109065000Y-30449459D02*
X109160238Y-30497078D01*
X109160238Y-30497078D02*
X109207857Y-30544697D01*
X109207857Y-30544697D02*
X109255476Y-30639935D01*
X109255476Y-30639935D02*
X109255476Y-30925649D01*
X109255476Y-30925649D02*
X109207857Y-31020887D01*
X109207857Y-31020887D02*
X109160238Y-31068507D01*
X109160238Y-31068507D02*
X109065000Y-31116126D01*
X109065000Y-31116126D02*
X108874524Y-31116126D01*
X108874524Y-31116126D02*
X108779286Y-31068507D01*
X110207857Y-31116126D02*
X109636429Y-31116126D01*
X109922143Y-31116126D02*
X109922143Y-30116126D01*
X109922143Y-30116126D02*
X109826905Y-30258983D01*
X109826905Y-30258983D02*
X109731667Y-30354221D01*
X109731667Y-30354221D02*
X109636429Y-30401840D01*
X131199580Y-83654666D02*
X131247200Y-83702285D01*
X131247200Y-83702285D02*
X131294819Y-83845142D01*
X131294819Y-83845142D02*
X131294819Y-83940380D01*
X131294819Y-83940380D02*
X131247200Y-84083237D01*
X131247200Y-84083237D02*
X131151961Y-84178475D01*
X131151961Y-84178475D02*
X131056723Y-84226094D01*
X131056723Y-84226094D02*
X130866247Y-84273713D01*
X130866247Y-84273713D02*
X130723390Y-84273713D01*
X130723390Y-84273713D02*
X130532914Y-84226094D01*
X130532914Y-84226094D02*
X130437676Y-84178475D01*
X130437676Y-84178475D02*
X130342438Y-84083237D01*
X130342438Y-84083237D02*
X130294819Y-83940380D01*
X130294819Y-83940380D02*
X130294819Y-83845142D01*
X130294819Y-83845142D02*
X130342438Y-83702285D01*
X130342438Y-83702285D02*
X130390057Y-83654666D01*
X130628152Y-82797523D02*
X131294819Y-82797523D01*
X130247200Y-83035618D02*
X130961485Y-83273713D01*
X130961485Y-83273713D02*
X130961485Y-82654666D01*
X57916666Y-103819819D02*
X57916666Y-104534104D01*
X57916666Y-104534104D02*
X57869047Y-104676961D01*
X57869047Y-104676961D02*
X57773809Y-104772200D01*
X57773809Y-104772200D02*
X57630952Y-104819819D01*
X57630952Y-104819819D02*
X57535714Y-104819819D01*
X58345238Y-103915057D02*
X58392857Y-103867438D01*
X58392857Y-103867438D02*
X58488095Y-103819819D01*
X58488095Y-103819819D02*
X58726190Y-103819819D01*
X58726190Y-103819819D02*
X58821428Y-103867438D01*
X58821428Y-103867438D02*
X58869047Y-103915057D01*
X58869047Y-103915057D02*
X58916666Y-104010295D01*
X58916666Y-104010295D02*
X58916666Y-104105533D01*
X58916666Y-104105533D02*
X58869047Y-104248390D01*
X58869047Y-104248390D02*
X58297619Y-104819819D01*
X58297619Y-104819819D02*
X58916666Y-104819819D01*
X165608095Y-68144819D02*
X165608095Y-67144819D01*
X165608095Y-67621009D02*
X166179523Y-67621009D01*
X166179523Y-68144819D02*
X166179523Y-67144819D01*
X166608095Y-67240057D02*
X166655714Y-67192438D01*
X166655714Y-67192438D02*
X166750952Y-67144819D01*
X166750952Y-67144819D02*
X166989047Y-67144819D01*
X166989047Y-67144819D02*
X167084285Y-67192438D01*
X167084285Y-67192438D02*
X167131904Y-67240057D01*
X167131904Y-67240057D02*
X167179523Y-67335295D01*
X167179523Y-67335295D02*
X167179523Y-67430533D01*
X167179523Y-67430533D02*
X167131904Y-67573390D01*
X167131904Y-67573390D02*
X166560476Y-68144819D01*
X166560476Y-68144819D02*
X167179523Y-68144819D01*
X131199580Y-78892666D02*
X131247200Y-78940285D01*
X131247200Y-78940285D02*
X131294819Y-79083142D01*
X131294819Y-79083142D02*
X131294819Y-79178380D01*
X131294819Y-79178380D02*
X131247200Y-79321237D01*
X131247200Y-79321237D02*
X131151961Y-79416475D01*
X131151961Y-79416475D02*
X131056723Y-79464094D01*
X131056723Y-79464094D02*
X130866247Y-79511713D01*
X130866247Y-79511713D02*
X130723390Y-79511713D01*
X130723390Y-79511713D02*
X130532914Y-79464094D01*
X130532914Y-79464094D02*
X130437676Y-79416475D01*
X130437676Y-79416475D02*
X130342438Y-79321237D01*
X130342438Y-79321237D02*
X130294819Y-79178380D01*
X130294819Y-79178380D02*
X130294819Y-79083142D01*
X130294819Y-79083142D02*
X130342438Y-78940285D01*
X130342438Y-78940285D02*
X130390057Y-78892666D01*
X130294819Y-77987904D02*
X130294819Y-78464094D01*
X130294819Y-78464094D02*
X130771009Y-78511713D01*
X130771009Y-78511713D02*
X130723390Y-78464094D01*
X130723390Y-78464094D02*
X130675771Y-78368856D01*
X130675771Y-78368856D02*
X130675771Y-78130761D01*
X130675771Y-78130761D02*
X130723390Y-78035523D01*
X130723390Y-78035523D02*
X130771009Y-77987904D01*
X130771009Y-77987904D02*
X130866247Y-77940285D01*
X130866247Y-77940285D02*
X131104342Y-77940285D01*
X131104342Y-77940285D02*
X131199580Y-77987904D01*
X131199580Y-77987904D02*
X131247200Y-78035523D01*
X131247200Y-78035523D02*
X131294819Y-78130761D01*
X131294819Y-78130761D02*
X131294819Y-78368856D01*
X131294819Y-78368856D02*
X131247200Y-78464094D01*
X131247200Y-78464094D02*
X131199580Y-78511713D01*
X78238095Y-50354819D02*
X77904762Y-49878628D01*
X77666667Y-50354819D02*
X77666667Y-49354819D01*
X77666667Y-49354819D02*
X78047619Y-49354819D01*
X78047619Y-49354819D02*
X78142857Y-49402438D01*
X78142857Y-49402438D02*
X78190476Y-49450057D01*
X78190476Y-49450057D02*
X78238095Y-49545295D01*
X78238095Y-49545295D02*
X78238095Y-49688152D01*
X78238095Y-49688152D02*
X78190476Y-49783390D01*
X78190476Y-49783390D02*
X78142857Y-49831009D01*
X78142857Y-49831009D02*
X78047619Y-49878628D01*
X78047619Y-49878628D02*
X77666667Y-49878628D01*
X79190476Y-50354819D02*
X78619048Y-50354819D01*
X78904762Y-50354819D02*
X78904762Y-49354819D01*
X78904762Y-49354819D02*
X78809524Y-49497676D01*
X78809524Y-49497676D02*
X78714286Y-49592914D01*
X78714286Y-49592914D02*
X78619048Y-49640533D01*
X80142857Y-50354819D02*
X79571429Y-50354819D01*
X79857143Y-50354819D02*
X79857143Y-49354819D01*
X79857143Y-49354819D02*
X79761905Y-49497676D01*
X79761905Y-49497676D02*
X79666667Y-49592914D01*
X79666667Y-49592914D02*
X79571429Y-49640533D01*
X80571429Y-49973866D02*
X81333334Y-49973866D01*
X82000000Y-49354819D02*
X82190476Y-49354819D01*
X82190476Y-49354819D02*
X82285714Y-49402438D01*
X82285714Y-49402438D02*
X82380952Y-49497676D01*
X82380952Y-49497676D02*
X82428571Y-49688152D01*
X82428571Y-49688152D02*
X82428571Y-50021485D01*
X82428571Y-50021485D02*
X82380952Y-50211961D01*
X82380952Y-50211961D02*
X82285714Y-50307200D01*
X82285714Y-50307200D02*
X82190476Y-50354819D01*
X82190476Y-50354819D02*
X82000000Y-50354819D01*
X82000000Y-50354819D02*
X81904762Y-50307200D01*
X81904762Y-50307200D02*
X81809524Y-50211961D01*
X81809524Y-50211961D02*
X81761905Y-50021485D01*
X81761905Y-50021485D02*
X81761905Y-49688152D01*
X81761905Y-49688152D02*
X81809524Y-49497676D01*
X81809524Y-49497676D02*
X81904762Y-49402438D01*
X81904762Y-49402438D02*
X82000000Y-49354819D01*
X82857143Y-49688152D02*
X82857143Y-50688152D01*
X82857143Y-49735771D02*
X82952381Y-49688152D01*
X82952381Y-49688152D02*
X83142857Y-49688152D01*
X83142857Y-49688152D02*
X83238095Y-49735771D01*
X83238095Y-49735771D02*
X83285714Y-49783390D01*
X83285714Y-49783390D02*
X83333333Y-49878628D01*
X83333333Y-49878628D02*
X83333333Y-50164342D01*
X83333333Y-50164342D02*
X83285714Y-50259580D01*
X83285714Y-50259580D02*
X83238095Y-50307200D01*
X83238095Y-50307200D02*
X83142857Y-50354819D01*
X83142857Y-50354819D02*
X82952381Y-50354819D01*
X82952381Y-50354819D02*
X82857143Y-50307200D01*
X83619048Y-49688152D02*
X84000000Y-49688152D01*
X83761905Y-49354819D02*
X83761905Y-50211961D01*
X83761905Y-50211961D02*
X83809524Y-50307200D01*
X83809524Y-50307200D02*
X83904762Y-50354819D01*
X83904762Y-50354819D02*
X84000000Y-50354819D01*
X84476191Y-50354819D02*
X84380953Y-50307200D01*
X84380953Y-50307200D02*
X84333334Y-50259580D01*
X84333334Y-50259580D02*
X84285715Y-50164342D01*
X84285715Y-50164342D02*
X84285715Y-49878628D01*
X84285715Y-49878628D02*
X84333334Y-49783390D01*
X84333334Y-49783390D02*
X84380953Y-49735771D01*
X84380953Y-49735771D02*
X84476191Y-49688152D01*
X84476191Y-49688152D02*
X84619048Y-49688152D01*
X84619048Y-49688152D02*
X84714286Y-49735771D01*
X84714286Y-49735771D02*
X84761905Y-49783390D01*
X84761905Y-49783390D02*
X84809524Y-49878628D01*
X84809524Y-49878628D02*
X84809524Y-50164342D01*
X84809524Y-50164342D02*
X84761905Y-50259580D01*
X84761905Y-50259580D02*
X84714286Y-50307200D01*
X84714286Y-50307200D02*
X84619048Y-50354819D01*
X84619048Y-50354819D02*
X84476191Y-50354819D01*
X85238096Y-49973866D02*
X86000001Y-49973866D01*
X86476191Y-50354819D02*
X86476191Y-49354819D01*
X86952381Y-49688152D02*
X86952381Y-50354819D01*
X86952381Y-49783390D02*
X87000000Y-49735771D01*
X87000000Y-49735771D02*
X87095238Y-49688152D01*
X87095238Y-49688152D02*
X87238095Y-49688152D01*
X87238095Y-49688152D02*
X87333333Y-49735771D01*
X87333333Y-49735771D02*
X87380952Y-49831009D01*
X87380952Y-49831009D02*
X87380952Y-50354819D01*
X88380952Y-50354819D02*
X87809524Y-50354819D01*
X88095238Y-50354819D02*
X88095238Y-49354819D01*
X88095238Y-49354819D02*
X88000000Y-49497676D01*
X88000000Y-49497676D02*
X87904762Y-49592914D01*
X87904762Y-49592914D02*
X87809524Y-49640533D01*
X124888095Y-94784519D02*
X124888095Y-95594042D01*
X124888095Y-95594042D02*
X124935714Y-95689280D01*
X124935714Y-95689280D02*
X124983333Y-95736900D01*
X124983333Y-95736900D02*
X125078571Y-95784519D01*
X125078571Y-95784519D02*
X125269047Y-95784519D01*
X125269047Y-95784519D02*
X125364285Y-95736900D01*
X125364285Y-95736900D02*
X125411904Y-95689280D01*
X125411904Y-95689280D02*
X125459523Y-95594042D01*
X125459523Y-95594042D02*
X125459523Y-94784519D01*
X125888095Y-94879757D02*
X125935714Y-94832138D01*
X125935714Y-94832138D02*
X126030952Y-94784519D01*
X126030952Y-94784519D02*
X126269047Y-94784519D01*
X126269047Y-94784519D02*
X126364285Y-94832138D01*
X126364285Y-94832138D02*
X126411904Y-94879757D01*
X126411904Y-94879757D02*
X126459523Y-94974995D01*
X126459523Y-94974995D02*
X126459523Y-95070233D01*
X126459523Y-95070233D02*
X126411904Y-95213090D01*
X126411904Y-95213090D02*
X125840476Y-95784519D01*
X125840476Y-95784519D02*
X126459523Y-95784519D01*
X140013944Y-76812276D02*
X139680611Y-76336085D01*
X139442516Y-76812276D02*
X139442516Y-75812276D01*
X139442516Y-75812276D02*
X139823468Y-75812276D01*
X139823468Y-75812276D02*
X139918706Y-75859895D01*
X139918706Y-75859895D02*
X139966325Y-75907514D01*
X139966325Y-75907514D02*
X140013944Y-76002752D01*
X140013944Y-76002752D02*
X140013944Y-76145609D01*
X140013944Y-76145609D02*
X139966325Y-76240847D01*
X139966325Y-76240847D02*
X139918706Y-76288466D01*
X139918706Y-76288466D02*
X139823468Y-76336085D01*
X139823468Y-76336085D02*
X139442516Y-76336085D01*
X140966325Y-76812276D02*
X140394897Y-76812276D01*
X140680611Y-76812276D02*
X140680611Y-75812276D01*
X140680611Y-75812276D02*
X140585373Y-75955133D01*
X140585373Y-75955133D02*
X140490135Y-76050371D01*
X140490135Y-76050371D02*
X140394897Y-76097990D01*
X141299659Y-75812276D02*
X141966325Y-75812276D01*
X141966325Y-75812276D02*
X141537754Y-76812276D01*
X142347278Y-76431323D02*
X143109183Y-76431323D01*
X143537754Y-76526561D02*
X144013944Y-76526561D01*
X143442516Y-76812276D02*
X143775849Y-75812276D01*
X143775849Y-75812276D02*
X144109182Y-76812276D01*
X144966325Y-76812276D02*
X144394897Y-76812276D01*
X144680611Y-76812276D02*
X144680611Y-75812276D01*
X144680611Y-75812276D02*
X144585373Y-75955133D01*
X144585373Y-75955133D02*
X144490135Y-76050371D01*
X144490135Y-76050371D02*
X144394897Y-76097990D01*
X145394897Y-76431323D02*
X146156802Y-76431323D01*
X146537754Y-75812276D02*
X147156801Y-75812276D01*
X147156801Y-75812276D02*
X146823468Y-76193228D01*
X146823468Y-76193228D02*
X146966325Y-76193228D01*
X146966325Y-76193228D02*
X147061563Y-76240847D01*
X147061563Y-76240847D02*
X147109182Y-76288466D01*
X147109182Y-76288466D02*
X147156801Y-76383704D01*
X147156801Y-76383704D02*
X147156801Y-76621799D01*
X147156801Y-76621799D02*
X147109182Y-76717037D01*
X147109182Y-76717037D02*
X147061563Y-76764657D01*
X147061563Y-76764657D02*
X146966325Y-76812276D01*
X146966325Y-76812276D02*
X146680611Y-76812276D01*
X146680611Y-76812276D02*
X146585373Y-76764657D01*
X146585373Y-76764657D02*
X146537754Y-76717037D01*
X134559580Y-97940666D02*
X134607200Y-97988285D01*
X134607200Y-97988285D02*
X134654819Y-98131142D01*
X134654819Y-98131142D02*
X134654819Y-98226380D01*
X134654819Y-98226380D02*
X134607200Y-98369237D01*
X134607200Y-98369237D02*
X134511961Y-98464475D01*
X134511961Y-98464475D02*
X134416723Y-98512094D01*
X134416723Y-98512094D02*
X134226247Y-98559713D01*
X134226247Y-98559713D02*
X134083390Y-98559713D01*
X134083390Y-98559713D02*
X133892914Y-98512094D01*
X133892914Y-98512094D02*
X133797676Y-98464475D01*
X133797676Y-98464475D02*
X133702438Y-98369237D01*
X133702438Y-98369237D02*
X133654819Y-98226380D01*
X133654819Y-98226380D02*
X133654819Y-98131142D01*
X133654819Y-98131142D02*
X133702438Y-97988285D01*
X133702438Y-97988285D02*
X133750057Y-97940666D01*
X134654819Y-96988285D02*
X134654819Y-97559713D01*
X134654819Y-97273999D02*
X133654819Y-97273999D01*
X133654819Y-97273999D02*
X133797676Y-97369237D01*
X133797676Y-97369237D02*
X133892914Y-97464475D01*
X133892914Y-97464475D02*
X133940533Y-97559713D01*
X85355119Y-75854819D02*
X85021786Y-75378628D01*
X84783691Y-75854819D02*
X84783691Y-74854819D01*
X84783691Y-74854819D02*
X85164643Y-74854819D01*
X85164643Y-74854819D02*
X85259881Y-74902438D01*
X85259881Y-74902438D02*
X85307500Y-74950057D01*
X85307500Y-74950057D02*
X85355119Y-75045295D01*
X85355119Y-75045295D02*
X85355119Y-75188152D01*
X85355119Y-75188152D02*
X85307500Y-75283390D01*
X85307500Y-75283390D02*
X85259881Y-75331009D01*
X85259881Y-75331009D02*
X85164643Y-75378628D01*
X85164643Y-75378628D02*
X84783691Y-75378628D01*
X86212262Y-75188152D02*
X86212262Y-75854819D01*
X85974167Y-74807200D02*
X85736072Y-75521485D01*
X85736072Y-75521485D02*
X86355119Y-75521485D01*
X86736072Y-75473866D02*
X87497977Y-75473866D01*
X88545595Y-75759580D02*
X88497976Y-75807200D01*
X88497976Y-75807200D02*
X88355119Y-75854819D01*
X88355119Y-75854819D02*
X88259881Y-75854819D01*
X88259881Y-75854819D02*
X88117024Y-75807200D01*
X88117024Y-75807200D02*
X88021786Y-75711961D01*
X88021786Y-75711961D02*
X87974167Y-75616723D01*
X87974167Y-75616723D02*
X87926548Y-75426247D01*
X87926548Y-75426247D02*
X87926548Y-75283390D01*
X87926548Y-75283390D02*
X87974167Y-75092914D01*
X87974167Y-75092914D02*
X88021786Y-74997676D01*
X88021786Y-74997676D02*
X88117024Y-74902438D01*
X88117024Y-74902438D02*
X88259881Y-74854819D01*
X88259881Y-74854819D02*
X88355119Y-74854819D01*
X88355119Y-74854819D02*
X88497976Y-74902438D01*
X88497976Y-74902438D02*
X88545595Y-74950057D01*
X89117024Y-75854819D02*
X89021786Y-75807200D01*
X89021786Y-75807200D02*
X88974167Y-75759580D01*
X88974167Y-75759580D02*
X88926548Y-75664342D01*
X88926548Y-75664342D02*
X88926548Y-75378628D01*
X88926548Y-75378628D02*
X88974167Y-75283390D01*
X88974167Y-75283390D02*
X89021786Y-75235771D01*
X89021786Y-75235771D02*
X89117024Y-75188152D01*
X89117024Y-75188152D02*
X89259881Y-75188152D01*
X89259881Y-75188152D02*
X89355119Y-75235771D01*
X89355119Y-75235771D02*
X89402738Y-75283390D01*
X89402738Y-75283390D02*
X89450357Y-75378628D01*
X89450357Y-75378628D02*
X89450357Y-75664342D01*
X89450357Y-75664342D02*
X89402738Y-75759580D01*
X89402738Y-75759580D02*
X89355119Y-75807200D01*
X89355119Y-75807200D02*
X89259881Y-75854819D01*
X89259881Y-75854819D02*
X89117024Y-75854819D01*
X89878929Y-75854819D02*
X89878929Y-75188152D01*
X89878929Y-75283390D02*
X89926548Y-75235771D01*
X89926548Y-75235771D02*
X90021786Y-75188152D01*
X90021786Y-75188152D02*
X90164643Y-75188152D01*
X90164643Y-75188152D02*
X90259881Y-75235771D01*
X90259881Y-75235771D02*
X90307500Y-75331009D01*
X90307500Y-75331009D02*
X90307500Y-75854819D01*
X90307500Y-75331009D02*
X90355119Y-75235771D01*
X90355119Y-75235771D02*
X90450357Y-75188152D01*
X90450357Y-75188152D02*
X90593214Y-75188152D01*
X90593214Y-75188152D02*
X90688453Y-75235771D01*
X90688453Y-75235771D02*
X90736072Y-75331009D01*
X90736072Y-75331009D02*
X90736072Y-75854819D01*
X91212262Y-75854819D02*
X91212262Y-75188152D01*
X91212262Y-75283390D02*
X91259881Y-75235771D01*
X91259881Y-75235771D02*
X91355119Y-75188152D01*
X91355119Y-75188152D02*
X91497976Y-75188152D01*
X91497976Y-75188152D02*
X91593214Y-75235771D01*
X91593214Y-75235771D02*
X91640833Y-75331009D01*
X91640833Y-75331009D02*
X91640833Y-75854819D01*
X91640833Y-75331009D02*
X91688452Y-75235771D01*
X91688452Y-75235771D02*
X91783690Y-75188152D01*
X91783690Y-75188152D02*
X91926547Y-75188152D01*
X91926547Y-75188152D02*
X92021786Y-75235771D01*
X92021786Y-75235771D02*
X92069405Y-75331009D01*
X92069405Y-75331009D02*
X92069405Y-75854819D01*
X92688452Y-75854819D02*
X92593214Y-75807200D01*
X92593214Y-75807200D02*
X92545595Y-75759580D01*
X92545595Y-75759580D02*
X92497976Y-75664342D01*
X92497976Y-75664342D02*
X92497976Y-75378628D01*
X92497976Y-75378628D02*
X92545595Y-75283390D01*
X92545595Y-75283390D02*
X92593214Y-75235771D01*
X92593214Y-75235771D02*
X92688452Y-75188152D01*
X92688452Y-75188152D02*
X92831309Y-75188152D01*
X92831309Y-75188152D02*
X92926547Y-75235771D01*
X92926547Y-75235771D02*
X92974166Y-75283390D01*
X92974166Y-75283390D02*
X93021785Y-75378628D01*
X93021785Y-75378628D02*
X93021785Y-75664342D01*
X93021785Y-75664342D02*
X92974166Y-75759580D01*
X92974166Y-75759580D02*
X92926547Y-75807200D01*
X92926547Y-75807200D02*
X92831309Y-75854819D01*
X92831309Y-75854819D02*
X92688452Y-75854819D01*
X93450357Y-75188152D02*
X93450357Y-75854819D01*
X93450357Y-75283390D02*
X93497976Y-75235771D01*
X93497976Y-75235771D02*
X93593214Y-75188152D01*
X93593214Y-75188152D02*
X93736071Y-75188152D01*
X93736071Y-75188152D02*
X93831309Y-75235771D01*
X93831309Y-75235771D02*
X93878928Y-75331009D01*
X93878928Y-75331009D02*
X93878928Y-75854819D01*
X94878928Y-75854819D02*
X94307500Y-75854819D01*
X94593214Y-75854819D02*
X94593214Y-74854819D01*
X94593214Y-74854819D02*
X94497976Y-74997676D01*
X94497976Y-74997676D02*
X94402738Y-75092914D01*
X94402738Y-75092914D02*
X94307500Y-75140533D01*
D13*
%TO.C,U3-Opto1*%
X76430000Y-57010000D02*
X81050000Y-57010000D01*
X76430000Y-57225000D02*
X76430000Y-57010000D01*
X76430000Y-59830000D02*
X76430000Y-59615000D01*
X81050000Y-57010000D02*
X81050000Y-57225000D01*
X81050000Y-59615000D02*
X81050000Y-59830000D01*
X81050000Y-59830000D02*
X76430000Y-59830000D01*
X82170000Y-59950000D02*
X81690000Y-59950000D01*
X81930000Y-59620000D01*
X82170000Y-59950000D01*
G36*
X82170000Y-59950000D02*
G01*
X81690000Y-59950000D01*
X81930000Y-59620000D01*
X82170000Y-59950000D01*
G37*
%TO.C,J6*%
X55640000Y-50680000D02*
X65680000Y-50680000D01*
X55640000Y-61080000D02*
X55640000Y-50680000D01*
X58660000Y-61080000D02*
X58660000Y-50680000D01*
X63560000Y-61080000D02*
X63560000Y-50680000D01*
X65060000Y-61080000D02*
X65060000Y-50680000D01*
X65680000Y-50680000D02*
X65680000Y-58120000D01*
X65680000Y-58720000D02*
X65680000Y-61080000D01*
X65680000Y-61080000D02*
X55640000Y-61080000D01*
X66290000Y-58860000D02*
X65680000Y-58420000D01*
X66290000Y-57980000D01*
X66290000Y-58860000D01*
G36*
X66290000Y-58860000D02*
G01*
X65680000Y-58420000D01*
X66290000Y-57980000D01*
X66290000Y-58860000D01*
G37*
%TO.C,R2-Throw-A1*%
X89580436Y-79565000D02*
X90034564Y-79565000D01*
X89580436Y-78095000D02*
X90034564Y-78095000D01*
D11*
%TO.C,U1*%
X124025000Y-77101000D02*
X124025000Y-77326000D01*
X124025000Y-77101000D02*
X127275000Y-77101000D01*
X124025000Y-80351000D02*
X124025000Y-80126000D01*
X124025000Y-80351000D02*
X127275000Y-80351000D01*
X127275000Y-77101000D02*
X127275000Y-77326000D01*
X127275000Y-80351000D02*
X127275000Y-80126000D01*
D13*
X123550000Y-77326000D02*
X123310000Y-76996000D01*
X123790000Y-76996000D01*
X123550000Y-77326000D01*
G36*
X123550000Y-77326000D02*
G01*
X123310000Y-76996000D01*
X123790000Y-76996000D01*
X123550000Y-77326000D01*
G37*
%TO.C,R1-Buzzer1*%
X129517064Y-66355000D02*
X129062936Y-66355000D01*
X129517064Y-67825000D02*
X129062936Y-67825000D01*
%TO.C,R5*%
X118620436Y-93231000D02*
X119074564Y-93231000D01*
X118620436Y-94701000D02*
X119074564Y-94701000D01*
%TO.C,D1-Opto1*%
X72312500Y-49960000D02*
X74997500Y-49960000D01*
X74997500Y-48040000D02*
X72312500Y-48040000D01*
X74997500Y-49960000D02*
X74997500Y-48040000D01*
%TO.C,R3-ThrowB1*%
X89580436Y-69405000D02*
X90034564Y-69405000D01*
X89580436Y-67935000D02*
X90034564Y-67935000D01*
%TO.C,R18-A1-2*%
X142545436Y-82921000D02*
X142999564Y-82921000D01*
X142545436Y-84391000D02*
X142999564Y-84391000D01*
%TO.C,R9-A2-2*%
X142999564Y-93081000D02*
X142545436Y-93081000D01*
X142999564Y-94551000D02*
X142545436Y-94551000D01*
%TO.C,J4*%
X71430000Y-66010000D02*
X81470000Y-66010000D01*
X71430000Y-81490000D02*
X71430000Y-66010000D01*
X74450000Y-81490000D02*
X74450000Y-66010000D01*
X79350000Y-81490000D02*
X79350000Y-66010000D01*
X80850000Y-81490000D02*
X80850000Y-66010000D01*
X81470000Y-66010000D02*
X81470000Y-78530000D01*
X81470000Y-79130000D02*
X81470000Y-81490000D01*
X81470000Y-81490000D02*
X71430000Y-81490000D01*
X82080000Y-79270000D02*
X81470000Y-78830000D01*
X82080000Y-78390000D01*
X82080000Y-79270000D01*
G36*
X82080000Y-79270000D02*
G01*
X81470000Y-78830000D01*
X82080000Y-78390000D01*
X82080000Y-79270000D01*
G37*
%TO.C,C4-3v1*%
X128355000Y-42188748D02*
X128355000Y-42711252D01*
X129825000Y-42188748D02*
X129825000Y-42711252D01*
%TO.C,R8-A2-1*%
X142999564Y-98161000D02*
X142545436Y-98161000D01*
X142999564Y-99631000D02*
X142545436Y-99631000D01*
%TO.C,Q1-Buzzer1*%
X127260000Y-60450000D02*
X128780000Y-60450000D01*
X127260000Y-60500000D02*
X127260000Y-60450000D01*
X127260000Y-62400000D02*
X127260000Y-61620000D01*
X127260000Y-63570000D02*
X127260000Y-63520000D01*
X128780000Y-60450000D02*
X128780000Y-61450000D01*
X128780000Y-62570000D02*
X128780000Y-63570000D01*
X128780000Y-63570000D02*
X127260000Y-63570000D01*
X126960000Y-61960000D02*
X126480000Y-61960000D01*
X126720000Y-61630000D01*
X126960000Y-61960000D01*
G36*
X126960000Y-61960000D02*
G01*
X126480000Y-61960000D01*
X126720000Y-61630000D01*
X126960000Y-61960000D01*
G37*
%TO.C,R7-SDA1*%
X119074564Y-102321000D02*
X118620436Y-102321000D01*
X119074564Y-100851000D02*
X118620436Y-100851000D01*
%TO.C,C2*%
X131785000Y-93273252D02*
X131785000Y-92750748D01*
X133255000Y-93273252D02*
X133255000Y-92750748D01*
%TO.C,R15-Purple1*%
X136865000Y-101813064D02*
X136865000Y-101358936D01*
X138335000Y-101813064D02*
X138335000Y-101358936D01*
%TO.C,C2-5v1*%
X143595000Y-42188748D02*
X143595000Y-42711252D01*
X145065000Y-42188748D02*
X145065000Y-42711252D01*
%TO.C,J8*%
X127352500Y-45555000D02*
X137392500Y-45555000D01*
X127352500Y-55955000D02*
X127352500Y-45555000D01*
X130372500Y-55955000D02*
X130372500Y-45555000D01*
X135272500Y-55955000D02*
X135272500Y-45555000D01*
X136772500Y-55955000D02*
X136772500Y-45555000D01*
X137392500Y-45555000D02*
X137392500Y-52995000D01*
X137392500Y-53595000D02*
X137392500Y-55955000D01*
X137392500Y-55955000D02*
X127352500Y-55955000D01*
X138002500Y-53735000D02*
X137392500Y-53295000D01*
X138002500Y-52855000D01*
X138002500Y-53735000D01*
G36*
X138002500Y-53735000D02*
G01*
X137392500Y-53295000D01*
X138002500Y-52855000D01*
X138002500Y-53735000D01*
G37*
%TO.C,SW1*%
X87400000Y-57020000D02*
X87400000Y-56820000D01*
X87400000Y-60020000D02*
X87400000Y-58320000D01*
X88500000Y-54970000D02*
X89300000Y-54970000D01*
X88500000Y-61870000D02*
X89300000Y-61870000D01*
%TO.C,C3*%
X131785000Y-88511252D02*
X131785000Y-87988748D01*
X133255000Y-88511252D02*
X133255000Y-87988748D01*
%TO.C,J5*%
X149680000Y-70855000D02*
X159720000Y-70855000D01*
X149680000Y-106655000D02*
X149680000Y-70855000D01*
X152700000Y-106655000D02*
X152700000Y-70855000D01*
X157600000Y-106655000D02*
X157600000Y-70855000D01*
X159100000Y-106655000D02*
X159100000Y-70855000D01*
X159720000Y-70855000D02*
X159720000Y-103695000D01*
X159720000Y-104295000D02*
X159720000Y-106655000D01*
X159720000Y-106655000D02*
X149680000Y-106655000D01*
X160330000Y-104435000D02*
X159720000Y-103995000D01*
X160330000Y-103555000D01*
X160330000Y-104435000D01*
G36*
X160330000Y-104435000D02*
G01*
X159720000Y-103995000D01*
X160330000Y-103555000D01*
X160330000Y-104435000D01*
G37*
%TO.C,C6*%
X131785000Y-102797252D02*
X131785000Y-102274748D01*
X133255000Y-102797252D02*
X133255000Y-102274748D01*
%TO.C,C5-3v1*%
X133435000Y-42188748D02*
X133435000Y-42711252D01*
X134905000Y-42188748D02*
X134905000Y-42711252D01*
%TO.C,C3-3v1*%
X123275000Y-42188748D02*
X123275000Y-42711252D01*
X124745000Y-42188748D02*
X124745000Y-42711252D01*
%TO.C,R13-Opto-GND1*%
X70385000Y-58200436D02*
X70385000Y-58654564D01*
X71855000Y-58200436D02*
X71855000Y-58654564D01*
%TO.C,J1*%
X95380000Y-49420000D02*
X96760000Y-49420000D01*
X95380000Y-50800000D02*
X95380000Y-49420000D01*
X95380000Y-52070000D02*
X95380000Y-100440000D01*
X95380000Y-52070000D02*
X98030000Y-52070000D01*
X95380000Y-100440000D02*
X116260000Y-100440000D01*
X98030000Y-49420000D02*
X116260000Y-49420000D01*
X98030000Y-52070000D02*
X98030000Y-49420000D01*
X115760000Y-49300000D02*
X115760000Y-100320000D01*
%TO.C,C1-5v1*%
X138515000Y-42188748D02*
X138515000Y-42711252D01*
X139985000Y-42188748D02*
X139985000Y-42711252D01*
%TO.C,R16-A2-0*%
X142545436Y-103241000D02*
X142999564Y-103241000D01*
X142545436Y-104711000D02*
X142999564Y-104711000D01*
%TO.C,R10-A2-3*%
X142545436Y-88001000D02*
X142999564Y-88001000D01*
X142545436Y-89471000D02*
X142999564Y-89471000D01*
%TO.C,J3*%
X149680000Y-38940000D02*
X159720000Y-38940000D01*
X149680000Y-69660000D02*
X149680000Y-38940000D01*
X152700000Y-69660000D02*
X152700000Y-38940000D01*
X157600000Y-69660000D02*
X157600000Y-38940000D01*
X159100000Y-69660000D02*
X159100000Y-38940000D01*
X159720000Y-38940000D02*
X159720000Y-66700000D01*
X159720000Y-67300000D02*
X159720000Y-69660000D01*
X159720000Y-69660000D02*
X149680000Y-69660000D01*
X160330000Y-67440000D02*
X159720000Y-67000000D01*
X160330000Y-66560000D01*
X160330000Y-67440000D01*
G36*
X160330000Y-67440000D02*
G01*
X159720000Y-67000000D01*
X160330000Y-66560000D01*
X160330000Y-67440000D01*
G37*
D14*
%TO.C,LS1-Buzzer1*%
X135100000Y-62800000D02*
X135100000Y-62800000D01*
X135100000Y-62800000D02*
X135100000Y-66300000D01*
X135100000Y-66300000D02*
X135100000Y-62800000D01*
X135100000Y-66300000D02*
X135100000Y-66300000D01*
X137700000Y-60200000D02*
X137700000Y-60200000D01*
X137700000Y-60200000D02*
X141200000Y-60200000D01*
X137700000Y-68900000D02*
X137700000Y-68900000D01*
X137700000Y-68900000D02*
X141200000Y-68900000D01*
X141200000Y-60200000D02*
X137700000Y-60200000D01*
X141200000Y-60200000D02*
X141200000Y-60200000D01*
X141200000Y-68900000D02*
X137700000Y-68900000D01*
X141200000Y-68900000D02*
X141200000Y-68900000D01*
X143800000Y-62800000D02*
X143800000Y-62800000D01*
X143800000Y-62800000D02*
X143800000Y-66300000D01*
X143800000Y-66300000D02*
X143800000Y-62800000D01*
X143800000Y-66300000D02*
X143800000Y-66300000D01*
D10*
X145050000Y-68150000D02*
X145050000Y-68150000D01*
X145050000Y-68150000D02*
X145050000Y-68150000D01*
X145050000Y-68250000D02*
X145050000Y-68250000D01*
X145050000Y-68150000D02*
G75*
G02*
X145050000Y-68250000I0J-50000D01*
G01*
X145050000Y-68250000D02*
G75*
G02*
X145050000Y-68150000I0J50000D01*
G01*
X145050000Y-68250000D02*
G75*
G02*
X145050000Y-68150000I0J50000D01*
G01*
D13*
%TO.C,R6-SCL1*%
X118620436Y-95771000D02*
X119074564Y-95771000D01*
X118620436Y-97241000D02*
X119074564Y-97241000D01*
%TO.C,R12-Opto-PullUp1*%
X70892936Y-52605000D02*
X71347064Y-52605000D01*
X70892936Y-54075000D02*
X71347064Y-54075000D01*
%TO.C,C4*%
X131785000Y-83749252D02*
X131785000Y-83226748D01*
X133255000Y-83749252D02*
X133255000Y-83226748D01*
%TO.C,J2*%
X56870000Y-100715000D02*
X56870000Y-70125000D01*
X59630000Y-70125000D02*
X56870000Y-70125000D01*
X59630000Y-100715000D02*
X56870000Y-100715000D01*
X59630000Y-100715000D02*
X59630000Y-70125000D01*
X59630000Y-101985000D02*
X59630000Y-103365000D01*
X59630000Y-103365000D02*
X58250000Y-103365000D01*
%TO.C,C5*%
X131785000Y-78987252D02*
X131785000Y-78464748D01*
X133255000Y-78987252D02*
X133255000Y-78464748D01*
%TO.C,R11-Opto-In1*%
X83227064Y-47515000D02*
X82772936Y-47515000D01*
X83227064Y-48985000D02*
X82772936Y-48985000D01*
D11*
%TO.C,U2*%
X124025000Y-96254700D02*
X124025000Y-96479700D01*
X124025000Y-96254700D02*
X127275000Y-96254700D01*
X124025000Y-99504700D02*
X124025000Y-99279700D01*
X124025000Y-99504700D02*
X127275000Y-99504700D01*
X127275000Y-96254700D02*
X127275000Y-96479700D01*
X127275000Y-99504700D02*
X127275000Y-99279700D01*
D13*
X123550000Y-96479700D02*
X123310000Y-96149700D01*
X123790000Y-96149700D01*
X123550000Y-96479700D01*
G36*
X123550000Y-96479700D02*
G01*
X123310000Y-96149700D01*
X123790000Y-96149700D01*
X123550000Y-96479700D01*
G37*
%TO.C,R17-A1-3*%
X142545436Y-77841000D02*
X142999564Y-77841000D01*
X142545436Y-79311000D02*
X142999564Y-79311000D01*
%TO.C,C1*%
X131785000Y-97512748D02*
X131785000Y-98035252D01*
X133255000Y-97512748D02*
X133255000Y-98035252D01*
%TO.C,R4-Common1*%
X90034564Y-73015000D02*
X89580436Y-73015000D01*
X90034564Y-74485000D02*
X89580436Y-74485000D01*
%TD*%
M02*
